<svg width="35" height="34" viewBox="0 0 35 34" fill="none" xmlns="http://www.w3.org/2000/svg">
<rect x="0.375" width="34" height="34" rx="17" fill="#D5EFE9"/>
<path d="M17.375 31.875C13.4299 31.875 9.64639 30.3078 6.85679 27.5182C4.06718 24.7286 2.5 20.9451 2.5 17C2.5 13.0549 4.06718 9.27139 6.85679 6.48179C9.64639 3.69218 13.4299 2.125 17.375 2.125C21.3201 2.125 25.1036 3.69218 27.8932 6.48179C30.6828 9.27139 32.25 13.0549 32.25 17C32.25 20.9451 30.6828 24.7286 27.8932 27.5182C25.1036 30.3078 21.3201 31.875 17.375 31.875ZM17.375 34C21.8837 34 26.2077 32.2089 29.3958 29.0208C32.5839 25.8327 34.375 21.5087 34.375 17C34.375 12.4913 32.5839 8.1673 29.3958 4.97919C26.2077 1.79107 21.8837 0 17.375 0C12.8663 0 8.5423 1.79107 5.35419 4.97919C2.16607 8.1673 0.375 12.4913 0.375 17C0.375 21.5087 2.16607 25.8327 5.35419 29.0208C8.5423 32.2089 12.8663 34 17.375 34Z" fill="#70BFCB"/>
<path d="M23.2011 11.7599C23.1862 11.7735 23.1722 11.7879 23.1593 11.8031L15.893 20.4876L11.5139 16.3779C11.2165 16.1179 10.823 15.9764 10.4165 15.9831C10.01 15.9898 9.6221 16.1443 9.3346 16.414C9.0471 16.6837 8.88242 17.0475 8.87524 17.4288C8.86807 17.8102 9.01897 18.1792 9.29615 18.4582L14.8322 23.6532C14.9813 23.7928 15.1589 23.9029 15.3544 23.9767C15.5498 24.0506 15.7592 24.0868 15.9698 24.0831C16.1805 24.0795 16.3883 24.036 16.5807 23.9554C16.7731 23.8748 16.9462 23.7587 17.0897 23.614L25.4419 13.8207C25.7263 13.5407 25.8818 13.1669 25.8748 12.7802C25.8677 12.3935 25.6988 12.025 25.4044 11.7542C25.11 11.4835 24.7138 11.3323 24.3015 11.3334C23.8892 11.3344 23.4939 11.4877 23.2011 11.7599Z" fill="#70BFCB"/>
</svg>
