<svg width="222" height="208" viewBox="0 0 222 208" fill="none" xmlns="http://www.w3.org/2000/svg">
<g clip-path="url(#clip0_383_5439)">
<path d="M205.218 159.126L215.177 160.685C218.548 156.596 220.872 151.745 221.946 146.552C214.664 152.524 203.59 149.351 194.76 152.611C192.013 153.649 189.535 155.292 187.509 157.42C185.483 159.548 183.961 162.105 183.056 164.902L178.189 170.148C182.595 171.895 187.326 172.665 192.057 172.404C196.789 172.143 201.407 170.857 205.595 168.636C207.932 167.367 210.1 165.808 212.048 163.996C208.563 161.797 205.218 159.126 205.218 159.126Z" fill="#F2F2F2"/>
<path d="M201.682 143.17L211.29 140.116C212.487 134.95 212.407 129.57 211.057 124.442C207.198 133.04 195.873 135.148 189.421 142.011C187.425 144.167 185.939 146.745 185.073 149.555C184.207 152.364 183.983 155.333 184.418 158.241L182.397 165.11C187.118 164.706 191.696 163.281 195.814 160.934C199.933 158.586 203.494 155.372 206.254 151.513C207.78 149.333 209.027 146.969 209.963 144.477C205.866 144.066 201.682 143.17 201.682 143.17Z" fill="#F2F2F2"/>
<path d="M222 173.325C222 173.377 221.99 173.428 221.971 173.475C221.951 173.523 221.922 173.566 221.886 173.603C221.849 173.639 221.806 173.668 221.759 173.688C221.711 173.707 221.66 173.717 221.609 173.717H0.39099C0.287294 173.717 0.187842 173.676 0.114518 173.602C0.0411929 173.529 0 173.429 0 173.325C0 173.222 0.0411929 173.122 0.114518 173.048C0.187842 172.975 0.287294 172.934 0.39099 172.934H221.609C221.66 172.934 221.711 172.944 221.759 172.963C221.806 172.983 221.849 173.012 221.886 173.048C221.922 173.084 221.951 173.128 221.971 173.175C221.99 173.223 222 173.274 222 173.325Z" fill="#CCCCCC"/>
<path d="M91.6683 156.627C130.682 156.627 162.309 124.944 162.309 85.8618C162.309 46.7791 130.682 15.0964 91.6683 15.0964C52.6543 15.0964 21.0273 46.7791 21.0273 85.8618C21.0273 124.944 52.6543 156.627 91.6683 156.627Z" fill="#E6E6E6"/>
<path d="M152.452 85.8618C152.459 95.3631 150.244 104.734 145.983 113.223C141.723 121.711 135.536 129.082 127.919 134.743C127.409 135.124 126.89 135.496 126.368 135.858C116.182 142.951 104.073 146.753 91.6683 146.753C79.2631 146.753 67.1548 142.951 56.9687 135.858C56.4463 135.496 55.9272 135.124 55.4179 134.743C47.8059 129.077 41.6228 121.705 37.3628 113.218C33.1028 104.73 30.8842 95.3618 30.8842 85.8618C30.8842 76.3618 33.1028 66.9936 37.3628 58.506C41.6228 50.0184 47.8059 42.647 55.4179 36.981C55.9272 36.5992 56.4463 36.2273 56.9687 35.8652C67.1548 28.7723 79.2631 24.9706 91.6683 24.9706C104.073 24.9706 116.182 28.7723 126.368 35.8652C126.89 36.2273 127.409 36.5992 127.919 36.981C135.536 42.642 141.723 50.0124 145.983 58.5011C150.244 66.9898 152.459 76.3605 152.452 85.8618Z" fill="white"/>
<path d="M91.6683 141.487C122.335 141.487 147.195 116.583 147.195 85.8618C147.195 55.141 122.335 30.2369 91.6683 30.2369C61.0015 30.2369 36.1412 55.141 36.1412 85.8618C36.1412 116.583 61.0015 141.487 91.6683 141.487Z" fill="#72B8C3"/>
<path opacity="0.2" d="M91.8131 30.3924C90.9714 30.3924 90.1348 30.4144 89.3022 30.4515C103.336 31.6869 116.377 38.2203 125.782 48.7279C135.187 59.2355 140.254 72.9317 139.955 87.0415C139.656 101.151 134.014 114.62 124.172 124.718C114.33 134.817 101.025 140.79 86.9508 141.428C88.5535 141.567 90.1744 141.642 91.8131 141.642C106.54 141.642 120.663 135.782 131.077 125.35C141.49 114.918 147.34 100.77 147.34 86.0173C147.34 71.2647 141.49 57.1162 131.077 46.6845C120.663 36.2528 106.54 30.3924 91.8131 30.3924V30.3924Z" fill="black"/>
<path d="M91.8325 26.2872C91.3535 26.288 90.8944 26.479 90.5557 26.8183C90.2169 27.1576 90.0263 27.6176 90.0255 28.0974V35.9968C90.0255 36.477 90.2158 36.9374 90.5547 37.2769C90.8936 37.6164 91.3533 37.8071 91.8325 37.8071C92.3118 37.8071 92.7715 37.6164 93.1104 37.2769C93.4493 36.9374 93.6396 36.477 93.6396 35.9968V28.0974C93.6388 27.6176 93.4481 27.1576 93.1094 26.8183C92.7707 26.479 92.3116 26.288 91.8325 26.2872Z" fill="white"/>
<path d="M127.919 36.981C127.409 36.5992 126.89 36.2273 126.368 35.8652C126.054 35.8448 125.741 35.9065 125.459 36.0445C125.176 36.1825 124.935 36.3918 124.758 36.6519L120.319 43.1787C120.049 43.5755 119.948 44.0633 120.037 44.5349C120.127 45.0065 120.399 45.4232 120.795 45.6934C121.191 45.9636 121.678 46.0651 122.149 45.9756C122.62 45.8861 123.036 45.6129 123.306 45.2161L127.744 38.6893C127.913 38.4416 128.018 38.1556 128.048 37.8573C128.079 37.5589 128.034 37.2577 127.919 36.981Z" fill="white"/>
<path d="M148.086 66.742C147.997 66.5219 147.865 66.3216 147.698 66.1526C147.532 65.9835 147.334 65.849 147.115 65.7566C146.897 65.6643 146.662 65.6161 146.425 65.6146C146.188 65.6131 145.953 65.6584 145.733 65.748L138.426 68.7201C137.982 68.9011 137.629 69.2511 137.443 69.6932C137.257 70.1353 137.253 70.6333 137.434 71.0778C137.614 71.5223 137.963 71.8769 138.404 72.0637C138.845 72.2505 139.342 72.2542 139.786 72.0741L147.093 69.1019C147.537 68.92 147.89 68.5695 148.076 68.1272C148.262 67.6849 148.266 67.1868 148.086 66.742Z" fill="white"/>
<path d="M63.0176 43.1788L58.5787 36.6519C58.4018 36.3918 58.1603 36.1825 57.8779 36.0445C57.5956 35.9065 57.2822 35.8448 56.9687 35.8652C56.4463 36.2273 55.9272 36.5992 55.4179 36.981C55.3025 37.2577 55.2579 37.5589 55.2883 37.8573C55.3188 38.1556 55.4232 38.4416 55.5921 38.6893L60.0309 45.2161C60.3006 45.6129 60.7166 45.8861 61.1874 45.9756C61.6581 46.0651 62.1451 45.9636 62.5412 45.6934C62.9372 45.4232 63.2099 45.0065 63.2992 44.5349C63.3886 44.0633 63.2873 43.5755 63.0176 43.1788Z" fill="white"/>
<path d="M44.9105 68.7201L37.6032 65.748C37.1593 65.5674 36.6619 65.5708 36.2205 65.7575C35.7791 65.9443 35.4298 66.299 35.2494 66.7437C35.069 67.1884 35.0724 67.6867 35.2587 68.1289C35.4451 68.5711 35.7991 68.9211 36.243 69.1019L43.5502 72.074C43.9941 72.2542 44.4912 72.2505 44.9324 72.0637C45.3735 71.8769 45.7226 71.5222 45.9028 71.0778C46.0831 70.6333 46.0799 70.1353 45.8938 69.6932C45.7077 69.2511 45.354 68.9011 44.9105 68.7201V68.7201Z" fill="white"/>
<path d="M91.8325 133.917C91.3535 133.917 90.8944 134.108 90.5557 134.448C90.2169 134.787 90.0263 135.247 90.0255 135.727V143.626C90.0255 144.106 90.2158 144.567 90.5547 144.906C90.8936 145.246 91.3533 145.436 91.8325 145.436C92.3118 145.436 92.7715 145.246 93.1104 144.906C93.4493 144.567 93.6396 144.106 93.6396 143.626V135.727C93.6388 135.247 93.4481 134.787 93.1094 134.448C92.7707 134.108 92.3116 133.917 91.8325 133.917Z" fill="white"/>
<path d="M127.744 133.034L123.306 126.507C123.172 126.311 123.001 126.143 122.803 126.013C122.604 125.882 122.382 125.792 122.149 125.748C121.916 125.704 121.677 125.706 121.444 125.754C121.212 125.803 120.991 125.896 120.795 126.03C120.599 126.164 120.431 126.335 120.301 126.534C120.171 126.733 120.081 126.955 120.037 127.189C119.993 127.422 119.995 127.662 120.043 127.895C120.092 128.128 120.185 128.348 120.319 128.545L124.758 135.072C124.935 135.332 125.176 135.541 125.459 135.679C125.741 135.817 126.054 135.879 126.368 135.858C126.89 135.496 127.409 135.124 127.919 134.743C128.034 134.466 128.079 134.165 128.048 133.866C128.018 133.568 127.913 133.282 127.744 133.034Z" fill="white"/>
<path d="M147.094 102.622L139.786 99.6495C139.342 99.4689 138.845 99.4724 138.404 99.6591C137.962 99.8459 137.613 100.201 137.432 100.645C137.252 101.09 137.255 101.588 137.442 102.03C137.628 102.473 137.982 102.823 138.426 103.003L145.733 105.976C146.177 106.156 146.674 106.152 147.115 105.965C147.557 105.778 147.906 105.424 148.086 104.979C148.266 104.535 148.263 104.037 148.077 103.595C147.891 103.153 147.537 102.803 147.094 102.622V102.622Z" fill="white"/>
<path d="M62.5411 126.03C62.1451 125.76 61.6581 125.659 61.1874 125.748C60.7167 125.838 60.3007 126.111 60.0309 126.507L55.5921 133.034C55.4232 133.282 55.3188 133.568 55.2883 133.866C55.2579 134.165 55.3025 134.466 55.4179 134.743C55.9272 135.124 56.4463 135.496 56.9687 135.858C57.2822 135.879 57.5956 135.817 57.8779 135.679C58.1603 135.541 58.4018 135.332 58.5787 135.072L63.0176 128.545C63.1511 128.348 63.2448 128.128 63.2931 127.895C63.3414 127.662 63.3435 127.422 63.2993 127.189C63.2551 126.955 63.1653 126.733 63.0352 126.534C62.9052 126.335 62.7373 126.164 62.5411 126.03Z" fill="white"/>
<path d="M45.9027 100.644C45.8135 100.423 45.6818 100.223 45.5153 100.054C45.3487 99.8851 45.1506 99.7505 44.9321 99.6582C44.7136 99.5659 44.4791 99.5176 44.242 99.5161C44.0049 99.5147 43.7698 99.56 43.5502 99.6495L36.243 102.622C35.7994 102.803 35.4458 103.153 35.2597 103.595C35.0736 104.037 35.0704 104.535 35.2506 104.979C35.4309 105.424 35.78 105.778 36.2211 105.965C36.6622 106.152 37.1594 106.156 37.6032 105.976L44.9105 103.003C45.3538 102.822 45.7072 102.471 45.8931 102.029C46.0791 101.587 46.0826 101.088 45.9027 100.644Z" fill="white"/>
<path d="M94.1772 84.9636C94.3441 85.9531 94.1123 86.9685 93.5328 87.787C92.9533 88.6056 92.0733 89.1604 91.0859 89.3298L59.0188 94.794C58.5296 94.8774 58.0288 94.8634 57.5451 94.7529C57.0613 94.6423 56.604 94.4374 56.1992 94.1499C55.7945 93.8623 55.4503 93.4977 55.1862 93.0769C54.9221 92.656 54.7434 92.1872 54.6602 91.6972C54.577 91.2072 54.5909 90.7055 54.7013 90.2209C54.8116 89.7363 55.0161 89.2781 55.3032 88.8727C55.5902 88.4673 55.9542 88.1224 56.3743 87.8579C56.7944 87.5933 57.2624 87.4143 57.7516 87.3309L89.8187 81.8668C90.8064 81.6996 91.8201 81.9318 92.6372 82.5123C93.4543 83.0929 94.0081 83.9745 94.1772 84.9636Z" fill="#3F3D56"/>
<path d="M127.927 120.554C127.466 121.018 126.841 121.28 126.187 121.283C125.534 121.285 124.906 121.028 124.442 120.568L89.9223 86.2583C89.4591 85.7971 89.1976 85.1704 89.1953 84.5161C89.1931 83.8618 89.4502 83.2334 89.9102 82.7689C90.3703 82.3044 90.9955 82.0419 91.6487 82.039C92.3019 82.0361 92.9294 82.2931 93.3935 82.7535L127.913 117.063C128.377 117.524 128.638 118.151 128.641 118.806C128.643 119.46 128.387 120.089 127.927 120.554Z" fill="#3F3D56"/>
<path d="M91.6683 90.1407C94.0272 90.1407 95.9396 88.225 95.9396 85.8618C95.9396 83.4987 94.0272 81.583 91.6683 81.583C89.3093 81.583 87.3969 83.4987 87.3969 85.8618C87.3969 88.225 89.3093 90.1407 91.6683 90.1407Z" fill="#CCCCCC"/>
<path d="M62.2474 11.6663C55.691 21.9923 45.6874 28.8451 33.3504 33.347C33.1066 33.5299 32.8293 33.6629 32.5342 33.7385C32.2391 33.814 31.932 33.8306 31.6306 33.7872C31.3291 33.7439 31.0391 33.6414 30.7771 33.4858C30.5151 33.3302 30.2863 33.1244 30.1037 32.8802C23.4024 23.9168 24.9155 11.1064 33.7599 4.25741C35.8982 2.60442 38.3429 1.3934 40.9522 0.694635C43.5614 -0.00412501 46.2833 -0.176703 48.9597 0.186926C51.6361 0.550554 54.2137 1.44314 56.543 2.81287C58.8722 4.1826 60.9066 6.00219 62.5281 8.16599L62.7135 8.41391C62.8961 8.65812 63.0289 8.93596 63.1042 9.23158C63.1796 9.52719 63.1962 9.83479 63.1529 10.1368C63.1096 10.4388 63.0074 10.7293 62.852 10.9918C62.6967 11.2542 62.4912 11.4834 62.2474 11.6663Z" fill="#E6E6E6"/>
<path d="M120.808 8.16599C122.43 6.00218 124.464 4.1826 126.794 2.81287C129.123 1.44314 131.7 0.550555 134.377 0.186927C137.053 -0.176701 139.775 -0.00412862 142.384 0.694631C144.994 1.39339 147.438 2.60442 149.577 4.2574C158.421 11.1064 159.934 23.9168 153.233 32.8802C153.05 33.1244 152.821 33.3302 152.559 33.4858C152.297 33.6414 152.007 33.7439 151.706 33.7872C151.404 33.8306 151.097 33.814 150.802 33.7385C150.507 33.6629 150.23 33.5299 149.986 33.347C138.533 28.9545 129.141 21.3533 121.089 11.6663C120.597 11.2969 120.271 10.7467 120.184 10.1368C120.096 9.52685 120.254 8.9071 120.623 8.41389L120.808 8.16599Z" fill="#E6E6E6"/>
<path d="M117.935 147.17C117.517 147.405 117.209 147.797 117.079 148.259C116.949 148.72 117.007 149.215 117.24 149.634L127.669 168.304C127.903 168.723 128.294 169.031 128.755 169.162C129.216 169.292 129.71 169.234 130.129 168.999C130.547 168.765 130.855 168.374 130.985 167.912C131.115 167.45 131.057 166.955 130.823 166.536L120.394 147.866C120.159 147.448 119.769 147.14 119.308 147.009C118.847 146.879 118.353 146.937 117.935 147.17Z" fill="#E6E6E6"/>
<path d="M62.9424 147.866L52.5132 166.536C52.2793 166.955 52.2211 167.45 52.3514 167.912C52.4817 168.374 52.7898 168.765 53.208 168.999C53.6261 169.234 54.1201 169.292 54.5813 169.162C55.0425 169.031 55.4331 168.723 55.6672 168.304L66.0964 149.634C66.2123 149.427 66.2864 149.198 66.3142 148.962C66.3421 148.726 66.3232 148.487 66.2588 148.258C66.1943 148.029 66.0855 147.815 65.9385 147.629C65.7915 147.442 65.6092 147.286 65.4021 147.17C65.195 147.054 64.967 146.98 64.7313 146.952C64.4956 146.924 64.2567 146.943 64.0283 147.008C63.7999 147.072 63.5865 147.181 63.4002 147.329C63.2138 147.476 63.0583 147.659 62.9424 147.866H62.9424Z" fill="#E6E6E6"/>
<path d="M129.782 173.084C132.866 173.084 135.367 170.579 135.367 167.489C135.367 164.399 132.866 161.894 129.782 161.894C126.697 161.894 124.196 164.399 124.196 167.489C124.196 170.579 126.697 173.084 129.782 173.084Z" fill="#E6E6E6"/>
<path d="M133.724 29.9077C136.809 29.9077 139.31 27.4026 139.31 24.3123C139.31 21.2221 136.809 18.7169 133.724 18.7169C130.639 18.7169 128.139 21.2221 128.139 24.3123C128.139 27.4026 130.639 29.9077 133.724 29.9077Z" fill="#E6E6E6"/>
<path d="M91.3397 16.7421C94.4245 16.7421 96.9253 14.2369 96.9253 11.1467C96.9253 8.05642 94.4245 5.55127 91.3397 5.55127C88.2549 5.55127 85.7542 8.05642 85.7542 11.1467C85.7542 14.2369 88.2549 16.7421 91.3397 16.7421Z" fill="#E6E6E6"/>
<path d="M50.9265 29.2495C54.0113 29.2495 56.5121 26.7443 56.5121 23.6541C56.5121 20.5638 54.0113 18.0587 50.9265 18.0587C47.8417 18.0587 45.3409 20.5638 45.3409 23.6541C45.3409 26.7443 47.8417 29.2495 50.9265 29.2495Z" fill="#E6E6E6"/>
<path d="M54.5406 173.084C57.6255 173.084 60.1262 170.579 60.1262 167.489C60.1262 164.399 57.6255 161.894 54.5406 161.894C51.4558 161.894 48.9551 164.399 48.9551 167.489C48.9551 170.579 51.4558 173.084 54.5406 173.084Z" fill="#E6E6E6"/>
<path d="M125.4 117.407C125.62 117.752 125.913 118.045 126.259 118.265C126.604 118.484 126.993 118.625 127.399 118.678C127.805 118.731 128.217 118.694 128.607 118.569C128.997 118.445 129.354 118.237 129.655 117.959L138.42 122.663L137.95 117.509L129.699 113.831C129.199 113.356 128.543 113.081 127.855 113.058C127.167 113.035 126.494 113.266 125.964 113.707C125.434 114.147 125.084 114.767 124.98 115.449C124.876 116.131 125.026 116.828 125.4 117.407H125.4Z" fill="#FFB7B7"/>
<path d="M131.786 119.206L135.221 114.457L151.767 122.292L172.357 118.422C173.375 118.231 174.422 118.266 175.425 118.526C176.427 118.786 177.361 119.264 178.158 119.925C178.956 120.587 179.598 121.417 180.039 122.355C180.481 123.293 180.711 124.317 180.713 125.355C180.714 127.228 179.974 129.026 178.653 130.353C177.333 131.681 175.542 132.429 173.671 132.435L150.075 132.479L131.786 119.206Z" fill="#3F3D56"/>
<path d="M126.496 201.237L123.021 199.572L127.795 185.021L132.923 187.479L126.496 201.237Z" fill="#FFB7B7"/>
<path d="M149.793 198.891C149.541 199.05 149.288 199.206 149.033 199.362C148.525 199.674 148.012 199.98 147.499 200.282C147.241 200.433 146.981 200.584 146.723 200.732V200.74L146.707 200.742L146.702 200.745L146.309 200.842L145.745 199.349L145.485 198.661L145.117 197.687L144.443 195.904L140.895 186.52L146.411 185.157L146.618 186.004H146.621L146.723 186.423L148.65 194.253L149.043 195.853L149.056 195.902L149.293 196.858L149.497 197.687L149.724 198.612L149.793 198.891Z" fill="#FFB7B7"/>
<path d="M182.698 165.936C182.349 166.498 181.991 167.058 181.631 167.613C180.963 168.646 180.276 169.664 179.572 170.666C179.572 170.669 179.569 170.669 179.566 170.671C179.155 171.053 178.701 171.385 178.214 171.661C178.193 171.676 178.17 171.687 178.15 171.699C177.791 171.898 177.408 172.052 177.011 172.157C176.868 172.193 176.723 172.229 176.58 172.264C176.064 172.387 175.554 172.492 175.046 172.584C174.142 172.745 173.249 172.86 172.361 172.932C172.289 172.939 172.218 172.945 172.146 172.95C168.494 173.218 164.938 172.786 161.227 172.078C159.394 171.73 157.523 171.313 155.586 170.881C154.953 170.738 154.317 170.597 153.674 170.457C153.625 170.446 153.574 170.434 153.523 170.423C152.604 170.221 151.67 170.022 150.713 169.825C149.508 169.577 148.265 169.337 146.973 169.109L147.065 170.932C147.142 172.335 147.433 173.717 147.928 175.031C148.479 176.647 148.916 177.926 147.994 180.588L147.55 181.876C147.781 182.516 147.86 183.201 147.781 183.877C147.703 184.552 147.469 185.201 147.098 185.771L147.009 185.906L150.713 195.293L150.953 195.901H149.056L146.723 195.904H142.769L137.065 184.438L136.791 183.891V183.863L137.381 161.829C137.389 161.635 137.404 161.438 137.43 161.244C137.534 160.36 137.812 159.506 138.249 158.732C138.686 157.958 139.273 157.278 139.974 156.733C140.647 156.207 141.417 155.819 142.241 155.594C143.064 155.368 143.924 155.309 144.771 155.419L146.723 155.672L150.713 156.189L153.523 156.554L153.579 156.562L161.867 157.636L162.462 155.207L162.572 155.166L166.061 153.885L178.129 149.453L178.16 149.443L178.954 149.152L179.048 149.305C179.076 149.351 179.104 149.397 179.13 149.443C179.915 150.852 180.553 152.338 181.037 153.877C181.849 156.391 182.518 158.95 183.04 161.54C183.063 161.653 183.084 161.755 183.102 161.847L183.109 161.875C183.117 161.919 183.122 161.947 183.125 161.955C183.403 163.115 183.209 164.532 182.698 165.936Z" fill="#2F2E41"/>
<path d="M183.208 157.816C183.17 157.652 183.121 157.486 183.07 157.325C182.665 156.105 182.193 154.908 181.656 153.74C181.053 152.41 180.331 150.986 179.471 149.444C179.055 148.697 178.607 147.921 178.128 147.115C177.888 146.711 177.639 146.299 177.38 145.88C177.37 145.86 177.359 145.841 177.347 145.823L177.273 145.701L165.333 147.301L160.886 147.897L160.621 150.117L160.557 150.666C160.554 150.666 160.554 150.666 160.557 150.669L160.378 152.167V152.17L160.141 154.149L160.12 154.146L153.522 153.29L146.722 152.408L143.07 151.935C142.223 151.824 141.363 151.883 140.54 152.109C139.716 152.335 138.946 152.722 138.273 153.249C137.572 153.794 136.985 154.473 136.548 155.248C136.111 156.022 135.833 156.876 135.728 157.759C135.705 157.938 135.69 158.123 135.683 158.304L132.237 166.484C130.175 171.376 128.861 176.552 128.341 181.836L125.814 189.929L126.174 189.962L131.53 190.461L132.944 190.594L136.058 186.04C136.413 185.521 136.749 184.987 137.063 184.439C137.58 183.546 138.04 182.62 138.439 181.668L145.175 165.609C145.696 165.699 146.212 165.784 146.722 165.865C149.083 166.249 151.35 166.562 153.522 166.804C160.585 167.594 166.701 167.655 172.145 166.985C173.674 166.799 175.152 166.553 176.579 166.249C177.102 166.139 177.619 166.02 178.128 165.893C178.248 165.865 178.366 165.837 178.483 165.806C179.538 165.534 180.508 165.001 181.304 164.255C182.1 163.51 182.697 162.577 183.039 161.541C183.449 160.341 183.507 159.048 183.208 157.816Z" fill="#2F2E41"/>
<path d="M127.606 198.861L123.847 197.056L123.257 196.772L122.315 199.088L115.74 200.538C115.415 200.61 115.121 200.783 114.901 201.034C114.682 201.285 114.548 201.599 114.519 201.931C114.491 202.263 114.569 202.596 114.743 202.88C114.916 203.165 115.176 203.386 115.484 203.512L121.909 206.138L123.949 204.3L123.448 206.767L125.868 207.757L128.52 199.301L127.606 198.861Z" fill="#2F2E41"/>
<path d="M150.713 195.293L150.953 195.901H150.713V195.293Z" fill="#2F2E41"/>
<path d="M149.403 196.031L145.464 197.399L144.845 197.613L145.803 199.923L142.149 205.588C141.969 205.868 141.882 206.198 141.902 206.531C141.922 206.864 142.047 207.181 142.261 207.438C142.474 207.694 142.763 207.875 143.086 207.955C143.409 208.034 143.749 208.008 144.057 207.881L150.467 205.218L150.624 202.474L152.002 204.58L154.417 203.578L150.362 195.7L149.403 196.031Z" fill="#2F2E41"/>
<path d="M182.225 161.52C181.991 161.52 181.761 161.463 181.554 161.354L160.764 150.471L160.524 149.486L160.072 146.369L160.078 146.339L162.055 137.208C162.019 137.129 161.943 137.001 161.857 136.856C160.975 135.357 158.288 130.798 163.415 124.519L172.416 114.007L180.142 113.674L180.23 113.785C182.295 116.382 183.689 119.45 184.285 122.717C184.882 125.984 184.664 129.347 183.65 132.509L182.846 147.063L183.708 150.002C184.213 151.729 184.129 153.575 183.471 155.25L183.669 160.009C183.677 160.204 183.645 160.399 183.576 160.581C183.507 160.764 183.402 160.931 183.267 161.072C183.133 161.213 182.971 161.325 182.792 161.402C182.613 161.479 182.42 161.519 182.225 161.52L182.225 161.52Z" fill="#3F3D56"/>
<path d="M164.192 173.523C164.544 173.314 164.846 173.031 165.077 172.693C165.308 172.355 165.463 171.97 165.529 171.566C165.596 171.161 165.573 170.747 165.463 170.353C165.353 169.958 165.157 169.593 164.89 169.282L169.889 160.671L164.73 160.962L160.774 169.095C160.283 169.578 159.985 170.225 159.939 170.914C159.892 171.602 160.098 172.284 160.52 172.829C160.941 173.375 161.547 173.747 162.224 173.875C162.901 174.003 163.601 173.877 164.192 173.523L164.192 173.523Z" fill="#FFB7B7"/>
<path d="M166.209 167.192L161.59 163.588L169.983 147.295L166.838 126.547C166.682 125.521 166.754 124.474 167.048 123.479C167.342 122.485 167.852 121.567 168.539 120.792C169.227 120.016 170.077 119.402 171.029 118.993C171.98 118.583 173.01 118.389 174.045 118.423C175.914 118.487 177.682 119.29 178.96 120.658C180.238 122.026 180.923 123.846 180.863 125.719L180.086 149.344L166.209 167.192Z" fill="#3F3D56"/>
<path d="M167.461 109.638V101.98C167.459 99.2589 168.537 96.6481 170.457 94.7224C172.376 92.7967 174.981 91.7139 177.698 91.7122C180.415 91.7104 183.021 92.7899 184.943 94.7131C186.866 96.6363 187.946 99.2457 187.948 101.967V101.98C189.754 105.749 188.624 107.541 187.948 109.638C187.948 110.004 187.803 110.354 187.545 110.612C187.287 110.87 186.937 111.016 186.573 111.016H168.837C168.472 111.016 168.123 110.871 167.865 110.612C167.607 110.354 167.462 110.004 167.461 109.638Z" fill="#2F2E41"/>
<path d="M174.346 110.519C178.581 110.519 182.014 107.08 182.014 102.837C182.014 98.5952 178.581 95.1562 174.346 95.1562C170.111 95.1562 166.678 98.5952 166.678 102.837C166.678 107.08 170.111 110.519 174.346 110.519Z" fill="#FFB7B7"/>
<path d="M182.371 104.851C182.301 104.84 182.232 104.825 182.162 104.814C180.966 104.602 179.77 104.393 178.578 104.177L178.468 101.469L177.023 103.895C173.728 104.99 170.644 104.371 167.744 103.004C166.787 102.549 165.859 102.037 164.964 101.469C165.208 99.9716 165.782 98.5475 166.646 97.3011C167.51 96.0548 168.641 95.0176 169.957 94.2655C170.066 94.2032 170.172 94.1483 170.282 94.0933C170.283 94.0933 170.283 94.0932 170.283 94.093C170.284 94.0928 170.284 94.0926 170.285 94.0922C170.285 94.0919 170.285 94.0915 170.285 94.091C170.286 94.0906 170.286 94.0901 170.286 94.0896C170.472 94.0017 170.662 93.9174 170.853 93.8405C172.342 93.2576 173.965 93.1099 175.535 93.4148C177.104 93.7196 178.555 94.4644 179.719 95.5626C182.06 97.8014 183.113 101.498 182.371 104.851Z" fill="#2F2E41"/>
</g>
<defs>
<clipPath id="clip0_383_5439">
<rect width="222" height="208" fill="white"/>
</clipPath>
</defs>
</svg>
