<?xml version="1.0" encoding="utf-8"?>
<!-- Generator: Adobe Illustrator 25.4.1, SVG Export Plug-In . SVG Version: 6.00 Build 0)  -->
<svg version="1.1" id="Capa_1" xmlns="http://www.w3.org/2000/svg" xmlns:xlink="http://www.w3.org/1999/xlink" x="0px" y="0px"
	 viewBox="0 0 35 34" style="enable-background:new 0 0 35 34;" xml:space="preserve">
<style type="text/css">
	.st0{fill:#D5EFE9;}
	.st1{fill:#70BFCB;}
</style>
<path class="st0" d="M17.4,0L17.4,0c9.4,0,17,7.6,17,17l0,0c0,9.4-7.6,17-17,17l0,0c-9.4,0-17-7.6-17-17l0,0C0.4,7.6,8,0,17.4,0z"/>
<path class="st1" d="M17.4,31.9c-3.9,0-7.7-1.6-10.5-4.4C4.1,24.7,2.5,20.9,2.5,17S4.1,9.3,6.9,6.5c2.8-2.8,6.6-4.4,10.5-4.4
	s7.7,1.6,10.5,4.4c2.8,2.8,4.4,6.6,4.4,10.5s-1.6,7.7-4.4,10.5S21.3,31.9,17.4,31.9z M17.4,34c4.5,0,8.8-1.8,12-5s5-7.5,5-12
	s-1.8-8.8-5-12c-3.2-3.2-7.5-5-12-5s-8.8,1.8-12,5c-3.2,3.2-5,7.5-5,12s1.8,8.8,5,12C8.5,32.2,12.9,34,17.4,34z"/>
<path class="st1" d="M19.5,17l4.5-4.5c0.6-0.6,0.6-1.5,0-2v0c-0.6-0.6-1.5-0.6-2,0L17.5,15L13,10.5c-0.6-0.6-1.5-0.6-2,0v0
	c-0.6,0.6-0.6,1.5,0,2l4.5,4.5L11,21.5c-0.6,0.6-0.6,1.5,0,2c0.6,0.6,1.5,0.6,2,0l4.5-4.5l4.5,4.5c0.6,0.6,1.5,0.6,2,0
	c0.6-0.6,0.6-1.5,0-2L19.5,17z"/>
</svg>
