<svg width="255" height="206" viewBox="0 0 255 206" fill="none" xmlns="http://www.w3.org/2000/svg">
<g clip-path="url(#clip0_383_5440)">
<path d="M145.269 182.243C143.506 179.769 141.119 177.959 138.118 177.282C135.501 176.691 132.81 176.792 130.15 176.812L96.5169 177.072C93.6364 177.094 90.8746 179.595 91.0084 182.592C91.1412 185.563 93.4293 188.135 96.5169 188.111C106.369 188.035 116.221 187.959 126.074 187.882C128.396 187.865 130.721 187.823 133.043 187.83C133.565 187.832 134.084 187.859 134.606 187.865C134.732 187.867 134.823 187.866 134.887 187.863C134.903 187.868 134.917 187.872 134.938 187.878C135.21 187.953 135.489 188.004 135.762 188.076C135.666 188.078 135.94 188.249 136.077 188.307C136.096 188.344 136.136 188.41 136.203 188.512C136.297 188.688 136.574 189.222 136.585 189.206C137.002 190.261 137.345 191.343 137.613 192.446C138.254 194.877 138.394 195.385 138.486 197.666C138.603 200.547 140.937 203.322 143.995 203.185C146.88 203.055 149.628 200.756 149.503 197.666C149.293 192.459 148.381 186.61 145.269 182.243Z" fill="#E6E6E6"/>
<path d="M98.494 194.698C97.8622 190.862 97.2426 187.024 96.5986 183.191C95.9452 179.302 94.6106 175.74 91.5901 173.188C90.783 172.506 89.9461 171.869 89.1058 171.234C88.8103 171.011 88.5152 170.788 88.2232 170.56C88.2058 170.546 88.1947 170.538 88.1795 170.526C88.1474 170.498 88.1089 170.465 88.0571 170.421C86.7982 169.354 85.5818 168.239 84.423 167.053C83.3941 166.001 82.41 164.903 81.4709 163.761C81.2362 163.475 81.0046 163.188 80.776 162.897C80.7366 162.847 80.5248 162.573 80.3853 162.394C80.2555 162.215 80.0183 161.891 79.9785 161.835C79.7114 161.456 79.449 161.074 79.1914 160.689C77.4369 158.055 75.9177 155.271 74.6514 152.37C74.5258 152.082 74.4032 151.793 74.2836 151.502C74.2515 151.413 74.2099 151.299 74.1548 151.147C73.8996 150.444 73.6449 149.741 73.4116 149.03C72.9159 147.519 72.4897 145.985 72.133 144.43C71.9567 143.661 71.7979 142.889 71.6568 142.113C71.584 141.714 71.5159 141.314 71.4525 140.914C71.4421 140.847 71.3802 140.415 71.3437 140.17C71.3168 139.925 71.2668 139.49 71.26 139.423C71.2197 139.019 71.1839 138.615 71.1526 138.21C71.0822 137.299 71.0346 136.387 71.0097 135.473C70.9674 133.85 70.9964 132.226 71.0968 130.602C71.154 129.69 71.2353 128.78 71.3355 127.872C71.3416 127.816 71.3463 127.771 71.3507 127.731C71.3567 127.691 71.3638 127.645 71.3722 127.587C71.4463 127.086 71.5243 126.584 71.6116 126.085C71.942 124.188 72.3717 122.309 72.8989 120.457C73.1486 119.581 73.4197 118.713 73.7124 117.851C73.8428 117.468 73.9774 117.087 74.1162 116.708C74.1071 116.732 74.5231 115.668 74.5287 115.632C76.1795 111.724 78.8796 108.161 78.8833 103.722C78.8858 100.716 76.3479 97.8366 73.3748 97.9755C71.8925 98.0314 70.4897 98.6618 69.4621 99.7337C68.4346 100.806 67.8624 102.235 67.8663 103.722C67.8663 103.789 67.866 103.847 67.8658 103.903C67.8381 103.996 67.8149 104.074 67.794 104.143C67.4721 104.844 67.0777 105.51 66.7244 106.194C65.7568 108.065 64.9309 109.997 64.1463 111.958C62.8619 115.15 61.8788 118.457 61.2099 121.833C59.7558 129.231 59.6429 136.831 60.8767 144.269C63.0124 157.313 70.0557 169.799 79.8475 178.192C80.6973 178.92 81.5678 179.624 82.4465 180.314C82.8101 180.599 83.1767 180.879 83.5452 181.158C83.7194 181.289 84.4409 181.859 84.1235 181.583C84.806 182.167 85.0933 182.46 85.2686 182.89C85.294 182.989 85.3286 183.124 85.3755 183.308C85.4991 183.793 85.6164 184.276 85.7139 184.768C86.5662 189.063 87.1586 193.43 87.8706 197.753C88.3599 200.724 92.0095 202.657 94.6467 201.767C97.7163 200.73 99.0183 197.881 98.494 194.698Z" fill="#E6E6E6"/>
<mask id="path-3-inside-1_383_5440" fill="white">
<path d="M145.826 205.839C143.513 205.845 141.291 204.931 139.649 203.298C138.007 201.665 137.079 199.447 137.068 197.129V190.833C130.489 191.571 107.961 191.4 101.503 190.36V196.877C101.486 199.193 100.556 201.408 98.9151 203.04C97.2744 204.671 95.0565 205.587 92.7449 205.587C90.4333 205.587 88.2155 204.671 86.5748 203.04C84.9341 201.408 84.0037 199.193 83.9864 196.877V184.082C75.2402 179.213 67.949 172.095 62.8653 163.46C57.7815 154.826 55.0895 144.989 55.0668 134.964C55.0668 117.775 62.8417 101.739 76.398 90.9701C85.2122 83.9443 95.9213 79.7189 107.15 78.8368C108.674 78.7171 110.207 78.6564 111.708 78.6564C116.993 78.6564 140.84 79.4745 146.824 81.1993L160.467 67.635C160.667 67.4329 160.923 67.2952 161.202 67.2395C161.481 67.1838 161.771 67.2126 162.033 67.3222C162.298 67.4277 162.524 67.6108 162.683 67.8476C162.842 68.0844 162.926 68.3639 162.923 68.6491V70.8058L165.58 68.1696C165.78 67.9673 166.036 67.8294 166.315 67.7736C166.593 67.7178 166.882 67.7466 167.145 67.8563C167.41 67.9617 167.636 68.1449 167.795 68.3818C167.954 68.6187 168.038 68.8983 168.036 69.1838V93.2841C174.882 99.468 180.099 107.248 183.227 115.936C186.354 124.623 187.294 133.95 185.964 143.088C184.633 152.227 181.074 160.896 175.6 168.326C170.126 175.757 162.908 181.72 154.585 185.687V197.129C154.573 199.447 153.645 201.665 152.003 203.298C150.361 204.931 148.139 205.845 145.826 205.839ZM137.756 190.05V197.129C137.773 199.262 138.631 201.301 140.143 202.804C141.654 204.306 143.697 205.149 145.826 205.149C147.955 205.149 149.998 204.306 151.509 202.804C153.021 201.301 153.879 199.262 153.896 197.129V185.251L154.093 185.157C163.432 180.717 171.361 173.77 176.998 165.087C184.181 154.008 187.169 140.717 185.419 127.622C183.67 114.527 177.3 102.492 167.461 93.6947L167.347 93.5918V69.1837C167.35 69.0354 167.307 68.89 167.224 68.7669C167.141 68.6438 167.023 68.549 166.885 68.4953C166.748 68.4366 166.596 68.4207 166.45 68.4498C166.304 68.479 166.17 68.5517 166.065 68.6586L162.234 72.4602V68.6491C162.237 68.5008 162.194 68.3553 162.111 68.2322C162.029 68.1092 161.911 68.0144 161.773 67.9607C161.635 67.9021 161.483 67.8864 161.337 67.9157C161.19 67.945 161.056 68.018 160.951 68.1251L147.016 81.9798L146.818 81.9177C141.256 80.1734 117.033 79.3463 111.708 79.3463C110.225 79.3463 108.71 79.4063 107.204 79.5247C96.1118 80.396 85.5328 84.57 76.8259 91.5106C63.4352 102.148 55.7553 117.986 55.7553 134.964C55.7782 144.9 58.4559 154.649 63.5103 163.197C68.5646 171.746 75.8112 178.783 84.4973 183.577L84.6749 183.675V196.877C84.6927 199.01 85.5507 201.049 87.0622 202.551C88.5737 204.053 90.6162 204.895 92.7449 204.895C94.8736 204.895 96.9161 204.053 98.4276 202.551C99.9391 201.049 100.797 199.01 100.815 196.877V189.534L101.223 189.611C107.026 190.705 131.462 190.877 137.367 190.101L137.756 190.05Z"/>
</mask>
<path d="M145.826 205.839C143.513 205.845 141.291 204.931 139.649 203.298C138.007 201.665 137.079 199.447 137.068 197.129V190.833C130.489 191.571 107.961 191.4 101.503 190.36V196.877C101.486 199.193 100.556 201.408 98.9151 203.04C97.2744 204.671 95.0565 205.587 92.7449 205.587C90.4333 205.587 88.2155 204.671 86.5748 203.04C84.9341 201.408 84.0037 199.193 83.9864 196.877V184.082C75.2402 179.213 67.949 172.095 62.8653 163.46C57.7815 154.826 55.0895 144.989 55.0668 134.964C55.0668 117.775 62.8417 101.739 76.398 90.9701C85.2122 83.9443 95.9213 79.7189 107.15 78.8368C108.674 78.7171 110.207 78.6564 111.708 78.6564C116.993 78.6564 140.84 79.4745 146.824 81.1993L160.467 67.635C160.667 67.4329 160.923 67.2952 161.202 67.2395C161.481 67.1838 161.771 67.2126 162.033 67.3222C162.298 67.4277 162.524 67.6108 162.683 67.8476C162.842 68.0844 162.926 68.3639 162.923 68.6491V70.8058L165.58 68.1696C165.78 67.9673 166.036 67.8294 166.315 67.7736C166.593 67.7178 166.882 67.7466 167.145 67.8563C167.41 67.9617 167.636 68.1449 167.795 68.3818C167.954 68.6187 168.038 68.8983 168.036 69.1838V93.2841C174.882 99.468 180.099 107.248 183.227 115.936C186.354 124.623 187.294 133.95 185.964 143.088C184.633 152.227 181.074 160.896 175.6 168.326C170.126 175.757 162.908 181.72 154.585 185.687V197.129C154.573 199.447 153.645 201.665 152.003 203.298C150.361 204.931 148.139 205.845 145.826 205.839ZM137.756 190.05V197.129C137.773 199.262 138.631 201.301 140.143 202.804C141.654 204.306 143.697 205.149 145.826 205.149C147.955 205.149 149.998 204.306 151.509 202.804C153.021 201.301 153.879 199.262 153.896 197.129V185.251L154.093 185.157C163.432 180.717 171.361 173.77 176.998 165.087C184.181 154.008 187.169 140.717 185.419 127.622C183.67 114.527 177.3 102.492 167.461 93.6947L167.347 93.5918V69.1837C167.35 69.0354 167.307 68.89 167.224 68.7669C167.141 68.6438 167.023 68.549 166.885 68.4953C166.748 68.4366 166.596 68.4207 166.45 68.4498C166.304 68.479 166.17 68.5517 166.065 68.6586L162.234 72.4602V68.6491C162.237 68.5008 162.194 68.3553 162.111 68.2322C162.029 68.1092 161.911 68.0144 161.773 67.9607C161.635 67.9021 161.483 67.8864 161.337 67.9157C161.19 67.945 161.056 68.018 160.951 68.1251L147.016 81.9798L146.818 81.9177C141.256 80.1734 117.033 79.3463 111.708 79.3463C110.225 79.3463 108.71 79.4063 107.204 79.5247C96.1118 80.396 85.5328 84.57 76.8259 91.5106C63.4352 102.148 55.7553 117.986 55.7553 134.964C55.7782 144.9 58.4559 154.649 63.5103 163.197C68.5646 171.746 75.8112 178.783 84.4973 183.577L84.6749 183.675V196.877C84.6927 199.01 85.5507 201.049 87.0622 202.551C88.5737 204.053 90.6162 204.895 92.7449 204.895C94.8736 204.895 96.9161 204.053 98.4276 202.551C99.9391 201.049 100.797 199.01 100.815 196.877V189.534L101.223 189.611C107.026 190.705 131.462 190.877 137.367 190.101L137.756 190.05Z" fill="#4E6E73"/>
<path d="M145.826 205.839L148.143 -684.158L145.825 -684.164L143.507 -684.158L145.826 205.839ZM137.068 197.129H-752.932V199.302L-752.922 201.476L137.068 197.129ZM137.068 190.833H1027.07V-804.576L37.862 -693.621L137.068 190.833ZM101.503 190.36L242.962 -688.326L-788.497 -854.379V190.36H101.503ZM101.503 196.877L991.479 203.536L991.503 200.207V196.877H101.503ZM83.9864 196.877H-806.014V200.207L-805.989 203.536L83.9864 196.877ZM83.9864 184.082H973.986V-339.107L516.846 -593.564L83.9864 184.082ZM55.0668 134.964H-834.933V135.968L-834.931 136.972L55.0668 134.964ZM76.398 90.9701L630 787.838L630.575 787.381L631.149 786.924L76.398 90.9701ZM107.15 78.8368L176.853 966.103L176.867 966.102L107.15 78.8368ZM146.824 81.1993L-99.6956 936.377L403.184 1081.34L774.324 712.344L146.824 81.1993ZM160.467 67.635L787.967 698.78L790.085 696.674L792.189 694.553L160.467 67.635ZM162.033 67.3222L-180.871 888.612L-174.222 891.388L-167.528 894.056L162.033 67.3222ZM162.923 68.6491L-727.041 60.6997L-727.077 64.6743V68.6491H162.923ZM162.923 70.8058H-727.077V2207.81L789.821 702.549L162.923 70.8058ZM165.58 68.1696L792.477 699.913L795.382 697.031L798.259 694.122L165.58 68.1696ZM167.145 67.8563L-176.254 888.939L-169.164 891.905L-162.024 894.747L167.145 67.8563ZM168.036 69.1838L-721.931 61.4273L-721.964 65.3054V69.1838H168.036ZM168.036 93.2841H-721.964V488.689L-428.542 753.734L168.036 93.2841ZM154.585 185.687L-228.316 -617.735L-735.415 -376.058V185.687H154.585ZM154.585 197.129L1044.57 201.478L1044.58 199.303V197.129H154.585ZM137.756 190.05H1027.76V-824.315L22.0066 -692.391L137.756 190.05ZM137.756 197.129H-752.244V200.752L-752.214 204.375L137.756 197.129ZM145.826 205.149V-684.851V205.149ZM153.896 197.129L1043.87 204.375L1043.9 200.752V197.129H153.896ZM153.896 185.251L-228.288 -618.512L-736.104 -377.049V185.251H153.896ZM154.093 185.157L-228.068 -618.617L-228.08 -618.611L-228.092 -618.606L154.093 185.157ZM176.998 165.087L923.464 649.74L923.62 649.499L923.777 649.257L176.998 165.087ZM167.461 93.6947L-427.737 755.389L-426.753 756.274L-425.767 757.156L167.461 93.6947ZM167.347 93.5918H-722.653V490.11L-427.851 755.286L167.347 93.5918ZM167.347 69.1837L-722.53 54.4012L-722.653 61.792V69.1837H167.347ZM166.885 68.4953L-183.638 886.562L-169.779 892.5L-155.727 897.966L166.885 68.4953ZM166.065 68.6586L792.978 700.387L797.963 695.44L802.87 690.414L166.065 68.6586ZM162.234 72.4602H-727.766V2209.54L789.147 704.189L162.234 72.4602ZM162.234 68.6491L-727.643 53.8724L-727.766 61.2602V68.6491H162.234ZM161.773 67.9607L-187.574 886.531L-174.293 892.199L-160.836 897.433L161.773 67.9607ZM160.951 68.1251L788.451 699.27L793.356 694.394L798.184 689.442L160.951 68.1251ZM147.016 81.9798L-119.499 931.138L393.342 1092.1L774.516 713.125L147.016 81.9798ZM146.818 81.9177L413.333 -767.241L413.235 -767.271L413.137 -767.302L146.818 81.9177ZM107.204 79.5247L176.9 966.792L176.934 966.789L176.969 966.786L107.204 79.5247ZM76.8259 91.5106L630.43 788.377L631.008 787.917L631.586 787.457L76.8259 91.5106ZM55.7553 134.964H-834.245V135.989L-834.242 137.014L55.7553 134.964ZM84.4973 183.577L516.269 -594.673L515.408 -595.151L514.546 -595.627L84.4973 183.577ZM84.6749 183.675H974.675V-340.351L516.446 -594.575L84.6749 183.675ZM84.6749 196.877H-805.325V200.58L-805.294 204.284L84.6749 196.877ZM100.815 196.877L990.784 204.284L990.815 200.58V196.877H100.815ZM100.815 189.534L265.499 -685.097L-789.185 -883.683V189.534H100.815ZM101.223 189.611L266.101 -684.983L266.004 -685.002L265.907 -685.02L101.223 189.611ZM137.367 190.101L21.6175 -692.34L21.5047 -692.325L21.3919 -692.31L137.367 190.101ZM143.507 -684.158C377.447 -684.768 601.725 -592.359 767.232 -427.764L-487.933 834.361C-319.142 1002.22 -90.4213 1096.46 148.145 1095.84L143.507 -684.158ZM767.232 -427.764C932.68 -263.229 1025.92 -40.0256 1027.06 192.781L-752.922 201.476C-751.762 438.919 -656.665 666.559 -487.933 834.361L767.232 -427.764ZM1027.07 197.129V190.833H-752.932V197.129H1027.07ZM37.862 -693.621C62.7122 -696.408 81.8563 -697.436 88.7628 -697.787C97.9223 -698.252 105.089 -698.455 109.37 -698.553C117.911 -698.747 124.468 -698.734 129.1 -698.682C133.52 -698.634 141.263 -698.496 151.756 -697.99C156.992 -697.737 166.085 -697.242 177.694 -696.286C186.311 -695.576 211.078 -693.459 242.962 -688.326L-39.9549 1069.05C14.8145 1077.86 60.6175 1079.68 65.9635 1079.94C82.7015 1080.75 97.6984 1081.08 109.38 1081.21C113.022 1081.25 171.537 1082.55 236.273 1075.29L37.862 -693.621ZM-788.497 190.36V196.877H991.503V190.36H-788.497ZM-788.472 190.217C-786.736 -41.7853 -693.55 -264.05 -528.667 -428.024L726.497 834.103C894.661 666.867 989.708 440.171 991.479 203.536L-788.472 190.217ZM-528.667 -428.024C-363.726 -592.055 -140.39 -684.413 92.7449 -684.413V1095.59C330.503 1095.59 558.274 1001.4 726.497 834.103L-528.667 -428.024ZM92.7449 -684.413C325.879 -684.413 549.215 -592.055 714.156 -428.024L-541.007 834.103C-372.784 1001.4 -145.012 1095.59 92.7449 1095.59V-684.413ZM714.156 -428.024C879.04 -264.05 972.225 -41.7853 973.961 190.217L-805.989 203.536C-804.218 440.171 -709.171 666.867 -541.007 834.103L714.156 -428.024ZM973.986 196.877V184.082H-806.014V196.877H973.986ZM516.846 -593.564C646.636 -521.319 754.612 -415.806 829.805 -288.097L-704.074 615.018C-618.714 759.996 -496.156 879.745 -348.873 961.727L516.846 -593.564ZM829.805 -288.097C904.989 -160.401 944.731 -15.0555 945.065 132.956L-834.931 136.972C-834.552 305.033 -789.426 470.053 -704.074 615.018L829.805 -288.097ZM945.067 134.964C945.067 391.488 827.183 631.193 630 787.838L-477.204 -605.898C-701.5 -427.714 -834.933 -155.939 -834.933 134.964H945.067ZM631.149 786.924C501.117 890.573 342.923 953.057 176.853 966.103L37.4466 -808.429C-151.081 -793.619 -330.693 -722.684 -478.353 -604.983L631.149 786.924ZM176.867 966.102C155.604 967.773 133.878 968.656 111.708 968.656V-811.344C86.5366 -811.344 61.7441 -810.339 37.4329 -808.428L176.867 966.102ZM111.708 968.656C102.989 968.656 96.5999 968.517 94.9079 968.48C92.1526 968.419 90.0349 968.354 88.5766 968.305C85.8881 968.215 82.5842 968.08 78.3549 967.839C75.4031 967.67 64.8979 967.062 50.0876 965.566C42.7616 964.826 28.5077 963.287 10.268 960.518C0.905632 959.098 -12.55 956.896 -28.7302 953.666C-43.7921 950.659 -68.9589 945.237 -99.6956 936.377L393.343 -773.978C337.296 -790.134 291.757 -797.144 277.359 -799.329C256.65 -802.472 239.51 -804.358 229.024 -805.417C207.895 -807.552 189.975 -808.688 179.653 -809.277C162.215 -810.271 136.903 -811.344 111.708 -811.344V968.656ZM774.324 712.344L787.967 698.78L-467.033 -563.51L-480.676 -549.946L774.324 712.344ZM792.189 694.553C667.871 819.824 508.914 905.379 335.473 940.011L-13.0685 -805.532C-187.067 -770.789 -346.537 -684.958 -471.256 -559.283L792.189 694.553ZM335.473 940.011C162.026 974.644 -17.7528 956.717 -180.871 888.612L504.938 -753.967C341.294 -822.292 160.937 -840.276 -13.0685 -805.532L335.473 940.011ZM-167.528 894.056C-334.243 827.599 -476.751 712.293 -576.513 563.518L901.879 -427.823C801.8 -577.071 658.839 -692.743 491.595 -759.412L-167.528 894.056ZM-576.513 563.518C-676.261 414.763 -728.638 239.483 -727.041 60.6997L1052.89 76.5986C1054.49 -102.756 1001.95 -278.594 901.879 -427.823L-576.513 563.518ZM-727.077 68.6491V70.8058H1052.92V68.6491H-727.077ZM789.821 702.549L792.477 699.913L-461.318 -563.573L-463.975 -560.937L789.821 702.549ZM798.259 694.122C673.886 819.831 514.704 905.694 340.991 940.464L-8.36171 -804.917C-182.633 -770.035 -342.327 -683.897 -467.1 -557.783L798.259 694.122ZM340.991 940.464C167.244 975.241 -12.8764 957.268 -176.254 888.939L510.543 -753.227C346.641 -821.775 165.942 -839.805 -8.36171 -804.917L340.991 940.464ZM-162.024 894.747C-328.812 828.352 -471.398 713.076 -571.229 564.308L906.82 -427.544C806.671 -576.786 663.631 -692.428 496.314 -759.034L-162.024 894.747ZM-571.229 564.308C-671.052 415.553 -723.489 240.248 -721.931 61.4273L1058 76.9403C1059.57 -102.452 1006.96 -278.316 906.82 -427.544L-571.229 564.308ZM-721.964 69.1838V93.2841H1058.04V69.1838H-721.964ZM-428.542 753.734C-530.353 661.77 -607.796 546.207 -654.172 417.372L1020.62 -185.501C967.994 -331.71 880.116 -462.834 764.614 -567.166L-428.542 753.734ZM-654.172 417.372C-700.545 288.547 -714.469 150.314 -694.754 14.8812L1066.68 271.295C1089.06 117.586 1073.25 -39.2997 1020.62 -185.501L-654.172 417.372ZM-694.754 14.8812C-675.038 -120.556 -622.266 -249.163 -540.973 -359.521L892.173 696.174C984.414 570.954 1044.3 425.009 1066.68 271.295L-694.754 14.8812ZM-540.973 -359.521C-459.672 -469.89 -352.322 -558.636 -228.316 -617.735L537.485 989.109C678.138 922.075 799.925 821.404 892.173 696.174L-540.973 -359.521ZM-735.415 185.687V197.129H1044.58V185.687H-735.415ZM-735.405 192.779C-734.267 -40.0204 -641.032 -263.225 -475.58 -427.764L779.585 834.361C948.321 666.555 1043.41 438.913 1044.57 201.478L-735.405 192.779ZM-475.58 -427.764C-310.071 -592.36 -85.7929 -684.767 148.143 -684.158L143.51 1095.84C382.072 1096.46 610.793 1002.22 779.585 834.361L-475.58 -427.764ZM-752.244 190.05V197.129H1027.76V190.05H-752.244ZM-752.214 204.375C-750.29 440.728 -655.246 667.096 -487.23 834.074L767.516 -428.467C932.509 -264.493 1025.84 -42.2043 1027.73 189.882L-752.214 204.375ZM-487.23 834.074C-319.157 1001.11 -91.65 1095.15 145.826 1095.15V-684.851C379.044 -684.851 602.466 -592.499 767.516 -428.467L-487.23 834.074ZM145.826 1095.15C383.3 1095.15 610.807 1001.11 778.882 834.074L-475.864 -428.467C-310.812 -592.5 -87.3904 -684.851 145.826 -684.851V1095.15ZM778.882 834.074C946.903 667.092 1041.94 440.721 1043.87 204.375L-736.075 189.882C-734.185 -42.1978 -640.861 -264.489 -475.864 -428.467L778.882 834.074ZM1043.9 197.129V185.251H-736.104V197.129H1043.9ZM536.08 989.014L536.277 988.92L-228.092 -618.606L-228.288 -618.512L536.08 989.014ZM536.253 988.932C694.353 913.762 828.322 796.278 923.464 649.74L-569.468 -319.566C-485.601 -448.739 -367.489 -552.328 -228.068 -618.617L536.253 988.932ZM923.777 649.257C1046.5 459.966 1097.42 233.147 1067.58 9.78628L-696.745 245.458C-723.083 48.2881 -678.141 -151.951 -569.781 -319.083L923.777 649.257ZM1067.58 9.78628C1037.75 -213.589 929.045 -419.233 760.69 -569.766L-425.767 757.156C-574.445 624.216 -670.406 442.643 -696.745 245.458L1067.58 9.78628ZM762.66 -567.999L762.545 -568.102L-427.851 755.286L-427.737 755.389L762.66 -567.999ZM1057.35 93.5918V69.1837H-722.653V93.5918H1057.35ZM1057.22 83.9663C1060.24 -97.6388 1007.66 -276.031 906.25 -427.157L-571.802 564.691C-673.05 413.811 -725.542 235.71 -722.53 54.4012L1057.22 83.9663ZM906.25 -427.157C804.853 -578.259 659.475 -694.864 489.498 -760.975L-155.727 897.966C-325.429 831.962 -470.57 715.546 -571.802 564.691L906.25 -427.157ZM517.408 -749.572C352.084 -820.409 169.15 -839.553 -7.32161 -804.421L340.222 941.321C164.042 976.395 -18.5885 957.282 -183.638 886.562L517.408 -749.572ZM-7.32161 -804.421C-183.797 -769.288 -345.294 -681.578 -470.739 -553.097L802.87 690.414C677.633 818.682 516.405 906.246 340.222 941.321L-7.32161 -804.421ZM-460.847 -563.07L-464.678 -559.268L789.147 704.189L792.978 700.387L-460.847 -563.07ZM1052.23 72.4602V68.6491H-727.766V72.4602H1052.23ZM1052.11 83.4259C1055.13 -98.2298 1002.52 -276.613 901.134 -427.696L-576.912 564.161C-678.133 413.323 -730.654 235.231 -727.643 53.8724L1052.11 83.4259ZM901.134 -427.696C799.742 -578.788 654.368 -695.398 484.381 -761.511L-160.836 897.433C-330.547 831.427 -475.685 715.007 -576.912 564.161L901.134 -427.696ZM511.119 -750.609C345.799 -821.164 162.961 -840.068 -13.3641 -804.77L336.037 940.601C160.005 975.841 -22.5293 956.968 -187.574 886.531L511.119 -750.609ZM-13.3641 -804.77C-189.71 -769.467 -351.018 -681.664 -476.281 -553.191L798.184 689.442C673.13 817.7 512.09 905.357 336.037 940.601L-13.3641 -804.77ZM-466.549 -563.02L-480.484 -549.165L774.516 713.125L788.451 699.27L-466.549 -563.02ZM413.531 -767.178L413.333 -767.241L-119.697 931.076L-119.499 931.138L413.531 -767.178ZM413.137 -767.302C348.821 -787.472 296.17 -795.69 282.225 -797.883C259.979 -801.383 241.658 -803.431 230.865 -804.542C208.953 -806.798 190.416 -807.973 180.067 -808.566C162.301 -809.583 136.87 -810.654 111.708 -810.654V969.346C102.986 969.346 96.6029 969.207 94.944 969.17C92.2092 969.11 90.1078 969.046 88.6557 968.997C85.9971 968.907 82.6375 968.771 78.2816 968.522C75.3486 968.354 64.2437 967.712 48.6041 966.102C40.9471 965.314 25.4726 963.616 5.63694 960.496C-4.52812 958.897 -19.5319 956.35 -37.6603 952.537C-54.2413 949.048 -83.5826 942.402 -119.501 931.138L413.137 -767.302ZM111.708 -810.654C86.5387 -810.654 61.7483 -809.648 37.4395 -807.737L176.969 966.786C155.672 968.461 133.912 969.346 111.708 969.346V-810.654ZM37.5079 -807.742C-150.889 -792.943 -330.378 -722.057 -477.935 -604.435L631.586 787.457C501.444 891.198 343.113 953.735 176.9 966.792L37.5079 -807.742ZM-476.778 -605.356C-700.878 -427.327 -834.245 -155.764 -834.245 134.964H945.755C945.755 391.737 827.748 631.624 630.43 788.377L-476.778 -605.356ZM-834.242 137.014C-833.854 305.523 -788.448 470.96 -702.603 616.155L829.624 -289.76C905.36 -161.662 945.411 -15.7233 945.753 132.913L-834.242 137.014ZM-702.603 616.155C-616.751 761.362 -493.525 881.113 -345.551 962.781L514.546 -595.627C645.148 -523.547 753.88 -417.87 829.624 -289.76L-702.603 616.155ZM-347.274 961.827L-347.097 961.926L516.446 -594.575L516.269 -594.673L-347.274 961.827ZM-805.325 183.675V196.877H974.675V183.675H-805.325ZM-805.294 204.284C-803.327 440.606 -708.266 666.934 -540.254 833.879L714.378 -428.777C879.368 -264.835 972.713 -42.5865 974.644 189.47L-805.294 204.284ZM-540.254 833.879C-372.178 1000.89 -144.693 1094.9 92.7449 1094.9V-685.104C325.925 -685.104 549.325 -592.781 714.378 -428.777L-540.254 833.879ZM92.7449 1094.9C330.183 1094.9 557.668 1000.89 725.744 833.879L-528.888 -428.777C-363.836 -592.781 -140.436 -685.104 92.7449 -685.104V1094.9ZM725.744 833.879C893.756 666.934 988.817 440.606 990.784 204.284L-789.154 189.47C-787.223 -42.5871 -693.878 -264.836 -528.888 -428.777L725.744 833.879ZM990.815 196.877V189.534H-789.185V196.877H990.815ZM-63.869 1064.17L-63.4611 1064.24L265.907 -685.02L265.499 -685.097L-63.869 1064.17ZM-63.6551 1064.21C-19.2966 1072.57 16.327 1075.69 26.7422 1076.6C42.6498 1077.99 55.9638 1078.75 64.6183 1079.18C82.1734 1080.04 97.7939 1080.38 109.52 1080.5C121.518 1080.64 135.747 1080.62 151.065 1080.26C152.798 1080.22 199.066 1079.65 253.342 1072.51L21.3919 -692.31C54.3919 -696.647 79.9197 -698.008 86.2131 -698.349C96.6212 -698.913 104.652 -699.143 109.024 -699.246C117.917 -699.456 124.567 -699.438 128.993 -699.389C133.147 -699.344 141.201 -699.211 152.358 -698.66C157.813 -698.391 168.22 -697.819 181.657 -696.645C189.602 -695.951 223.193 -693.072 266.101 -684.983L-63.6551 1064.21ZM253.117 1072.54L253.506 1072.49L22.0066 -692.391L21.6175 -692.34L253.117 1072.54Z" fill="#4E6E73" mask="url(#path-3-inside-1_383_5440)"/>
<path d="M99.152 41.0905L61.0263 52.5707C59.8137 52.9373 58.7959 53.7712 58.1965 54.8893C57.5971 56.0073 57.4652 57.318 57.8297 58.5335C58.1942 59.7489 59.0254 60.7697 60.1405 61.3715C61.2557 61.9733 62.5637 62.107 63.7772 61.7431L97.1413 51.6945L97.8403 51.484C97.9817 47.8753 98.9588 44.3489 100.694 41.1836C100.477 41.0854 100.244 41.0248 100.006 41.0042C99.7183 40.9764 99.4282 41.0057 99.152 41.0905Z" fill="#72B8C3"/>
<path d="M63.1178 64.1907C62.6117 64.1894 62.1188 64.0288 61.7088 63.7316C61.2987 63.4344 60.9922 63.0156 60.8326 62.5344L58.4485 55.3262C58.3489 55.0252 58.3095 54.7074 58.3325 54.3912C58.3555 54.0749 58.4404 53.7662 58.5825 53.4828C58.7245 53.1995 58.9209 52.9469 59.1604 52.7395C59.3999 52.5322 59.6778 52.3742 59.9782 52.2745L91.0086 41.9705C91.309 41.8708 91.6261 41.8313 91.9418 41.8543C92.2574 41.8773 92.5654 41.9623 92.8482 42.1046C93.1311 42.2469 93.3832 42.4436 93.5901 42.6835C93.7971 42.9234 93.9548 43.2018 94.0544 43.5028L96.4385 50.711C96.6368 51.3039 96.597 51.9509 96.3276 52.5149C96.0581 53.0789 95.5801 53.5156 94.9948 53.7326C94.9662 53.7434 94.9372 53.7536 94.908 53.7631L63.8783 64.0667C63.6331 64.1486 63.3763 64.1904 63.1178 64.1907Z" fill="#2F2E41"/>
<path d="M121.231 28.2891C114.968 28.2916 108.952 30.7356 104.456 35.104C99.9595 39.4725 97.3364 45.4224 97.1413 51.6945C97.1344 51.9394 97.131 52.1878 97.131 52.4361C97.131 57.212 98.5444 61.8805 101.193 65.8515C103.841 69.8225 107.604 72.9174 112.008 74.7451C116.412 76.5727 121.257 77.0509 125.932 76.1192C130.607 75.1875 134.901 72.8877 138.272 69.5107C141.642 66.1336 143.937 61.8311 144.867 57.147C145.797 52.4629 145.32 47.6078 143.496 43.1955C141.672 38.7832 138.583 35.0119 134.62 32.3586C130.657 29.7053 125.997 28.2891 121.231 28.2891ZM121.231 75.8933C115.024 75.8868 109.073 73.4133 104.684 69.0157C100.295 64.618 97.826 58.6554 97.8196 52.4361C97.8196 52.1153 97.8265 51.798 97.8403 51.4841C98.0267 46.8892 99.557 42.4505 102.241 38.7201C104.925 34.9897 108.644 32.132 112.936 30.5024C117.228 28.8729 121.903 28.5433 126.38 29.5548C130.858 30.5662 134.939 32.874 138.118 36.1912C141.297 39.5084 143.432 43.6887 144.259 48.2122C145.086 52.7357 144.567 57.4028 142.767 61.6333C140.968 65.8638 137.967 69.471 134.138 72.0064C130.309 74.5417 125.82 75.8934 121.231 75.8933Z" fill="#4E6E73"/>
<path d="M141.543 52.4362C141.543 57.834 139.403 63.0107 135.594 66.8275C131.784 70.6444 126.618 72.7886 121.231 72.7886C115.843 72.7886 110.677 70.6444 106.868 66.8275C103.058 63.0107 100.918 57.834 100.918 52.4362C100.918 51.7911 100.949 51.1564 101.008 50.5285C101.497 45.3191 103.97 40.4987 107.913 37.0682C111.857 33.6377 116.967 31.8607 122.184 32.1062C127.4 32.3517 132.322 34.6008 135.927 38.3865C139.532 42.1722 141.543 47.2037 141.543 52.4362Z" fill="#E6E6E6"/>
<path d="M127.28 53.7884C126.787 53.1398 126.14 52.626 125.396 52.2947C124.48 51.9077 123.533 51.5962 122.566 51.3633V45.8233C124.053 46.0479 125.447 46.6848 126.591 47.6619L127.713 45.2645C127.068 44.6883 126.327 44.2295 125.524 43.9088C124.634 43.5476 123.699 43.3075 122.745 43.1947V40.3868H120.146V43.2223C119.143 43.3353 118.174 43.661 117.306 44.1779C116.521 44.6431 115.861 45.2917 115.381 46.0682C114.923 46.8261 114.686 47.6971 114.696 48.583C114.652 49.5429 114.929 50.4902 115.485 51.2736C115.996 51.9519 116.671 52.4885 117.447 52.8328C118.378 53.2313 119.341 53.5509 120.325 53.7884V59.0973C118.571 58.9647 116.9 58.2965 115.536 57.1828L114.414 59.5837C115.176 60.2152 116.043 60.7079 116.975 61.0394C117.997 61.4056 119.064 61.6285 120.146 61.7017V64.4855H122.745V61.65C124.189 61.4919 125.543 60.8699 126.605 59.8769C127.072 59.4276 127.442 58.886 127.689 58.2862C127.937 57.6865 128.058 57.0417 128.044 56.3928C128.087 55.4634 127.818 54.5464 127.28 53.7884ZM120.325 50.7769C119.692 50.5845 119.103 50.2679 118.593 49.8455C118.391 49.6654 118.232 49.4427 118.126 49.1934C118.02 48.9441 117.97 48.6744 117.981 48.4036C117.962 47.7892 118.187 47.1924 118.607 46.7444C119.073 46.2742 119.674 45.9618 120.325 45.8509V50.7769ZM124.198 58.1176C123.759 58.5689 123.187 58.8675 122.566 58.9696V54.4024C123.16 54.5619 123.715 54.84 124.198 55.2199C124.382 55.3768 124.527 55.573 124.624 55.7939C124.722 56.0149 124.768 56.255 124.76 56.4963C124.783 57.0883 124.583 57.6675 124.198 58.1176Z" fill="#72B8C3"/>
<path d="M64.2244 93.4047C63.6921 93.4039 63.1751 93.2271 62.7534 92.9018C62.3316 92.5764 62.0288 92.1208 61.8919 91.6055L60.5939 86.683C60.4314 86.0642 60.5205 85.4062 60.8416 84.8532C61.1627 84.3002 61.6896 83.8974 62.3067 83.7331L103.256 72.8912C103.874 72.7297 104.53 72.8199 105.082 73.1422C105.634 73.4645 106.035 73.9926 106.2 74.611L107.299 78.7815L107.093 78.7975C96.591 79.6157 86.5426 83.4308 78.1366 89.7916L78.0769 89.8206L64.8358 93.3253C64.6362 93.378 64.4307 93.4047 64.2244 93.4047Z" fill="#2F2E41"/>
<path d="M57.4424 117.719C52.6389 117.008 48.0449 115.268 43.9734 112.617C41.9564 111.304 40.0891 109.774 38.4051 108.054C36.7429 106.355 35.1528 104.424 34.3295 102.162C33.5374 100.069 33.5783 97.7511 34.4436 95.6874C35.2971 93.6363 36.9275 92.0081 38.9773 91.1596C41.0394 90.3357 43.5308 90.2475 45.5377 91.1499C46.4941 91.5699 47.3216 92.2373 47.9354 93.0837C48.2207 93.4739 48.432 93.9133 48.5587 94.3801C48.6762 94.8031 48.6869 95.2487 48.5898 95.6768C48.4721 96.1043 48.2646 96.5015 47.9811 96.842C47.6976 97.1825 47.3448 97.4584 46.9462 97.651C46.069 98.1019 45.1186 98.3924 44.1396 98.5087C43.1549 98.6432 41.7404 98.7656 40.9488 97.9737C40.7859 97.817 40.6577 97.6276 40.5727 97.418C40.5132 97.2575 40.4928 97.085 40.5133 96.915C40.5018 96.99 40.5611 96.7521 40.5577 96.7616C40.5452 96.7967 40.4909 96.8824 40.568 96.7508C40.5921 96.7074 40.6189 96.6655 40.6483 96.6255C40.6221 96.6594 40.5646 96.716 40.6673 96.6189C40.7521 96.526 40.8611 96.4585 40.982 96.4242C41.0297 96.4103 41.078 96.3993 41.1258 96.3862C41.2473 96.3529 41.0047 96.388 41.129 96.384C41.1769 96.3825 41.2255 96.3837 41.2733 96.3815C41.3951 96.376 41.153 96.3482 41.2698 96.3776C41.3152 96.389 41.3601 96.4002 41.4048 96.4143C41.5019 96.445 41.336 96.3429 41.4018 96.4193C41.4789 96.5088 41.3208 96.3322 41.4085 96.4189C41.4521 96.4618 41.4932 96.5072 41.5316 96.5549C41.6837 96.7053 41.8887 96.7896 42.1023 96.7896C42.3159 96.7896 42.5209 96.7053 42.6729 96.5549C42.8198 96.4009 42.9017 96.1961 42.9017 95.9831C42.9017 95.7702 42.8198 95.5654 42.6729 95.4114C41.8772 94.4229 40.3053 94.6672 39.5003 95.5026C38.4736 96.5679 38.8802 98.2564 39.8788 99.186C41.0093 100.238 42.6105 100.312 44.0647 100.135C45.2937 100.017 46.4914 99.678 47.6002 99.134C48.7019 98.5915 49.5636 97.6588 50.0184 96.5164C50.2237 95.9067 50.2975 95.2602 50.2348 94.6198C50.1721 93.9794 49.9744 93.3597 49.6547 92.8016C48.3708 90.383 45.7122 89.143 43.0843 88.9283C41.7314 88.8221 40.3709 88.9858 39.0815 89.4099C37.7921 89.834 36.5994 90.5101 35.5726 91.3991C33.5933 93.1845 32.3745 95.6637 32.1682 98.3241C31.9389 101.082 33.0069 103.761 34.5642 105.987C36.1944 108.249 38.1398 110.265 40.341 111.973C44.6443 115.416 49.6921 117.801 55.0803 118.938C55.7212 119.071 56.3656 119.184 57.0134 119.279C57.2195 119.329 57.4369 119.298 57.6213 119.193C57.8058 119.089 57.9433 118.917 58.0061 118.714C58.0614 118.507 58.0333 118.287 57.9278 118.101C57.8223 117.915 57.648 117.778 57.4424 117.719L57.4424 117.719Z" fill="#4E6E73"/>
<path d="M134.35 82.5765C127.312 82.477 120.296 82.656 113.303 83.1134C110.912 83.2698 108.844 84.1164 108.844 85.5392C108.844 86.7288 110.896 88.1224 113.303 87.9649C120.293 87.5076 127.308 87.3286 134.35 87.428C140.09 87.5092 140.087 82.6577 134.35 82.5765Z" fill="#CCCCCC"/>
<path d="M123.948 87.1878C123.187 87.1878 105.32 87.1593 105.32 84.6865C105.32 82.2138 123.187 82.1854 123.948 82.1854C124.708 82.1854 142.575 82.2138 142.575 84.6865C142.575 87.1593 124.708 87.1878 123.948 87.1878ZM106.019 84.6865C106.508 85.4362 113.075 86.4978 123.948 86.4978C134.82 86.4978 141.387 85.4362 141.876 84.6865C141.388 83.9369 134.82 82.8753 123.948 82.8753C113.075 82.8753 106.508 83.9369 106.019 84.6865V84.6865Z" fill="#4E6E73"/>
<path d="M180.635 152.195C184.59 152.085 189.512 151.948 193.305 149.172C194.434 148.312 195.362 147.214 196.023 145.957C196.684 144.699 197.063 143.312 197.133 141.892C197.211 139.7 196.42 137.787 194.907 136.506C192.927 134.829 190.034 134.436 186.918 135.353L190.147 111.707L187.776 111.382L183.98 139.181L185.96 138.271C188.255 137.216 191.405 136.679 193.363 138.337C193.844 138.77 194.218 139.309 194.457 139.911C194.697 140.513 194.794 141.162 194.742 141.808C194.684 142.864 194.399 143.896 193.908 144.833C193.416 145.769 192.729 146.589 191.893 147.236C188.942 149.395 185.018 149.674 180.568 149.799L180.635 152.195Z" fill="#4E6E73"/>
<path d="M174.08 113.747H161.193V116.144H174.08V113.747Z" fill="#4E6E73"/>
<path d="M70.056 104.432C69.4823 104.43 68.9281 104.223 68.4925 103.849C68.057 103.475 67.7686 102.958 67.679 102.39L66.8924 97.3603C66.7942 96.7277 66.9504 96.0819 67.3268 95.5645C67.7033 95.0472 68.2692 94.7006 68.9003 94.6008L110.741 88.032C111.373 87.9336 112.017 88.0901 112.533 88.4673C113.05 88.8444 113.396 89.4114 113.495 90.0438L114.282 95.0739C114.38 95.7065 114.224 96.3524 113.847 96.8697C113.471 97.3871 112.905 97.7337 112.274 97.8334L70.433 104.402C70.3083 104.422 70.1822 104.432 70.056 104.432Z" fill="#2F2E41"/>
<path d="M52.7401 45.4843C62.4373 45.4843 70.2984 37.6077 70.2984 27.8914C70.2984 18.1752 62.4373 10.2986 52.7401 10.2986C43.0429 10.2986 35.1818 18.1752 35.1818 27.8914C35.1818 37.6077 43.0429 45.4843 52.7401 45.4843Z" fill="#72B8C3"/>
<path d="M62.6813 32.4435C63.2425 32.2468 63.7551 31.932 64.1847 31.5203C64.469 31.2268 64.6857 30.8745 64.8198 30.4882C64.9539 30.1019 65.0021 29.6909 64.961 29.284C64.9371 28.9939 64.8466 28.7134 64.6966 28.4642C64.5466 28.215 64.3411 28.0039 64.0961 27.8475C63.4607 27.456 62.621 27.4708 61.7733 27.8645L61.6754 20.9972L60.987 21.007L61.102 29.0803L61.6261 28.7359C62.2338 28.3371 63.1071 28.048 63.7354 28.4352C63.8908 28.5377 64.0204 28.6748 64.1144 28.8357C64.2083 28.9966 64.2639 29.177 64.2769 29.363C64.3059 29.6661 64.2693 29.972 64.1697 30.2597C64.0701 30.5475 63.9099 30.8103 63.6998 31.0304C62.9534 31.7724 61.8486 32.0211 60.5878 32.2485L60.7098 32.9274C61.3801 32.8254 62.0399 32.6635 62.6813 32.4435Z" fill="#2F2E41"/>
<path d="M68.7655 20.5151L65.0988 21.0715L65.2019 21.7536L68.8686 21.1972L68.7655 20.5151Z" fill="#2F2E41"/>
<path d="M57.1919 22.2709L53.5252 22.8273L53.6283 23.5094L57.295 22.953L57.1919 22.2709Z" fill="#2F2E41"/>
<path d="M64.3434 104.124C63.7119 104.123 63.0959 103.929 62.5771 103.568C62.0584 103.207 61.6616 102.697 61.4396 102.104L49.3336 69.62C47.854 65.636 48.012 61.2266 49.773 57.3592C51.534 53.4918 54.7542 50.4822 58.727 48.9908L68.5706 45.308C68.9512 45.1646 69.3564 45.098 69.7628 45.1122C70.1692 45.1263 70.5688 45.2208 70.9386 45.3903C71.3075 45.5555 71.6398 45.7926 71.9162 46.0879C72.1926 46.3832 72.4074 46.7308 72.5482 47.1102L94.9734 89.5344C95.119 89.917 95.1877 90.3246 95.1754 90.7338C95.1632 91.1431 95.0703 91.5458 94.9021 91.919C94.7339 92.2921 94.4937 92.6282 94.1954 92.908C93.897 93.1878 93.5464 93.4056 93.1637 93.5491L65.4263 103.927C65.08 104.057 64.7132 104.124 64.3434 104.124Z" fill="#2F2E41"/>
<path d="M65.5841 46.4252L87.8346 76.2384L72.7786 46.7381C72.6543 46.3939 72.4635 46.0776 72.2171 45.8073C71.9707 45.537 71.6736 45.318 71.3428 45.1628C71.0119 45.0075 70.6538 44.9191 70.2888 44.9026C69.9238 44.8861 69.5592 44.9418 69.2157 45.0665L65.5841 46.4252Z" fill="#E6E6E6"/>
<path d="M100.815 69.0666L61.0866 66.5024C60.4604 66.462 59.8483 66.2984 59.2852 66.021C58.7221 65.7435 58.219 65.3577 57.8047 64.8854C57.3905 64.4132 57.0731 63.8638 56.8707 63.2686C56.6683 62.6735 56.5849 62.0442 56.6252 61.4168C56.6656 60.7893 56.8289 60.176 57.1058 59.6118C57.3827 59.0476 57.7678 58.5435 58.2391 58.1284C58.7104 57.7133 59.2587 57.3953 59.8527 57.1925C60.4467 56.9898 61.0747 56.9062 61.7009 56.9466L101.429 59.5105C101.723 59.5294 102.009 59.606 102.273 59.736C102.537 59.8659 102.772 60.0466 102.966 60.2677C103.16 60.4889 103.309 60.7462 103.404 61.0249C103.498 61.3036 103.538 61.5983 103.519 61.8921L103.192 66.9731C103.154 67.5665 102.882 68.1205 102.436 68.5131C101.99 68.9057 101.407 69.1047 100.815 69.0666Z" fill="#72B8C3"/>
<path d="M90.199 70.7103C90.1465 70.7103 90.0939 70.7086 90.0412 70.7053L57.4185 68.5998C57.1026 68.5795 56.7939 68.497 56.5099 68.3571C56.2259 68.2172 55.9721 68.0226 55.7632 67.7844C55.5542 67.5462 55.3942 67.2692 55.2921 66.969C55.19 66.6688 55.148 66.3515 55.1684 66.035L55.7262 57.3565C55.7466 57.0401 55.8289 56.7307 55.9686 56.4462C56.1083 56.1616 56.3025 55.9074 56.5402 55.6981C56.7779 55.4887 57.0545 55.3284 57.3541 55.2261C57.6537 55.1239 57.9704 55.0818 58.2863 55.1022L90.9089 57.2075C91.5464 57.2493 92.1414 57.5428 92.5632 58.0237C92.985 58.5045 93.1992 59.1333 93.1589 59.7722L92.6011 68.4509C92.5704 68.9159 92.4064 69.3622 92.1287 69.7361C91.8511 70.11 91.4717 70.3957 91.036 70.5589C90.7683 70.6592 90.4848 70.7105 90.199 70.7103Z" fill="#2F2E41"/>
<path d="M52.5388 16.1925C54.8487 14.202 58.0207 15.9826 60.6696 15.6709C63.2039 15.3727 65.205 13.0949 65.7163 10.6751C66.3127 7.85199 64.8502 5.02362 62.6946 3.26344C60.3338 1.33562 57.2026 0.782191 54.2355 1.13885C50.8348 1.54763 47.7248 3.13593 44.9341 5.05706C42.2404 6.85399 39.7633 8.95717 37.5522 11.3247C35.5722 13.5157 33.8946 16.1274 33.3589 19.0758C32.8721 21.7552 33.2438 24.7244 34.8247 26.9943C35.663 28.1577 36.7864 29.085 38.0865 29.6868C39.442 30.3538 40.8881 30.8306 42.2014 31.5847C44.1871 32.7248 46.117 35.089 45.495 37.5493C45.3617 38.0867 45.0985 38.5831 44.7287 38.9947C44.2843 39.4889 43.4828 38.8358 43.9283 38.3402C44.7108 37.4699 44.68 36.3092 44.263 35.27C43.7671 34.0991 42.889 33.1317 41.7726 32.5262C40.3979 31.7386 38.8802 31.2525 37.4712 30.5352C36.1226 29.8799 34.9519 28.9079 34.0589 27.7018C32.3725 25.3537 31.8681 22.2977 32.2506 19.4708C32.6644 16.4115 34.2332 13.6316 36.1997 11.302C38.3398 8.76677 40.9686 6.62076 43.6542 4.69285C46.5358 2.62419 49.7195 0.875287 53.2424 0.242736C56.2963 -0.305588 59.6064 0.0319946 62.2768 1.69947C64.7695 3.25595 66.6809 5.93339 66.871 8.92519C66.9393 10.2864 66.6443 11.6413 66.0164 12.8504C65.3885 14.0595 64.4505 15.0791 63.2987 15.8043C62.1169 16.513 60.7429 16.8319 59.3705 16.7162C57.9033 16.6221 56.4347 16.1719 54.9581 16.2969C54.29 16.3375 53.6532 16.5953 53.1444 17.0311C52.6398 17.466 52.0383 16.6238 52.5388 16.1925V16.1925Z" fill="#2F2E41"/>
<path d="M254.59 206H0.409934C0.30142 206 0.19746 205.956 0.120839 205.879C0.0442192 205.802 0.00119019 205.698 0.00119019 205.589C0.00119019 205.481 0.0442192 205.376 0.120839 205.299C0.19746 205.222 0.30142 205.179 0.409934 205.179H254.59C254.699 205.179 254.803 205.222 254.88 205.299C254.957 205.376 255 205.48 255 205.589C255 205.698 254.957 205.803 254.88 205.88C254.803 205.957 254.699 206 254.59 206Z" fill="#4E6E73"/>
</g>
<defs>
<clipPath id="clip0_383_5440">
<rect width="255" height="206" fill="white"/>
</clipPath>
</defs>
</svg>
