<svg width="60" height="60" viewBox="0 0 60 60" fill="none" xmlns="http://www.w3.org/2000/svg">
<path d="M56.1699 42.5502C54.9208 41.2956 53.3478 40.4125 51.6263 39.9994C49.9048 39.5862 48.1024 39.6592 46.4199 40.2102L19.7899 13.5802C22.1399 6.79019 15.7899 -0.32981 8.78989 1.18019C8.54805 1.23081 8.33351 1.36917 8.18763 1.56859C8.04176 1.76801 7.97488 2.01438 7.99989 2.26019C8.02989 2.48702 8.12745 2.69956 8.27989 2.87019L12.2799 6.87019L11.0999 11.1002L6.82989 12.2402L2.82989 8.24019C2.61286 8.06559 2.33768 7.97982 2.05989 8.00019C1.84826 8.02119 1.64884 8.1091 1.49059 8.25117C1.33235 8.39323 1.22351 8.58205 1.17989 8.79019C-0.370114 15.7902 6.87989 22.2002 13.5999 19.7902L40.2099 46.4202C37.8499 53.2102 44.2099 60.3302 51.2099 58.8202C51.4517 58.7696 51.6663 58.6312 51.8121 58.4318C51.958 58.2324 52.0249 57.986 51.9999 57.7402C51.9699 57.5134 51.8723 57.3008 51.7199 57.1302L47.7199 53.1302L48.8999 48.9002L53.1699 47.7602L57.1699 51.7602C57.3704 51.9302 57.6182 52.0349 57.8799 52.0602V52.0602C58.1152 52.0645 58.3446 51.9856 58.5275 51.8374C58.7104 51.6893 58.8352 51.4813 58.8799 51.2502C59.1852 49.689 59.0973 48.0765 58.6242 46.5578C58.1511 45.039 57.3077 43.6618 56.1699 42.5502Z" fill="white"/>
<path d="M32.4799 22.65L37.3599 27.53C37.4528 27.6238 37.5634 27.6982 37.6853 27.7489C37.8072 27.7997 37.9379 27.8258 38.0699 27.8258C38.2019 27.8258 38.3326 27.7997 38.4545 27.7489C38.5763 27.6982 38.6869 27.6238 38.7799 27.53L46.1199 20.17C52.9999 22.61 60.3199 16.09 58.7499 9.00004C58.7063 8.79189 58.5974 8.60308 58.4392 8.46101C58.2809 8.31895 58.0815 8.23103 57.8699 8.21004C57.723 8.20013 57.5756 8.21981 57.4365 8.26791C57.2974 8.316 57.1693 8.39154 57.0599 8.49004L53.0599 12.49L48.6999 11.32L47.4899 7.00004L51.4899 3.00004C51.5886 2.89112 51.6636 2.76287 51.71 2.62342C51.7565 2.48398 51.7735 2.33639 51.7599 2.19004C51.7531 1.97188 51.6752 1.76193 51.538 1.5922C51.4008 1.42248 51.2118 1.30231 50.9999 1.25004C43.8599 -0.289965 37.4499 7.00003 39.8399 13.86L32.4799 21.23C32.3862 21.323 32.3118 21.4336 32.261 21.5555C32.2102 21.6773 32.1841 21.808 32.1841 21.94C32.1841 22.072 32.2102 22.2028 32.261 22.3246C32.3118 22.4465 32.3862 22.5571 32.4799 22.65V22.65Z" fill="white"/>
<path d="M22.6499 32.4804C22.5569 32.3866 22.4463 32.3122 22.3244 32.2615C22.2026 32.2107 22.0719 32.1846 21.9399 32.1846C21.8078 32.1846 21.6771 32.2107 21.5553 32.2615C21.4334 32.3122 21.3228 32.3866 21.2299 32.4804L13.3399 40.3704C3.99985 37.5604 -3.06015 49.0904 3.86985 56.1304C10.7999 63.1704 22.4799 56.0004 19.6399 46.6604L27.5299 38.7804C27.6236 38.6874 27.698 38.5768 27.7487 38.4549C27.7995 38.3331 27.8257 38.2024 27.8257 38.0704C27.8257 37.9384 27.7995 37.8077 27.7487 37.6858C27.698 37.5639 27.6236 37.4533 27.5299 37.3604L22.6499 32.4804ZM15.6499 48.5904L14.5499 52.7004C14.5046 52.8708 14.4151 53.0263 14.2904 53.1509C14.1657 53.2756 14.0103 53.3651 13.8399 53.4104L9.72985 54.5104C9.55529 54.5622 9.3699 54.5654 9.19367 54.5195C9.01744 54.4737 8.85707 54.3806 8.72985 54.2504L5.72985 51.2504C5.59958 51.1232 5.50651 50.9628 5.46069 50.7866C5.41487 50.6103 5.41804 50.4249 5.46985 50.2504L6.56985 46.1404C6.61509 45.9699 6.70459 45.8145 6.82928 45.6898C6.95397 45.5651 7.10942 45.4756 7.27985 45.4304L11.3899 44.3304C11.5644 44.2786 11.7498 44.2754 11.926 44.3212C12.1023 44.367 12.2626 44.4601 12.3899 44.5904L15.3899 47.5904C15.5201 47.7176 15.6132 47.878 15.659 48.0542C15.7048 48.2304 15.7017 48.4158 15.6499 48.5904V48.5904Z" fill="white"/>
</svg>
