<svg width="162" height="162" viewBox="0 0 162 162" fill="none" xmlns="http://www.w3.org/2000/svg">
<circle cx="81" cy="81" r="81" fill="#09427D"/>
<g clip-path="url(#clip0_1246_11150)" filter="url(#filter0_d_1246_11150)">
<path d="M114.452 53.5271C114.452 53.5271 114.452 53.527 114.452 53.5269L97.502 35.2373C97.5018 35.2372 97.5016 35.2371 97.5014 35.2371C97.5012 35.2371 97.501 35.237 97.5009 35.2369C96.4143 34.0684 94.8903 33.4049 93.2943 33.4063H51.3692C49.8472 33.4063 48.3881 34.0109 47.312 35.087C46.2359 36.1631 45.6312 37.6228 45.6312 39.1442V121.678C45.6312 123.2 46.2358 124.659 47.312 125.735C48.3881 126.812 49.8472 127.416 51.3692 127.416H51.3856L110.259 127.25C111.778 127.245 113.233 126.639 114.306 125.563C115.379 124.488 115.981 123.03 115.981 121.511V57.4348C115.983 55.9857 115.437 54.5904 114.452 53.5274C114.452 53.5273 114.452 53.5272 114.452 53.5271ZM104.245 50.9617C105.347 52.1502 104.504 54.0812 102.884 54.0812H97.3384C96.3129 54.0812 95.4815 53.2498 95.4815 52.2243V46.2443C95.4815 44.556 97.5521 43.7438 98.7 44.9818L104.245 50.9617ZM53.2322 121.679C52.2045 121.682 51.3697 120.85 51.3697 119.822V41.0006C51.3697 39.975 52.201 39.1437 53.2266 39.1437H87.8873C88.9129 39.1437 89.7442 39.975 89.7442 41.0006V56.9502C89.7442 57.7115 90.0465 58.4414 90.5843 58.9791C91.1226 59.5175 91.8525 59.8191 92.6132 59.8191H108.381C109.407 59.8191 110.238 60.6505 110.238 61.676V119.654C110.238 120.677 109.41 121.507 108.387 121.51L53.2322 121.679Z" fill="white"/>
<path fill-rule="evenodd" clip-rule="evenodd" d="M66.2294 74.7026C70.0628 70.8683 75.2624 68.7148 80.6843 68.7148C86.1041 68.7214 91.2997 70.8776 95.1319 74.7098C98.9642 78.5421 101.12 83.7376 101.127 89.1575C101.127 94.5787 98.9727 99.7781 95.1392 103.612C91.3057 107.446 86.106 109.599 80.6843 109.599C75.2626 109.599 70.063 107.446 66.2294 103.612C62.3958 99.7783 60.2423 94.5787 60.2423 89.1575C60.2423 83.7358 62.3958 78.5362 66.2294 74.7026ZM83.5609 80.3776V86.2952H89.4785C90.5035 86.2952 91.451 86.8421 91.9632 87.73C92.476 88.6179 92.476 89.7117 91.9632 90.599C91.451 91.4869 90.5034 92.0338 89.4785 92.0338H83.5609V97.9514C83.5609 98.9764 83.014 99.9233 82.1267 100.436C81.2388 100.948 80.145 100.948 79.2577 100.436C78.3698 99.9233 77.8229 98.9764 77.8229 97.9514V92.0338H71.9053C70.8803 92.0338 69.9328 91.4869 69.4206 90.599C68.9078 89.7118 68.9078 88.6179 69.4206 87.73C69.9328 86.8421 70.8804 86.2952 71.9053 86.2952H77.8229V80.3776C77.8229 79.3526 78.3698 78.4057 79.2577 77.8929C80.145 77.3807 81.2388 77.3807 82.1267 77.8929C83.014 78.4057 83.5609 79.3526 83.5609 80.3776Z" fill="white"/>
</g>
<defs>
<filter id="filter0_d_1246_11150" x="29.4553" y="33" width="102.701" height="102.701" filterUnits="userSpaceOnUse" color-interpolation-filters="sRGB">
<feFlood flood-opacity="0" result="BackgroundImageFix"/>
<feColorMatrix in="SourceAlpha" type="matrix" values="0 0 0 0 0 0 0 0 0 0 0 0 0 0 0 0 0 0 127 0" result="hardAlpha"/>
<feOffset dy="4"/>
<feGaussianBlur stdDeviation="2"/>
<feComposite in2="hardAlpha" operator="out"/>
<feColorMatrix type="matrix" values="0 0 0 0 0 0 0 0 0 0 0 0 0 0 0 0 0 0 0.25 0"/>
<feBlend mode="normal" in2="BackgroundImageFix" result="effect1_dropShadow_1246_11150"/>
<feBlend mode="normal" in="SourceGraphic" in2="effect1_dropShadow_1246_11150" result="shape"/>
</filter>
<clipPath id="clip0_1246_11150">
<rect width="94.7014" height="94.7014" fill="white" transform="translate(33.4553 33)"/>
</clipPath>
</defs>
</svg>
