<svg width="96" height="95" viewBox="0 0 96 95" fill="none" xmlns="http://www.w3.org/2000/svg">
<path d="M82.1074 20.5914L64.9247 2.24375H64.924C63.8225 1.07151 62.2776 0.40579 60.6595 0.407137H18.1595C16.6166 0.407137 15.1375 1.01366 14.0467 2.0932C12.9558 3.17271 12.3429 4.63695 12.3429 6.1632V88.9575C12.3429 90.4837 12.9558 91.9481 14.0467 93.0275C15.1375 94.107 16.6167 94.7136 18.1595 94.7136H18.1761L77.8572 94.5465C79.3968 94.5419 80.8719 93.9334 81.9593 92.8545C83.0469 91.7757 83.6571 90.314 83.6571 88.7898V24.5115C83.6591 23.0577 83.1054 21.6579 82.1069 20.5915L82.1074 20.5914ZM71.5373 17.7798C72.7343 19.0572 71.8286 21.1473 70.0779 21.1473H64.8768C63.7722 21.1473 62.8768 20.2519 62.8768 19.1473V13.5967C62.8768 11.7834 65.0963 10.906 66.3362 12.2292L71.5373 17.7798ZM20.1661 88.9577C19.0591 88.961 18.16 88.0646 18.16 86.9577V8.16266C18.16 7.05809 19.0554 6.16266 20.16 6.16266H55.0608C56.1653 6.16266 57.0608 7.05809 57.0608 8.16266V24.0253C57.0608 24.7891 57.3672 25.5212 57.9123 26.0606C58.4581 26.6007 59.198 26.9033 59.9691 26.9033H75.836C76.9405 26.9033 77.836 27.7988 77.836 28.9033V86.7896C77.836 87.8918 76.9442 88.7862 75.842 88.7895L20.1661 88.9577Z" fill="white"/>
<path fill-rule="evenodd" clip-rule="evenodd" d="M33.2235 41.8352C37.1095 37.9889 42.3804 35.8286 47.8766 35.8286C53.3707 35.8352 58.6375 37.9981 62.5223 41.8425C66.4071 45.6868 68.5929 50.8988 68.5995 56.3357C68.5995 61.774 66.4158 66.9898 62.5297 70.8362C58.6437 74.6818 53.3726 76.8421 47.8766 76.8421C42.3805 76.8421 37.1096 74.6818 33.2235 70.8362C29.3373 66.99 27.1543 61.774 27.1543 56.3357C27.1543 50.8969 29.3373 45.6809 33.2235 41.8352ZM50.7926 47.5279V53.4641H56.7914C57.8304 53.4641 58.791 54.0128 59.3102 54.9035C59.83 55.7942 59.83 56.8915 59.3102 57.7815C58.7909 58.6722 57.8304 59.2209 56.7914 59.2209H50.7926V65.1571C50.7926 66.1853 50.2382 67.1352 49.3388 67.6497C48.4387 68.1634 47.3299 68.1634 46.4305 67.6497C45.5304 67.1352 44.976 66.1853 44.976 65.1571V59.2209H38.9772C37.9382 59.2209 36.9776 58.6722 36.4584 57.7815C35.9386 56.8915 35.9386 55.7942 36.4584 54.9035C36.9777 54.0128 37.9382 53.4641 38.9772 53.4641H44.976V47.5279C44.976 46.4997 45.5304 45.5498 46.4305 45.0353C47.3298 44.5216 48.4387 44.5216 49.3388 45.0353C50.2382 45.5498 50.7926 46.4997 50.7926 47.5279Z" fill="white"/>
</svg>
