<svg width="128" height="128" viewBox="0 0 128 128" fill="none" xmlns="http://www.w3.org/2000/svg">
<path d="M25.6001 38.1339C30.312 38.1339 34.3336 36.4679 37.6662 33.1344C40.9999 29.8011 42.6669 25.7783 42.6669 21.0673C42.6669 16.3568 40.9999 12.334 37.6662 9.00027C34.3336 5.66699 30.3117 4 25.6001 4C20.8886 4 16.8668 5.66699 13.5335 9.00027C10.2004 12.334 8.53345 16.3559 8.53345 21.0673C8.53345 25.7792 10.2004 29.8011 13.5335 33.1344C16.8668 36.4669 20.8886 38.1339 25.6001 38.1339Z" fill="white"/>
<path d="M45.8998 64.7692C50.8999 69.7676 56.9325 72.2679 64.0002 72.2679C71.0681 72.2679 77.1005 69.7676 82.1003 64.7692C87.0994 59.7675 89.5998 53.7342 89.5998 46.6679C89.5998 39.6011 87.0994 33.5681 82.1003 28.5678C77.1005 23.5675 71.0681 21.0674 64.0002 21.0674C56.9325 21.0674 50.8994 23.568 45.8998 28.5678C40.9003 33.5674 38.3997 39.6004 38.3997 46.6679C38.3997 53.7354 40.9003 59.7682 45.8998 64.7692Z" fill="white"/>
<path d="M102.402 38.1339C107.112 38.1339 111.134 36.4679 114.467 33.1344C117.8 29.8011 119.466 25.7783 119.466 21.0673C119.466 16.3568 117.8 12.334 114.467 9.00027C111.134 5.66699 107.112 4 102.402 4C97.6887 4 93.6671 5.66699 90.3338 9.00027C87.0015 12.334 85.3347 16.3559 85.3347 21.0673C85.3347 25.7792 87.0017 29.8011 90.3338 33.1344C93.6671 36.4669 97.6887 38.1339 102.402 38.1339Z" fill="white"/>
<path d="M119.733 38.1348C119.467 38.1348 118.501 38.6015 116.834 39.5349C115.168 40.4686 113 41.4132 110.334 42.3689C107.669 43.3237 105.023 43.8017 102.402 43.8017C99.4228 43.8017 96.4694 43.291 93.535 42.2683C93.7556 43.9119 93.8675 45.379 93.8675 46.668C93.8675 52.8458 92.0672 58.5344 88.4656 63.7346C95.6671 63.9576 101.555 66.8014 106.134 72.2696H115.067C118.711 72.2696 121.778 71.3676 124.267 69.568C126.755 67.7693 128 65.1347 128 61.6685C128.001 45.9784 125.246 38.1338 119.733 38.1348Z" fill="white"/>
<path d="M109.77 92.0344C109.303 89.4341 108.713 87.0225 108.002 84.8009C107.291 82.5777 106.335 80.4124 105.137 78.3011C103.936 76.1916 102.558 74.3904 101.002 72.9008C99.4455 71.4113 97.5452 70.2239 95.3015 69.3338C93.0577 68.4451 90.5788 68.001 87.8683 68.001C87.4232 68.001 86.4682 68.479 85.0013 69.4347C83.5342 70.3895 81.9135 71.458 80.1349 72.6342C78.3567 73.8103 75.981 74.8779 73.0013 75.8337C70.0213 76.7894 67.0217 77.2674 64.0011 77.2674C60.9793 77.2674 57.9788 76.7894 55.0009 75.8337C52.0223 74.8779 49.6452 73.8103 47.8673 72.6342C46.089 71.458 44.4673 70.3895 43.0009 69.4347C41.5337 68.479 40.5787 68.001 40.1336 68.001C37.4229 68.001 34.9452 68.4451 32.7005 69.3338C30.4558 70.2239 28.556 71.4113 27.0006 72.9008C25.4439 74.3887 24.0674 76.1916 22.8665 78.3011C21.6669 80.4124 20.7114 82.5777 20.0002 84.8009C19.2892 87.0225 18.701 89.4341 18.2335 92.0344C17.7665 94.6347 17.4557 97.056 17.3002 99.3013C17.1444 101.546 17.0669 103.847 17.0669 106.202C17.0669 111.535 18.6886 115.747 21.9329 118.834C25.1784 121.922 29.4898 123.468 34.8665 123.468H93.1341C98.5112 123.468 102.822 121.922 106.068 118.834C109.313 115.747 110.935 111.535 110.935 106.202C110.935 103.847 110.857 101.547 110.703 99.3013C110.545 97.056 110.235 94.6345 109.77 92.0344Z" fill="white"/>
<path d="M39.533 63.7346C35.9329 58.5344 34.1332 52.8458 34.1339 46.668C34.1339 45.379 34.2453 43.9128 34.4672 42.2683C31.5334 43.2903 28.5779 43.8017 25.6 43.8017C22.9778 43.8017 20.3341 43.3239 17.667 42.3689C15.001 41.4132 12.8336 40.4686 11.1676 39.5349C9.50084 38.6015 8.53343 38.1348 8.267 38.1348C2.75559 38.135 0 45.9796 0 61.6685C0 65.1347 1.24458 67.7693 3.73304 69.568C6.2222 71.3676 9.28905 72.268 12.9324 72.268H21.8663C26.4446 66.8014 32.3327 63.9573 39.533 63.7346Z" fill="white"/>
</svg>
