<svg width="19" height="17" viewBox="0 0 19 17" fill="none" xmlns="http://www.w3.org/2000/svg">
<g clip-path="url(#clip0_13131_4679)">
<path d="M9 4C7.89543 4 7 4.89543 7 6C7 7.10457 7.89543 8 9 8C10.1046 8 11 7.10457 11 6C11 4.89543 10.1046 4 9 4ZM11.5 9L6.49998 9C5.67156 9 5 9.67161 5 10.5C5 11.6161 5.45897 12.5103 6.21215 13.1148C6.95342 13.7098 7.94692 14 9 14C10.0531 14 11.0466 13.7098 11.7879 13.1148C12.541 12.5103 13 11.6161 13 10.5C13 9.67157 12.3284 9 11.5 9Z" fill="white"/>
</g>
<path d="M8.5 15.9375C6.52745 15.9375 4.6357 15.1539 3.24089 13.7591C1.84609 12.3643 1.0625 10.4725 1.0625 8.5C1.0625 6.52745 1.84609 4.6357 3.24089 3.24089C4.6357 1.84609 6.52745 1.0625 8.5 1.0625C10.4725 1.0625 12.3643 1.84609 13.7591 3.24089C15.1539 4.6357 15.9375 6.52745 15.9375 8.5C15.9375 10.4725 15.1539 12.3643 13.7591 13.7591C12.3643 15.1539 10.4725 15.9375 8.5 15.9375ZM8.5 17C10.7543 17 12.9163 16.1045 14.5104 14.5104C16.1045 12.9163 17 10.7543 17 8.5C17 6.24566 16.1045 4.08365 14.5104 2.48959C12.9163 0.895533 10.7543 0 8.5 0C6.24566 0 4.08365 0.895533 2.48959 2.48959C0.895533 4.08365 0 6.24566 0 8.5C0 10.7543 0.895533 12.9163 2.48959 14.5104C4.08365 16.1045 6.24566 17 8.5 17V17Z" fill="white"/>
<rect x="13" y="3" width="5.5" height="5.5" rx="2.75" fill="white"/>
<path d="M15.75 8.15625C15.1118 8.15625 14.4998 7.90273 14.0485 7.45148C13.5973 7.00022 13.3438 6.38818 13.3438 5.75C13.3438 5.11182 13.5973 4.49978 14.0485 4.04852C14.4998 3.59726 15.1118 3.34375 15.75 3.34375C16.3882 3.34375 17.0002 3.59726 17.4515 4.04852C17.9027 4.49978 18.1562 5.11182 18.1562 5.75C18.1562 6.38818 17.9027 7.00022 17.4515 7.45148C17.0002 7.90273 16.3882 8.15625 15.75 8.15625ZM15.75 8.5C16.4793 8.5 17.1788 8.21027 17.6945 7.69454C18.2103 7.17882 18.5 6.47935 18.5 5.75C18.5 5.02065 18.2103 4.32118 17.6945 3.80546C17.1788 3.28973 16.4793 3 15.75 3C15.0207 3 14.3212 3.28973 13.8055 3.80546C13.2897 4.32118 13 5.02065 13 5.75C13 6.47935 13.2897 7.17882 13.8055 7.69454C14.3212 8.21027 15.0207 8.5 15.75 8.5V8.5Z" fill="white"/>
<path d="M16.6925 4.90232C16.6901 4.90451 16.6878 4.90684 16.6857 4.9093L15.5103 6.31414L14.8019 5.64934C14.7538 5.60728 14.6901 5.58438 14.6244 5.58547C14.5586 5.58656 14.4959 5.61155 14.4493 5.65517C14.4028 5.6988 14.3762 5.75766 14.375 5.81934C14.3739 5.88103 14.3983 5.94073 14.4431 5.98587L15.3387 6.82623C15.3628 6.84882 15.3915 6.86662 15.4231 6.87856C15.4548 6.89051 15.4886 6.89636 15.5227 6.89577C15.5568 6.89518 15.5904 6.88815 15.6215 6.87511C15.6526 6.86208 15.6806 6.84329 15.7039 6.81988L17.0549 5.23567C17.1009 5.19037 17.1261 5.12991 17.125 5.06736C17.1238 5.00481 17.0965 4.94519 17.0489 4.90139C17.0012 4.8576 16.9372 4.83314 16.8705 4.83331C16.8038 4.83349 16.7398 4.85827 16.6925 4.90232V4.90232Z" fill="#09427D"/>
<defs>
<clipPath id="clip0_13131_4679">
<rect width="8" height="11" fill="white" transform="translate(5 3)"/>
</clipPath>
</defs>
</svg>
