<svg width="32" height="32" viewBox="0 0 32 32" fill="none" xmlns="http://www.w3.org/2000/svg">
<path fill-rule="evenodd" clip-rule="evenodd" d="M17.5352 4.13042C17.0363 4.04467 16.5234 4 16 4C11.0295 4 7.00001 8.02944 7.00001 13V16.8074L5.07153 21.6286C4.94829 21.9367 4.98591 22.2859 5.17194 22.5606C5.35797 22.8354 5.66818 23 6 23H26C26.3318 23 26.642 22.8354 26.8281 22.5606C27.0141 22.2859 27.0517 21.9367 26.9285 21.6286L25 16.8074V13C25 12.4766 24.9553 11.9637 24.8696 11.4648C24.152 11.8079 23.3484 12 22.5 12C19.4624 12 17 9.53757 17 6.5C17 5.65156 17.1921 4.84799 17.5352 4.13042ZM12.1249 25C12.5665 26.7294 14.1289 28 16 28C17.8711 28 19.4335 26.7294 19.8751 25H12.1249Z" fill="white"/>
<circle cx="23" cy="6" r="4" fill="#C1212B"/>
</svg>
