<svg width="40" height="40" viewBox="0 0 40 40" fill="none" xmlns="http://www.w3.org/2000/svg">
<path d="M20 0C31.0457 0 40 8.9543 40 20C40 31.0457 31.0457 40 20 40C8.9543 40 0 31.0457 0 20C0 8.9543 8.9543 0 20 0ZM20 2.5C10.335 2.5 2.5 10.335 2.5 20C2.5 29.665 10.335 37.5 20 37.5C29.665 37.5 37.5 29.665 37.5 20C37.5 10.335 29.665 2.5 20 2.5ZM28.6339 13.6161C29.122 14.1043 29.122 14.8957 28.6339 15.3839L17.6339 26.3839C17.1457 26.872 16.3543 26.872 15.8661 26.3839L11.3661 21.8839C10.878 21.3957 10.878 20.6043 11.3661 20.1161C11.8543 19.628 12.6457 19.628 13.1339 20.1161L16.75 23.7322L26.8661 13.6161C27.3543 13.128 28.1457 13.128 28.6339 13.6161Z" fill="#09427D"/>
</svg>
