<svg width="32" height="32" viewBox="0 0 32 32" fill="none" xmlns="http://www.w3.org/2000/svg">
<rect width="32" height="32" rx="16" fill="#09427D"/>
<path d="M16.6205 8.21107C16.2572 7.92443 15.7448 7.92443 15.3815 8.21109L12.0735 10.8216C11.269 11.4564 11.3671 12.5641 12.016 13.1353L10.5524 14.3415C9.58874 15.1357 9.97866 16.6134 11.0621 16.9359L9.47619 18.4218C8.49036 19.3455 9.144 20.9991 10.495 20.9991H14V22.7491C14 23.4394 14.5597 23.9991 15.25 23.9991H16.75C17.4404 23.9991 18 23.4394 18 22.7491V20.9991H21.5038C22.8552 20.9991 23.5086 19.3444 22.5218 18.4211L20.9354 16.9368C22.021 16.6161 22.4126 15.1366 21.4483 14.3417L19.9856 13.1359C20.635 12.5648 20.7333 11.4566 19.9286 10.8216L16.6205 8.21107ZM17 20.9991V22.7491C17 22.8872 16.8881 22.9991 16.75 22.9991H15.25C15.112 22.9991 15 22.8872 15 22.7491V20.9991H17ZM16.001 8.99609L19.3091 11.6066C19.6761 11.8962 19.4792 12.4849 19.0179 12.4988C18.8098 12.5051 18.6273 12.6397 18.5599 12.8367C18.4925 13.0338 18.5543 13.2519 18.715 13.3844L20.8122 15.1133C21.1741 15.4116 20.9631 15.9991 20.4941 15.9991H19.7358C19.5305 15.9991 19.3461 16.1245 19.2707 16.3154C19.1953 16.5064 19.2443 16.724 19.3941 16.8642L21.8385 19.1513C22.1631 19.4549 21.9482 19.9991 21.5038 19.9991H10.495C10.0507 19.9991 9.83572 19.4553 10.1599 19.1515L12.6014 16.864C12.7511 16.7237 12.8 16.5061 12.7245 16.3153C12.6491 16.1245 12.4647 15.9991 12.2595 15.9991H11.5063C11.0373 15.9991 10.8264 15.4115 11.1883 15.1132L13.2861 13.3844C13.4468 13.252 13.5086 13.0339 13.4413 12.837C13.374 12.64 13.1917 12.5053 12.9837 12.4988C12.5228 12.4845 12.3262 11.8961 12.693 11.6066L16.001 8.99609Z" fill="white"/>
</svg>
