<svg width="38" height="38" viewBox="0 0 38 38" fill="none" xmlns="http://www.w3.org/2000/svg">
<path d="M19 0C29.4934 0 38 8.50659 38 19C38 29.4934 29.4934 38 19 38C8.50659 38 0 29.4934 0 19C0 8.50659 8.50659 0 19 0ZM19 2.5C9.8873 2.5 2.5 9.8873 2.5 19C2.5 28.1127 9.8873 35.5 19 35.5C28.1127 35.5 35.5 28.1127 35.5 19C35.5 9.8873 28.1127 2.5 19 2.5ZM17.75 7C18.3972 7 18.9295 7.49188 18.9935 8.1222L19 8.25V19H25.75C26.4404 19 27 19.5596 27 20.25C27 20.8972 26.5081 21.4295 25.8778 21.4935L25.75 21.5H17.75C17.1028 21.5 16.5705 21.0081 16.5065 20.3778L16.5 20.25V8.25C16.5 7.55964 17.0596 7 17.75 7Z" fill="#09427D"/>
</svg>
