<svg width="24" height="24" viewBox="0 0 24 24" fill="none" xmlns="http://www.w3.org/2000/svg">
<path d="M9.12059 18.2784C9.08525 18.2784 9.05023 18.2717 9.01739 18.2586C8.23488 18.2575 7.45242 18.2463 6.67019 18.225C6.10439 18.2112 5.57939 18.1986 4.97159 18.1986C4.01737 18.1976 3.10249 17.8182 2.4277 17.1435C1.7529 16.4688 1.3733 15.554 1.37219 14.5998C1.37219 13.3974 1.95419 12.3006 2.93879 11.6292C2.85817 11.2365 2.81756 10.8367 2.81759 10.4358C2.81759 7.1748 5.47079 4.521 8.73299 4.521C9.80126 4.52205 10.8494 4.81175 11.7666 5.35948C12.6837 5.9072 13.4359 6.69259 13.9434 7.6326C14.2773 7.2902 14.6767 7.01842 15.1177 6.83341C15.5588 6.64839 16.0325 6.55392 16.5108 6.5556C17.0576 6.55606 17.5971 6.68096 18.0885 6.92085C18.5798 7.16074 19.0101 7.50931 19.3468 7.94016C19.6835 8.37102 19.9177 8.87285 20.0316 9.40763C20.1456 9.94241 20.1364 10.4961 20.0046 11.0268C20.7596 11.2398 21.4243 11.6936 21.8978 12.319C22.3713 12.9444 22.6276 13.7074 22.6278 14.4918C22.6278 16.4766 21.0132 18.0918 19.0284 18.0918C18.1032 18.0918 16.0026 18.1398 13.9716 18.1866C11.9214 18.2346 9.98519 18.2784 9.12059 18.2784ZM8.73299 5.0796C5.77919 5.0796 3.37619 7.482 3.37619 10.4358C3.37619 10.86 3.42659 11.283 3.52559 11.6928C3.53946 11.7504 3.53461 11.811 3.51174 11.8657C3.48887 11.9204 3.44916 11.9664 3.39839 11.997C2.9489 12.2662 2.57718 12.6477 2.31977 13.1041C2.06235 13.5604 1.9281 14.0759 1.93019 14.5998C1.93115 15.4059 2.25184 16.1787 2.82191 16.7487C3.39198 17.3187 4.16487 17.6392 4.97099 17.64C5.58359 17.64 6.11279 17.6526 6.68339 17.6664C7.34639 17.682 8.06579 17.6994 9.04139 17.6994C9.07673 17.6995 9.11174 17.7062 9.14459 17.7192C10.0164 17.718 12.0198 17.6724 13.9578 17.628C15.9924 17.5812 18.096 17.5332 19.0278 17.5332C19.8341 17.5322 20.6071 17.2115 21.1771 16.6413C21.7472 16.0711 22.0678 15.2981 22.0686 14.4918C22.0688 13.7846 21.8224 13.0995 21.3718 12.5545C20.9213 12.0094 20.2948 11.6385 19.6002 11.5056C19.561 11.4981 19.5238 11.4823 19.4912 11.4592C19.4586 11.4361 19.4314 11.4063 19.4114 11.3718C19.3913 11.3372 19.379 11.2988 19.3751 11.259C19.3712 11.2193 19.376 11.1792 19.389 11.1414C19.5452 10.6834 19.59 10.1948 19.5197 9.71606C19.4493 9.23732 19.2659 8.78224 18.9845 8.38858C18.7031 7.99493 18.3319 7.67403 17.9017 7.4525C17.4715 7.23097 16.9947 7.1152 16.5108 7.1148C16.0445 7.11346 15.5842 7.22006 15.1659 7.42627C14.7477 7.63248 14.3829 7.93269 14.1 8.3034C14.0707 8.34198 14.0319 8.37224 13.9873 8.39119C13.9428 8.41013 13.894 8.4171 13.8459 8.4114C13.7979 8.4057 13.7521 8.38753 13.7132 8.35869C13.6743 8.32985 13.6436 8.29135 13.6242 8.247C13.2003 7.30426 12.5133 6.50391 11.6456 5.94206C10.778 5.38021 9.76665 5.08073 8.73299 5.0796Z" fill="#545454"/>
<path d="M10.7148 12.9084C10.7282 12.9083 10.7415 12.9112 10.7536 12.9169C10.7658 12.9226 10.7765 12.931 10.785 12.9414L10.9788 13.1502C10.8313 13.3208 10.6482 13.457 10.4424 13.5492C10.2324 13.6446 9.97861 13.692 9.68041 13.692C9.42241 13.692 9.18841 13.647 8.97721 13.5576C8.77207 13.4725 8.58783 13.344 8.43721 13.1808C8.28352 13.0122 8.16555 12.8142 8.09041 12.5988C8.0063 12.3592 7.96468 12.1069 7.96741 11.853C7.96741 11.5818 8.01061 11.3328 8.09581 11.1066C8.17226 10.8907 8.29352 10.6935 8.45164 10.5278C8.60975 10.3621 8.80114 10.2318 9.01321 10.1454C9.24064 10.054 9.48392 10.0085 9.72901 10.0116C9.98521 10.0116 10.2114 10.053 10.4076 10.1346C10.6032 10.2162 10.7754 10.3278 10.9248 10.4682L10.764 10.692C10.7543 10.7085 10.7409 10.7227 10.725 10.7334C10.7057 10.745 10.6833 10.7507 10.6608 10.7496C10.6308 10.7496 10.5936 10.7334 10.5504 10.7004C10.4201 10.6016 10.2729 10.5273 10.116 10.4814C9.98939 10.4457 9.85814 10.4291 9.72661 10.4322C9.54061 10.4322 9.37081 10.4652 9.21601 10.5294C9.06428 10.5921 8.9284 10.6879 8.81821 10.8096C8.70721 10.9314 8.62021 11.0808 8.55841 11.2566C8.49414 11.4483 8.4629 11.6496 8.46601 11.8518C8.46601 12.0762 8.49841 12.276 8.56261 12.4518C8.62681 12.6276 8.71501 12.7764 8.82661 12.8976C8.93821 13.0188 9.06901 13.1118 9.22081 13.1754C9.37261 13.239 9.53641 13.2708 9.71221 13.2708C9.81961 13.2708 9.91621 13.2648 10.002 13.2516C10.0835 13.2407 10.1636 13.2209 10.2408 13.1928C10.3123 13.1669 10.3805 13.1329 10.4442 13.0914C10.5072 13.05 10.5696 13.0008 10.632 12.9444C10.6542 12.9226 10.6837 12.9097 10.7148 12.9084ZM14.8002 11.8536C14.8002 12.123 14.7576 12.3702 14.6718 12.5964C14.5916 12.8126 14.4686 13.0103 14.31 13.1778C14.1518 13.3422 13.9607 13.4712 13.749 13.5564C13.5185 13.648 13.2722 13.6934 13.0242 13.6902C12.7596 13.6902 12.5184 13.6458 12.3006 13.5564C12.0893 13.4712 11.8985 13.3422 11.7408 13.1778C11.5819 13.0106 11.4588 12.8128 11.379 12.5964C11.2912 12.3587 11.2477 12.107 11.2506 11.8536C11.2506 11.5836 11.2932 11.3364 11.379 11.1108C11.4648 10.8858 11.5854 10.6908 11.7408 10.5282C11.8985 10.3634 12.0893 10.2338 12.3006 10.1478C12.5304 10.0549 12.7764 10.0088 13.0242 10.0122C13.2894 10.0122 13.5306 10.0572 13.749 10.1478C13.9668 10.2378 14.1546 10.3656 14.31 10.5282C14.466 10.6914 14.5866 10.8858 14.6718 11.1108C14.7576 11.3364 14.8002 11.5836 14.8002 11.8536ZM14.2998 11.8536C14.2998 11.6322 14.2698 11.4336 14.2092 11.2584C14.1555 11.0937 14.0683 10.9419 13.953 10.8126C13.8416 10.6904 13.7042 10.5947 13.551 10.5324C13.3833 10.465 13.2038 10.4315 13.023 10.434C12.8304 10.434 12.6558 10.467 12.498 10.5324C12.3446 10.5947 12.2071 10.6904 12.0954 10.8126C11.9838 10.9338 11.898 11.0826 11.8374 11.2584C11.7774 11.4342 11.7468 11.6322 11.7468 11.8536C11.7468 12.0744 11.7774 12.2724 11.8374 12.4476C11.898 12.6222 11.9832 12.7704 12.0954 12.8922C12.2064 13.014 12.3408 13.1064 12.498 13.1706C12.6558 13.2354 12.8304 13.2678 13.023 13.2678C13.2168 13.2678 13.3932 13.2354 13.551 13.1706C13.7082 13.1064 13.842 13.0134 13.953 12.8922C14.064 12.7704 14.1486 12.6222 14.2092 12.4476C14.2704 12.2724 14.2998 12.0744 14.2998 11.8536ZM16.4814 15.078C16.5096 15.078 16.5324 15.0864 16.5492 15.1032C16.5575 15.1117 16.564 15.1217 16.5683 15.1327C16.5726 15.1438 16.5747 15.1555 16.5744 15.1674V15.3258H15.174V15.2364C15.1749 15.1944 15.1921 15.1544 15.222 15.1248L15.894 14.4498C15.9498 14.3928 16.0002 14.3388 16.0464 14.286C16.092 14.2338 16.131 14.1816 16.1634 14.1282C16.1958 14.0754 16.2198 14.022 16.2378 13.968C16.2557 13.9117 16.2646 13.853 16.2642 13.794C16.2654 13.7388 16.2554 13.6838 16.2348 13.6326C16.2177 13.5889 16.1909 13.5497 16.1564 13.5178C16.1218 13.486 16.0806 13.4625 16.0356 13.449C15.9394 13.4178 15.8358 13.4182 15.7398 13.4502C15.654 13.4791 15.581 13.537 15.5334 13.614C15.51 13.653 15.4932 13.6955 15.4836 13.74C15.4722 13.7742 15.456 13.797 15.4362 13.8084C15.4158 13.8198 15.3882 13.8228 15.3516 13.818L15.2154 13.794C15.2292 13.6986 15.2556 13.614 15.2958 13.5402C15.3348 13.467 15.3852 13.4052 15.4452 13.3548C15.5052 13.3056 15.5736 13.2678 15.6504 13.2414C15.7278 13.2156 15.8112 13.203 15.9012 13.203C15.99 13.203 16.0728 13.2162 16.1496 13.242C16.2234 13.2651 16.2914 13.3037 16.3491 13.3552C16.4067 13.4067 16.4527 13.47 16.4838 13.5408C16.5171 13.6184 16.5335 13.7023 16.5318 13.7868C16.5318 13.8648 16.5204 13.938 16.497 14.004C16.4735 14.0713 16.4416 14.1354 16.4022 14.1948C16.362 14.256 16.3158 14.3148 16.2636 14.3724C16.2114 14.43 16.1556 14.4882 16.0974 14.547L15.5436 15.1116C15.5826 15.1014 15.6222 15.0924 15.6624 15.0864C15.702 15.0798 15.741 15.0768 15.7782 15.0768H16.4814V15.078Z" fill="#545454"/>
</svg>
