<svg width="96" height="95" viewBox="0 0 96 95" fill="none" xmlns="http://www.w3.org/2000/svg">
<g clip-path="url(#clip0_311_5884)">
<path d="M92.544 68.875C92.9281 67.7352 93.1199 66.5949 93.1199 65.3602V29.6402C93.1199 25.4601 90.8159 21.6602 87.1681 19.6652L53.5681 1.42515C50.1122 -0.474847 45.984 -0.474847 42.5281 1.42515L8.9281 19.6652C5.18402 21.6604 2.87994 25.4604 2.87994 29.6402V65.3602C2.87994 69.5402 5.18402 73.3401 8.83178 75.3352L42.4318 93.5751C44.1599 94.5252 46.0799 95.0002 47.9999 95.0002C49.9199 95.0002 51.8399 94.5252 53.5681 93.5751L65.6641 87.0201C68.5441 91.7701 73.7281 95.0001 79.6801 95.0001C88.7041 95.0001 96.0001 87.7802 96.0001 78.8501C96.0001 75.0504 94.656 71.6305 92.5442 68.8751L92.544 68.875ZM51.744 90.25C49.4399 91.4852 46.6558 91.4852 44.3522 90.25L10.7522 72.01C8.25624 70.6799 6.81624 68.1151 6.81624 65.36L6.81593 29.64C6.81593 26.8849 8.35185 24.3201 10.7518 22.99L44.2558 4.74999C45.4077 4.08512 46.6558 3.79999 47.9999 3.79999C49.344 3.79999 50.4958 4.08512 51.6481 4.74999L85.2481 22.99C87.744 24.3201 89.2799 26.8849 89.2799 29.64V65.36V65.835C86.5918 63.935 83.3281 62.6998 79.6799 62.6998C70.6559 62.6998 63.3599 69.9198 63.3599 78.8498C63.3599 80.4647 63.6481 82.0799 64.0318 83.5049L51.744 90.25ZM78.72 86.45C78.24 86.45 77.8559 86.2601 77.4718 85.975L71.7118 81.225C70.9437 80.5601 70.7518 79.325 71.4237 78.5648C72.0956 77.8047 73.3437 77.6148 74.1119 78.2797L78.24 81.6996L84.7682 72.1046C85.3441 71.2495 86.5923 70.9648 87.4564 71.5347C88.3204 72.1046 88.6082 73.3398 88.0323 74.1948L80.3523 85.5949C80.0642 86.0699 79.5842 86.355 79.0082 86.4499H78.7201L78.72 86.45Z" fill="white"/>
<path fill-rule="evenodd" clip-rule="evenodd" d="M38.7839 76.8551C39.168 77.2351 39.648 77.425 40.128 77.425L40.6077 77.425L47.8077 75.6199L55.0077 77.425C55.6799 77.6149 56.3517 77.425 56.8317 76.95L62.1121 71.8199L69.2162 69.825C69.8884 69.6348 70.3684 69.1598 70.5602 68.4949L72.5761 61.4648L77.7602 56.2398C78.2402 55.7648 78.4321 55.0996 78.2402 54.4348L76.4161 47.3098L78.2402 40.1848C78.4321 39.5195 78.2402 38.8547 77.7602 38.3797L72.5761 33.1547L70.5602 26.1246C70.368 25.4594 69.888 24.9844 69.2162 24.7945L62.1121 22.7996L56.8321 17.6695C56.3521 17.1945 55.6799 17.0046 55.008 17.1945L47.808 18.9996L40.608 17.1945C39.9358 17.0046 39.2639 17.1945 38.7839 17.6695L33.5039 22.7996L26.3998 24.7945C25.7276 24.9848 25.2476 25.4597 25.0557 26.1246L23.0398 33.1547L17.8558 38.3797C17.3758 38.8547 17.1839 39.5199 17.3758 40.1848L19.1998 47.3098L17.3758 54.4348C17.1839 55.1 17.3758 55.7648 17.8558 56.2398L23.0398 61.4648L25.0557 68.4C25.248 69.0652 25.728 69.5402 26.3998 69.7301L33.5039 71.725L38.7839 76.8551ZM25.6322 47.0252C25.6322 51.3002 29.184 54.815 33.504 54.815L33.504 54.8151C35.6159 54.8151 37.5359 54.0553 39.0718 52.4404C39.84 51.6803 39.84 50.5404 39.0718 49.7803C38.3037 49.0202 37.1518 49.0202 36.3837 49.7803C35.6155 50.5401 34.5596 50.9201 33.5037 50.9201C31.2959 50.9201 29.4718 49.1155 29.4718 46.9303C29.4718 44.7455 31.2955 42.9405 33.5037 42.9405C34.7518 42.9405 35.9037 43.5104 36.6718 44.4604C37.3441 45.3154 38.4959 45.4104 39.36 44.7455C40.2241 44.0803 40.32 42.9404 39.6481 42.0853C38.1122 40.2803 35.904 39.2353 33.504 39.2353C29.184 39.2353 25.6322 42.7502 25.6322 47.0252ZM40.4159 47.3099C40.4159 51.3951 43.7759 54.815 48 54.815C52.1281 54.815 55.584 51.3951 55.584 47.3099C55.584 43.2248 52.1281 39.8049 48 39.8049C43.8718 39.8049 40.4159 43.2248 40.4159 47.3099ZM44.2559 47.3101C44.2559 45.3152 45.8881 43.605 48 43.605C50.0159 43.605 51.744 45.2199 51.744 47.3101C51.744 49.305 50.1118 51.0152 48 51.0152C45.984 51.0152 44.2559 49.3999 44.2559 47.3101ZM66.528 54.815H58.272C57.2161 54.815 56.352 53.9599 56.352 52.915C56.352 49.9985 59.1767 48.3862 61.6555 46.9712L61.728 46.9299C62.592 46.4549 64.7998 45.1248 64.7998 44.6498C64.7998 43.9849 63.5516 43.5099 62.4957 43.5099C61.6316 43.5099 60.1916 43.7951 60.1916 44.6498C60.1916 45.6947 59.3276 46.5498 58.2716 46.5498C57.2157 46.5498 56.3516 45.6947 56.3516 44.6498C56.3516 41.7998 58.9435 39.7099 62.4957 39.7099H62.5917C66.1435 39.7099 68.7357 41.7998 68.7357 44.6498C68.7357 47.1815 66.3008 48.6805 64.0799 50.0477C63.9672 50.1171 63.8551 50.1861 63.7439 50.2549L62.3039 51.1099H66.7198C67.7757 51.1099 68.6398 51.965 68.6398 53.0099C68.4479 53.9603 67.5839 54.815 66.528 54.815Z" fill="white"/>
</g>
<defs>
<clipPath id="clip0_311_5884">
<rect width="96" height="95" fill="white"/>
</clipPath>
</defs>
</svg>
