<svg width="162" height="162" viewBox="0 0 162 162" fill="none" xmlns="http://www.w3.org/2000/svg">
<circle cx="81" cy="81" r="81" fill="#09427D"/>
<g clip-path="url(#clip0_1246_11164)">
<g filter="url(#filter0_d_1246_11164)">
<path d="M124.747 102.658C124.747 102.658 124.747 102.658 124.747 102.658C125.126 101.522 125.315 100.385 125.315 99.1545V63.5468C125.315 59.3799 123.043 55.5919 119.444 53.6032L86.2986 35.4205C82.8895 33.5265 78.8171 33.5265 75.408 35.4205L42.2625 53.6032C38.5691 55.5921 36.2961 59.3802 36.2961 63.5468V99.1545C36.2961 103.321 38.5691 107.109 42.1675 109.098L75.3129 127.281C77.0177 128.228 78.9118 128.701 80.8058 128.701C82.6998 128.701 84.5938 128.228 86.2986 127.281L96.6653 121.604C97.5398 121.125 98.6282 121.43 99.2292 122.225C102.186 126.139 106.82 128.701 112.057 128.701C120.959 128.701 128.157 121.504 128.157 112.602C128.157 108.814 126.831 105.405 124.747 102.658C124.747 102.658 124.747 102.658 124.747 102.658ZM84.4992 123.966C82.2263 125.197 79.4799 125.197 77.2073 123.966L44.0619 105.783C41.5997 104.458 40.1792 101.901 40.1792 99.1544L40.1789 63.5467C40.1789 60.8002 41.694 58.2435 44.0616 56.9176L77.1123 38.7349C78.2486 38.0721 79.4799 37.7879 80.8058 37.7879C82.1317 37.7879 83.2679 38.0721 84.4046 38.7349L117.55 56.9176C120.012 58.2435 121.527 60.8002 121.527 63.5467V99.1544C121.527 99.3526 121.303 99.4687 121.139 99.3577C118.563 97.6176 115.482 96.5026 112.057 96.5026C103.155 96.5026 95.958 103.7 95.958 112.602C95.958 113.698 96.0899 114.795 96.2936 115.832C96.4577 116.667 96.0988 117.532 95.3543 117.945L84.4992 123.966ZM111.11 120.178C111.11 120.178 111.11 120.178 111.11 120.178C110.637 120.178 110.258 119.989 109.879 119.705L104.197 114.97C103.439 114.307 103.25 113.075 103.913 112.318C104.575 111.56 105.807 111.371 106.564 112.033L109.056 114.119C109.901 114.827 111.173 114.647 111.788 113.732L117.077 105.878C117.645 105.025 118.876 104.742 119.728 105.31C120.581 105.878 120.865 107.109 120.297 107.961L112.72 119.326C112.445 119.785 111.991 120.066 111.445 120.169C111.412 120.175 111.377 120.178 111.343 120.178H111.11C111.11 120.178 111.11 120.178 111.11 120.178Z" fill="white"/>
<path fill-rule="evenodd" clip-rule="evenodd" d="M71.7143 110.615C72.0932 110.994 72.5667 111.183 73.0402 111.183L73.5134 111.183L80.616 109.384L87.7186 111.183C88.3817 111.372 89.0445 111.183 89.518 110.709L94.7269 105.596L101.735 103.607C102.398 103.417 102.871 102.944 103.061 102.281L105.049 95.273L110.163 90.0644C110.637 89.5909 110.826 88.9278 110.637 88.265L108.837 81.1624L110.637 74.0598C110.826 73.3967 110.637 72.7339 110.163 72.2604L105.049 67.0518L103.061 60.0439C102.871 59.3808 102.398 58.9072 101.735 58.718L94.7269 56.7293L89.5183 51.6154C89.0448 51.1419 88.3817 50.9526 87.7189 51.1419L80.6163 52.9413L73.5137 51.1419C72.8505 50.9526 72.1878 51.1419 71.7143 51.6154L66.5057 56.7293L59.4977 58.718C58.8346 58.9076 58.3611 59.3811 58.1718 60.0439L56.1832 67.0518L51.0692 72.2604C50.5957 72.7339 50.4064 73.397 50.5957 74.0598L52.3951 81.1624L50.5957 88.265C50.4064 88.9282 50.5957 89.5909 51.0692 90.0644L56.1832 95.273L58.1718 102.186C58.3615 102.849 58.8349 103.323 59.4977 103.512L66.5057 105.501L71.7143 110.615ZM58.7408 80.8781C58.7408 85.1397 62.2446 88.6435 66.5062 88.6435L66.5061 88.6436C68.5895 88.6436 70.4835 87.8861 71.9986 86.2764C72.7564 85.5186 72.7564 84.3823 71.9986 83.6246C71.2409 82.8668 70.1046 82.8668 69.3468 83.6246C68.5891 84.382 67.5474 84.7608 66.5058 84.7608C64.3279 84.7608 62.5285 82.9618 62.5285 80.7835C62.5285 78.6056 64.3275 76.8062 66.5058 76.8062C67.7371 76.8062 68.8734 77.3744 69.6311 78.3214C70.2943 79.1737 71.4305 79.2684 72.2829 78.6056C73.1353 77.9425 73.2299 76.8062 72.5671 75.9538C71.052 74.1544 68.8737 73.1128 66.5062 73.1128C62.2446 73.1128 58.7408 76.6166 58.7408 80.8781ZM73.3244 81.1627C73.3244 85.2351 76.6389 88.6442 80.8059 88.6442C84.8782 88.6442 88.2874 85.2351 88.2874 81.1627C88.2874 77.0904 84.8782 73.6813 80.8059 73.6813C76.7336 73.6813 73.3244 77.0904 73.3244 81.1627ZM77.1124 81.1629C77.1124 79.1743 78.7226 77.4695 80.8059 77.4695C82.7945 77.4695 84.4993 79.0793 84.4993 81.1629C84.4993 83.1516 82.8891 84.8563 80.8059 84.8563C78.8172 84.8563 77.1124 83.2462 77.1124 81.1629ZM99.0834 88.6437H90.9391C89.8975 88.6437 89.0451 87.7913 89.0451 86.7496C89.0451 83.8423 91.8315 82.235 94.2769 80.8245L94.3483 80.7833C95.2007 80.3098 97.3786 78.9839 97.3786 78.5104C97.3786 77.8476 96.1473 77.3741 95.1057 77.3741C94.2533 77.3741 92.8328 77.6583 92.8328 78.5104C92.8328 79.552 91.9804 80.4044 90.9387 80.4044C89.8971 80.4044 89.0447 79.552 89.0447 78.5104C89.0447 75.6693 91.6015 73.5861 95.1057 73.5861H95.2003C98.7041 73.5861 101.261 75.6693 101.261 78.5104C101.261 81.0342 98.8593 82.5284 96.6684 83.8913C96.5572 83.9605 96.4467 84.0293 96.337 84.0978L94.9164 84.9502H99.2726C100.314 84.9502 101.167 85.8026 101.167 86.8442C100.977 87.7916 100.125 88.6437 99.0834 88.6437Z" fill="white"/>
</g>
</g>
<defs>
<filter id="filter0_d_1246_11164" x="32.2961" y="34" width="99.8606" height="102.701" filterUnits="userSpaceOnUse" color-interpolation-filters="sRGB">
<feFlood flood-opacity="0" result="BackgroundImageFix"/>
<feColorMatrix in="SourceAlpha" type="matrix" values="0 0 0 0 0 0 0 0 0 0 0 0 0 0 0 0 0 0 127 0" result="hardAlpha"/>
<feOffset dy="4"/>
<feGaussianBlur stdDeviation="2"/>
<feComposite in2="hardAlpha" operator="out"/>
<feColorMatrix type="matrix" values="0 0 0 0 0 0 0 0 0 0 0 0 0 0 0 0 0 0 0.25 0"/>
<feBlend mode="normal" in2="BackgroundImageFix" result="effect1_dropShadow_1246_11164"/>
<feBlend mode="normal" in="SourceGraphic" in2="effect1_dropShadow_1246_11164" result="shape"/>
</filter>
<clipPath id="clip0_1246_11164">
<rect width="94.7014" height="94.7014" fill="white" transform="translate(33.4553 34)"/>
</clipPath>
</defs>
</svg>
