<svg width="36" height="36" viewBox="0 0 36 36" fill="none" xmlns="http://www.w3.org/2000/svg">
<path d="M1.02381 1.05171C1.6096 0.465919 2.55935 0.465919 3.14513 1.05171L18.0001 15.9066L32.855 1.05171C33.4408 0.465919 34.3905 0.465919 34.9763 1.05171C35.5621 1.63749 35.5621 2.58724 34.9763 3.17303L20.1214 18.0279L34.9204 32.827C35.5062 33.4128 35.5062 34.3625 34.9204 34.9483C34.3346 35.5341 33.3849 35.5341 32.7991 34.9483L18.0001 20.1493L3.20102 34.9483C2.61524 35.5341 1.66549 35.5341 1.0797 34.9483C0.493917 34.3625 0.493917 33.4128 1.0797 32.827L15.8787 18.0279L1.02381 3.17303C0.438026 2.58724 0.438026 1.63749 1.02381 1.05171Z" fill="#09427D"/>
</svg>
