<svg width="32" height="32" viewBox="0 0 32 32" fill="none" xmlns="http://www.w3.org/2000/svg">
<rect width="32" height="32" rx="16" fill="#09427D"/>
<path d="M13.3969 20.0222L16 17.3333L18.625 20.0222L19.6531 18.9556L17.05 16.2667L19.6531 13.5778L18.625 12.5111L16 15.2L13.3969 12.5111L12.3469 13.5778L14.9719 16.2667L12.3469 18.9556L13.3969 20.0222ZM11.2094 24C10.8594 24 10.5531 23.8667 10.2906 23.6C10.0281 23.3333 9.89688 23.0222 9.89688 22.6667V10H9V8.66667H13.1125V8H18.8875V8.66667H23V10H22.1031V22.6667C22.1031 23.0222 21.9719 23.3333 21.7094 23.6C21.4469 23.8667 21.1406 24 20.7906 24H11.2094ZM20.7906 10H11.2094V22.6667H20.7906V10Z" fill="white"/>
</svg>
