<svg width="20" height="20" viewBox="0 0 20 20" fill="none" xmlns="http://www.w3.org/2000/svg">
<path d="M15.2446 16.4972C15.6589 16.4972 15.9946 16.833 15.9946 17.2472C15.9946 17.6269 15.7125 17.9407 15.3464 17.9904L15.2446 17.9972H4.75C4.33579 17.9972 4 17.6614 4 17.2472C4 16.8675 4.28215 16.5537 4.64823 16.5041L4.75 16.4972H15.2446ZM10.0036 1.99902C10.3833 1.99902 10.6971 2.28118 10.7468 2.64725L10.7536 2.74902L10.753 12.942L13.7192 9.97144C13.9852 9.70493 14.4019 9.68034 14.6957 9.89792L14.7799 9.97046C15.0464 10.2365 15.071 10.6531 14.8534 10.9469L14.7809 11.0311L10.538 15.2818L10.4674 15.3443L10.3764 15.4029L10.34 15.424L10.2488 15.462L10.1283 15.4921L10.0591 15.5L9.999 15.5019C9.94888 15.5019 9.89801 15.4964 9.84828 15.4859L9.76741 15.4627C9.6714 15.4317 9.58429 15.3815 9.51014 15.3167L5.22056 11.032C4.92746 10.7393 4.92712 10.2644 5.21981 9.97133C5.48588 9.70487 5.90253 9.68037 6.1963 9.89802L6.28047 9.97057L9.253 12.938L9.25362 2.74902C9.25362 2.33481 9.58941 1.99902 10.0036 1.99902Z" fill="white"/>
</svg>
