<svg width="108" height="108" viewBox="0 0 108 108" fill="none" xmlns="http://www.w3.org/2000/svg">
<g clip-path="url(#clip0_1246_11136)">
<g filter="url(#filter0_d_1246_11136)">
<path d="M104.491 34.0527C103.095 29.9724 98.6931 27.8251 94.6126 29.2211L56.2811 42.2127C56.2811 39.6356 56.0661 36.0921 55.207 32.4417C54.67 30.0795 53.7039 27.5022 52.3078 24.9259C50.2676 21.1675 46.0803 19.0203 41.7856 19.7723C38.3493 20.3093 35.9879 23.4227 36.417 26.859L37.2761 34.6969C37.7053 38.7772 36.9541 42.9647 35.0209 46.6151L29.2233 57.6744C28.6862 58.7484 27.7201 59.6067 26.539 59.9296L22.7814 61.3249C22.0294 60.0366 20.4192 59.3926 18.8088 59.8217L5.17244 64.4391C3.45433 65.0832 2.48816 66.9084 3.1322 68.6265L13.0104 98.0463C13.5474 99.7644 15.4797 100.731 17.1979 100.087L30.9414 95.47C32.4445 94.933 33.4107 93.4297 33.1966 91.8195L38.8873 89.8872L39.8534 90.7463C44.6849 94.6117 51.0197 95.8999 56.8181 93.9676C57.2473 93.8605 57.7843 93.6456 58.2142 93.5385C64.1198 91.4982 71.9577 88.3848 78.7221 84.3045C79.4741 84.3045 80.3324 84.1974 81.0843 83.9825L88.9222 81.2982C93.0025 79.9021 95.1497 75.5005 93.7537 71.42C93.2167 69.8098 92.1435 68.5208 90.8545 67.5547C92.1427 65.6224 92.5726 63.1522 91.7136 60.7901C91.1765 59.1798 90.2104 57.9986 88.9221 57.0317C90.3182 55.0994 90.7473 52.5221 89.8883 50.1599C89.5662 49.1937 89.0292 48.3347 88.3851 47.5828L99.4444 43.8244C103.739 42.5347 105.886 38.133 104.491 34.0527ZM22.137 91.9258C20.2047 92.57 18.1644 91.6038 17.6274 89.6707C16.9832 87.8455 17.9494 85.6981 19.8825 85.1611C21.8148 84.517 23.8551 85.4831 24.3921 87.4163C25.0362 89.2415 23.963 91.2816 22.137 91.9258ZM70.9909 67.8747C70.4539 66.3715 71.313 64.7613 72.8162 64.2242L83.5533 60.5738C85.0565 60.0368 86.6667 60.8958 87.2037 62.399C87.7407 63.9022 86.8817 65.5124 85.3785 66.0494L74.6414 69.6999C73.2461 70.2369 71.528 69.3778 70.9909 67.8747ZM69.5956 60.1447C68.0925 60.6817 66.4822 59.8226 65.9452 58.3195C65.4082 56.8163 66.2672 55.2061 67.7704 54.669L81.8359 49.9437C83.339 49.4067 84.9492 50.2658 85.4863 51.7689C86.0233 53.2721 85.1643 54.8823 83.6611 55.4194L69.5956 60.1447ZM89.2446 73.0291C89.7816 74.5322 88.9225 76.1424 87.4194 76.6795L79.5815 79.3638C78.0783 79.9008 76.4681 79.0417 75.931 77.5386C75.394 76.0354 76.2531 74.4252 77.7562 73.8881L85.5942 71.2038C87.0973 70.6668 88.7083 71.418 89.2446 73.0291ZM98.0494 39.3144L66.1601 50.0516C63.583 50.9106 61.8657 52.9508 61.1137 55.4201C58.5366 65.7282 49.3024 66.4794 48.8733 66.5864C47.5851 66.6935 46.5112 67.8746 46.6181 69.1635C46.7253 70.4517 47.7993 71.5257 49.1953 71.4187C50.2693 71.3116 51.6646 71.0966 53.1678 70.5596C56.4961 69.4856 60.2545 67.1233 63.046 62.8289C63.905 63.6879 64.9783 64.4391 66.1594 64.7612C65.7302 66.2643 65.7302 67.8746 66.2665 69.3778C67.0184 71.7399 68.9507 73.4581 71.098 74.2093C70.6688 75.7124 70.561 77.4306 71.098 79.0408C71.5271 80.1148 72.0642 81.0811 72.9232 81.94C66.8026 85.2683 60.1458 87.7377 55.2073 89.3488C50.9128 90.7449 46.2955 89.8858 42.752 86.9867L40.7118 85.2686C40.0677 84.7315 39.2086 84.6244 38.3496 84.8394L31.4778 87.2016L24.3927 65.8347L28.1511 64.5464C30.5132 63.7945 32.4455 62.0771 33.6268 59.9298L39.4245 48.7636C41.7866 44.254 42.7528 39.1006 42.2159 34.0539L41.3569 26.216C41.2498 25.3569 41.786 24.6057 42.6451 24.4979C44.7923 24.1758 46.9396 25.2498 48.0137 27.1822C49.1948 29.4373 50.0539 31.5846 50.483 33.5169C51.7712 39.3146 51.3421 45.3281 51.3421 45.4351C51.235 46.2942 51.6641 47.0454 52.3083 47.4754C52.9524 48.0124 53.8114 48.1195 54.5634 47.7974L96.2235 33.624C97.7267 33.087 99.3369 33.9461 99.874 35.4492C100.412 37.1658 99.5527 38.7768 98.0495 39.3138L98.0494 39.3144Z" fill="white"/>
<path d="M72.2795 19.4501C72.7086 19.5572 73.1385 19.4501 73.5677 19.343C74.3196 19.021 74.9637 18.3768 75.1779 17.5178L76.4669 10.646C76.6819 9.3578 75.8228 8.06892 74.5346 7.74681C73.2464 7.53186 71.9575 8.39092 71.6354 9.67911L70.2393 16.5509C70.1315 17.8399 70.9906 19.128 72.2796 19.4501L72.2795 19.4501Z" fill="white"/>
<path d="M58.9653 20.739C59.6094 21.7052 60.7905 22.0272 61.7568 21.7052C61.9717 21.5981 62.1859 21.4902 62.2938 21.3831C63.3678 20.6312 63.6898 19.1279 62.9379 18.0548L59.0725 12.2571C58.3205 11.1831 56.8173 10.8611 55.7442 11.613C54.6702 12.365 54.3481 13.8682 55.1001 14.9413L58.9653 20.739Z" fill="white"/>
<path d="M83.5535 25.9994C83.7684 25.8923 83.9827 25.7845 84.0905 25.6774L89.8882 21.812C90.9622 21.06 91.2842 19.5568 90.5323 18.4837C89.7803 17.4097 88.2771 17.0876 87.204 17.8396L81.4063 21.7049C80.3323 22.4569 80.0102 23.9601 80.7622 25.0333C81.4063 25.9994 82.4803 26.3215 83.5536 25.9994H83.5535Z" fill="white"/>
</g>
</g>
<defs>
<filter id="filter0_d_1246_11136" x="-1.06848" y="7.71387" width="109.983" height="100.573" filterUnits="userSpaceOnUse" color-interpolation-filters="sRGB">
<feFlood flood-opacity="0" result="BackgroundImageFix"/>
<feColorMatrix in="SourceAlpha" type="matrix" values="0 0 0 0 0 0 0 0 0 0 0 0 0 0 0 0 0 0 127 0" result="hardAlpha"/>
<feOffset dy="4"/>
<feGaussianBlur stdDeviation="2"/>
<feComposite in2="hardAlpha" operator="out"/>
<feColorMatrix type="matrix" values="0 0 0 0 0 0 0 0 0 0 0 0 0 0 0 0 0 0 0.25 0"/>
<feBlend mode="normal" in2="BackgroundImageFix" result="effect1_dropShadow_1246_11136"/>
<feBlend mode="normal" in="SourceGraphic" in2="effect1_dropShadow_1246_11136" result="shape"/>
</filter>
<clipPath id="clip0_1246_11136">
<rect width="108" height="108" fill="white"/>
</clipPath>
</defs>
</svg>
