<svg width="99" height="98" viewBox="0 0 99 98" fill="none" xmlns="http://www.w3.org/2000/svg">
<path d="M95.3301 30.8484C94.0654 27.1521 90.078 25.207 86.3815 26.4716L51.6572 38.2406C51.6572 35.906 51.4625 32.696 50.6843 29.3891C50.1978 27.2492 49.3226 24.9145 48.0579 22.5806C46.2097 19.1759 42.4164 17.2307 38.5259 17.9119C35.413 18.3984 33.2739 21.2188 33.6626 24.3317L34.4408 31.432C34.8296 35.1284 34.1491 38.9218 32.3979 42.2287L27.1458 52.2472C26.6593 53.2201 25.7841 53.9976 24.7141 54.2901L21.3101 55.5541C20.6289 54.3871 19.1702 53.8037 17.7114 54.1924L5.35835 58.3752C3.80192 58.9587 2.92667 60.6122 3.5101 62.1686L12.4587 88.8198C12.9451 90.3762 14.6956 91.2515 16.2521 90.668L28.7022 86.4859C30.0639 85.9994 30.9392 84.6376 30.7452 83.179L35.9003 81.4285L36.7756 82.2068C41.1524 85.7084 46.891 86.8754 52.1437 85.1249C52.5325 85.0279 53.019 84.8332 53.4084 84.7362C58.7583 82.8879 65.8586 80.0675 71.9864 76.3712C72.6676 76.3712 73.4451 76.2742 74.1263 76.0795L81.2266 73.6478C84.9229 72.3831 86.8681 68.3957 85.6034 64.6992C85.117 63.2405 84.1447 62.0729 82.9771 61.1976C84.144 59.4472 84.5335 57.2095 83.7553 55.0696C83.2688 53.6109 82.3936 52.5409 81.2265 51.6649C82.4912 49.9145 82.88 47.5797 82.1017 45.4399C81.81 44.5646 81.3235 43.7864 80.74 43.1053L90.7585 39.7006C94.6489 38.5322 96.5942 34.5448 95.3301 30.8484ZM20.7264 83.2753C18.9759 83.8588 17.1277 82.9836 16.6412 81.2324C16.0577 79.5789 16.9329 77.6337 18.6841 77.1471C20.4346 76.5636 22.2828 77.4389 22.7693 79.1901C23.3528 80.8435 22.3805 82.6917 20.7264 83.2753ZM64.9828 61.4875C64.4963 60.1258 65.2746 58.6671 66.6363 58.1806L76.3629 54.8737C77.7246 54.3872 79.1833 55.1655 79.6698 56.5272C80.1563 57.8889 79.3781 59.3476 78.0164 59.8341L68.2897 63.141C67.0257 63.6274 65.4693 62.8492 64.9828 61.4875ZM63.7188 54.485C62.3571 54.9715 60.8984 54.1932 60.4119 52.8315C59.9254 51.4698 60.7036 50.0112 62.0653 49.5246L74.8071 45.244C76.1688 44.7576 77.6275 45.5358 78.114 46.8975C78.6005 48.2592 77.8223 49.7179 76.4606 50.2044L63.7188 54.485ZM81.5186 66.1568C82.0051 67.5186 81.2269 68.9772 79.8652 69.4638L72.7649 71.8954C71.4032 72.3819 69.9445 71.6037 69.458 70.242C68.9715 68.8803 69.7497 67.4216 71.1114 66.9351L78.2117 64.5034C79.5734 64.0169 81.0328 64.6974 81.5186 66.1568ZM89.4949 35.615L60.6066 45.3417C58.272 46.12 56.7163 47.9681 56.0351 50.2051C53.7005 59.543 45.3354 60.2236 44.9466 60.3205C43.7796 60.4175 42.8068 61.4875 42.9037 62.6551C43.0007 63.8221 43.9737 64.7949 45.2383 64.698C46.2112 64.601 47.4752 64.4063 48.837 63.9198C51.8521 62.9469 55.2568 60.8069 57.7855 56.9166C58.5637 57.6948 59.536 58.3753 60.6059 58.667C60.2171 60.0287 60.2171 61.4874 60.7029 62.8492C61.3841 64.989 63.1346 66.5455 65.0798 67.226C64.691 68.5877 64.5933 70.1442 65.0798 71.6028C65.4685 72.5758 65.955 73.4511 66.7332 74.2292C61.1887 77.2443 55.1583 79.4813 50.6845 80.9408C46.7942 82.2055 42.6114 81.4273 39.4014 78.8009L37.5532 77.2445C36.9697 76.758 36.1915 76.661 35.4133 76.8557L29.1882 78.9956L22.7698 59.6395L26.1745 58.4725C28.3144 57.7913 30.0648 56.2355 31.1349 54.2904L36.387 44.175C38.5269 40.0898 39.4021 35.4213 38.9158 30.8496L38.1375 23.7493C38.0405 22.971 38.5263 22.2905 39.3045 22.1928C41.2497 21.9011 43.1949 22.874 44.1679 24.6245C45.2378 26.6675 46.0161 28.6126 46.4048 30.3631C47.5718 35.6151 47.1831 41.0628 47.1831 41.1597C47.086 41.9379 47.4748 42.6184 48.0583 43.008C48.6418 43.4944 49.42 43.5915 50.1013 43.2997L87.8408 30.4601C89.2025 29.9736 90.6612 30.7519 91.1477 32.1136C91.6349 33.6686 90.8567 35.128 89.4949 35.6145L89.4949 35.615Z" fill="black"/>
<path d="M66.15 17.6202C66.5388 17.7172 66.9282 17.6201 67.317 17.5231C67.9982 17.2314 68.5817 16.6479 68.7757 15.8697L69.9434 9.6446C70.1381 8.4776 69.3599 7.31002 68.193 7.01822C67.026 6.82349 65.8584 7.60171 65.5666 8.76867L64.3019 14.9938C64.2042 16.1614 64.9824 17.3283 66.1501 17.6201L66.15 17.6202Z" fill="black"/>
<path d="M54.089 18.7874C54.6725 19.6626 55.7424 19.9544 56.6177 19.6626C56.8125 19.5656 57.0065 19.4679 57.1042 19.3709C58.0772 18.6897 58.3689 17.3279 57.6877 16.3558L54.1861 11.1037C53.5049 10.1308 52.1431 9.83903 51.171 10.5202C50.198 11.2014 49.9063 12.5632 50.5875 13.5353L54.089 18.7874Z" fill="black"/>
<path d="M76.3631 23.5534C76.5578 23.4564 76.7518 23.3587 76.8495 23.2617L82.1016 19.7601C83.0746 19.0789 83.3663 17.7171 82.6851 16.745C82.0039 15.772 80.6422 15.4803 79.67 16.1615L74.4179 19.6631C73.445 20.3443 73.1533 21.706 73.8344 22.6782C74.4179 23.5534 75.3909 23.8452 76.3632 23.5534H76.3631Z" fill="black"/>
</svg>
