<svg width="18" height="18" viewBox="0 0 18 18" fill="none" xmlns="http://www.w3.org/2000/svg">
<g clip-path="url(#clip0_13127_4650)">
<path d="M8.43945 5.33625L6.6957 7.08C6.05351 7.72219 5.40663 8.36437 4.76913 9.01359C4.61679 9.16828 4.50429 9.37453 4.45976 9.57609C4.22773 10.6378 4.00507 11.6972 3.78007 12.7589L3.65585 13.3472C3.59726 13.6331 3.6746 13.9191 3.86913 14.1136C4.01913 14.2636 4.22773 14.348 4.44804 14.348C4.51132 14.348 4.5746 14.3409 4.63554 14.3292L5.28242 14.1933C6.30898 13.9777 7.34257 13.7573 8.36913 13.5441C8.6082 13.4925 8.80976 13.387 8.9832 13.2136C11.8684 10.3261 14.7535 7.43859 17.6387 4.55812C17.8519 4.34484 17.9691 4.09172 17.9973 3.78C18.0019 3.72843 17.9973 3.67687 17.9879 3.63C17.9691 3.555 17.9551 3.47765 17.9363 3.405C17.8965 3.2175 17.8519 3.00422 17.7629 2.80031C17.2238 1.56515 16.3285 0.686247 15.1027 0.189372C14.8566 0.0909347 14.5941 0.058122 14.3668 0.0276532L14.3059 0.020622C13.9754 -0.0192218 13.673 0.0909346 13.4129 0.355778C11.7605 2.01515 10.0988 3.67687 8.43945 5.33625ZM14.184 0.90656C14.191 0.90656 14.1957 0.90656 14.2027 0.90656L14.266 0.913591C14.4559 0.934685 14.6316 0.955778 14.7723 1.01672C15.7707 1.41984 16.5043 2.13937 16.9473 3.15187C16.9988 3.26906 17.0316 3.41906 17.0668 3.57843C17.0762 3.63703 17.0926 3.69562 17.1019 3.75422C17.0879 3.81984 17.0621 3.86437 17.0105 3.91125C14.1207 6.79406 11.2355 9.68156 8.35038 12.5691C8.30351 12.6159 8.25898 12.637 8.19335 12.6534C7.1621 12.8691 6.1332 13.0847 5.10195 13.3027L4.5582 13.4152L4.66132 12.9347C4.88632 11.8777 5.10898 10.8159 5.33632 9.7589C5.34335 9.72609 5.37382 9.67453 5.40663 9.63937C6.04648 8.9925 6.68398 8.35031 7.32617 7.71047L9.06992 5.96672C10.734 4.305 12.3957 2.64093 14.0551 0.974528C14.1254 0.915935 14.1582 0.90656 14.184 0.90656Z" fill="white"/>
<path d="M1.42734 4.01465H7.8375C8.08594 4.01465 8.28984 3.81309 8.28984 3.56465C8.28984 3.31387 8.08594 3.1123 7.8375 3.1123H1.42734C0.639844 3.1123 0 3.75449 0 4.53965V16.5584C0 17.3482 0.642187 17.9857 1.42734 17.9857H13.4438C14.2313 17.9857 14.8711 17.3436 14.8711 16.5584V10.4107C14.8711 10.16 14.6695 9.9584 14.4188 9.9584C14.1703 9.9584 13.9688 10.16 13.9688 10.4107V16.5584C13.9688 16.849 13.7297 17.0881 13.4391 17.0881H1.42734C1.13906 17.0881 0.9 16.849 0.9 16.5584V4.54434C0.9 4.25371 1.13906 4.01465 1.42734 4.01465Z" fill="white"/>
</g>
<defs>
<clipPath id="clip0_13127_4650">
<rect width="18" height="18" fill="white"/>
</clipPath>
</defs>
</svg>
