<svg width="30" height="30" viewBox="0 0 30 30" fill="none" xmlns="http://www.w3.org/2000/svg">
<g clip-path="url(#clip0_13127_4650)">
<path d="M14.0661 8.89407L11.1598 11.8003C10.0895 12.8706 9.01138 13.9409 7.94888 15.023C7.69498 15.2808 7.50748 15.6245 7.43326 15.9605C7.04654 17.73 6.67544 19.4956 6.30044 21.2652L6.09341 22.2456C5.99576 22.7222 6.12466 23.1988 6.44888 23.523C6.69888 23.773 7.04654 23.9136 7.41373 23.9136C7.51919 23.9136 7.62466 23.9019 7.72623 23.8824L8.80435 23.6558C10.5153 23.2964 12.2379 22.9292 13.9489 22.5738C14.3473 22.4878 14.6833 22.312 14.9723 22.023C19.7809 17.2105 24.5895 12.398 29.3981 7.5972C29.7536 7.24173 29.9489 6.81985 29.9958 6.30032C30.0036 6.21438 29.9958 6.12845 29.9801 6.05032C29.9489 5.92532 29.9254 5.79641 29.8942 5.67532C29.8278 5.36282 29.7536 5.00735 29.6051 4.66751C28.7067 2.60891 27.2145 1.14407 25.1715 0.315945C24.7614 0.151883 24.3239 0.0971955 23.945 0.0464143L23.8434 0.0346955C23.2926 -0.0317107 22.7887 0.151883 22.3551 0.593289C19.6012 3.35891 16.8317 6.12845 14.0661 8.89407ZM23.6403 1.51126C23.652 1.51126 23.6598 1.51126 23.6715 1.51126L23.777 1.52298C24.0934 1.55813 24.3864 1.59329 24.6208 1.69485C26.2848 2.36673 27.5075 3.56595 28.2458 5.25345C28.3317 5.44876 28.3864 5.69876 28.445 5.96438C28.4606 6.06204 28.4879 6.1597 28.5036 6.25735C28.4801 6.36673 28.4372 6.44095 28.3512 6.51907C23.5348 11.3238 18.7262 16.1363 13.9176 20.9488C13.8395 21.0269 13.7653 21.062 13.6559 21.0894C11.9372 21.4488 10.2223 21.8081 8.50357 22.1714L7.59732 22.3589L7.76919 21.5581C8.14419 19.7964 8.51529 18.0269 8.89419 16.2652C8.90591 16.2105 8.95669 16.1245 9.01138 16.0659C10.0778 14.9878 11.1403 13.9175 12.2106 12.8511L15.1169 9.94485C17.8903 7.17532 20.6598 4.40188 23.4254 1.62454C23.5426 1.52688 23.5973 1.51126 23.6403 1.51126Z" fill="#09427D"/>
<path d="M2.37891 6.69141H13.0625C13.4766 6.69141 13.8164 6.35547 13.8164 5.94141C13.8164 5.52344 13.4766 5.1875 13.0625 5.1875H2.37891C1.06641 5.1875 0 6.25781 0 7.56641V27.5977C0 28.9141 1.07031 29.9766 2.37891 29.9766H22.4062C23.7188 29.9766 24.7852 28.9063 24.7852 27.5977V17.3516C24.7852 16.9336 24.4492 16.5977 24.0312 16.5977C23.6172 16.5977 23.2812 16.9336 23.2812 17.3516V27.5977C23.2812 28.082 22.8828 28.4805 22.3984 28.4805H2.37891C1.89844 28.4805 1.5 28.082 1.5 27.5977V7.57422C1.5 7.08984 1.89844 6.69141 2.37891 6.69141Z" fill="#09427D"/>
</g>
<defs>
<clipPath id="clip0_13127_4650">
<rect width="30" height="30" fill="white"/>
</clipPath>
</defs>
</svg>
