<svg width="98" height="98" viewBox="0 0 98 98" fill="none" xmlns="http://www.w3.org/2000/svg">
<g clip-path="url(#clip0_430_5850)">
<path fill-rule="evenodd" clip-rule="evenodd" d="M49.4212 91.3896L74.3043 91.0895C74.9038 89.5904 72.2056 84.1942 73.7048 80.2966C76.4029 74.301 96.4895 66.2061 97.0895 55.7135C97.0895 49.7179 92.5922 23.0355 90.1942 12.8423C87.4961 1.15039 78.8018 7.74553 80.3008 17.0394C73.7051 14.0413 74.3052 22.4356 74.6045 26.3333C68.3088 29.631 70.1073 32.329 71.0069 44.9199C73.7051 40.1233 76.7032 29.3301 84.4979 32.6285C88.6951 34.7271 88.6951 40.4232 87.1961 44.3204L80.6003 58.7103C79.4013 61.7084 73.4051 66.505 70.1074 67.1045C72.8056 63.5069 75.5036 62.0078 77.6022 57.5113L83.898 43.4207C84.7975 41.3221 85.397 37.125 82.9984 35.926C79.7008 34.4269 77.9017 38.6241 76.7027 41.3221C68.6084 59.6102 62.6121 53.014 52.4195 64.4068C48.2224 69.5036 48.5224 91.0883 49.4214 91.3883L49.4212 91.3896Z" fill="white"/>
<path fill-rule="evenodd" clip-rule="evenodd" d="M48.5212 91.3896L23.6381 91.0895C23.0386 89.5904 25.7368 84.1942 23.9382 80.2966C21.24 74.301 1.15342 66.2061 0.853441 55.7135C0.553386 49.7179 5.3507 23.0355 7.74871 12.8423C10.4469 1.15039 19.1411 7.74553 17.342 17.0394C24.2372 14.0413 23.6377 22.4356 23.3376 26.3333C29.3333 29.631 27.8349 32.329 26.6353 44.9199C23.9371 40.1233 21.2391 29.3301 13.4444 32.6285C8.94711 34.7271 8.94711 40.4232 10.7462 44.3204L17.042 58.7103C18.5411 61.7084 24.5368 66.505 27.5349 67.1045C25.1363 63.5069 22.4381 62.0078 20.3396 57.5113L14.0439 43.4207C13.1443 41.3221 12.2454 37.125 14.6434 35.926C18.241 34.4269 19.7401 38.6241 20.9391 41.3221C29.0334 59.6102 35.329 53.014 45.2223 64.4068C49.7195 69.5036 49.1194 91.0883 48.5199 91.3883L48.5212 91.3896Z" fill="white"/>
<path d="M52.5816 16.5863C53.9916 16.5863 55.2747 16.7273 56.4309 17.0093C57.6153 17.2913 58.7574 17.7143 59.8572 18.2783L57.8268 23.0582C56.868 22.6352 55.9797 22.3109 55.1619 22.0853C54.3441 21.8315 53.484 21.7046 52.5816 21.7046C51.7356 21.7046 50.9601 21.8315 50.2551 22.0853C49.5783 22.3109 48.972 22.6634 48.4362 23.1428C47.9004 23.6222 47.4492 24.2144 47.0826 24.9194C46.7442 25.6244 46.4904 26.4422 46.3212 27.3728H54.6543V31.0106H46.0251C46.0251 31.1234 46.011 31.2785 45.9828 31.4759C45.9828 31.6451 45.9828 31.8566 45.9828 32.1104C45.9828 32.3078 45.9828 32.5193 45.9828 32.7449C45.9828 32.9423 45.9969 33.1538 46.0251 33.3794H53.343V37.0595H46.3635C46.5891 38.1593 46.9839 39.0899 47.5479 39.8513C48.1401 40.5845 48.8874 41.1485 49.7898 41.5433C50.7204 41.9099 51.792 42.0932 53.0046 42.0932C54.0762 42.0932 55.0773 41.9945 56.0079 41.7971C56.9667 41.5715 57.855 41.2754 58.6728 40.9088V46.1963C57.8832 46.5911 56.9949 46.8872 56.0079 47.0846C55.0491 47.3102 53.9211 47.423 52.6239 47.423C50.4243 47.423 48.4644 47.0282 46.7442 46.2386C45.024 45.4208 43.5999 44.2364 42.4719 42.6854C41.3439 41.1344 40.5825 39.2591 40.1877 37.0595H37.3536V33.3794H39.807C39.7788 33.2384 39.7506 33.041 39.7224 32.7872C39.7224 32.5334 39.7224 32.3078 39.7224 32.1104C39.7224 31.8848 39.7224 31.6733 39.7224 31.4759C39.7224 31.2785 39.7365 31.1234 39.7647 31.0106H37.3536V27.3728H40.1031C40.4697 25.1168 41.217 23.1851 42.345 21.5777C43.473 19.9703 44.9112 18.7436 46.6596 17.8976C48.408 17.0234 50.382 16.5863 52.5816 16.5863Z" fill="white"/>
</g>
<defs>
<clipPath id="clip0_430_5850">
<rect width="98" height="98" fill="white"/>
</clipPath>
</defs>
</svg>
