<svg width="20" height="13" viewBox="0 0 20 13" fill="none" xmlns="http://www.w3.org/2000/svg">
<path d="M10.0001 4.00462C12.2093 4.00462 14.0001 5.79549 14.0001 8.00462C14.0001 10.2138 12.2093 12.0046 10.0001 12.0046C7.79098 12.0046 6.00012 10.2138 6.00012 8.00462C6.00012 5.79549 7.79098 4.00462 10.0001 4.00462ZM10.0001 0.5C14.6136 0.5 18.5962 3.65001 19.7012 8.06439C19.8018 8.4662 19.5576 8.87348 19.1558 8.97406C18.754 9.07465 18.3467 8.83045 18.2461 8.42863C17.3072 4.67796 13.9215 2 10.0001 2C6.07705 2 2.69022 4.68026 1.75298 8.43315C1.65261 8.83502 1.24547 9.07944 0.843601 8.97908C0.44173 8.87872 0.19731 8.47158 0.297672 8.06971C1.40076 3.65272 5.3846 0.5 10.0001 0.5Z" fill="#09427D"/>
</svg>
