<svg width="45" height="46" viewBox="0 0 45 46" fill="none" xmlns="http://www.w3.org/2000/svg">
<g clip-path="url(#clip0_591_30314)">
<path d="M25.774 20.3612C26.554 17.5566 27.5521 14.1438 26.3419 11.2815C25.1936 8.56743 21.3152 8.37908 19.1353 8.77769C14.9784 9.54221 9.22154 13.4859 9.93843 19.2086C10.4531 23.3194 13.9774 28.0654 13.8577 31.7107C13.7546 34.817 11.9322 38.2132 12.8477 41.2693C14.1144 45.4941 20.3024 46.9067 22.6749 43.165C25.9843 37.9446 22.882 31.0981 23.6081 25.3094C23.8057 23.7394 25.3556 21.8652 25.7744 20.3621L25.774 20.3612ZM16.5209 22.111C14.9812 21.6549 10.5385 19.7046 15.5724 13.224C18.2958 15.0707 19.3443 16.6961 19.538 18.0397C18.2369 18.5059 17.3397 19.4124 17.4522 21.0525C16.7431 19.366 16.1863 17.0332 15.947 15.5786C15.8269 17.2781 16.0778 20.2999 16.521 22.111H16.5209ZM19.001 23.0423C19.5308 22.01 20.2134 21.0794 21.0771 20.2933C20.0171 20.8796 19.0747 21.624 18.2642 22.519C17.8886 21.4778 17.11 18.0897 22.9289 18.2763C23.0986 23.5973 20.2806 23.4011 19.0009 23.0424L19.001 23.0423Z" fill="#BFD1E3"/>
<path d="M24.2209 7.23622C25.672 7.3232 26.9314 5.88764 27.0328 4.02902C27.1353 2.1704 26.0415 0.592424 24.5923 0.503997C23.1398 0.417014 21.8807 1.85258 21.7783 3.7123C21.6766 5.57092 22.7707 7.14705 24.221 7.23622H24.2209Z" fill="#BFD1E3"/>
<path d="M19.0275 6.82953C20.0375 6.88919 20.9145 5.88959 20.986 4.59456C21.0565 3.29954 20.2941 2.20032 19.2841 2.13959C18.2738 2.07885 17.3967 3.07842 17.3256 4.37455C17.2551 5.66746 18.0182 6.76806 19.0275 6.82953Z" fill="#BFD1E3"/>
<path d="M15.0449 8.20783C15.9791 8.2639 16.7893 7.34123 16.8551 6.14503C16.9216 4.94956 16.2182 3.93343 15.284 3.87556C14.3491 3.81984 13.5393 4.74575 13.4742 5.94084C13.4074 7.13741 14.1112 8.15317 15.0449 8.20783Z" fill="#BFD1E3"/>
<path d="M12.1273 10.0721C12.8904 10.0127 13.4521 9.17239 13.3814 8.19438C13.3113 7.21782 12.6362 6.47121 11.8725 6.53203C11.1098 6.59386 10.5494 7.43493 10.6191 8.41292C10.6871 9.387 11.3621 10.1321 12.1274 10.0721H12.1273Z" fill="#BFD1E3"/>
<path d="M9.85259 12.4489C10.5528 12.281 10.9647 11.4184 10.7691 10.5226C10.575 9.62333 9.84789 9.02886 9.14737 9.19669C8.4454 9.36275 8.03528 10.2258 8.23009 11.1243C8.42491 12.0211 9.15024 12.6153 9.8526 12.4489H9.85259Z" fill="#BFD1E3"/>
<path d="M32.4046 27.5718L36.3879 23.5874C36.4975 23.4781 36.5547 23.3322 36.5547 23.1848C36.5547 23.1115 36.5406 23.0371 36.5115 22.967C36.4228 22.7546 36.2157 22.6162 35.986 22.6162H33.14V10.0929C33.14 9.77876 32.8845 9.52356 32.5707 9.52356H31.4323C31.1164 9.52356 30.863 9.77876 30.863 10.0929V22.6162H28.0181C27.7866 22.6162 27.5799 22.755 27.4908 22.967C27.4602 23.0371 27.4476 23.1119 27.4476 23.1848C27.4476 23.3322 27.5048 23.4781 27.6144 23.5874L31.5995 27.5718C31.8209 27.7946 32.1811 27.7946 32.4046 27.5721L32.4046 27.5718Z" fill="#BFD1E3"/>
</g>
<defs>
<clipPath id="clip0_591_30314">
<rect width="45" height="45" fill="white" transform="translate(0 0.500244)"/>
</clipPath>
</defs>
</svg>
