<svg width="200" height="200" viewBox="0 0 200 200" fill="none" xmlns="http://www.w3.org/2000/svg">
<circle cx="100" cy="100" r="100" fill="#09427D"/>
<g clip-path="url(#clip0_1246_11182)">
<path d="M120.31 152.457C119.143 150.819 117.562 149.621 115.576 149.172C113.844 148.781 112.063 148.848 110.302 148.861L88.0379 149.033C86.1311 149.048 84.3029 150.703 84.3915 152.687C84.4794 154.654 85.9941 156.356 88.0379 156.341C94.5598 156.29 101.082 156.24 107.603 156.189C109.141 156.178 110.679 156.15 112.217 156.155C112.562 156.156 112.906 156.174 113.251 156.178C113.335 156.179 113.395 156.178 113.438 156.176C113.448 156.18 113.457 156.183 113.471 156.187C113.651 156.236 113.836 156.27 114.017 156.317C113.953 156.319 114.134 156.432 114.225 156.47C114.237 156.495 114.264 156.539 114.308 156.606C114.37 156.723 114.554 157.076 114.561 157.065C114.837 157.764 115.065 158.48 115.242 159.21C115.666 160.819 115.759 161.156 115.82 162.665C115.897 164.573 117.442 166.41 119.466 166.319C121.376 166.233 123.196 164.711 123.113 162.665C122.974 159.219 122.37 155.347 120.31 152.457Z" fill="#E6E6E6"/>
<path d="M89.3467 160.701C88.9285 158.161 88.5183 155.621 88.092 153.083C87.6595 150.509 86.776 148.151 84.7766 146.462C84.2423 146.01 83.6884 145.589 83.1321 145.168C82.9365 145.021 82.7412 144.873 82.5479 144.722C82.5363 144.713 82.529 144.707 82.5189 144.699C82.4977 144.681 82.4722 144.659 82.4379 144.63C81.6046 143.924 80.7993 143.185 80.0323 142.401C79.3512 141.704 78.6998 140.978 78.0781 140.221C77.9228 140.032 77.7694 139.842 77.6181 139.65C77.5921 139.616 77.4518 139.435 77.3595 139.316C77.2736 139.198 77.1166 138.984 77.0902 138.946C76.9134 138.696 76.7397 138.443 76.5692 138.188C75.4078 136.444 74.4021 134.602 73.5639 132.681C73.4807 132.491 73.3996 132.299 73.3204 132.106C73.2991 132.047 73.2716 131.972 73.2352 131.871C73.0662 131.406 72.8976 130.941 72.7432 130.47C72.415 129.47 72.1329 128.455 71.8968 127.425C71.7801 126.916 71.675 126.405 71.5815 125.891C71.5334 125.627 71.4883 125.363 71.4463 125.097C71.4394 125.053 71.3985 124.767 71.3743 124.605C71.3565 124.443 71.3234 124.155 71.3189 124.111C71.2922 123.843 71.2685 123.576 71.2478 123.308C71.2012 122.705 71.1697 122.101 71.1532 121.496C71.1252 120.421 71.1444 119.346 71.2109 118.272C71.2487 117.668 71.3026 117.065 71.3689 116.464C71.3729 116.427 71.376 116.398 71.3789 116.371C71.3829 116.344 71.3876 116.314 71.3932 116.276C71.4422 115.944 71.4939 115.612 71.5516 115.281C71.7703 114.025 72.0548 112.782 72.4038 111.556C72.5691 110.976 72.7485 110.401 72.9423 109.831C73.0286 109.578 73.1177 109.325 73.2096 109.074C73.2036 109.09 73.479 108.385 73.4827 108.362C74.5754 105.775 76.3628 103.416 76.3652 100.478C76.3669 98.4881 74.6869 96.5821 72.7188 96.6741C71.7376 96.7111 70.809 97.1284 70.1288 97.8379C69.4486 98.5475 69.0699 99.4939 69.0724 100.478C69.0724 100.522 69.0722 100.561 69.0721 100.598C69.0537 100.66 69.0384 100.711 69.0246 100.757C68.8115 101.221 68.5504 101.662 68.3165 102.114C67.676 103.353 67.1293 104.632 66.6099 105.93C65.7597 108.043 65.109 110.232 64.6661 112.467C63.7036 117.364 63.6289 122.395 64.4456 127.319C65.8594 135.953 70.5217 144.218 77.0035 149.774C77.566 150.256 78.1422 150.722 78.7239 151.179C78.9646 151.368 79.2073 151.553 79.4512 151.737C79.5665 151.824 80.0441 152.202 79.834 152.019C80.2858 152.405 80.476 152.6 80.592 152.884C80.6088 152.95 80.6318 153.039 80.6628 153.161C80.7446 153.482 80.8223 153.802 80.8868 154.127C81.451 156.97 81.8432 159.861 82.3144 162.723C82.6384 164.689 85.0542 165.969 86.8 165.38C88.8319 164.694 89.6938 162.807 89.3467 160.701Z" fill="#E6E6E6"/>
<mask id="path-4-inside-1_1246_11182" fill="white">
<path d="M120.679 168.075C119.147 168.079 117.677 167.474 116.59 166.393C115.503 165.312 114.889 163.844 114.881 162.309V158.142C110.526 158.63 95.6137 158.517 91.339 157.829V162.143C91.3276 163.676 90.7117 165.142 89.6256 166.222C88.5396 167.302 87.0714 167.908 85.5412 167.908C84.011 167.908 82.5429 167.302 81.4568 166.222C80.3708 165.142 79.7549 163.676 79.7434 162.143V153.673C73.9538 150.45 69.1273 145.738 65.7621 140.022C62.3969 134.307 60.6148 127.795 60.5999 121.159C60.5999 109.78 65.7465 99.1655 74.7202 92.0366C80.5548 87.3858 87.6439 84.5888 95.0768 84.0049C96.0857 83.9256 97.1007 83.8855 98.0939 83.8855C101.593 83.8855 117.378 84.427 121.339 85.5687L130.37 76.5897C130.503 76.4559 130.673 76.3648 130.857 76.3279C131.042 76.291 131.233 76.3101 131.407 76.3827C131.582 76.4525 131.732 76.5737 131.838 76.7305C131.943 76.8872 131.998 77.0722 131.996 77.261V78.6887L133.755 76.9436C133.887 76.8097 134.057 76.7184 134.241 76.6814C134.426 76.6445 134.617 76.6636 134.791 76.7362C134.966 76.806 135.116 76.9273 135.222 77.0841C135.327 77.2409 135.382 77.426 135.381 77.6149V93.5684C139.912 97.6618 143.366 102.812 145.436 108.563C147.506 114.314 148.129 120.487 147.248 126.537C146.368 132.586 144.011 138.324 140.388 143.243C136.765 148.162 131.986 152.109 126.477 154.735V162.309C126.469 163.844 125.854 165.312 124.768 166.393C123.681 167.474 122.21 168.079 120.679 168.075ZM115.337 157.624V162.309C115.348 163.721 115.916 165.071 116.917 166.066C117.917 167.06 119.269 167.618 120.679 167.618C122.088 167.618 123.44 167.06 124.441 166.066C125.441 165.071 126.009 163.721 126.021 162.309V154.447L126.151 154.385C132.333 151.445 137.582 146.847 141.313 141.099C146.068 133.765 148.046 124.967 146.888 116.299C145.73 107.63 141.513 99.6634 135.001 93.8402L134.925 93.7721V77.6149C134.926 77.5168 134.898 77.4204 134.843 77.339C134.789 77.2575 134.71 77.1948 134.619 77.1592C134.528 77.1203 134.428 77.1098 134.331 77.1291C134.234 77.1484 134.145 77.1966 134.076 77.2673L131.54 79.7838V77.261C131.542 77.1629 131.514 77.0665 131.459 76.9851C131.404 76.9036 131.326 76.8409 131.235 76.8053C131.144 76.7665 131.043 76.7561 130.946 76.7755C130.849 76.7949 130.76 76.8433 130.691 76.9142L121.467 86.0854L121.335 86.0443C117.654 84.8896 101.619 84.3422 98.0939 84.3422C97.1126 84.3422 96.1095 84.3818 95.1126 84.4602C87.77 85.037 80.7671 87.8 75.0034 92.3944C66.1394 99.4362 61.0556 109.92 61.0556 121.159C61.0708 127.736 62.8433 134.189 66.1891 139.848C69.5348 145.507 74.3318 150.165 80.0817 153.339L80.1992 153.404V162.143C80.211 163.554 80.779 164.904 81.7795 165.899C82.7801 166.893 84.1321 167.451 85.5412 167.451C86.9503 167.451 88.3024 166.893 89.3029 165.899C90.3035 164.904 90.8715 163.554 90.8832 162.143V157.282L91.1533 157.333C94.9947 158.057 111.17 158.171 115.079 157.657L115.337 157.624Z"/>
</mask>
<path d="M120.679 168.075C119.147 168.079 117.677 167.474 116.59 166.393C115.503 165.312 114.889 163.844 114.881 162.309V158.142C110.526 158.63 95.6137 158.517 91.339 157.829V162.143C91.3276 163.676 90.7117 165.142 89.6256 166.222C88.5396 167.302 87.0714 167.908 85.5412 167.908C84.011 167.908 82.5429 167.302 81.4568 166.222C80.3708 165.142 79.7549 163.676 79.7434 162.143V153.673C73.9538 150.45 69.1273 145.738 65.7621 140.022C62.3969 134.307 60.6148 127.795 60.5999 121.159C60.5999 109.78 65.7465 99.1655 74.7202 92.0366C80.5548 87.3858 87.6439 84.5888 95.0768 84.0049C96.0857 83.9256 97.1007 83.8855 98.0939 83.8855C101.593 83.8855 117.378 84.427 121.339 85.5687L130.37 76.5897C130.503 76.4559 130.673 76.3648 130.857 76.3279C131.042 76.291 131.233 76.3101 131.407 76.3827C131.582 76.4525 131.732 76.5737 131.838 76.7305C131.943 76.8872 131.998 77.0722 131.996 77.261V78.6887L133.755 76.9436C133.887 76.8097 134.057 76.7184 134.241 76.6814C134.426 76.6445 134.617 76.6636 134.791 76.7362C134.966 76.806 135.116 76.9273 135.222 77.0841C135.327 77.2409 135.382 77.426 135.381 77.6149V93.5684C139.912 97.6618 143.366 102.812 145.436 108.563C147.506 114.314 148.129 120.487 147.248 126.537C146.368 132.586 144.011 138.324 140.388 143.243C136.765 148.162 131.986 152.109 126.477 154.735V162.309C126.469 163.844 125.854 165.312 124.768 166.393C123.681 167.474 122.21 168.079 120.679 168.075ZM115.337 157.624V162.309C115.348 163.721 115.916 165.071 116.917 166.066C117.917 167.06 119.269 167.618 120.679 167.618C122.088 167.618 123.44 167.06 124.441 166.066C125.441 165.071 126.009 163.721 126.021 162.309V154.447L126.151 154.385C132.333 151.445 137.582 146.847 141.313 141.099C146.068 133.765 148.046 124.967 146.888 116.299C145.73 107.63 141.513 99.6634 135.001 93.8402L134.925 93.7721V77.6149C134.926 77.5168 134.898 77.4204 134.843 77.339C134.789 77.2575 134.71 77.1948 134.619 77.1592C134.528 77.1203 134.428 77.1098 134.331 77.1291C134.234 77.1484 134.145 77.1966 134.076 77.2673L131.54 79.7838V77.261C131.542 77.1629 131.514 77.0665 131.459 76.9851C131.404 76.9036 131.326 76.8409 131.235 76.8053C131.144 76.7665 131.043 76.7561 130.946 76.7755C130.849 76.7949 130.76 76.8433 130.691 76.9142L121.467 86.0854L121.335 86.0443C117.654 84.8896 101.619 84.3422 98.0939 84.3422C97.1126 84.3422 96.1095 84.3818 95.1126 84.4602C87.77 85.037 80.7671 87.8 75.0034 92.3944C66.1394 99.4362 61.0556 109.92 61.0556 121.159C61.0708 127.736 62.8433 134.189 66.1891 139.848C69.5348 145.507 74.3318 150.165 80.0817 153.339L80.1992 153.404V162.143C80.211 163.554 80.779 164.904 81.7795 165.899C82.7801 166.893 84.1321 167.451 85.5412 167.451C86.9503 167.451 88.3024 166.893 89.3029 165.899C90.3035 164.904 90.8715 163.554 90.8832 162.143V157.282L91.1533 157.333C94.9947 158.057 111.17 158.171 115.079 157.657L115.337 157.624Z" fill="white"/>
<path d="M120.679 168.075L122.813 -651.922L120.678 -651.928L118.543 -651.922L120.679 168.075ZM114.881 162.309H-705.119V164.312L-705.109 166.314L114.881 162.309ZM114.881 158.142H934.881V-758.977L23.4782 -656.748L114.881 158.142ZM91.339 157.829L221.671 -651.747L-728.661 -804.74V157.829H91.339ZM91.339 162.143L911.316 168.278L911.339 165.21V162.143H91.339ZM79.7434 162.143H-740.257V165.21L-740.234 168.278L79.7434 162.143ZM79.7434 153.673H899.743V-328.366L478.558 -562.81L79.7434 153.673ZM60.5999 121.159H-759.4V122.084L-759.398 123.009L60.5999 121.159ZM74.7202 92.0366L584.78 734.095L585.31 733.674L585.839 733.252L74.7202 92.0366ZM95.0768 84.0049L159.298 901.486L159.311 901.485L95.0768 84.0049ZM121.339 85.5687L-105.791 873.485L357.537 1007.05L699.485 667.073L121.339 85.5687ZM130.37 76.5897L708.516 658.094L710.468 656.154L712.407 654.2L130.37 76.5897ZM131.407 76.3827L-184.527 833.076L-178.401 835.634L-172.234 838.093L131.407 76.3827ZM131.996 77.261L-687.971 69.9368L-688.004 73.5989V77.261H131.996ZM131.996 78.6887H-688.004V2047.62L709.588 660.744L131.996 78.6887ZM133.755 76.9436L711.346 658.999L714.022 656.344L716.673 653.664L133.755 76.9436ZM134.791 76.7362L-181.599 833.24L-175.066 835.972L-168.488 838.59L134.791 76.7362ZM135.381 77.6149L-684.588 70.4685L-684.619 74.0416V77.6149H135.381ZM135.381 93.5684H-684.619V457.874L-414.276 702.073L135.381 93.5684ZM126.477 154.735L-226.308 -585.497L-693.523 -362.828V154.735H126.477ZM126.477 162.309L946.467 166.316L946.477 164.313V162.309H126.477ZM115.337 157.624H935.337V-776.976L8.67715 -655.41L115.337 157.624ZM115.337 162.309H-704.663V165.647L-704.636 168.985L115.337 162.309ZM120.679 167.618V-652.382V167.618ZM126.021 162.309L945.994 168.985L946.021 165.647V162.309H126.021ZM126.021 154.447L-226.104 -586.099L-693.979 -363.628V154.447H126.021ZM126.151 154.385L-225.952 -586.171L-225.963 -586.166L-225.974 -586.161L126.151 154.385ZM141.313 141.099L829.068 587.633L829.213 587.411L829.357 587.188L141.313 141.099ZM135.001 93.8402L-413.397 703.479L-412.484 704.3L-411.569 705.119L135.001 93.8402ZM134.925 93.7721H-685.075V459.093L-413.473 703.411L134.925 93.7721ZM134.925 77.6149L-684.962 63.995L-685.075 70.8045V77.6149H134.925ZM134.619 77.1592L-188.335 830.884L-175.566 836.355L-162.619 841.39L134.619 77.1592ZM134.076 77.2673L711.681 659.309L716.274 654.751L720.795 650.121L134.076 77.2673ZM131.54 79.7838H-688.46V2048.78L709.145 661.826L131.54 79.7838ZM131.54 77.261L-688.346 63.6465L-688.46 70.4533V77.261H131.54ZM131.235 76.8053L-190.635 830.993L-178.399 836.216L-166 841.038L131.235 76.8053ZM130.691 76.9142L708.837 658.419L713.356 653.926L717.804 649.363L130.691 76.9142ZM121.467 86.0854L-124.087 868.456L348.418 1016.76L699.612 667.59L121.467 86.0854ZM121.335 86.0443L366.889 -696.326L366.798 -696.355L366.708 -696.383L121.335 86.0443ZM95.1126 84.4602L159.327 901.942L159.359 901.94L159.39 901.937L95.1126 84.4602ZM75.0034 92.3944L585.065 734.451L585.599 734.028L586.131 733.603L75.0034 92.3944ZM61.0556 121.159H-758.944V122.103L-758.942 123.048L61.0556 121.159ZM80.0817 153.339L477.893 -563.701L477.1 -564.141L476.306 -564.58L80.0817 153.339ZM80.1992 153.404H900.199V-329.407L478.01 -563.636L80.1992 153.404ZM80.1992 162.143H-739.801V165.555L-739.772 168.967L80.1992 162.143ZM90.8832 162.143L910.855 168.967L910.883 165.555V162.143H90.8832ZM90.8832 157.282L242.614 -648.558L-729.117 -831.524V157.282H90.8832ZM91.1533 157.333L243.063 -648.473L242.974 -648.49L242.884 -648.507L91.1533 157.333ZM115.079 157.657L8.41961 -655.376L8.32269 -655.364L8.22578 -655.351L115.079 157.657ZM118.543 -651.922C334.681 -652.485 541.896 -567.108 694.812 -415.035L-461.632 747.822C-306.542 902.057 -96.386 988.643 122.815 988.072L118.543 -651.922ZM694.812 -415.035C847.673 -263.017 933.821 -56.7942 934.871 158.304L-705.109 166.314C-704.044 384.481 -616.667 593.642 -461.632 747.822L694.812 -415.035ZM934.881 162.309V158.142H-705.119V162.309H934.881ZM23.4782 -656.748C46.5871 -659.34 64.5036 -660.308 71.1932 -660.647C79.9587 -661.093 86.9369 -661.293 91.2881 -661.392C99.971 -661.59 106.955 -661.581 112.164 -661.523C117.179 -661.468 125.254 -661.316 135.731 -660.81C140.961 -660.558 149.71 -660.079 160.729 -659.171C168.993 -658.491 192.086 -656.51 221.671 -651.747L-38.9934 967.405C11.0495 975.461 52.5707 977.085 56.6862 977.284C71.2977 977.989 84.1742 978.267 93.9957 978.376C95.4675 978.392 147.492 979.626 206.284 973.031L23.4782 -656.748ZM-728.661 157.829V162.143H911.339V157.829H-728.661ZM-728.638 156.007C-727.034 -58.3491 -640.936 -263.707 -488.596 -415.207L667.847 747.652C822.36 593.991 909.689 385.7 911.316 168.278L-728.638 156.007ZM-488.596 -415.207C-336.202 -566.76 -129.857 -652.092 85.5412 -652.092V987.908C303.999 987.908 513.281 901.364 667.847 747.652L-488.596 -415.207ZM85.5412 -652.092C300.939 -652.092 507.284 -566.76 659.678 -415.207L-496.764 747.652C-342.198 901.365 -132.916 987.908 85.5412 987.908V-652.092ZM659.678 -415.207C812.018 -263.708 898.117 -58.3497 899.72 156.007L-740.234 168.278C-738.607 385.701 -651.277 593.992 -496.764 747.652L659.678 -415.207ZM899.743 162.143V153.673H-740.257V162.143H899.743ZM478.558 -562.81C600.409 -494.984 701.783 -395.924 772.38 -276.02L-640.856 556.064C-563.529 687.399 -452.501 795.884 -319.071 870.155L478.558 -562.81ZM772.38 -276.02C842.97 -156.127 880.284 -19.6617 880.598 119.308L-759.398 123.009C-759.055 275.251 -718.177 424.74 -640.856 556.064L772.38 -276.02ZM880.6 121.159C880.6 361.966 769.971 586.976 584.78 734.095L-435.34 -550.022C-638.478 -388.646 -759.4 -142.406 -759.4 121.159H880.6ZM585.839 733.252C463.748 830.572 315.219 889.237 159.298 901.486L30.8557 -733.476C-139.931 -720.059 -302.639 -655.8 -436.399 -549.179L585.839 733.252ZM159.311 901.485C139.325 903.056 118.91 903.885 98.0939 903.885V-736.115C75.2915 -736.115 52.8467 -735.204 30.8431 -733.475L159.311 901.485ZM98.0939 903.885C84.9857 903.885 75.7006 903.545 74.9986 903.522C71.7246 903.411 67.7303 903.247 62.8778 902.97C59.2023 902.76 48.5617 902.132 34.0967 900.67C26.9372 899.947 13.4301 898.484 -3.69538 895.885C-12.4816 894.551 -25.0256 892.497 -40.064 889.495C-54.0722 886.699 -77.3748 881.676 -105.791 873.485L348.469 -702.347C297.025 -717.177 255.334 -723.583 242.389 -725.548C223.628 -728.395 208.211 -730.087 198.96 -731.022C180.312 -732.906 164.763 -733.885 156.209 -734.372C142.054 -735.179 120.622 -736.115 98.0939 -736.115V903.885ZM699.485 667.073L708.516 658.094L-447.776 -504.915L-456.807 -495.935L699.485 667.073ZM712.407 654.2C597.815 769.67 451.293 848.532 291.422 880.454L-29.7069 -727.798C-189.948 -695.802 -336.808 -616.758 -451.666 -501.021L712.407 654.2ZM291.422 880.454C131.544 912.378 -34.1699 895.853 -184.527 833.076L447.342 -680.311C296.637 -743.233 130.54 -759.796 -29.7069 -727.798L291.422 880.454ZM-172.234 838.093C-325.907 776.834 -457.265 670.548 -549.219 533.416L812.894 -379.955C720.73 -517.401 589.072 -623.929 435.048 -685.327L-172.234 838.093ZM-549.219 533.416C-641.164 396.298 -689.443 234.731 -687.971 69.9368L951.964 84.5852C953.439 -80.5869 905.05 -242.523 812.894 -379.955L-549.219 533.416ZM-688.004 77.261V78.6887H951.996V77.261H-688.004ZM709.588 660.744L711.346 658.999L-443.836 -505.112L-445.595 -503.367L709.588 660.744ZM716.673 653.664C602.027 769.542 455.298 848.684 295.179 880.733L-26.6963 -727.37C-187.184 -695.247 -334.253 -615.922 -449.163 -499.777L716.673 653.664ZM295.179 880.733C135.025 912.789 -31.0041 896.222 -181.599 833.24L451.181 -679.767C300.239 -742.895 133.827 -759.5 -26.6963 -727.37L295.179 880.733ZM-168.488 838.59C-322.223 777.392 -453.654 671.137 -545.677 534.005L816.12 -379.837C723.887 -517.282 592.155 -623.78 438.07 -685.118L-168.488 838.59ZM-545.677 534.005C-637.692 396.886 -686.025 235.296 -684.588 70.4685L955.349 84.7614C956.789 -80.4441 908.345 -242.404 816.12 -379.837L-545.677 534.005ZM-684.619 77.6149V93.5684H955.381V77.6149H-684.619ZM-414.276 702.073C-509.854 615.738 -582.559 507.246 -626.099 386.291L916.972 -169.165C869.292 -301.622 789.678 -420.415 685.037 -514.936L-414.276 702.073ZM-626.099 386.291C-669.636 265.344 -682.709 135.565 -664.199 8.41328L958.696 244.66C978.966 105.41 964.649 -36.7167 916.972 -169.165L-626.099 386.291ZM-664.199 8.41328C-645.689 -118.742 -596.144 -239.482 -519.825 -343.088L800.601 629.575C884.167 516.131 938.424 383.914 958.696 244.66L-664.199 8.41328ZM-519.825 -343.088C-443.5 -446.704 -342.72 -530.016 -226.308 -585.497L479.262 894.967C606.693 834.234 717.029 743.027 800.601 629.575L-519.825 -343.088ZM-693.523 154.735V162.309H946.477V154.735H-693.523ZM-693.514 158.302C-692.463 -56.7883 -606.32 -263.013 -453.455 -415.035L702.99 747.822C858.029 593.638 945.401 384.475 946.467 166.316L-693.514 158.302ZM-453.455 -415.035C-300.537 -567.11 -93.3215 -652.485 122.813 -651.922L118.544 988.072C337.742 988.643 547.898 902.058 702.99 747.822L-453.455 -415.035ZM-704.663 157.624V162.309H935.337V157.624H-704.663ZM-704.636 168.985C-702.867 386.195 -615.522 594.231 -461.112 747.686L694.946 -415.555C847.354 -264.088 933.564 -58.7528 935.31 155.633L-704.636 168.985ZM-461.112 747.686C-306.65 901.195 -97.5666 987.618 120.679 987.618V-652.382C336.106 -652.382 542.484 -567.075 694.946 -415.555L-461.112 747.686ZM120.679 987.618C338.923 987.618 548.007 901.196 702.47 747.686L-453.588 -415.555C-301.126 -567.075 -94.747 -652.382 120.679 -652.382V987.618ZM702.47 747.686C856.883 594.227 944.225 386.19 945.994 168.985L-693.952 155.633C-692.207 -58.7477 -606 -264.084 -453.588 -415.555L702.47 747.686ZM946.021 162.309V154.447H-693.979V162.309H946.021ZM478.145 894.992L478.276 894.931L-225.974 -586.161L-226.104 -586.099L478.145 894.992ZM478.254 894.941C621.496 826.835 742.872 720.394 829.068 587.633L-546.442 -305.435C-467.709 -426.701 -356.83 -523.945 -225.952 -586.171L478.254 894.941ZM829.357 587.188C940.567 415.659 986.704 210.127 959.669 7.73087L-665.893 224.867C-690.612 39.8079 -648.431 -148.129 -546.731 -304.99L829.357 587.188ZM959.669 7.73087C932.632 -194.679 834.132 -381.026 681.57 -517.438L-411.569 705.119C-551.106 580.353 -641.172 409.939 -665.893 224.867L959.669 7.73087ZM683.398 -515.799L683.323 -515.867L-413.473 703.411L-413.397 703.479L683.398 -515.799ZM954.925 93.7721V77.6149H-685.075V93.7721H954.925ZM954.812 91.2348C957.591 -76.0591 909.153 -240.381 815.744 -379.58L-546.057 534.258C-639.357 395.222 -687.738 231.093 -684.962 63.995L954.812 91.2348ZM815.744 -379.58C722.344 -518.763 588.432 -626.174 431.858 -687.072L-162.619 841.39C-319.012 780.564 -452.767 673.278 -546.057 534.258L815.744 -379.58ZM457.573 -676.565C305.288 -741.816 136.781 -759.45 -25.7732 -727.089L294.435 881.347C132.075 913.67 -36.2311 896.057 -188.335 830.884L457.573 -676.565ZM-25.7732 -727.089C-188.331 -694.727 -337.091 -613.934 -452.642 -495.586L720.795 650.121C605.382 768.327 456.8 849.024 294.435 881.347L-25.7732 -727.089ZM-443.528 -504.775L-446.064 -502.258L709.145 661.826L711.681 659.309L-443.528 -504.775ZM951.54 79.7838V77.261H-688.46V79.7838H951.54ZM951.427 90.8756C954.206 -76.4445 905.753 -240.761 812.357 -379.938L-549.439 533.908C-642.725 394.894 -691.122 230.77 -688.346 63.6465L951.427 90.8756ZM812.357 -379.938C718.962 -519.113 585.053 -626.527 428.469 -687.427L-166 841.038C-322.401 780.209 -456.153 672.92 -549.439 533.908L812.357 -379.938ZM453.105 -677.383C300.821 -742.374 132.403 -759.786 -30.0141 -727.272L291.906 880.823C129.683 913.298 -38.5339 895.907 -190.635 830.993L453.105 -677.383ZM-30.0141 -727.272C-192.458 -694.753 -341.042 -613.871 -456.422 -495.535L717.804 649.363C602.562 767.557 454.156 848.342 291.906 880.823L-30.0141 -727.272ZM-447.455 -504.59L-456.679 -495.419L699.612 667.59L708.837 658.419L-447.455 -504.59ZM367.02 -696.285L366.889 -696.326L-124.218 868.415L-124.087 868.456L367.02 -696.285ZM366.708 -696.383C307.631 -714.91 259.377 -722.429 246.841 -724.4C226.658 -727.575 210.147 -729.417 200.609 -730.399C181.234 -732.393 165.119 -733.407 156.546 -733.898C142.101 -734.725 120.586 -735.658 98.0939 -735.658V904.342C84.9985 904.342 75.7391 904.003 75.052 903.98C71.7967 903.87 67.7413 903.703 62.7661 903.418C59.1019 903.209 47.9066 902.548 32.6835 900.981C25.2221 900.213 10.5955 898.604 -7.99265 895.68C-17.5145 894.182 -31.4803 891.81 -48.3085 888.27C-63.711 885.029 -90.8536 878.878 -124.037 868.472L366.708 -696.383ZM98.0939 -735.658C75.2889 -735.658 52.8414 -734.747 30.8351 -733.017L159.39 901.937C139.378 903.511 118.936 904.342 98.0939 904.342V-735.658ZM30.8982 -733.022C-139.804 -719.613 -302.432 -655.385 -436.124 -548.814L586.131 733.603C463.966 830.985 315.344 889.687 159.327 901.942L30.8982 -733.022ZM-435.058 -549.662C-638.059 -388.395 -758.944 -142.299 -758.944 121.159H881.056C881.056 362.14 770.338 587.267 585.065 734.451L-435.058 -549.662ZM-758.942 123.048C-758.59 275.726 -717.451 425.622 -639.668 557.179L772.046 -277.483C843.137 -157.243 880.732 -20.254 881.053 119.269L-758.942 123.048ZM-639.668 557.179C-561.879 688.749 -450.225 797.255 -316.143 871.257L476.306 -564.58C598.889 -496.925 700.949 -397.735 772.046 -277.483L-639.668 557.179ZM-317.73 870.378L-317.612 870.444L478.01 -563.636L477.893 -563.701L-317.73 870.378ZM-739.801 153.404V162.143H900.199V153.404H-739.801ZM-739.772 168.967C-737.965 386.149 -650.603 594.147 -496.197 747.571L659.756 -415.774C812.161 -264.338 898.387 -59.0401 900.171 155.318L-739.772 168.967ZM-496.197 747.571C-341.734 901.053 -132.671 987.451 85.5412 987.451V-652.549C300.936 -652.549 507.294 -567.267 659.756 -415.774L-496.197 747.571ZM85.5412 987.451C303.754 987.451 512.817 901.053 667.279 747.571L-488.674 -415.774C-336.212 -567.267 -129.853 -652.549 85.5412 -652.549V987.451ZM667.279 747.571C821.685 594.147 909.047 386.15 910.855 168.967L-729.088 155.318C-727.304 -59.0408 -641.078 -264.338 -488.674 -415.774L667.279 747.571ZM910.883 162.143V157.282H-729.117V162.143H910.883ZM-60.8478 963.122L-60.5778 963.173L242.884 -648.507L242.614 -648.558L-60.8478 963.122ZM-60.7567 963.139C-20.0752 970.808 12.4829 973.654 21.7584 974.464C36.0945 975.717 47.9843 976.391 55.5432 976.765C70.8877 977.522 84.2984 977.803 94.1199 977.91C104.193 978.021 116.319 978.01 129.599 977.697C130.363 977.678 172.309 977.188 221.933 970.666L8.22578 -655.351C38.8217 -659.372 62.6083 -660.647 68.7295 -660.979C78.6419 -661.516 86.42 -661.741 90.8646 -661.846C99.892 -662.059 107.002 -662.047 112.062 -661.992C116.871 -661.939 125.273 -661.79 136.382 -661.242C141.823 -660.973 151.788 -660.422 164.489 -659.313C172.13 -658.645 203.342 -655.961 243.063 -648.473L-60.7567 963.139ZM221.739 970.691L221.996 970.657L8.67715 -655.41L8.41961 -655.376L221.739 970.691Z" fill="white" mask="url(#path-4-inside-1_1246_11182)"/>
<path d="M89.7825 59.0189L64.5448 66.6184C63.7421 66.861 63.0683 67.4131 62.6716 68.1532C62.2748 68.8933 62.1875 69.7609 62.4288 70.5655C62.6701 71.3701 63.2203 72.0458 63.9585 72.4441C64.6967 72.8425 65.5625 72.931 66.3658 72.6901L88.4514 66.0384L88.9141 65.8991C89.0078 63.5102 89.6546 61.1759 90.8034 59.0806C90.6592 59.0156 90.5051 58.9754 90.3476 58.9618C90.1573 58.9434 89.9653 58.9628 89.7825 59.0189Z" fill="#70BFCB"/>
<path d="M65.9293 74.3095C65.5942 74.3087 65.2679 74.2024 64.9965 74.0057C64.725 73.8089 64.5221 73.5317 64.4165 73.2132L62.8383 68.4416C62.7724 68.2424 62.7463 68.032 62.7615 67.8227C62.7768 67.6133 62.833 67.409 62.927 67.2214C63.021 67.0338 63.151 66.8666 63.3096 66.7294C63.4681 66.5921 63.6521 66.4875 63.8509 66.4215L84.3918 59.6007C84.5907 59.5347 84.8006 59.5085 85.0095 59.5237C85.2184 59.539 85.4223 59.5953 85.6096 59.6895C85.7968 59.7837 85.9637 59.9139 86.1006 60.0727C86.2376 60.2315 86.3421 60.4158 86.408 60.615L87.9861 65.3866C88.1174 65.779 88.0911 66.2073 87.9127 66.5806C87.7344 66.954 87.418 67.2431 87.0305 67.3867C87.0116 67.3939 86.9924 67.4006 86.9731 67.4069L66.4326 74.2275C66.2703 74.2817 66.1004 74.3094 65.9293 74.3095Z" fill="#2F2E41"/>
<path d="M104.398 50.5449C100.252 50.5465 96.2694 52.1644 93.2932 55.0561C90.3169 57.9478 88.5805 61.8864 88.4514 66.0383C88.4468 66.2004 88.4446 66.3649 88.4446 66.5293C88.4446 69.6907 89.3802 72.7811 91.1331 75.4097C92.8861 78.0383 95.3776 80.0871 98.2926 81.2969C101.208 82.5067 104.415 82.8232 107.51 82.2065C110.604 81.5897 113.447 80.0674 115.678 77.8319C117.909 75.5965 119.428 72.7483 120.044 69.6477C120.66 66.547 120.344 63.3331 119.136 60.4123C117.929 57.4916 115.884 54.9952 113.261 53.2388C110.637 51.4824 107.553 50.5449 104.398 50.5449ZM104.398 82.0569C100.289 82.0526 96.3495 80.4153 93.4441 77.5042C90.5388 74.5932 88.9047 70.6461 88.9004 66.5293C88.9004 66.3169 88.9049 66.1068 88.9141 65.899C89.0375 62.8574 90.0505 59.9192 91.8271 57.4498C93.6038 54.9804 96.0657 53.0887 98.9067 52.0101C101.748 50.9314 104.843 50.7132 107.806 51.3827C110.77 52.0523 113.472 53.5799 115.576 55.7758C117.681 57.9716 119.094 60.7388 119.641 63.7332C120.188 66.7275 119.845 69.817 118.654 72.6174C117.463 75.4179 115.476 77.8057 112.942 79.484C110.407 81.1623 107.436 82.057 104.398 82.0569Z" fill="#4E6E73"/>
<path d="M117.844 66.5291C117.844 70.1022 116.427 73.529 113.905 76.0556C111.384 78.5822 107.964 80.0016 104.397 80.0016C100.831 80.0016 97.4113 78.5822 94.8897 76.0556C92.3681 73.529 90.9514 70.1022 90.9514 66.5291C90.9514 66.1021 90.9719 65.6819 91.0106 65.2663C91.3346 61.8179 92.9718 58.627 95.5821 56.3561C98.1923 54.0853 101.575 52.909 105.028 53.0715C108.481 53.234 111.739 54.7228 114.126 57.2288C116.512 59.7348 117.844 63.0654 117.844 66.5291Z" fill="#E6E6E6"/>
<path d="M108.402 67.424C108.076 66.9947 107.647 66.6546 107.155 66.4353C106.549 66.1791 105.922 65.9729 105.282 65.8188V62.1515C106.266 62.3001 107.189 62.7217 107.946 63.3686L108.689 61.7816C108.262 61.4001 107.771 61.0964 107.239 60.8842C106.65 60.6451 106.032 60.4861 105.4 60.4115V58.5527H103.68V60.4298C103.015 60.5045 102.374 60.7202 101.8 61.0623C101.28 61.3702 100.843 61.7996 100.526 62.3136C100.222 62.8153 100.065 63.3919 100.072 63.9783C100.042 64.6137 100.226 65.2408 100.594 65.7594C100.932 66.2084 101.38 66.5636 101.893 66.7915C102.509 67.0553 103.147 67.2669 103.798 67.424V70.9383C102.637 70.8506 101.531 70.4082 100.628 69.671L99.8853 71.2603C100.39 71.6783 100.964 72.0045 101.581 72.2239C102.257 72.4664 102.963 72.6139 103.68 72.6623V74.5051H105.4V72.6281C106.356 72.5235 107.252 72.1117 107.955 71.4544C108.265 71.157 108.509 70.7984 108.673 70.4014C108.837 70.0044 108.917 69.5776 108.908 69.1481C108.936 68.5329 108.758 67.9258 108.402 67.424ZM103.798 65.4306C103.379 65.3032 102.989 65.0936 102.652 64.814C102.518 64.6948 102.412 64.5474 102.342 64.3823C102.272 64.2173 102.239 64.0388 102.246 63.8595C102.234 63.4528 102.383 63.0578 102.661 62.7612C102.969 62.45 103.367 62.2432 103.798 62.1698V65.4306ZM106.362 70.2898C106.071 70.5886 105.693 70.7862 105.282 70.8538V67.8305C105.675 67.9361 106.042 68.1202 106.362 68.3717C106.483 68.4755 106.58 68.6054 106.644 68.7516C106.708 68.8979 106.739 69.0568 106.734 69.2166C106.749 69.6085 106.617 69.9919 106.362 70.2898Z" fill="#70BFCB"/>
<path d="M66.6616 93.6486C66.3093 93.648 65.967 93.531 65.6879 93.3156C65.4087 93.1003 65.2082 92.7987 65.1176 92.4576L64.2584 89.199C64.1508 88.7895 64.2098 88.3539 64.4223 87.9878C64.6349 87.6218 64.9837 87.3551 65.3922 87.2464L92.4987 80.0695C92.9078 79.9625 93.3424 80.0223 93.7076 80.2356C94.0728 80.4489 94.3388 80.7985 94.4475 81.2079L95.1754 83.9686L95.039 83.9792C88.087 84.5208 81.4353 87.0463 75.8709 91.2569L75.8314 91.276L67.0663 93.596C66.9342 93.6309 66.7982 93.6486 66.6616 93.6486Z" fill="#2F2E41"/>
<path d="M62.1724 109.743C58.9927 109.273 55.9516 108.121 53.2565 106.366C51.9213 105.497 50.6852 104.484 49.5704 103.345C48.4702 102.221 47.4176 100.943 46.8726 99.4451C46.3483 98.0596 46.3753 96.5252 46.9481 95.1591C47.5131 93.8014 48.5923 92.7236 49.9492 92.1619C51.3143 91.6165 52.9635 91.5582 54.292 92.1555C54.925 92.4335 55.4728 92.8753 55.8791 93.4356C56.068 93.6939 56.2079 93.9848 56.2917 94.2937C56.3695 94.5737 56.3766 94.8687 56.3123 95.1521C56.2344 95.4351 56.097 95.6981 55.9094 95.9235C55.7217 96.1488 55.4882 96.3314 55.2243 96.459C54.6437 96.7574 54.0145 96.9497 53.3665 97.0267C52.7146 97.1158 51.7783 97.1968 51.2543 96.6725C51.1464 96.5688 51.0616 96.4435 51.0053 96.3047C50.9659 96.1985 50.9524 96.0843 50.966 95.9718C50.9584 96.0214 50.9976 95.8639 50.9954 95.8702C50.9871 95.8935 50.9512 95.9502 51.0022 95.863C51.0182 95.8343 51.0359 95.8066 51.0553 95.7801C51.038 95.8026 51 95.84 51.0679 95.7758C51.124 95.7142 51.1962 95.6696 51.2763 95.6469C51.3078 95.6377 51.3398 95.6304 51.3715 95.6217C51.4519 95.5997 51.2913 95.6229 51.3736 95.6203C51.4053 95.6192 51.4374 95.62 51.4691 95.6186C51.5497 95.615 51.3895 95.5965 51.4668 95.616C51.4968 95.6236 51.5265 95.631 51.5561 95.6403C51.6204 95.6606 51.5106 95.5931 51.5542 95.6436C51.6052 95.7029 51.5006 95.586 51.5586 95.6433C51.5875 95.6718 51.6147 95.7018 51.6401 95.7334C51.7407 95.8329 51.8764 95.8887 52.0178 95.8887C52.1592 95.8887 52.295 95.8329 52.3956 95.7334C52.4928 95.6314 52.547 95.4959 52.547 95.3549C52.547 95.2139 52.4928 95.0783 52.3956 94.9764C51.8688 94.3221 50.8283 94.4838 50.2954 95.0368C49.6158 95.742 49.885 96.8597 50.546 97.4751C51.2944 98.1717 52.3543 98.2201 53.3169 98.1033C54.1304 98.0252 54.9232 97.8007 55.6572 97.4406C56.3865 97.0816 56.9569 96.4641 57.258 95.7079C57.3939 95.3043 57.4427 94.8764 57.4012 94.4524C57.3597 94.0285 57.2288 93.6183 57.0172 93.2488C56.1673 91.6478 54.4075 90.827 52.6679 90.6849C51.7723 90.6146 50.8717 90.7229 50.0182 91.0037C49.1647 91.2844 48.3752 91.732 47.6954 92.3205C46.3852 93.5023 45.5784 95.1435 45.4419 96.9045C45.2901 98.7304 45.9971 100.504 47.0279 101.977C48.1071 103.474 49.3948 104.809 50.8519 105.94C53.7006 108.218 57.042 109.797 60.6088 110.55C61.033 110.638 61.4596 110.713 61.8884 110.776C62.0248 110.809 62.1687 110.789 62.2908 110.719C62.4129 110.65 62.504 110.536 62.5455 110.402C62.5821 110.265 62.5635 110.119 62.4937 109.996C62.4239 109.873 62.3085 109.782 62.1724 109.743L62.1724 109.743Z" fill="white"/>
<path d="M113.082 86.4806C108.423 86.4147 103.779 86.5331 99.1495 86.8359C97.5671 86.9395 96.198 87.4998 96.198 88.4417C96.198 89.2292 97.5562 90.1517 99.1495 90.0474C103.776 89.7447 108.421 89.6262 113.082 89.692C116.882 89.7458 116.879 86.5342 113.082 86.4806Z" fill="#CCCCCC"/>
<path d="M106.196 89.5331C105.693 89.5331 93.8655 89.5142 93.8655 87.8773C93.8655 86.2405 105.693 86.2217 106.196 86.2217C106.7 86.2217 118.527 86.2405 118.527 87.8773C118.527 89.5142 106.7 89.5331 106.196 89.5331ZM94.328 87.8773C94.6516 88.3736 98.9991 89.0764 106.196 89.0764C113.393 89.0764 117.741 88.3736 118.064 87.8773C117.741 87.3811 113.393 86.6784 106.196 86.6784C98.9991 86.6784 94.6516 87.3812 94.328 87.8773V87.8773Z" fill="white"/>
<path d="M143.721 132.566C146.339 132.493 149.597 132.402 152.108 130.564C152.855 129.995 153.469 129.268 153.907 128.436C154.345 127.603 154.596 126.685 154.642 125.745C154.693 124.294 154.17 123.028 153.169 122.18C151.857 121.07 149.943 120.81 147.88 121.417L150.017 105.764L148.448 105.549L145.935 123.951L147.245 123.348C148.765 122.65 150.85 122.295 152.146 123.392C152.464 123.679 152.712 124.035 152.871 124.434C153.029 124.832 153.093 125.262 153.059 125.69C153.021 126.389 152.832 127.072 152.507 127.692C152.181 128.312 151.727 128.854 151.173 129.283C149.22 130.712 146.622 130.897 143.677 130.979L143.721 132.566Z" fill="white"/>
<path d="M139.382 107.114H130.851V108.701H139.382V107.114Z" fill="white"/>
<path d="M70.5221 100.948C70.1423 100.947 69.7755 100.81 69.4872 100.563C69.1988 100.315 69.0079 99.9727 68.9486 99.5969L68.4279 96.2672C68.3629 95.8485 68.4663 95.421 68.7155 95.0785C68.9647 94.736 69.3393 94.5066 69.7571 94.4406L97.4541 90.0923C97.872 90.0271 98.2986 90.1307 98.6404 90.3804C98.9822 90.6301 99.2111 91.0054 99.277 91.424L99.7977 94.7538C99.8628 95.1725 99.7594 95.6 99.5102 95.9425C99.261 96.285 98.8864 96.5144 98.4686 96.5804L70.7717 100.929C70.6891 100.942 70.6056 100.948 70.5221 100.948Z" fill="#2F2E41"/>
<path d="M59.0596 61.9272C65.4788 61.9272 70.6825 56.7132 70.6825 50.2815C70.6825 43.8497 65.4788 38.6357 59.0596 38.6357C52.6405 38.6357 47.4368 43.8497 47.4368 50.2815C47.4368 56.7132 52.6405 61.9272 59.0596 61.9272Z" fill="#70BFCB"/>
<path d="M65.6402 53.2948C66.0117 53.1646 66.351 52.9562 66.6354 52.6837C66.8236 52.4894 66.9671 52.2562 67.0559 52.0005C67.1446 51.7447 67.1765 51.4727 67.1493 51.2033C67.1335 51.0113 67.0736 50.8256 66.9743 50.6606C66.875 50.4957 66.7389 50.356 66.5768 50.2524C66.1562 49.9932 65.6003 50.003 65.0392 50.2637L64.9744 45.7178L64.5187 45.7243L64.5948 51.0685L64.9417 50.8405C65.344 50.5765 65.9221 50.3851 66.338 50.6415C66.4408 50.7093 66.5267 50.8 66.5889 50.9066C66.651 51.0131 66.6879 51.1325 66.6964 51.2556C66.7156 51.4563 66.6914 51.6587 66.6255 51.8492C66.5596 52.0397 66.4535 52.2137 66.3144 52.3594C65.8204 52.8506 65.0891 53.0152 64.2544 53.1657L64.3352 53.6151C64.7789 53.5476 65.2156 53.4404 65.6402 53.2948Z" fill="#2F2E41"/>
<path d="M69.6677 45.3983L67.2405 45.7666L67.3087 46.2181L69.7359 45.8498L69.6677 45.3983Z" fill="#2F2E41"/>
<path d="M62.0065 46.5604L59.5793 46.9287L59.6476 47.3802L62.0748 47.0119L62.0065 46.5604Z" fill="#2F2E41"/>
<path d="M66.7404 100.744C66.3224 100.743 65.9146 100.615 65.5712 100.376C65.2278 100.137 64.9652 99.7995 64.8182 99.4074L56.8045 77.9041C55.8251 75.2669 55.9296 72.348 57.0954 69.788C58.2611 67.2279 60.3927 65.2357 63.0226 64.2484L69.5386 61.8105C69.7906 61.7156 70.0588 61.6716 70.3278 61.6809C70.5968 61.6903 70.8613 61.7529 71.1061 61.865C71.3503 61.9744 71.5703 62.1313 71.7533 62.3268C71.9362 62.5223 72.0784 62.7524 72.1716 63.0035L87.0162 91.0866C87.1126 91.3399 87.1581 91.6097 87.15 91.8806C87.1419 92.1515 87.0804 92.4181 86.969 92.6651C86.8577 92.9121 86.6987 93.1346 86.5012 93.3198C86.3037 93.505 86.0716 93.6492 85.8183 93.7442L67.4572 100.614C67.228 100.7 66.9852 100.744 66.7404 100.744Z" fill="#2F2E41"/>
<path d="M67.5618 62.5498L82.2907 82.2849L72.3243 62.757C72.242 62.5291 72.1157 62.3197 71.9526 62.1408C71.7895 61.9619 71.5928 61.8169 71.3738 61.7141C71.1548 61.6114 70.9177 61.5529 70.6761 61.5419C70.4345 61.531 70.1931 61.5678 69.9657 61.6504L67.5618 62.5498Z" fill="#E6E6E6"/>
<path d="M90.8831 77.5373L64.5846 75.8399C64.17 75.8132 63.7648 75.7049 63.3921 75.5212C63.0193 75.3376 62.6863 75.0821 62.4121 74.7695C62.1378 74.4569 61.9277 74.0933 61.7938 73.6993C61.6598 73.3053 61.6046 72.8888 61.6313 72.4734C61.658 72.0581 61.7661 71.6521 61.9494 71.2786C62.1327 70.9051 62.3876 70.5715 62.6996 70.2967C63.0116 70.0219 63.3746 69.8114 63.7677 69.6772C64.1609 69.5429 64.5767 69.4876 64.9912 69.5144L91.2897 71.2116C91.4839 71.2241 91.6736 71.2748 91.8482 71.3608C92.0228 71.4468 92.1787 71.5664 92.3072 71.7128C92.4356 71.8592 92.534 72.0295 92.5967 72.214C92.6595 72.3985 92.6853 72.5936 92.6728 72.7881L92.4566 76.1515C92.4314 76.5443 92.2514 76.911 91.9563 77.1709C91.6612 77.4308 91.2752 77.5626 90.8831 77.5373Z" fill="#70BFCB"/>
<path d="M83.8557 78.6253C83.821 78.6253 83.7862 78.6242 83.7513 78.622L62.1564 77.2282C61.9473 77.2148 61.7429 77.1602 61.5549 77.0676C61.3669 76.9749 61.199 76.8461 61.0606 76.6885C60.9223 76.5308 60.8164 76.3474 60.7488 76.1487C60.6812 75.95 60.6534 75.7399 60.6669 75.5305L61.0362 69.7856C61.0496 69.5762 61.1041 69.3714 61.1966 69.183C61.2891 68.9947 61.4176 68.8264 61.575 68.6878C61.7324 68.5492 61.9154 68.4431 62.1138 68.3754C62.3121 68.3077 62.5217 68.2798 62.7308 68.2934L84.3257 69.687C84.7477 69.7147 85.1415 69.909 85.4207 70.2273C85.7 70.5456 85.8418 70.9618 85.8151 71.3847L85.4459 77.1297C85.4255 77.4375 85.3169 77.7329 85.1332 77.9804C84.9494 78.2279 84.6982 78.4171 84.4098 78.5251C84.2326 78.5915 84.0449 78.6254 83.8557 78.6253Z" fill="#2F2E41"/>
<path d="M58.9263 42.5371C60.4553 41.2195 62.555 42.3982 64.3085 42.1919C65.9861 41.9944 67.3108 40.4867 67.6492 38.8848C68.044 37.016 67.0759 35.1438 65.649 33.9786C64.0862 32.7025 62.0135 32.3361 60.0494 32.5722C57.7983 32.8428 55.7396 33.8942 53.8923 35.1659C52.1092 36.3554 50.4694 37.7476 49.0057 39.3148C47.6951 40.7652 46.5846 42.494 46.23 44.4457C45.9077 46.2194 46.1538 48.1849 47.2003 49.6875C47.7552 50.4576 48.4988 51.0715 49.3594 51.4698C50.2568 51.9113 51.214 52.2269 52.0833 52.7261C53.3978 53.4809 54.6753 55.0458 54.2636 56.6744C54.1753 57.0302 54.0011 57.3588 53.7563 57.6312C53.4621 57.9584 52.9316 57.5261 53.2265 57.198C53.7445 56.6219 53.7241 55.8535 53.448 55.1657C53.1198 54.3906 52.5385 53.7502 51.7995 53.3493C50.8895 52.828 49.8848 52.5063 48.9521 52.0314C48.0594 51.5977 47.2845 50.9542 46.6933 50.1558C45.577 48.6014 45.2431 46.5785 45.4963 44.7072C45.7702 42.6821 46.8087 40.8419 48.1104 39.2998C49.5271 37.6216 51.2673 36.201 53.045 34.9248C54.9526 33.5554 57.06 32.3977 59.3921 31.979C61.4136 31.6161 63.6047 31.8395 65.3724 32.9433C67.0225 33.9736 68.2878 35.746 68.4136 37.7264C68.4588 38.6275 68.2635 39.5244 67.8479 40.3248C67.4323 41.1252 66.8113 41.8001 66.0489 42.2802C65.2666 42.7492 64.357 42.9604 63.4486 42.8838C62.4773 42.8215 61.5052 42.5235 60.5278 42.6062C60.0855 42.6331 59.664 42.8038 59.3272 43.0923C58.9931 43.3801 58.595 42.8226 58.9263 42.5371V42.5371Z" fill="#2F2E41"/>
</g>
<defs>
<clipPath id="clip0_1246_11182">
<rect width="109.091" height="136.364" fill="white" transform="translate(45.4546 31.8184)"/>
</clipPath>
</defs>
</svg>
