<svg width="200" height="200" viewBox="0 0 200 200" fill="none" xmlns="http://www.w3.org/2000/svg">
<circle cx="100" cy="100" r="100" fill="#09427D"/>
<g clip-path="url(#clip0_1246_11176)">
<path d="M154.015 131.227L159.724 132.12C161.657 129.776 162.989 126.995 163.606 124.018C159.431 127.442 153.082 125.622 148.019 127.491C146.445 128.086 145.024 129.029 143.863 130.249C142.701 131.468 141.829 132.934 141.31 134.538L138.519 137.545C141.045 138.547 143.758 138.988 146.47 138.839C149.183 138.689 151.83 137.952 154.231 136.679C155.571 135.951 156.814 135.057 157.931 134.018C155.933 132.758 154.015 131.227 154.015 131.227Z" fill="#F2F2F2"/>
<path d="M151.988 122.08L157.496 120.329C158.182 117.368 158.137 114.283 157.363 111.343C155.15 116.273 148.658 117.481 144.959 121.415C143.815 122.651 142.963 124.13 142.466 125.74C141.97 127.351 141.841 129.053 142.091 130.72L140.932 134.658C143.639 134.426 146.263 133.61 148.624 132.264C150.985 130.918 153.027 129.076 154.609 126.863C155.484 125.613 156.199 124.258 156.736 122.829C154.387 122.594 151.988 122.08 151.988 122.08Z" fill="#F2F2F2"/>
<path d="M88.9172 129.795C111.284 129.795 129.416 111.631 129.416 89.2247C129.416 66.8185 111.284 48.6548 88.9172 48.6548C66.5505 48.6548 48.4187 66.8185 48.4187 89.2247C48.4187 111.631 66.5505 129.795 88.9172 129.795Z" fill="#E6E6E6"/>
<path d="M123.765 89.2244C123.769 94.6715 122.499 100.044 120.056 104.91C117.613 109.777 114.066 114.002 109.699 117.248C109.408 117.467 109.11 117.68 108.81 117.887C102.971 121.954 96.029 124.133 88.9171 124.133C81.8052 124.133 74.8635 121.954 69.0239 117.887C68.7244 117.68 68.4268 117.467 68.1348 117.248C63.7709 113.999 60.2261 109.773 57.7838 104.907C55.3415 100.042 54.0696 94.6707 54.0696 89.2244C54.0696 83.778 55.3415 78.4072 57.7838 73.5413C60.2261 68.6754 63.7709 64.4493 68.1348 61.201C68.4268 60.9821 68.7244 60.7689 69.0239 60.5613C74.8635 56.4949 81.8052 54.3154 88.9171 54.3154C96.029 54.3154 102.971 56.4949 108.81 60.5613C109.11 60.7689 109.408 60.9821 109.699 61.201C114.066 64.4465 117.613 68.6719 120.056 73.5385C122.499 78.4051 123.769 83.7773 123.765 89.2244Z" fill="white"/>
<path d="M88.9171 121.115C106.498 121.115 120.751 106.837 120.751 89.2248C120.751 71.6125 106.498 57.335 88.9171 57.335C71.3358 57.335 57.0834 71.6125 57.0834 89.2248C57.0834 106.837 71.3358 121.115 88.9171 121.115Z" fill="#70BFCB"/>
<path opacity="0.2" d="M89.0001 57.4238C88.5175 57.4238 88.0379 57.4365 87.5606 57.4578C95.6063 58.166 103.083 61.9116 108.475 67.9356C113.866 73.9596 116.771 81.8116 116.6 89.9008C116.428 97.99 113.194 105.712 107.551 111.501C101.909 117.29 94.2811 120.715 86.2125 121.08C87.1313 121.16 88.0606 121.203 89.0001 121.203C97.4429 121.203 105.54 117.844 111.51 111.863C117.48 105.883 120.834 97.7713 120.834 89.3136C120.834 80.8559 117.48 72.7446 111.51 66.7641C105.54 60.7836 97.4429 57.4238 89.0001 57.4238V57.4238Z" fill="black"/>
<path d="M89.0112 55.0703C88.7366 55.0708 88.4734 55.1803 88.2792 55.3748C88.085 55.5693 87.9757 55.833 87.9752 56.1081V60.6369C87.9752 60.9121 88.0844 61.1761 88.2787 61.3707C88.4729 61.5654 88.7365 61.6747 89.0112 61.6747C89.286 61.6747 89.5495 61.5654 89.7438 61.3707C89.9381 61.1761 90.0472 60.9121 90.0472 60.6369V56.1081C90.0468 55.833 89.9374 55.5693 89.7433 55.3748C89.5491 55.1803 89.2858 55.0708 89.0112 55.0703Z" fill="white"/>
<path d="M109.7 61.201C109.408 60.9821 109.11 60.7688 108.81 60.5613C108.631 60.5495 108.451 60.585 108.289 60.6641C108.127 60.7432 107.989 60.8632 107.887 61.0123L105.343 64.7541C105.188 64.9816 105.13 65.2613 105.181 65.5316C105.232 65.802 105.389 66.0409 105.616 66.1958C105.843 66.3507 106.122 66.4089 106.392 66.3575C106.662 66.3062 106.9 66.1496 107.055 65.9222L109.6 62.1803C109.696 62.0383 109.756 61.8744 109.774 61.7033C109.791 61.5323 109.766 61.3596 109.7 61.201Z" fill="white"/>
<path d="M121.261 78.2636C121.21 78.1374 121.135 78.0226 121.039 77.9256C120.944 77.8287 120.83 77.7516 120.705 77.6987C120.58 77.6457 120.445 77.6181 120.309 77.6172C120.173 77.6164 120.039 77.6423 119.913 77.6937L115.723 79.3976C115.469 79.5014 115.266 79.702 115.16 79.9555C115.053 80.2089 115.051 80.4944 115.155 80.7493C115.258 81.0041 115.458 81.2074 115.711 81.3145C115.964 81.4216 116.249 81.4237 116.503 81.3204L120.693 79.6165C120.947 79.5122 121.149 79.3113 121.256 79.0577C121.363 78.8041 121.365 78.5186 121.261 78.2636Z" fill="white"/>
<path d="M72.4915 64.7541L69.9467 61.0123C69.8453 60.8632 69.7069 60.7432 69.545 60.6641C69.3831 60.585 69.2035 60.5495 69.0238 60.5613C68.7242 60.7688 68.4266 60.9821 68.1347 61.201C68.0685 61.3596 68.0429 61.5323 68.0604 61.7033C68.0778 61.8744 68.1377 62.0383 68.2345 62.1803L70.7793 65.9222C70.9339 66.1496 71.1724 66.3062 71.4423 66.3575C71.7122 66.4089 71.9914 66.3507 72.2184 66.1958C72.4455 66.0409 72.6018 65.802 72.653 65.5316C72.7043 65.2613 72.6462 64.9816 72.4915 64.7541Z" fill="white"/>
<path d="M62.1109 79.3974L57.9216 77.6934C57.6671 77.5899 57.3819 77.5919 57.1289 77.6989C56.8758 77.806 56.6756 78.0094 56.5722 78.2643C56.4688 78.5193 56.4707 78.8049 56.5775 79.0584C56.6843 79.312 56.8873 79.5126 57.1418 79.6162L61.331 81.3202C61.5855 81.4235 61.8705 81.4213 62.1234 81.3142C62.3763 81.2071 62.5764 81.0038 62.6798 80.749C62.7831 80.4942 62.7813 80.2087 62.6746 79.9552C62.5679 79.7018 62.3651 79.5011 62.1109 79.3974V79.3974Z" fill="white"/>
<path d="M89.0112 116.775C88.7366 116.775 88.4734 116.885 88.2792 117.079C88.085 117.274 87.9757 117.538 87.9752 117.813V122.341C87.9752 122.617 88.0844 122.881 88.2787 123.075C88.4729 123.27 88.7365 123.379 89.0112 123.379C89.286 123.379 89.5495 123.27 89.7438 123.075C89.9381 122.881 90.0472 122.617 90.0472 122.341V117.813C90.0468 117.538 89.9374 117.274 89.7433 117.079C89.5491 116.885 89.2858 116.775 89.0112 116.775Z" fill="white"/>
<path d="M109.6 116.268L107.055 112.526C106.978 112.414 106.88 112.317 106.767 112.243C106.653 112.168 106.526 112.116 106.392 112.091C106.258 112.066 106.121 112.067 105.988 112.095C105.855 112.122 105.728 112.176 105.616 112.253C105.503 112.329 105.407 112.428 105.332 112.542C105.258 112.655 105.206 112.783 105.181 112.917C105.156 113.051 105.157 113.188 105.185 113.322C105.212 113.455 105.266 113.582 105.343 113.694L107.887 117.436C107.989 117.585 108.127 117.705 108.289 117.784C108.451 117.864 108.631 117.899 108.81 117.887C109.11 117.68 109.408 117.466 109.7 117.248C109.766 117.089 109.791 116.916 109.774 116.745C109.756 116.574 109.697 116.41 109.6 116.268Z" fill="white"/>
<path d="M120.692 98.8329L116.503 97.129C116.249 97.0254 115.963 97.0274 115.71 97.1345C115.457 97.2415 115.257 97.4449 115.154 97.6999C115.05 97.9548 115.052 98.2405 115.159 98.494C115.266 98.7475 115.469 98.9482 115.723 99.0518L119.913 100.756C120.167 100.859 120.452 100.857 120.705 100.75C120.958 100.643 121.158 100.439 121.261 100.185C121.365 99.9297 121.363 99.6442 121.256 99.3908C121.149 99.1373 120.947 98.9367 120.692 98.8329V98.8329Z" fill="white"/>
<path d="M72.2184 112.253C71.9913 112.098 71.7122 112.04 71.4423 112.091C71.1724 112.142 70.934 112.299 70.7793 112.526L68.2345 116.268C68.1377 116.41 68.0778 116.574 68.0604 116.745C68.0429 116.916 68.0685 117.089 68.1347 117.247C68.4266 117.466 68.7242 117.68 69.0238 117.887C69.2035 117.899 69.3831 117.863 69.545 117.784C69.7069 117.705 69.8453 117.585 69.9467 117.436L72.4916 113.694C72.5681 113.582 72.6218 113.455 72.6495 113.322C72.6772 113.188 72.6784 113.051 72.6531 112.917C72.6277 112.783 72.5763 112.655 72.5017 112.541C72.4271 112.427 72.3308 112.329 72.2184 112.253Z" fill="white"/>
<path d="M62.6796 97.6991C62.6285 97.5729 62.553 97.4581 62.4575 97.3612C62.362 97.2643 62.2484 97.1871 62.1232 97.1342C61.9979 97.0813 61.8635 97.0536 61.7275 97.0528C61.5916 97.0519 61.4568 97.0779 61.3309 97.1292L57.1417 98.8332C56.8874 98.9369 56.6846 99.1376 56.578 99.391C56.4713 99.6445 56.4694 99.93 56.5728 100.185C56.6761 100.44 56.8762 100.643 57.1291 100.75C57.382 100.857 57.667 100.859 57.9215 100.756L62.1108 99.0521C62.3649 98.9478 62.5675 98.7468 62.6741 98.4933C62.7807 98.2397 62.7827 97.9541 62.6796 97.6991Z" fill="white"/>
<path d="M90.3556 88.7101C90.4513 89.2773 90.3184 89.8595 89.9862 90.3288C89.6539 90.798 89.1494 91.1161 88.5833 91.2132L70.1992 94.3458C69.9188 94.3936 69.6317 94.3856 69.3544 94.3223C69.077 94.2589 68.8148 94.1414 68.5828 93.9766C68.3508 93.8117 68.1534 93.6027 68.002 93.3614C67.8506 93.1202 67.7482 92.8514 67.7005 92.5705C67.6528 92.2895 67.6608 92.0019 67.724 91.7241C67.7873 91.4462 67.9045 91.1836 68.0691 90.9512C68.2337 90.7187 68.4423 90.521 68.6832 90.3694C68.924 90.2177 69.1923 90.1151 69.4728 90.0673L87.8568 86.9347C88.4231 86.8388 89.0042 86.9719 89.4727 87.3048C89.9411 87.6376 90.2587 88.143 90.3556 88.7101Z" fill="#3F3D56"/>
<path d="M109.704 109.114C109.44 109.38 109.082 109.53 108.707 109.532C108.332 109.533 107.973 109.386 107.706 109.122L87.9162 89.4522C87.6506 89.1877 87.5007 88.8285 87.4994 88.4534C87.4981 88.0782 87.6455 87.718 87.9093 87.4517C88.173 87.1854 88.5315 87.0349 88.9059 87.0332C89.2804 87.0316 89.6402 87.1789 89.9062 87.4429L109.696 107.112C109.962 107.377 110.112 107.736 110.114 108.112C110.115 108.487 109.968 108.847 109.704 109.114Z" fill="#3F3D56"/>
<path d="M88.9171 91.6771C90.2695 91.6771 91.3659 90.5788 91.3659 89.2241C91.3659 87.8693 90.2695 86.771 88.9171 86.771C87.5647 86.771 86.4684 87.8693 86.4684 89.2241C86.4684 90.5788 87.5647 91.6771 88.9171 91.6771Z" fill="#CCCCCC"/>
<path d="M72.0503 46.6884C68.2915 52.6083 62.5564 56.537 55.4836 59.1179C55.3439 59.2228 55.1848 59.2991 55.0157 59.3424C54.8465 59.3856 54.6705 59.3951 54.4976 59.3703C54.3248 59.3454 54.1585 59.2867 54.0083 59.1975C53.8581 59.1083 53.7269 58.9903 53.6223 58.8503C49.7804 53.7116 50.6479 46.3674 55.7184 42.4408C56.9442 41.4932 58.3458 40.7989 59.8417 40.3983C61.3376 39.9977 62.898 39.8988 64.4324 40.1072C65.9668 40.3157 67.4446 40.8274 68.7799 41.6127C70.1153 42.398 71.2816 43.4411 72.2112 44.6816L72.3175 44.8238C72.4221 44.9638 72.4983 45.1231 72.5415 45.2925C72.5847 45.462 72.5942 45.6384 72.5694 45.8115C72.5446 45.9847 72.486 46.1512 72.3969 46.3017C72.3078 46.4521 72.19 46.5835 72.0503 46.6884Z" fill="#E6E6E6"/>
<path d="M105.623 44.6816C106.553 43.4411 107.719 42.398 109.054 41.6127C110.39 40.8274 111.868 40.3157 113.402 40.1072C114.936 39.8988 116.497 39.9977 117.993 40.3983C119.489 40.7989 120.89 41.4932 122.116 42.4408C127.186 46.3674 128.054 53.7116 124.212 58.8503C124.107 58.9903 123.976 59.1083 123.826 59.1975C123.676 59.2867 123.51 59.3454 123.337 59.3703C123.164 59.3951 122.988 59.3856 122.819 59.3424C122.649 59.2991 122.49 59.2228 122.351 59.1179C115.785 56.5997 110.4 52.2419 105.784 46.6884C105.502 46.4766 105.315 46.1612 105.265 45.8115C105.215 45.4618 105.305 45.1065 105.517 44.8238L105.623 44.6816Z" fill="#E6E6E6"/>
<path d="M103.976 124.373C103.736 124.508 103.56 124.732 103.485 124.997C103.411 125.262 103.444 125.545 103.577 125.786L109.557 136.489C109.691 136.729 109.915 136.906 110.179 136.981C110.443 137.056 110.727 137.022 110.966 136.888C111.206 136.753 111.383 136.529 111.457 136.264C111.532 135.999 111.499 135.716 111.365 135.475L105.386 124.772C105.251 124.532 105.027 124.356 104.763 124.281C104.499 124.206 104.215 124.239 103.976 124.373Z" fill="#E6E6E6"/>
<path d="M72.4485 124.772L66.4695 135.475C66.3354 135.716 66.302 135.999 66.3767 136.264C66.4514 136.529 66.628 136.753 66.8677 136.888C67.1075 137.022 67.3907 137.056 67.6551 136.981C67.9195 136.906 68.1434 136.729 68.2776 136.489L74.2567 125.786C74.3232 125.667 74.3656 125.536 74.3816 125.4C74.3975 125.265 74.3867 125.128 74.3498 124.997C74.3128 124.865 74.2504 124.743 74.1661 124.636C74.0819 124.529 73.9774 124.439 73.8586 124.373C73.7399 124.306 73.6092 124.264 73.4741 124.248C73.339 124.232 73.202 124.243 73.0711 124.28C72.9401 124.317 72.8177 124.379 72.7109 124.464C72.6041 124.548 72.5149 124.653 72.4485 124.772H72.4485Z" fill="#E6E6E6"/>
<path d="M110.768 139.229C112.536 139.229 113.97 137.793 113.97 136.021C113.97 134.25 112.536 132.813 110.768 132.813C108.999 132.813 107.565 134.25 107.565 136.021C107.565 137.793 108.999 139.229 110.768 139.229Z" fill="#E6E6E6"/>
<path d="M113.028 57.1462C114.796 57.1462 116.23 55.71 116.23 53.9383C116.23 52.1667 114.796 50.7305 113.028 50.7305C111.259 50.7305 109.826 52.1667 109.826 53.9383C109.826 55.71 111.259 57.1462 113.028 57.1462Z" fill="#E6E6E6"/>
<path d="M88.7287 49.5983C90.4972 49.5983 91.9309 48.1621 91.9309 46.3905C91.9309 44.6188 90.4972 43.1826 88.7287 43.1826C86.9602 43.1826 85.5265 44.6188 85.5265 46.3905C85.5265 48.1621 86.9602 49.5983 88.7287 49.5983Z" fill="#E6E6E6"/>
<path d="M65.5598 56.7692C67.3283 56.7692 68.762 55.333 68.762 53.5614C68.762 51.7897 67.3283 50.3535 65.5598 50.3535C63.7912 50.3535 62.3575 51.7897 62.3575 53.5614C62.3575 55.333 63.7912 56.7692 65.5598 56.7692Z" fill="#E6E6E6"/>
<path d="M67.6318 139.229C69.4003 139.229 70.834 137.793 70.834 136.021C70.834 134.25 69.4003 132.813 67.6318 132.813C65.8632 132.813 64.4296 134.25 64.4296 136.021C64.4296 137.793 65.8632 139.229 67.6318 139.229Z" fill="#E6E6E6"/>
<path d="M108.256 107.31C108.382 107.508 108.55 107.675 108.748 107.801C108.946 107.927 109.169 108.008 109.402 108.038C109.634 108.068 109.871 108.047 110.094 107.976C110.318 107.905 110.523 107.785 110.695 107.626L115.72 110.323L115.45 107.368L110.72 105.26C110.434 104.987 110.058 104.83 109.663 104.816C109.268 104.803 108.883 104.935 108.579 105.188C108.275 105.441 108.075 105.796 108.015 106.187C107.955 106.578 108.041 106.978 108.256 107.31H108.256Z" fill="#FFB7B7"/>
<path d="M111.917 108.341L113.886 105.618L123.372 110.11L135.176 107.891C135.76 107.781 136.36 107.802 136.935 107.951C137.51 108.1 138.045 108.374 138.502 108.753C138.959 109.132 139.327 109.608 139.58 110.146C139.833 110.684 139.965 111.271 139.966 111.866C139.967 112.94 139.543 113.97 138.786 114.731C138.029 115.492 137.002 115.921 135.929 115.925L122.402 115.95L111.917 108.341Z" fill="#3F3D56"/>
<path d="M108.884 155.369L106.892 154.414L109.628 146.072L112.569 147.481L108.884 155.369Z" fill="#FFB7B7"/>
<path d="M122.24 154.024C122.095 154.115 121.95 154.204 121.804 154.294C121.513 154.473 121.219 154.648 120.925 154.821C120.777 154.908 120.628 154.994 120.48 155.079V155.084L120.471 155.085L120.468 155.087L120.243 155.142L119.919 154.286L119.77 153.892L119.559 153.333L119.173 152.312L117.139 146.932L120.301 146.15L120.42 146.636H120.421L120.48 146.876L121.585 151.365L121.81 152.282L121.817 152.31L121.953 152.859L122.07 153.334L122.201 153.864L122.24 154.024Z" fill="#FFB7B7"/>
<path d="M141.105 135.131C140.904 135.454 140.699 135.775 140.493 136.093C140.11 136.685 139.716 137.269 139.312 137.843C139.312 137.845 139.311 137.845 139.309 137.846C139.074 138.065 138.813 138.255 138.534 138.413C138.522 138.422 138.509 138.428 138.497 138.435C138.291 138.549 138.072 138.638 137.844 138.698C137.762 138.718 137.679 138.739 137.597 138.759C137.302 138.83 137.009 138.89 136.718 138.943C136.2 139.035 135.687 139.101 135.178 139.142C135.137 139.146 135.096 139.149 135.055 139.152C132.961 139.306 130.923 139.058 128.795 138.652C127.744 138.453 126.672 138.214 125.561 137.966C125.198 137.884 124.834 137.804 124.465 137.723C124.437 137.717 124.408 137.71 124.379 137.704C123.852 137.588 123.316 137.474 122.767 137.361C122.077 137.219 121.364 137.081 120.624 136.95L120.676 137.996C120.72 138.8 120.887 139.592 121.171 140.346C121.487 141.272 121.737 142.005 121.209 143.531L120.954 144.27C121.086 144.637 121.132 145.029 121.087 145.417C121.042 145.804 120.908 146.176 120.695 146.502L120.644 146.58L122.767 151.962L122.905 152.311H121.818L120.48 152.312H118.213L114.943 145.739L114.786 145.425V145.409L115.124 132.777C115.129 132.665 115.137 132.553 115.152 132.441C115.212 131.935 115.371 131.445 115.622 131.001C115.872 130.557 116.209 130.168 116.611 129.855C116.997 129.553 117.438 129.331 117.91 129.202C118.382 129.073 118.875 129.039 119.361 129.102L120.48 129.247L122.767 129.543L124.379 129.753L124.411 129.757L129.162 130.373L129.503 128.98L129.566 128.957L131.567 128.222L138.485 125.682L138.503 125.676L138.958 125.509L139.012 125.597C139.028 125.623 139.044 125.65 139.059 125.676C139.509 126.484 139.875 127.335 140.152 128.218C140.618 129.659 141.002 131.126 141.301 132.611C141.314 132.676 141.326 132.734 141.336 132.787L141.34 132.803C141.345 132.828 141.348 132.844 141.349 132.849C141.509 133.514 141.397 134.326 141.105 135.131Z" fill="#2F2E41"/>
<path d="M141.397 130.475C141.375 130.382 141.347 130.286 141.318 130.194C141.085 129.494 140.815 128.808 140.507 128.139C140.162 127.376 139.748 126.56 139.254 125.676C139.016 125.248 138.759 124.803 138.485 124.34C138.347 124.109 138.204 123.873 138.056 123.632C138.05 123.621 138.044 123.611 138.037 123.6L137.994 123.53L131.149 124.447L128.6 124.789L128.448 126.061L128.411 126.377C128.409 126.377 128.409 126.377 128.411 126.378L128.309 127.237V127.239L128.172 128.373L128.161 128.372L124.378 127.881L120.48 127.375L118.385 127.104C117.9 127.04 117.407 127.074 116.935 127.204C116.463 127.333 116.021 127.555 115.636 127.857C115.234 128.17 114.897 128.559 114.647 129.003C114.396 129.447 114.237 129.937 114.177 130.443C114.164 130.546 114.155 130.651 114.151 130.755L112.175 135.445C110.993 138.25 110.24 141.217 109.942 144.246L108.493 148.886L108.699 148.905L111.77 149.191L112.58 149.267L114.366 146.656C114.569 146.359 114.762 146.052 114.942 145.739C115.239 145.226 115.502 144.696 115.731 144.15L119.593 134.944C119.891 134.995 120.187 135.044 120.48 135.09C121.833 135.31 123.133 135.489 124.378 135.628C128.427 136.081 131.933 136.116 135.055 135.732C135.931 135.625 136.778 135.485 137.596 135.31C137.896 135.247 138.193 135.179 138.485 135.106C138.553 135.09 138.621 135.074 138.688 135.056C139.293 134.9 139.849 134.595 140.305 134.167C140.762 133.74 141.104 133.205 141.3 132.611C141.535 131.923 141.568 131.182 141.397 130.475Z" fill="#2F2E41"/>
<path d="M109.52 154.007L107.365 152.972L107.027 152.809L106.487 154.137L102.717 154.968C102.531 155.009 102.363 155.109 102.237 155.253C102.111 155.396 102.034 155.576 102.018 155.767C102.001 155.957 102.046 156.148 102.146 156.311C102.245 156.474 102.394 156.601 102.571 156.673L106.254 158.179L107.423 157.125L107.137 158.539L108.524 159.107L110.044 154.259L109.52 154.007Z" fill="#2F2E41"/>
<path d="M122.767 151.961L122.905 152.31H122.767V151.961Z" fill="#2F2E41"/>
<path d="M122.017 152.385L119.758 153.169L119.404 153.291L119.953 154.616L117.858 157.864C117.754 158.024 117.705 158.213 117.716 158.404C117.727 158.595 117.799 158.777 117.922 158.924C118.044 159.071 118.21 159.175 118.395 159.22C118.58 159.266 118.775 159.251 118.951 159.178L122.626 157.652L122.717 156.079L123.506 157.286L124.891 156.711L122.566 152.195L122.017 152.385Z" fill="#2F2E41"/>
<path d="M140.834 132.6C140.699 132.6 140.567 132.567 140.449 132.504L128.53 126.266L128.392 125.701L128.133 123.913L128.136 123.897L129.27 118.662C129.249 118.617 129.206 118.543 129.157 118.46C128.651 117.601 127.111 114.987 130.05 111.387L135.21 105.36L139.639 105.169L139.689 105.233C140.874 106.722 141.672 108.481 142.015 110.354C142.357 112.227 142.232 114.155 141.65 115.968L141.189 124.311L141.684 125.996C141.973 126.987 141.925 128.045 141.548 129.005L141.661 131.734C141.666 131.845 141.648 131.957 141.608 132.062C141.569 132.166 141.508 132.262 141.431 132.343C141.354 132.424 141.261 132.488 141.158 132.532C141.056 132.576 140.945 132.599 140.834 132.6L140.834 132.6Z" fill="#3F3D56"/>
<path d="M130.495 139.481C130.697 139.361 130.87 139.199 131.002 139.005C131.135 138.811 131.223 138.591 131.262 138.359C131.3 138.127 131.287 137.89 131.223 137.663C131.16 137.437 131.048 137.228 130.895 137.05L133.761 132.113L130.803 132.28L128.535 136.942C128.254 137.219 128.083 137.59 128.056 137.985C128.029 138.38 128.148 138.77 128.39 139.083C128.631 139.396 128.979 139.609 129.367 139.683C129.755 139.756 130.156 139.684 130.495 139.481L130.495 139.481Z" fill="#FFB7B7"/>
<path d="M131.651 135.851L129.003 133.785L133.815 124.444L132.012 112.549C131.923 111.961 131.964 111.361 132.133 110.791C132.301 110.22 132.593 109.694 132.987 109.25C133.382 108.805 133.869 108.453 134.414 108.219C134.96 107.984 135.55 107.872 136.144 107.892C137.215 107.928 138.229 108.389 138.962 109.173C139.694 109.958 140.087 111.001 140.053 112.075L139.607 125.619L131.651 135.851Z" fill="#3F3D56"/>
<path d="M132.369 102.856V98.4659C132.368 96.9056 132.986 95.4089 134.086 94.3049C135.187 93.2009 136.68 92.5801 138.238 92.5791C139.795 92.5781 141.29 93.197 142.392 94.2995C143.494 95.4021 144.113 96.8981 144.114 98.4583V98.4659C145.149 100.627 144.502 101.654 144.114 102.856C144.114 103.066 144.031 103.266 143.883 103.414C143.735 103.562 143.535 103.646 143.326 103.646H133.158C132.949 103.646 132.748 103.563 132.6 103.415C132.453 103.266 132.369 103.066 132.369 102.856Z" fill="#2F2E41"/>
<path d="M136.316 103.361C138.744 103.361 140.712 101.389 140.712 98.9569C140.712 96.5248 138.744 94.5532 136.316 94.5532C133.888 94.5532 131.92 96.5248 131.92 98.9569C131.92 101.389 133.888 103.361 136.316 103.361Z" fill="#FFB7B7"/>
<path d="M140.917 100.111C140.877 100.105 140.837 100.096 140.797 100.09C140.112 99.9681 139.426 99.8484 138.742 99.7244L138.679 98.1721L137.851 99.5627C135.962 100.191 134.194 99.8358 132.531 99.0522C131.983 98.7914 131.45 98.4975 130.938 98.1721C131.077 97.3135 131.407 96.4971 131.902 95.7826C132.397 95.068 133.046 94.4734 133.8 94.0423C133.863 94.0065 133.924 93.975 133.986 93.9435C133.987 93.9435 133.987 93.9435 133.987 93.9434C133.988 93.9433 133.988 93.9431 133.988 93.9429C133.988 93.9427 133.988 93.9425 133.988 93.9422C133.988 93.942 133.989 93.9417 133.989 93.9414C134.095 93.891 134.205 93.8427 134.314 93.7986C135.167 93.4644 136.098 93.3797 136.998 93.5545C137.898 93.7293 138.729 94.1563 139.397 94.7859C140.739 96.0694 141.342 98.1889 140.917 100.111Z" fill="#2F2E41"/>
</g>
<defs>
<clipPath id="clip0_1246_11176">
<rect width="127.273" height="119.247" fill="white" transform="translate(36.3636 40)"/>
</clipPath>
</defs>
</svg>
