<svg width="46" height="63" viewBox="0 0 46 63" fill="none" xmlns="http://www.w3.org/2000/svg">
<path d="M26.2735 28.8605C27.0535 26.0559 28.0516 22.643 26.8414 19.7808C25.6931 17.0667 21.8147 16.8783 19.6348 17.277C15.4779 18.0415 9.72105 21.9852 10.4379 27.7078C10.9527 31.8187 14.477 36.5647 14.3572 40.21C14.2541 43.3162 12.4317 46.7125 13.3472 49.7685C14.6139 53.9933 20.8019 55.4059 23.1744 51.6642C26.4838 46.4438 23.3815 39.5973 24.1076 33.8086C24.3053 32.2387 25.8551 30.3645 26.2739 28.8613L26.2735 28.8605ZM17.0205 30.6103C15.4807 30.1541 11.038 28.2039 16.0719 21.7232C18.7953 23.57 19.8438 25.1953 20.0376 26.539C18.7364 27.0051 17.8392 27.9116 17.9517 29.5517C17.2426 27.8653 16.6858 25.5325 16.4465 24.0779C16.3264 25.7773 16.5773 28.7991 17.0205 30.6103H17.0205ZM19.5006 31.5416C20.0304 30.5092 20.7129 29.5787 21.5766 28.7926C20.5166 29.3788 19.5742 30.1232 18.7637 31.0183C18.3881 29.977 17.6095 26.5889 23.4284 26.7755C23.5981 32.0966 20.7801 31.9003 19.5005 31.5417L19.5006 31.5416Z" fill="#BFD1E3"/>
<path d="M24.7207 15.736C26.1718 15.823 27.4312 14.3874 27.5326 12.5288C27.635 10.6702 26.5413 9.09218 25.0921 9.00375C23.6396 8.91677 22.3805 10.3523 22.278 12.2121C22.1763 14.0707 23.2704 15.6468 24.7208 15.736H24.7207Z" fill="#BFD1E3"/>
<path d="M19.5267 15.3293C20.5368 15.3889 21.4138 14.3893 21.4853 13.0943C21.5557 11.7993 20.7934 10.7001 19.7834 10.6393C18.773 10.5786 17.896 11.5782 17.8248 12.8743C17.7544 14.1672 18.5175 15.2678 19.5267 15.3293Z" fill="#BFD1E3"/>
<path d="M15.5438 16.7077C16.478 16.7638 17.2882 15.8411 17.354 14.6449C17.4205 13.4494 16.7171 12.4333 15.7829 12.3754C14.848 12.3197 14.0382 13.2456 13.9731 14.4407C13.9063 15.6373 14.6101 16.653 15.5438 16.7077Z" fill="#BFD1E3"/>
<path d="M12.6273 18.5718C13.3904 18.5125 13.9521 17.6721 13.8814 16.6941C13.8113 15.7176 13.1362 14.971 12.3725 15.0318C11.6098 15.0936 11.0494 15.9347 11.1191 16.9127C11.1871 17.8868 11.8621 18.6319 12.6274 18.5718H12.6273Z" fill="#BFD1E3"/>
<path d="M10.3526 20.9485C11.0528 20.7807 11.4647 19.918 11.2691 19.0223C11.075 18.123 10.3479 17.5285 9.64737 17.6963C8.9454 17.8624 8.53528 18.7254 8.73009 19.624C8.92491 20.5207 9.65024 21.1149 10.3526 20.9485H10.3526Z" fill="#BFD1E3"/>
<path d="M32.9043 36.0716L36.8875 32.0873C36.9972 31.978 37.0543 31.8321 37.0543 31.6847C37.0543 31.6114 37.0403 31.537 37.0112 31.4669C36.9224 31.2545 36.7154 31.1161 36.4857 31.1161H33.6396V18.5928C33.6396 18.2786 33.3841 18.0234 33.0703 18.0234H31.932C31.616 18.0234 31.3626 18.2786 31.3626 18.5928V31.1161H28.5177C28.2862 31.1161 28.0795 31.2548 27.9904 31.4669C27.9598 31.537 27.9473 31.6117 27.9473 31.6847C27.9473 31.8321 28.0044 31.978 28.114 32.0873L32.0991 36.0716C32.3205 36.2945 32.6807 36.2945 32.9043 36.072L32.9043 36.0716Z" fill="#BFD1E3"/>
</svg>
