<svg width="40" height="63" viewBox="0 0 40 63" fill="none" xmlns="http://www.w3.org/2000/svg">
<g clip-path="url(#clip0_1246_15120)">
<path fill-rule="evenodd" clip-rule="evenodd" d="M24.0948 26.337C23.4619 27.1578 22.8849 27.9059 22.3542 28.6385C27.4192 29.7915 31.2075 34.3211 31.1658 39.7159C31.1658 45.9752 26.1007 51.0816 19.8001 51.0816C13.5408 51.0816 8.43445 46.0165 8.43445 39.7159C8.43445 34.3214 12.2231 29.7915 17.2882 28.6385C16.939 28.1727 16.5696 27.6936 16.1774 27.1848C15.5984 26.4337 14.9695 25.618 14.2821 24.6851C12.5526 25.5086 10.7406 25.4675 9.34056 24.5615C6.54048 22.7908 5.92261 16.4903 6.00505 13.0723C6.00505 12.6193 6.25208 12.2485 6.664 12.0839C7.07594 11.9193 7.48756 12.0015 7.81704 12.2899C9.29556 13.7285 11.162 14.5469 12.8141 15.2713C12.8644 15.2934 12.9146 15.3154 12.9645 15.3373C12.987 15.347 13.0094 15.3567 13.0318 15.3664C15.4743 16.4244 17.5793 17.3362 17.865 19.7847C17.9475 20.3201 17.9064 20.8553 17.7004 21.3907C17.618 21.6378 17.371 21.7199 17.165 21.5553C15.9709 20.608 14.1179 19.5374 11.647 19.0844C12.5942 19.7432 16.3827 22.7081 19.8418 27.0321C23.3012 22.7086 27.0898 19.7022 27.9954 19.0844C25.5659 19.5374 23.6715 20.6494 22.4774 21.5553C22.3125 21.7202 22.0244 21.6378 21.942 21.3907C21.7774 20.8553 21.6949 20.3201 21.7774 19.7847C22.1063 17.318 24.1998 16.4109 26.6654 15.3427L26.6779 15.3373L26.7289 15.3149C28.4044 14.5792 30.2762 13.7574 31.8254 12.2899C32.1135 12.0015 32.5665 11.9193 32.9784 12.0839C33.3903 12.2488 33.6373 12.6193 33.6373 13.0723C33.7198 16.4903 33.1019 22.7909 30.3018 24.5615C28.9018 25.4261 27.0899 25.4675 25.3603 24.6851C24.9146 25.274 24.4936 25.82 24.0948 26.337ZM22.2978 34.55C21.8563 34.4424 21.3664 34.3885 20.8281 34.3885C19.9883 34.3885 19.2346 34.5554 18.5671 34.8892C17.8996 35.2122 17.3505 35.6805 16.9198 36.2942C16.4891 36.9079 16.2038 37.6455 16.0639 38.5068H15.0141V39.8957H15.9347C15.9239 39.9388 15.9185 39.998 15.9185 40.0733V40.3156V40.574C15.9293 40.6709 15.94 40.7463 15.9508 40.8001H15.0141V42.2051H16.0962C16.2469 43.0449 16.5376 43.7609 16.9683 44.3531C17.3989 44.9453 17.9426 45.3975 18.5994 45.7097C19.2562 46.0112 20.0045 46.1619 20.8443 46.1619C21.3395 46.1619 21.7702 46.1188 22.1363 46.0327C22.5131 45.9573 22.8522 45.8443 23.1537 45.6935V43.6748C22.8415 43.8148 22.5023 43.9278 22.1363 44.0139C21.781 44.0893 21.3987 44.127 20.9896 44.127C20.5266 44.127 20.1175 44.057 19.7622 43.917C19.4177 43.7663 19.1324 43.551 18.9063 43.271C18.6909 42.9803 18.5402 42.625 18.4541 42.2051H21.1188V40.8001H18.3249C18.3141 40.714 18.3087 40.6332 18.3087 40.5578V40.3156V40.0733C18.3195 39.998 18.3249 39.9388 18.3249 39.8957H21.6195V38.5068H18.4379C18.5025 38.1515 18.5994 37.8393 18.7286 37.5701C18.8686 37.3009 19.0408 37.0748 19.2454 36.8918C19.45 36.7088 19.6815 36.5742 19.9399 36.488C20.209 36.3911 20.5051 36.3427 20.8281 36.3427C21.1726 36.3427 21.501 36.3911 21.8133 36.488C22.1255 36.5742 22.4646 36.698 22.8307 36.8595L23.6059 35.0345C23.186 34.8192 22.75 34.6577 22.2978 34.55Z" fill="#BFD1E3"/>
</g>
<defs>
<clipPath id="clip0_1246_15120">
<rect width="39" height="39" fill="white" transform="translate(0.5 12)"/>
</clipPath>
</defs>
</svg>
