<svg width="24" height="24" viewBox="0 0 24 24" fill="none" xmlns="http://www.w3.org/2000/svg">
<path d="M12 4C10.3335 4.00197 8.73583 4.66484 7.55745 5.84321C6.37908 7.02159 5.71621 8.61924 5.71424 10.2857C5.71224 11.6476 6.15709 12.9724 6.98053 14.0571C6.98053 14.0571 7.15195 14.2829 7.17995 14.3154L12 20L16.8222 14.3126C16.8474 14.2823 17.0194 14.0571 17.0194 14.0571L17.02 14.0554C17.843 12.9712 18.2876 11.6469 18.2857 10.2857C18.2837 8.61924 17.6208 7.02159 16.4425 5.84321C15.2641 4.66484 13.6664 4.00197 12 4ZM12 12.5714C11.5479 12.5714 11.106 12.4374 10.7301 12.1862C10.3542 11.9351 10.0612 11.5781 9.88823 11.1604C9.71523 10.7428 9.66996 10.2832 9.75816 9.83979C9.84635 9.39641 10.064 8.98913 10.3837 8.66947C10.7034 8.34981 11.1106 8.13211 11.554 8.04392C11.9974 7.95572 12.457 8.00099 12.8747 8.17399C13.2923 8.34699 13.6493 8.63996 13.9005 9.01584C14.1516 9.39172 14.2857 9.83364 14.2857 10.2857C14.2849 10.8917 14.0439 11.4726 13.6154 11.9011C13.1869 12.3296 12.6059 12.5707 12 12.5714Z" fill="#09427D"/>
</svg>
