<svg width="38" height="30" viewBox="0 0 38 30" fill="none" xmlns="http://www.w3.org/2000/svg">
<path d="M32.75 0C35.6495 0 38 2.35051 38 5.25V24.75C38 27.6495 35.6495 30 32.75 30H5.25C2.35051 30 0 27.6495 0 24.75V5.25C0 2.35051 2.35051 0 5.25 0H32.75ZM35.5 9.351L19.6024 18.0953C19.269 18.2787 18.8727 18.299 18.5254 18.1564L18.3976 18.0953L2.5 9.351V24.75C2.5 26.2688 3.73122 27.5 5.25 27.5H32.75C34.2688 27.5 35.5 26.2688 35.5 24.75V9.351ZM32.75 2.5H5.25C3.73122 2.5 2.5 3.73122 2.5 5.25V6.499L19 15.5734L35.5 6.498V5.25C35.5 3.73122 34.2688 2.5 32.75 2.5Z" fill="#09427D"/>
</svg>
