<svg width="99" height="98" viewBox="0 0 99 98" fill="none" xmlns="http://www.w3.org/2000/svg">
<path d="M89.0422 90.7832H10.466C9.75163 90.7832 9.09087 90.3546 8.82308 89.676C8.55522 89.0152 8.69808 88.2473 9.21596 87.7294L25.2885 71.6569C25.6278 71.3176 26.0742 71.139 26.5564 71.139H89.0598C90.042 71.139 90.8457 71.9426 90.8457 72.9249V88.9974C90.8279 89.9796 90.0243 90.7833 89.042 90.7833L89.0422 90.7832ZM14.7519 87.2115H87.256V74.7108H27.2523L14.7519 87.2115Z" fill="black"/>
<path d="M80.1144 90.7832C79.1322 90.7832 78.3285 89.9796 78.3285 88.9973V83.6399C78.3285 82.6577 79.1321 81.854 80.1144 81.854C81.0967 81.854 81.9003 82.6576 81.9003 83.6399V88.9973C81.9003 89.9795 81.0967 90.7832 80.1144 90.7832Z" fill="black"/>
<path d="M71.1849 90.7832C70.2027 90.7832 69.399 89.9796 69.399 88.9973V81.854C69.399 80.8718 70.2026 80.0681 71.1849 80.0681C72.1672 80.0681 72.9708 80.8717 72.9708 81.854V88.9973C72.9708 89.9795 72.1672 90.7832 71.1849 90.7832Z" fill="black"/>
<path d="M62.2553 90.7832C61.2731 90.7832 60.4694 89.9796 60.4694 88.9973V83.6399C60.4694 82.6577 61.273 81.854 62.2553 81.854C63.2376 81.854 64.0412 82.6576 64.0412 83.6399V88.9973C64.0412 89.9795 63.2376 90.7832 62.2553 90.7832Z" fill="black"/>
<path d="M53.3095 90.7832C52.3273 90.7832 51.5236 89.9796 51.5236 88.9973V81.854C51.5236 80.8718 52.3272 80.0681 53.3095 80.0681C54.2918 80.0681 55.0954 80.8717 55.0954 81.854V88.9973C55.0954 89.9795 54.2918 90.7832 53.3095 90.7832Z" fill="black"/>
<path d="M44.3799 90.7832C43.3977 90.7832 42.594 89.9796 42.594 88.9973V83.6399C42.594 82.6577 43.3976 81.854 44.3799 81.854C45.3622 81.854 46.1658 82.6576 46.1658 83.6399V88.9973C46.1658 89.9795 45.3622 90.7832 44.3799 90.7832Z" fill="black"/>
<path d="M35.4504 90.7832C34.4682 90.7832 33.6645 89.9796 33.6645 88.9973V81.854C33.6645 80.8718 34.4681 80.0681 35.4504 80.0681C36.4327 80.0681 37.2363 80.8717 37.2363 81.854V88.9973C37.2363 89.9795 36.4327 90.7832 35.4504 90.7832Z" fill="black"/>
<path d="M26.5208 90.7832C25.5386 90.7832 24.7349 89.9796 24.7349 88.9973V83.6399C24.7349 82.6577 25.5386 81.854 26.5208 81.854C27.5031 81.854 28.3067 82.6576 28.3067 83.6399V88.9973C28.3067 89.9795 27.5031 90.7832 26.5208 90.7832Z" fill="black"/>
<path d="M9.77047 90.6411C9.10971 90.3733 8.66327 89.7125 8.66327 88.9983V10.422C8.66327 9.43978 9.46689 8.63608 10.4492 8.63608H26.5217C27.5039 8.63608 28.3076 9.4397 28.3076 10.422V72.9254C28.3076 73.4076 28.1111 73.8541 27.7897 74.1934L11.7172 90.2659C11.1993 90.7659 10.4314 90.9266 9.77062 90.6409L9.77047 90.6411ZM12.235 12.2069V84.693L24.7356 72.1923V12.2066L12.235 12.2069Z" fill="black"/>
<path d="M15.8067 21.1365H10.4494C9.46716 21.1365 8.66345 20.3329 8.66345 19.3506C8.66345 18.3683 9.46708 17.5647 10.4494 17.5647H15.8067C16.7889 17.5647 17.5927 18.3683 17.5927 19.3506C17.5927 20.3329 16.789 21.1365 15.8067 21.1365Z" fill="black"/>
<path d="M17.593 30.066H10.4497C9.46752 30.066 8.66382 29.2624 8.66382 28.2801C8.66382 27.2978 9.46744 26.4942 10.4497 26.4942H17.593C18.5752 26.4942 19.3789 27.2978 19.3789 28.2801C19.3789 29.2624 18.5753 30.066 17.593 30.066Z" fill="black"/>
<path d="M15.8067 38.9955H10.4494C9.46716 38.9955 8.66345 38.1919 8.66345 37.2096C8.66345 36.2273 9.46708 35.4237 10.4494 35.4237H15.8067C16.7889 35.4237 17.5927 36.2273 17.5927 37.2096C17.5927 38.1919 16.789 38.9955 15.8067 38.9955Z" fill="black"/>
<path d="M17.593 47.9234H10.4497C9.46752 47.9234 8.66382 47.1198 8.66382 46.1375C8.66382 45.1552 9.46744 44.3516 10.4497 44.3516H17.593C18.5752 44.3516 19.3789 45.1552 19.3789 46.1375C19.3789 47.1198 18.5753 47.9234 17.593 47.9234Z" fill="black"/>
<path d="M15.8067 56.8529H10.4494C9.46716 56.8529 8.66345 56.0493 8.66345 55.067C8.66345 54.0848 9.46708 53.2811 10.4494 53.2811H15.8067C16.7889 53.2811 17.5927 54.0848 17.5927 55.067C17.5927 56.0493 16.789 56.8529 15.8067 56.8529Z" fill="black"/>
<path d="M17.593 65.7824H10.4497C9.46752 65.7824 8.66382 64.9788 8.66382 63.9965C8.66382 63.0143 9.46744 62.2106 10.4497 62.2106H17.593C18.5752 62.2106 19.3789 63.0143 19.3789 63.9965C19.3789 64.9788 18.5753 65.7824 17.593 65.7824Z" fill="black"/>
<path d="M15.8067 74.712H10.4494C9.46716 74.712 8.66345 73.9084 8.66345 72.9261C8.66345 71.9438 9.46708 71.1402 10.4494 71.1402H15.8067C16.7889 71.1402 17.5927 71.9438 17.5927 72.9261C17.5927 73.9084 16.789 74.712 15.8067 74.712Z" fill="black"/>
<path d="M40.8434 54.7108L43.3614 42.085C43.4328 41.7457 43.5936 41.4243 43.8436 41.1743L75.4341 9.60006C78.9164 6.11773 84.5775 6.11773 88.0598 9.60006C91.5422 13.0824 91.5422 18.7435 88.0598 22.2258L56.5036 53.8C56.2536 54.05 55.9322 54.2108 55.5928 54.2822L42.9671 56.818C41.6992 57.068 40.6097 55.9608 40.8419 54.7108H40.8434ZM46.7722 43.3173L44.8792 52.7822L54.3441 50.8892L85.5248 19.7085C87.6143 17.619 87.6143 14.226 85.5248 12.1366C83.4354 10.0471 80.0424 10.0471 77.9529 12.1366L46.7722 43.3173Z" fill="black"/>
<path d="M83.0256 24.7612L72.9179 14.6534C72.2214 13.957 72.2214 12.8319 72.9179 12.1354C73.6143 11.4389 74.7394 11.4389 75.4359 12.1354L85.5436 22.2431C86.2401 22.9396 86.2401 24.0646 85.5436 24.7612C84.8471 25.4577 83.7221 25.4576 83.0256 24.7612Z" fill="black"/>
<path d="M77.9706 29.8162L67.8629 19.7084C67.1664 19.012 67.1664 17.8869 67.8629 17.1904C68.5593 16.4939 69.6844 16.4939 70.3809 17.1904L80.4886 27.2981C81.1851 27.9946 81.1851 29.1196 80.4886 29.8162C79.7922 30.5127 78.6492 30.5126 77.9706 29.8162Z" fill="black"/>
<path d="M53.4695 52.7988L52.398 45.2805L44.8797 44.209C43.8975 44.0661 43.2188 43.1732 43.3617 42.1911C43.5046 41.2089 44.4153 40.5302 45.3796 40.6731L54.2195 41.941C55.0053 42.0482 55.6303 42.6732 55.7375 43.459L57.0054 52.2989C57.1483 53.2811 56.4697 54.1739 55.4874 54.3168C54.5052 54.4418 53.6124 53.7632 53.4695 52.7988L53.4695 52.7988Z" fill="black"/>
<path d="M52.72 44.96C52.0236 44.2635 52.0236 43.1385 52.72 42.4419L72.9172 22.2448C73.6137 21.5483 74.7387 21.5483 75.4352 22.2448C76.1318 22.9412 76.1317 24.0663 75.4352 24.7628L55.2201 44.96C54.5415 45.6564 53.3986 45.6564 52.72 44.96Z" fill="black"/>
</svg>
