<svg width="108" height="108" viewBox="0 0 108 108" fill="none" xmlns="http://www.w3.org/2000/svg">
<g clip-path="url(#clip0_1246_11141)">
<g filter="url(#filter0_d_1246_11141)">
<path d="M97.3691 100.214H10.63C9.84145 100.214 9.11205 99.7411 8.81644 98.992C8.52074 98.2626 8.67845 97.4149 9.25013 96.8432L26.9923 79.101C27.3669 78.7264 27.8597 78.5293 28.392 78.5293H97.3885C98.4728 78.5293 99.36 79.4164 99.36 80.5007V98.2429C99.3402 99.3272 98.4531 100.214 97.3689 100.214L97.3691 100.214ZM15.3612 96.2715H95.3973V82.4722H29.1602L15.3612 96.2715Z" fill="white"/>
<path d="M87.5137 100.213C86.4294 100.213 85.5422 99.3261 85.5422 98.2418V92.3279C85.5422 91.2436 86.4293 90.3564 87.5137 90.3564C88.598 90.3564 89.4851 91.2436 89.4851 92.3279V98.2418C89.4851 99.326 88.598 100.213 87.5137 100.213Z" fill="white"/>
<path d="M77.6565 100.214C76.5723 100.214 75.6851 99.3269 75.6851 98.2425V90.3572C75.6851 89.2729 76.5722 88.3857 77.6565 88.3857C78.7408 88.3857 79.6279 89.2729 79.6279 90.3572V98.2425C79.6279 99.3268 78.7408 100.214 77.6565 100.214Z" fill="white"/>
<path d="M67.7993 100.213C66.7151 100.213 65.8279 99.3261 65.8279 98.2418V92.3279C65.8279 91.2436 66.715 90.3564 67.7993 90.3564C68.8836 90.3564 69.7707 91.2436 69.7707 92.3279V98.2418C69.7707 99.326 68.8836 100.213 67.7993 100.213Z" fill="white"/>
<path d="M57.9243 100.214C56.8401 100.214 55.9529 99.3269 55.9529 98.2425V90.3572C55.9529 89.2729 56.84 88.3857 57.9243 88.3857C59.0086 88.3857 59.8957 89.2729 59.8957 90.3572V98.2425C59.8957 99.3268 59.0086 100.214 57.9243 100.214Z" fill="white"/>
<path d="M48.0669 100.213C46.9827 100.213 46.0955 99.3261 46.0955 98.2418V92.3279C46.0955 91.2436 46.9826 90.3564 48.0669 90.3564C49.1512 90.3564 50.0383 91.2436 50.0383 92.3279V98.2418C50.0383 99.326 49.1512 100.213 48.0669 100.213Z" fill="white"/>
<path d="M38.2097 100.214C37.1255 100.214 36.2383 99.3269 36.2383 98.2425V90.3572C36.2383 89.2729 37.1254 88.3857 38.2097 88.3857C39.294 88.3857 40.1812 89.2729 40.1812 90.3572V98.2425C40.1812 99.3268 39.294 100.214 38.2097 100.214Z" fill="white"/>
<path d="M28.3525 100.213C27.2683 100.213 26.3811 99.3261 26.3811 98.2418V92.3279C26.3811 91.2436 27.2682 90.3564 28.3525 90.3564C29.4369 90.3564 30.324 91.2436 30.324 92.3279V98.2418C30.324 99.326 29.4369 100.213 28.3525 100.213Z" fill="white"/>
<path d="M9.86212 100.057C9.13272 99.7616 8.63989 99.0322 8.63989 98.2438V11.5046C8.63989 10.4204 9.527 9.5332 10.6113 9.5332H28.3535C29.4377 9.5332 30.3249 10.4203 30.3249 11.5046V80.5012C30.3249 81.0335 30.1081 81.5263 29.7532 81.9009L12.0111 99.643C11.4394 100.195 10.5917 100.372 9.86228 100.057L9.86212 100.057ZM12.5826 13.475V93.4913L26.3819 79.6919V13.4746L12.5826 13.475Z" fill="white"/>
<path d="M16.5255 23.3315H10.6116C9.52734 23.3315 8.64014 22.4444 8.64014 21.3601C8.64014 20.2758 9.52724 19.3887 10.6116 19.3887H16.5255C17.6097 19.3887 18.4969 20.2758 18.4969 21.3601C18.4969 22.4444 17.6098 23.3315 16.5255 23.3315Z" fill="white"/>
<path d="M18.4972 33.189H10.6118C9.52758 33.189 8.64038 32.3019 8.64038 31.2175C8.64038 30.1332 9.52749 29.2461 10.6118 29.2461H18.4972C19.5814 29.2461 20.4686 30.1332 20.4686 31.2175C20.4686 32.3019 19.5815 33.189 18.4972 33.189Z" fill="white"/>
<path d="M16.5255 43.0464H10.6116C9.52734 43.0464 8.64014 42.1593 8.64014 41.0749C8.64014 39.9906 9.52724 39.1035 10.6116 39.1035H16.5255C17.6097 39.1035 18.4969 39.9906 18.4969 41.0749C18.4969 42.1593 17.6098 43.0464 16.5255 43.0464Z" fill="white"/>
<path d="M18.4972 52.9018H10.6118C9.52758 52.9018 8.64038 52.0147 8.64038 50.9304C8.64038 49.8461 9.52749 48.959 10.6118 48.959H18.4972C19.5814 48.959 20.4686 49.8461 20.4686 50.9304C20.4686 52.0147 19.5815 52.9018 18.4972 52.9018Z" fill="white"/>
<path d="M16.5255 62.7583H10.6116C9.52734 62.7583 8.64014 61.8712 8.64014 60.7869C8.64014 59.7025 9.52724 58.8154 10.6116 58.8154H16.5255C17.6097 58.8154 18.4969 59.7025 18.4969 60.7869C18.4969 61.8712 17.6098 62.7583 16.5255 62.7583Z" fill="white"/>
<path d="M18.4972 72.6157H10.6118C9.52758 72.6157 8.64038 71.7286 8.64038 70.6443C8.64038 69.56 9.52749 68.6729 10.6118 68.6729H18.4972C19.5814 68.6729 20.4686 69.56 20.4686 70.6443C20.4686 71.7286 19.5815 72.6157 18.4972 72.6157Z" fill="white"/>
<path d="M16.5255 82.4731H10.6116C9.52734 82.4731 8.64014 81.586 8.64014 80.5017C8.64014 79.4174 9.52724 78.5303 10.6116 78.5303H16.5255C17.6097 78.5303 18.4969 79.4174 18.4969 80.5017C18.4969 81.586 17.6098 82.4731 16.5255 82.4731Z" fill="white"/>
<path d="M44.163 60.3939L46.9426 46.4566C47.0215 46.082 47.1989 45.7272 47.4749 45.4512L82.3472 10.5969C86.1912 6.75284 92.4404 6.75284 96.2845 10.5969C100.129 14.441 100.129 20.6902 96.2845 24.5343L61.4501 59.3886C61.1741 59.6645 60.8193 59.842 60.4447 59.9208L46.5074 62.7201C45.1077 62.9961 43.9051 61.7738 44.1614 60.3939H44.163ZM50.7078 47.8168L48.6181 58.265L59.0663 56.1753L93.4862 21.7554C95.7926 19.4489 95.7926 15.7034 93.4862 13.3969C91.1797 11.0904 87.4342 11.0904 85.1277 13.3969L50.7078 47.8168Z" fill="white"/>
<path d="M90.7273 27.3334L79.5695 16.1756C78.8007 15.4068 78.8007 14.1649 79.5695 13.396C80.3384 12.6271 81.5803 12.6272 82.3492 13.396L93.5069 24.5537C94.2757 25.3226 94.2757 26.5645 93.5069 27.3334C92.7381 28.1022 91.4962 28.1022 90.7273 27.3334Z" fill="white"/>
<path d="M85.1472 32.9134L73.9895 21.7557C73.2206 20.9869 73.2206 19.7449 73.9895 18.9761C74.7583 18.2072 76.0002 18.2072 76.7691 18.9761L87.9268 30.1338C88.6956 30.9026 88.6956 32.1445 87.9268 32.9134C87.158 33.6823 85.8963 33.6823 85.1472 32.9134Z" fill="white"/>
<path d="M58.1007 58.2833L56.9179 49.9839L48.6185 48.8011C47.5343 48.6434 46.7851 47.6577 46.9428 46.5736C47.1006 45.4894 48.1059 44.7402 49.1704 44.8979L58.9286 46.2976C59.796 46.4158 60.486 47.1058 60.6043 47.9732L62.0039 57.7314C62.1616 58.8157 61.4125 59.8013 60.3283 59.959C59.244 60.097 58.2584 59.3479 58.1007 58.2833L58.1007 58.2833Z" fill="white"/>
<path d="M57.2734 49.6301C56.5046 48.8613 56.5046 47.6194 57.2734 46.8505L79.5687 24.5551C80.3375 23.7863 81.5794 23.7863 82.3483 24.5551C83.1172 25.3239 83.1172 26.5659 82.3483 27.3347L60.0332 49.6301C59.2841 50.3989 58.0225 50.3989 57.2734 49.6301Z" fill="white"/>
</g>
</g>
<defs>
<filter id="filter0_d_1246_11141" x="4.63989" y="7.71387" width="98.72" height="100.5" filterUnits="userSpaceOnUse" color-interpolation-filters="sRGB">
<feFlood flood-opacity="0" result="BackgroundImageFix"/>
<feColorMatrix in="SourceAlpha" type="matrix" values="0 0 0 0 0 0 0 0 0 0 0 0 0 0 0 0 0 0 127 0" result="hardAlpha"/>
<feOffset dy="4"/>
<feGaussianBlur stdDeviation="2"/>
<feComposite in2="hardAlpha" operator="out"/>
<feColorMatrix type="matrix" values="0 0 0 0 0 0 0 0 0 0 0 0 0 0 0 0 0 0 0.25 0"/>
<feBlend mode="normal" in2="BackgroundImageFix" result="effect1_dropShadow_1246_11141"/>
<feBlend mode="normal" in="SourceGraphic" in2="effect1_dropShadow_1246_11141" result="shape"/>
</filter>
<clipPath id="clip0_1246_11141">
<rect width="108" height="108" fill="white"/>
</clipPath>
</defs>
</svg>
