<svg width="40" height="58" viewBox="0 0 40 58" fill="none" xmlns="http://www.w3.org/2000/svg">
<g clip-path="url(#clip0_1246_12319)">
<path fill-rule="evenodd" clip-rule="evenodd" d="M24.0968 23.8371C23.4638 24.6578 22.8868 25.4059 22.3562 26.1385C27.4211 27.2915 31.2094 31.8211 31.1678 37.2159C31.1678 43.4752 26.1026 48.5816 19.8021 48.5816C13.5428 48.5816 8.4364 43.5165 8.4364 37.2159C8.4364 31.8214 12.225 27.2915 17.2901 26.1385C16.9409 25.6727 16.5716 25.1936 16.1793 24.6848C15.6003 23.9337 14.9714 23.118 14.284 22.1851C12.5546 23.0086 10.7426 22.9675 9.34251 22.0615C6.54243 20.2908 5.92456 13.9903 6.007 10.5723C6.007 10.1193 6.25403 9.74851 6.66595 9.58391C7.0779 9.41932 7.48951 9.50147 7.81899 9.78987C9.29752 11.2285 11.1639 12.0469 12.8161 12.7713C12.8664 12.7934 12.9166 12.8154 12.9665 12.8373C12.9889 12.847 13.0114 12.8567 13.0338 12.8664C15.4762 13.9244 17.5812 14.8362 17.867 17.2847C17.9494 17.8201 17.9084 18.3553 17.7024 18.8907C17.62 19.1378 17.3729 19.2199 17.167 19.0553C15.9729 18.108 14.1199 17.0374 11.6489 16.5844C12.5961 17.2432 16.3847 20.2081 19.8437 24.5321C23.3032 20.2086 27.0917 17.2022 27.9974 16.5844C25.5678 17.0374 23.6734 18.1494 22.4793 19.0553C22.3145 19.2202 22.0263 19.1378 21.9439 18.8907C21.7793 18.3553 21.6969 17.8201 21.7793 17.2847C22.1083 14.818 24.2018 13.9109 26.6673 12.8427L26.6798 12.8373L26.7308 12.8149C28.4063 12.0792 30.2781 11.2574 31.8273 9.78987C32.1154 9.50147 32.5684 9.41932 32.9804 9.58391C33.3923 9.74878 33.6393 10.1193 33.6393 10.5723C33.7217 13.9903 33.1039 20.2909 30.3038 22.0615C28.9037 22.9261 27.0918 22.9675 25.3623 22.1851C24.9166 22.7741 24.4956 23.32 24.0968 23.8371ZM22.3007 32.05C21.8593 31.9424 21.3694 31.8885 20.831 31.8885C19.9912 31.8885 19.2376 32.0554 18.57 32.3892C17.9025 32.7122 17.3534 33.1805 16.9227 33.7942C16.4921 34.4079 16.2068 35.1455 16.0668 36.0068H15.017V37.3957H15.9376C15.9268 37.4388 15.9214 37.498 15.9214 37.5733V37.8156V38.074C15.9322 38.1709 15.943 38.2463 15.9537 38.3001H15.017V39.7051H16.0991C16.2498 40.5449 16.5405 41.2609 16.9712 41.8531C17.4019 42.4453 17.9456 42.8975 18.6023 43.2097C19.2591 43.5112 20.0074 43.6619 20.8472 43.6619C21.3425 43.6619 21.7731 43.6188 22.1392 43.5327C22.516 43.4573 22.8552 43.3443 23.1566 43.1935V41.1748C22.8444 41.3148 22.5053 41.4278 22.1392 41.5139C21.7839 41.5893 21.4017 41.627 20.9925 41.627C20.5296 41.627 20.1204 41.557 19.7651 41.417C19.4206 41.2663 19.1353 41.051 18.9092 40.771C18.6939 40.4803 18.5431 40.125 18.457 39.7051H21.1217V38.3001H18.3278C18.317 38.214 18.3116 38.1332 18.3116 38.0578V37.8156V37.5733C18.3224 37.498 18.3278 37.4388 18.3278 37.3957H21.6224V36.0068H18.4408C18.5054 35.6515 18.6023 35.3393 18.7315 35.0701C18.8715 34.8009 19.0438 34.5748 19.2483 34.3918C19.4529 34.2088 19.6844 34.0742 19.9428 33.988C20.212 33.8911 20.508 33.8427 20.831 33.8427C21.1756 33.8427 21.504 33.8911 21.8162 33.988C22.1284 34.0742 22.4676 34.198 22.8336 34.3595L23.6088 32.5345C23.1889 32.3192 22.7529 32.1577 22.3007 32.05Z" fill="#BFD1E3"/>
</g>
<defs>
<clipPath id="clip0_1246_12319">
<rect width="39" height="39" fill="white" transform="translate(0.5 9.5)"/>
</clipPath>
</defs>
</svg>
