<svg width="40" height="40" viewBox="0 0 40 40" fill="none" xmlns="http://www.w3.org/2000/svg">
<g clip-path="url(#clip0_465_8101)">
<path fill-rule="evenodd" clip-rule="evenodd" d="M24.202 14.7047C23.5528 15.5465 22.961 16.3138 22.4168 17.0651C27.6116 18.2477 31.4971 22.8934 31.4543 28.4266C31.4543 34.8464 26.2593 40.0837 19.7972 40.0837C13.3774 40.0837 8.14011 34.8887 8.14011 28.4266C8.14011 22.8937 12.0259 18.2477 17.2208 17.0651C16.8627 16.5874 16.4839 16.096 16.0816 15.5742C15.4877 14.8038 14.8427 13.9672 14.1377 13.0103C12.3639 13.855 10.5054 13.8128 9.06945 12.8836C6.19757 11.0675 5.56386 4.60538 5.64842 1.0998C5.64842 0.635223 5.90178 0.254881 6.32426 0.0860651C6.74677 -0.0827504 7.16894 0.00151026 7.50687 0.297305C9.0233 1.77283 10.9376 2.61217 12.6321 3.35516C12.6837 3.3778 12.7351 3.40036 12.7864 3.42284C12.8094 3.43282 12.8324 3.44278 12.8554 3.45273C15.3604 4.53784 17.5194 5.47305 17.8125 7.98432C17.8971 8.53346 17.8549 9.08236 17.6437 9.63152C17.5591 9.88489 17.3058 9.96915 17.0945 9.80034C15.8698 8.82868 13.9693 7.73064 11.435 7.26603C12.4065 7.94173 16.2922 10.9827 19.8399 15.4176C23.3881 10.9832 27.2738 7.89974 28.2027 7.26603C25.7108 7.7307 23.7678 8.87115 22.5431 9.80034C22.374 9.96945 22.0785 9.88489 21.994 9.63152C21.8251 9.08238 21.7406 8.53348 21.8251 7.98432C22.1625 5.45436 24.3097 4.52404 26.8385 3.42839L26.8513 3.42284L26.9036 3.39987C28.6221 2.64538 30.5419 1.8025 32.1308 0.297305C32.4263 0.00151026 32.8909 -0.0827504 33.3134 0.0860651C33.7359 0.25516 33.9892 0.635192 33.9892 1.0998C34.0738 4.60538 33.4401 11.0676 30.5682 12.8836C29.1323 13.7704 27.2739 13.8129 25.5 13.0103C25.0429 13.6144 24.611 14.1744 24.202 14.7047ZM22.3593 22.615C21.9066 22.5046 21.4041 22.4494 20.852 22.4494C19.9906 22.4494 19.2176 22.6206 18.533 22.9629C17.8483 23.2942 17.2852 23.7745 16.8435 24.404C16.4018 25.0334 16.1091 25.7898 15.9656 26.6733H14.8889V28.0978H15.8331C15.822 28.1419 15.8165 28.2027 15.8165 28.28V28.5284V28.7935C15.8275 28.8928 15.8386 28.9701 15.8496 29.0254H14.8889V30.4664H15.9987C16.1533 31.3278 16.4514 32.0621 16.8932 32.6695C17.3349 33.2768 17.8925 33.7406 18.5661 34.0608C19.2397 34.37 20.0072 34.5246 20.8685 34.5246C21.3765 34.5246 21.8182 34.4805 22.1937 34.3921C22.5802 34.3148 22.928 34.1989 23.2372 34.0443V31.9738C22.917 32.1173 22.5691 32.2333 22.1937 32.3216C21.8293 32.3989 21.4372 32.4376 21.0176 32.4376C20.5428 32.4376 20.1232 32.3658 19.7587 32.2222C19.4054 32.0676 19.1127 31.8468 18.8808 31.5597C18.66 31.2615 18.5054 30.8971 18.4171 30.4664H21.1501V29.0254H18.2845C18.2735 28.937 18.268 28.8542 18.268 28.7769V28.5284V28.28C18.279 28.2027 18.2845 28.1419 18.2845 28.0978H21.6636V26.6733H18.4005C18.4667 26.3088 18.5661 25.9886 18.6986 25.7125C18.8422 25.4365 19.0189 25.2046 19.2287 25.0168C19.4385 24.8291 19.6759 24.6911 19.9409 24.6027C20.217 24.5034 20.5207 24.4537 20.852 24.4537C21.2053 24.4537 21.5421 24.5034 21.8624 24.6027C22.1826 24.6911 22.5305 24.8181 22.9059 24.9837L23.701 23.112C23.2703 22.8911 22.8231 22.7255 22.3593 22.615Z" fill="black"/>
</g>
<defs>
<clipPath id="clip0_465_8101">
<rect width="40" height="40" fill="white"/>
</clipPath>
</defs>
</svg>
