<svg width="32" height="40" viewBox="0 0 32 40" fill="none" xmlns="http://www.w3.org/2000/svg">
<path d="M16 0C10.4772 0 6 4.47715 6 10C6 15.5228 10.4772 20 16 20C21.5228 20 26 15.5228 26 10C26 4.47715 21.5228 0 16 0ZM8.5 10C8.5 5.85786 11.8579 2.5 16 2.5C20.1421 2.5 23.5 5.85786 23.5 10C23.5 14.1421 20.1421 17.5 16 17.5C11.8579 17.5 8.5 14.1421 8.5 10ZM4.24988 24C1.90326 24 2.0504e-05 25.9013 2.74181e-06 28.2489L0 29C0 32.7555 1.94167 35.5669 4.92017 37.3802C7.84908 39.1633 11.7861 40 16 40C20.2139 40 24.1509 39.1633 27.0798 37.3802C30.0583 35.5669 32 32.7555 32 29L32 28.2487C32 25.9011 30.0967 24 27.7502 24H4.24988ZM2.5 28.2489C2.50001 27.283 3.28295 26.5 4.24988 26.5H27.7502C28.7171 26.5 29.5 27.2829 29.5 28.2488L29.5 29C29.5 31.7444 28.1398 33.8081 25.7798 35.2448C23.3703 36.7117 19.9323 37.5 16 37.5C12.0677 37.5 8.62972 36.7117 6.22018 35.2448C3.86023 33.8081 2.5 31.7444 2.5 29L2.5 28.2489Z" fill="#09427D"/>
</svg>
