<?xml version="1.0" encoding="utf-8"?>
<!-- Generator: Adobe Illustrator 25.4.1, SVG Export Plug-In . SVG Version: 6.00 Build 0)  -->
<svg version="1.1" id="Capa_1" xmlns="http://www.w3.org/2000/svg" xmlns:xlink="http://www.w3.org/1999/xlink" x="0px" y="0px"
	 viewBox="0 0 18 18" style="enable-background:new 0 0 18 18;" xml:space="preserve">
<style type="text/css">
	.st0{fill:#09427D;}
</style>
<path class="st0" d="M1,10h6c0.6,0,1-0.4,1-1V1c0-0.6-0.4-1-1-1H1C0.4,0,0,0.4,0,1v8C0,9.5,0.4,10,1,10z M1,18h6c0.6,0,1-0.5,1-1v-4
	c0-0.6-0.4-1-1-1H1c-0.6,0-1,0.4-1,1v4C0,17.5,0.4,18,1,18z M11,18h6c0.5,0,1-0.5,1-1V9c0-0.6-0.5-1-1-1h-6c-0.6,0-1,0.5-1,1v8
	C10,17.5,10.4,18,11,18z M10,1v4c0,0.6,0.4,1,1,1h6c0.5,0,1-0.4,1-1V1c0-0.6-0.5-1-1-1h-6C10.4,0,10,0.4,10,1z"/>
</svg>
