<svg width="40" height="40" viewBox="0 0 40 40" fill="none" xmlns="http://www.w3.org/2000/svg">
<path d="M37.9741 2.02535C35.2767 -0.672059 30.9033 -0.671926 28.2061 2.02565L4.03755 26.1971C3.27584 26.9589 2.73303 27.9115 2.46599 28.9552L0.0390406 38.4402C-0.0703958 38.8679 0.0538945 39.3216 0.366025 39.6338C0.678156 39.946 1.13183 40.0704 1.55956 39.9611L11.0458 37.5366C12.0904 37.2696 13.0439 36.7264 13.8062 35.964L37.9744 11.7928C40.6714 9.09548 40.6713 4.72253 37.9741 2.02535ZM29.9739 3.79331C31.6949 2.07215 34.4853 2.07206 36.2064 3.79312C37.9273 5.51403 37.9274 8.30415 36.2066 10.0252L33.9999 12.2321L27.7676 5.99987L29.9739 3.79331ZM26 7.76774L32.2322 14L12.0383 34.1963C11.5933 34.6414 11.0366 34.9585 10.4268 35.1144L2.9838 37.0167L4.88796 29.5749C5.04386 28.9656 5.36075 28.4095 5.80542 27.9647L26 7.76774Z" fill="#09427D"/>
</svg>
