<svg width="32" height="32" viewBox="0 0 32 32" fill="none" xmlns="http://www.w3.org/2000/svg">
<rect width="32" height="32" rx="16" fill="#09427D"/>
<path d="M14 14.5C14 15.3284 13.3284 16 12.5 16C11.6716 16 11 15.3284 11 14.5C11 13.6716 11.6716 13 12.5 13C13.3284 13 14 13.6716 14 14.5ZM10 17.6988C10 17.1748 10.4248 16.75 10.9488 16.75H14.0512C14.5752 16.75 15 17.1748 15 17.6988C15 18.546 14.4234 19.2845 13.6014 19.49L13.5424 19.5048C12.858 19.6759 12.142 19.6759 11.4576 19.5048L11.3986 19.49C10.5766 19.2845 10 18.546 10 17.6988ZM17.5 14C17.2239 14 17 14.2239 17 14.5C17 14.7761 17.2239 15 17.5 15H20.5C20.7761 15 21 14.7761 21 14.5C21 14.2239 20.7761 14 20.5 14H17.5ZM17.5 17C17.2239 17 17 17.2239 17 17.5C17 17.7761 17.2239 18 17.5 18H20.5C20.7761 18 21 17.7761 21 17.5C21 17.2239 20.7761 17 20.5 17H17.5ZM8 11.75C8 10.7835 8.7835 10 9.75 10H22.25C23.2165 10 24 10.7835 24 11.75V20.25C24 21.2165 23.2165 22 22.25 22H9.75C8.7835 22 8 21.2165 8 20.25V11.75ZM9.75 11C9.33579 11 9 11.3358 9 11.75V20.25C9 20.6642 9.33579 21 9.75 21H22.25C22.6642 21 23 20.6642 23 20.25V11.75C23 11.3358 22.6642 11 22.25 11H9.75Z" fill="white"/>
</svg>
