<svg width="40" height="32" viewBox="0 0 40 32" fill="none" xmlns="http://www.w3.org/2000/svg">
<path d="M15 12C15 13.6569 13.6569 15 12 15C10.3431 15 9 13.6569 9 12C9 10.3431 10.3431 9 12 9C13.6569 9 15 10.3431 15 12ZM7 18.5C7 17.6716 7.67157 17 8.5 17H15.5C16.3284 17 17 17.6716 17 18.5V19C17 19 17 23 12 23C7 23 7 19 7 19V18.5ZM21 12.25C21 11.5596 21.5596 11 22.25 11H31.75C32.4404 11 33 11.5596 33 12.25C33 12.9404 32.4404 13.5 31.75 13.5H22.25C21.5596 13.5 21 12.9404 21 12.25ZM22.25 18C21.5596 18 21 18.5596 21 19.25C21 19.9404 21.5596 20.5 22.25 20.5H31.75C32.4404 20.5 33 19.9404 33 19.25C33 18.5596 32.4404 18 31.75 18H22.25ZM0 4.25C0 1.90279 1.90279 0 4.25 0H35.75C38.0972 0 40 1.90279 40 4.25V27.75C40 30.0972 38.0972 32 35.75 32H4.25C1.90279 32 0 30.0972 0 27.75V4.25ZM4.25 2.5C3.2835 2.5 2.5 3.2835 2.5 4.25V27.75C2.5 28.7165 3.2835 29.5 4.25 29.5H35.75C36.7165 29.5 37.5 28.7165 37.5 27.75V4.25C37.5 3.2835 36.7165 2.5 35.75 2.5H4.25Z" fill="#09427D"/>
</svg>
