<svg width="31" height="40" viewBox="0 0 31 40" fill="none" xmlns="http://www.w3.org/2000/svg">
<path d="M9.53613 0.384167C11.5972 0.1016 13.329 1.36235 14.1486 3.00128L16.1657 7.03507C17.2849 9.27306 16.6425 11.8984 14.9451 13.5511C13.944 14.5258 12.9372 15.6397 12.3527 16.6224C12.3209 16.676 12.3014 16.7555 12.3193 16.8527C12.8588 19.7785 14.8423 22.6702 16.6113 24.743C16.7694 24.9283 17.0475 25.0193 17.335 24.9295L21.3101 23.6872C23.5083 23.0003 25.8974 23.8261 27.2022 25.7238L30.0792 29.9082C30.8597 31.0433 31.2538 32.584 30.6559 34.0647C30.1219 35.3872 29.0886 37.2961 27.2098 38.5645C25.26 39.8809 22.5889 40.3809 19.0945 39.1824C15.1894 37.8431 11.4998 34.483 8.44085 30.1852C5.36358 25.8617 2.83089 20.4604 1.29464 14.8286C-0.156111 9.51029 0.720713 5.93195 2.78204 3.62609C4.77085 1.40134 7.62103 0.646716 9.53613 0.384167ZM11.9126 4.11943C11.4563 3.2071 10.6406 2.75613 9.87569 2.861C8.17473 3.09419 6.04456 3.72764 4.64587 5.29226C3.31971 6.77575 2.40189 9.38807 3.70651 14.1707C5.17087 19.5389 7.58285 24.6685 10.4776 28.7355C13.3907 32.8283 16.7005 35.7184 19.9055 36.8176C22.76 37.7966 24.5955 37.3131 25.811 36.4925C27.0974 35.624 27.888 34.2425 28.3377 33.1287C28.5439 32.6181 28.4554 31.959 28.0192 31.3246L25.1421 27.1402C24.4587 26.1462 23.2072 25.7136 22.0558 26.0734L18.0807 27.3157C16.893 27.6868 15.5547 27.3561 14.7096 26.3659C12.8687 24.2087 10.5235 20.9006 9.86077 17.306C9.73975 16.6496 9.84422 15.9494 10.2041 15.3444C10.9616 14.0708 12.1619 12.7717 13.2011 11.7598C14.2162 10.7715 14.5038 9.30122 13.9297 8.15322L11.9126 4.11943Z" fill="#09427D"/>
</svg>
