<svg width="30" height="40" viewBox="0 0 30 40" fill="none" xmlns="http://www.w3.org/2000/svg">
<path d="M13.0946 2.8943C12.3154 1.33601 10.6859 0.0754039 8.68335 0.297741C6.89197 0.496636 4.23235 1.16288 2.4203 3.34634C0.558863 5.58932 -0.135147 9.08817 1.29434 14.3285C2.81963 19.9201 5.08606 25.4313 7.9028 29.8791C10.6988 34.2941 14.143 37.8273 18.094 39.1824C21.5884 40.3808 24.2596 39.8808 26.2093 38.5645C28.0881 37.2961 29.1215 35.3872 29.6554 34.0646C30.2533 32.5839 29.8592 31.0433 29.0787 29.9082L26.2017 25.7238C24.8969 23.8261 22.5078 23.0003 20.3096 23.6872L16.3345 24.9294C16.047 25.0193 15.769 24.9283 15.6108 24.7429C13.8418 22.6702 11.8583 19.7785 11.3188 16.8526C11.3009 16.7555 11.3204 16.6759 11.3522 16.6224C11.9367 15.6397 12.9435 14.5257 13.9446 13.551C15.642 11.8984 16.2844 9.27302 15.1652 7.03502L13.0946 2.8943Z" fill="#09427D"/>
</svg>
