<svg width="12" height="16" viewBox="0 0 12 16" fill="none" xmlns="http://www.w3.org/2000/svg">
<path d="M6 4.5V0H1.5C0.671573 0 0 0.671573 0 1.5V14.5C0 15.3284 0.671573 16 1.5 16H10.5C11.3284 16 12 15.3284 12 14.5V6H7.5C6.67157 6 6 5.32843 6 4.5ZM6 7C6.27614 7 6.5 7.22386 6.5 7.5V13.5C6.5 13.7761 6.27614 14 6 14C5.72386 14 5.5 13.7761 5.5 13.5V7.5C5.5 7.22386 5.72386 7 6 7ZM3.5 11C3.77614 11 4 11.2239 4 11.5V13.5C4 13.7761 3.77614 14 3.5 14C3.22386 14 3 13.7761 3 13.5V11.5C3 11.2239 3.22386 11 3.5 11ZM8.5 9C8.77614 9 9 9.22386 9 9.5V13.5C9 13.7761 8.77614 14 8.5 14C8.22386 14 8 13.7761 8 13.5V9.5C8 9.22386 8.22386 9 8.5 9ZM7 4.5V0.25L11.75 5H7.5C7.22386 5 7 4.77614 7 4.5Z" fill="#09427D"/>
</svg>
