<svg width="18" height="18" viewBox="0 0 18 18" fill="none" xmlns="http://www.w3.org/2000/svg">
<path d="M4.25 3.25C3.69772 3.25 3.25 3.69772 3.25 4.25V13.75C3.25 14.3023 3.69772 14.75 4.25 14.75H13.75C14.3023 14.75 14.75 14.3023 14.75 13.75V4.25C14.75 3.69772 14.3023 3.25 13.75 3.25H4.25ZM15 0H3C1.34315 0 0 1.34315 0 3V15C0 16.6569 1.34315 18 3 18H15C16.6569 18 18 16.6569 18 15V3C18 1.34315 16.6569 0 15 0ZM2 3C2 2.44772 2.44772 2 3 2H15C15.5523 2 16 2.44772 16 3V15C16 15.5523 15.5523 16 15 16H3C2.44772 16 2 15.5523 2 15V3Z" fill="#09427D"/>
</svg>
