<svg width="32" height="32" viewBox="0 0 32 32" fill="none" xmlns="http://www.w3.org/2000/svg">
<rect width="32" height="32" rx="16" fill="#BCC2CC"/>
<path d="M15.5137 20.1875C16.1738 20.1875 16.75 20.0801 17.2422 19.8652C17.7344 19.6504 18.1172 19.3496 18.3906 18.9629C18.668 18.5762 18.8066 18.127 18.8066 17.6152V17.6035C18.8066 17.0293 18.6172 16.5684 18.2383 16.2207C17.8594 15.873 17.3555 15.6699 16.7266 15.6113V15.5762C17.0586 15.5059 17.3574 15.3848 17.623 15.2129C17.8887 15.041 18.0996 14.8223 18.2559 14.5566C18.4121 14.291 18.4902 13.9824 18.4902 13.6309V13.6191C18.4902 13.166 18.3672 12.7715 18.1211 12.4355C17.8789 12.0957 17.5332 11.832 17.084 11.6445C16.6348 11.4531 16.1074 11.3574 15.502 11.3574C14.9082 11.3574 14.3867 11.4609 13.9375 11.668C13.4922 11.8711 13.1367 12.1602 12.8711 12.5352C12.6094 12.9062 12.457 13.3457 12.4141 13.8535L12.4082 13.9238H14.0371L14.043 13.8711C14.0664 13.6367 14.1406 13.4336 14.2656 13.2617C14.3906 13.0859 14.5586 12.9512 14.7695 12.8574C14.9805 12.7637 15.2246 12.7168 15.502 12.7168C15.7793 12.7168 16.0156 12.7637 16.2109 12.8574C16.4102 12.9473 16.5605 13.0781 16.6621 13.25C16.7676 13.418 16.8203 13.6191 16.8203 13.8535V13.8652C16.8203 14.0918 16.7598 14.293 16.6387 14.4688C16.5176 14.6406 16.3477 14.7754 16.1289 14.873C15.9102 14.9707 15.6523 15.0195 15.3555 15.0195H14.4121V16.2793H15.3789C15.8906 16.2793 16.2891 16.3867 16.5742 16.6016C16.8633 16.8164 17.0078 17.127 17.0078 17.5332V17.5449C17.0078 17.7832 16.9453 17.9941 16.8203 18.1777C16.6992 18.3613 16.5254 18.5059 16.2988 18.6113C16.0762 18.7129 15.8145 18.7637 15.5137 18.7637C15.0566 18.7637 14.6855 18.6582 14.4004 18.4473C14.1191 18.2363 13.959 17.9668 13.9199 17.6387L13.9141 17.5742H12.2207L12.2266 17.6504C12.2695 18.1543 12.4297 18.5977 12.707 18.9805C12.9844 19.3594 13.3613 19.6562 13.8379 19.8711C14.3184 20.082 14.877 20.1875 15.5137 20.1875Z" fill="white"/>
</svg>
