<svg width="33" height="32" viewBox="0 0 33 32" fill="none" xmlns="http://www.w3.org/2000/svg">
<rect x="0.5" width="32" height="32" rx="16" fill="white"/>
<path d="M16.0137 20.1875C16.6738 20.1875 17.25 20.0801 17.7422 19.8652C18.2344 19.6504 18.6172 19.3496 18.8906 18.9629C19.168 18.5762 19.3066 18.127 19.3066 17.6152V17.6035C19.3066 17.0293 19.1172 16.5684 18.7383 16.2207C18.3594 15.873 17.8555 15.6699 17.2266 15.6113V15.5762C17.5586 15.5059 17.8574 15.3848 18.123 15.2129C18.3887 15.041 18.5996 14.8223 18.7559 14.5566C18.9121 14.291 18.9902 13.9824 18.9902 13.6309V13.6191C18.9902 13.166 18.8672 12.7715 18.6211 12.4355C18.3789 12.0957 18.0332 11.832 17.584 11.6445C17.1348 11.4531 16.6074 11.3574 16.002 11.3574C15.4082 11.3574 14.8867 11.4609 14.4375 11.668C13.9922 11.8711 13.6367 12.1602 13.3711 12.5352C13.1094 12.9062 12.957 13.3457 12.9141 13.8535L12.9082 13.9238H14.5371L14.543 13.8711C14.5664 13.6367 14.6406 13.4336 14.7656 13.2617C14.8906 13.0859 15.0586 12.9512 15.2695 12.8574C15.4805 12.7637 15.7246 12.7168 16.002 12.7168C16.2793 12.7168 16.5156 12.7637 16.7109 12.8574C16.9102 12.9473 17.0605 13.0781 17.1621 13.25C17.2676 13.418 17.3203 13.6191 17.3203 13.8535V13.8652C17.3203 14.0918 17.2598 14.293 17.1387 14.4688C17.0176 14.6406 16.8477 14.7754 16.6289 14.873C16.4102 14.9707 16.1523 15.0195 15.8555 15.0195H14.9121V16.2793H15.8789C16.3906 16.2793 16.7891 16.3867 17.0742 16.6016C17.3633 16.8164 17.5078 17.127 17.5078 17.5332V17.5449C17.5078 17.7832 17.4453 17.9941 17.3203 18.1777C17.1992 18.3613 17.0254 18.5059 16.7988 18.6113C16.5762 18.7129 16.3145 18.7637 16.0137 18.7637C15.5566 18.7637 15.1855 18.6582 14.9004 18.4473C14.6191 18.2363 14.459 17.9668 14.4199 17.6387L14.4141 17.5742H12.7207L12.7266 17.6504C12.7695 18.1543 12.9297 18.5977 13.207 18.9805C13.4844 19.3594 13.8613 19.6562 14.3379 19.8711C14.8184 20.082 15.377 20.1875 16.0137 20.1875Z" fill="#70BFCB"/>
</svg>
