<svg width="32" height="32" viewBox="0 0 32 32" fill="none" xmlns="http://www.w3.org/2000/svg">
<rect width="32" height="32" rx="16" fill="#BCC2CC"/>
<path d="M12.8555 20H18.9551V18.5762H14.7539L15.2285 18.8867V18.1133L14.7539 18.8867L16.793 16.9824C17.3086 16.5059 17.7148 16.0898 18.0117 15.7344C18.3086 15.3789 18.5195 15.0488 18.6445 14.7441C18.7695 14.4355 18.832 14.1211 18.832 13.8008V13.7832C18.832 13.2949 18.7051 12.8672 18.4512 12.5C18.2012 12.1328 17.8535 11.8457 17.4082 11.6387C16.9668 11.4316 16.4551 11.3281 15.873 11.3281C15.2559 11.3281 14.7129 11.4434 14.2441 11.6738C13.7793 11.9043 13.4141 12.2246 13.1484 12.6348C12.8867 13.0449 12.7559 13.5195 12.7559 14.0586L12.7617 14.0879H14.3965V14.0586C14.3965 13.7891 14.4551 13.5547 14.5723 13.3555C14.6895 13.1523 14.8535 12.9941 15.0645 12.8809C15.2754 12.7637 15.5176 12.7051 15.791 12.7051C16.0605 12.7051 16.293 12.7578 16.4883 12.8633C16.6836 12.9648 16.832 13.1074 16.9336 13.291C17.0391 13.4746 17.0918 13.6875 17.0918 13.9297V13.9473C17.0918 14.1465 17.0488 14.3398 16.9629 14.5273C16.877 14.7109 16.7246 14.9277 16.5059 15.1777C16.2871 15.4238 15.9785 15.7383 15.5801 16.1211L12.8555 18.8105V20Z" fill="white"/>
</svg>
