<svg width="14" height="17" viewBox="0 0 14 17" fill="none" xmlns="http://www.w3.org/2000/svg">
<path d="M7.62048 1.21107C7.25724 0.924429 6.74477 0.924434 6.38153 1.21109L3.07353 3.82157C2.26904 4.45643 2.36706 5.56408 3.01595 6.13534L1.55236 7.34153C0.588736 8.13567 0.978656 9.61335 2.06208 9.93587L0.476193 11.4218C-0.509639 12.3455 0.144 13.9991 1.49495 13.9991H5V15.7491C5 16.4394 5.55964 16.9991 6.25 16.9991H7.75C8.44036 16.9991 9 16.4394 9 15.7491V13.9991H12.5038C13.8552 13.9991 14.5086 12.3444 13.5218 11.4211L11.9354 9.93676C13.021 9.61612 13.4126 8.13662 12.4483 7.34167L10.9856 6.13588C11.635 5.56476 11.7333 4.45659 10.9286 3.82155L7.62048 1.21107ZM6 13.9991H8V15.7491C8 15.8872 7.88807 15.9991 7.75 15.9991H6.25C6.11193 15.9991 6 15.8872 6 15.7491V13.9991Z" fill="#09427D"/>
</svg>
