<svg width="47" height="53" viewBox="0 0 47 53" fill="none" xmlns="http://www.w3.org/2000/svg">
<path d="M25.5166 1.68599C24.336 0.754395 22.6705 0.754412 21.49 1.68603L10.739 10.1701C8.12438 12.2334 8.44295 15.8333 10.5518 17.6899L5.79516 21.61C2.66339 24.1909 3.93063 28.9934 7.45177 30.0416L2.29763 34.8708C-0.906328 37.8728 1.218 43.247 5.60859 43.247H17V48.9345C17 51.1782 18.8188 52.997 21.0625 52.997H25.9375C28.1812 52.997 30 51.1782 30 48.9345V43.247H41.3872C45.7795 43.247 47.903 37.8693 44.6957 34.8685L39.5399 30.0445C43.0683 29.0024 44.3409 24.194 41.2069 21.6104L36.4532 17.6916C38.5639 15.8355 38.8834 12.2339 36.268 10.17L25.5166 1.68599ZM20.25 43.247H26.75V48.9345C26.75 49.3833 26.3862 49.747 25.9375 49.747H21.0625C20.6138 49.747 20.25 49.3833 20.25 48.9345V43.247Z" fill="white"/>
</svg>
