<svg width="14" height="17" viewBox="0 0 14 17" fill="none" xmlns="http://www.w3.org/2000/svg">
<path d="M7.62048 1.21107C7.25724 0.924429 6.74477 0.924434 6.38153 1.21109L3.07353 3.82157C2.26904 4.45643 2.36706 5.56408 3.01595 6.13534L1.55236 7.34153C0.588736 8.13567 0.978656 9.61335 2.06208 9.93587L0.476193 11.4218C-0.509639 12.3455 0.144 13.9991 1.49495 13.9991H5.00003V15.7491C5.00003 16.4394 5.55967 16.9991 6.25003 16.9991H7.75003C8.44039 16.9991 9.00003 16.4394 9.00003 15.7491V13.9991H12.5038C13.8552 13.9991 14.5086 12.3444 13.5218 11.4211L11.9354 9.93676C13.021 9.61612 13.4126 8.13662 12.4483 7.34167L10.9856 6.13588C11.635 5.56476 11.7333 4.45659 10.9286 3.82155L7.62048 1.21107ZM8.00003 13.9991V15.7491C8.00003 15.8872 7.8881 15.9991 7.75003 15.9991H6.25003C6.11196 15.9991 6.00003 15.8872 6.00003 15.7491V13.9991H8.00003ZM7.00101 1.99609L10.3091 4.60657C10.6761 4.89618 10.4792 5.4849 10.0179 5.49881C9.8098 5.50508 9.62734 5.6397 9.55993 5.83673C9.49253 6.03375 9.55429 6.25193 9.71496 6.38439L11.8122 8.11328C12.1741 8.41159 11.9631 8.99908 11.4941 8.99908H10.7358C10.5305 8.99908 10.3461 9.12453 10.2707 9.31544C10.1953 9.50636 10.2443 9.72395 10.3941 9.86419L12.8385 12.1513C13.1631 12.4549 12.9482 12.9991 12.5038 12.9991H1.49495C1.05068 12.9991 0.835723 12.4553 1.15992 12.1515L3.6014 9.86395C3.75114 9.72365 3.79996 9.50611 3.72452 9.31528C3.64909 9.12445 3.46473 8.99908 3.25953 8.99908H2.50633C2.03732 8.99908 1.8264 8.41151 2.18834 8.11323L4.28612 6.3844C4.44676 6.25201 4.50857 6.03394 4.4413 5.83695C4.37402 5.63996 4.19173 5.50526 3.98366 5.49879C3.52284 5.48447 3.32619 4.89606 3.69302 4.60658L7.00101 1.99609Z" fill="#09427D"/>
</svg>
