<svg width="32" height="30" viewBox="0 0 32 30" fill="none" xmlns="http://www.w3.org/2000/svg">
<path d="M20.4 30H6V27H20.45C22.7833 27 24.7917 26.225 26.475 24.675C28.1583 23.125 29 21.2 29 18.9C29 16.6 28.1583 14.675 26.475 13.125C24.7917 11.575 22.7833 10.8 20.45 10.8H5.7L11.4 16.5L9.3 18.6L0 9.3L9.3 0L11.4 2.1L5.7 7.8H20.4C23.5667 7.8 26.2917 8.86667 28.575 11C30.8583 13.1333 32 15.7667 32 18.9C32 22.0333 30.8583 24.6667 28.575 26.8C26.2917 28.9333 23.5667 30 20.4 30Z" fill="#09427D"/>
</svg>
