<svg width="35" height="35" viewBox="0 0 35 35" fill="none" xmlns="http://www.w3.org/2000/svg">
<path d="M17.4502 15.7402C17.4253 15.7085 17.3936 15.6828 17.3573 15.6651C17.3211 15.6475 17.2813 15.6383 17.241 15.6383C17.2007 15.6383 17.1609 15.6475 17.1246 15.6651C17.0884 15.6828 17.0567 15.7085 17.0318 15.7402L13.3131 20.4451C13.2824 20.4843 13.2634 20.5312 13.2582 20.5807C13.253 20.6301 13.2618 20.6801 13.2836 20.7247C13.3054 20.7694 13.3394 20.8071 13.3816 20.8334C13.4238 20.8596 13.4725 20.8735 13.5222 20.8734H15.976V28.9219C15.976 29.068 16.0955 29.1875 16.2416 29.1875H18.2338C18.3799 29.1875 18.4994 29.068 18.4994 28.9219V20.8767H20.9597C21.1822 20.8767 21.3051 20.6211 21.1689 20.4484L17.4502 15.7402Z" fill="black"/>
<path d="M27.182 12.6756C25.6613 8.66465 21.7865 5.8125 17.2476 5.8125C12.7088 5.8125 8.83397 8.66133 7.31326 12.6723C4.46776 13.4193 2.366 16.0125 2.366 19.0938C2.366 22.7627 5.33768 25.7344 9.0033 25.7344H10.3347C10.4808 25.7344 10.6004 25.6148 10.6004 25.4688V23.4766C10.6004 23.3305 10.4808 23.2109 10.3347 23.2109H9.0033C7.88436 23.2109 6.83182 22.766 6.04822 21.9592C5.26795 21.1557 4.85291 20.0732 4.88943 18.951C4.91932 18.0744 5.21815 17.251 5.75936 16.557C6.31385 15.8498 7.0908 15.3352 7.95408 15.1061L9.21248 14.7773L9.67401 13.5621C9.95955 12.8051 10.358 12.0979 10.8594 11.457C11.3543 10.8219 11.9406 10.2635 12.5992 9.8002C13.9638 8.84063 15.5709 8.33262 17.2476 8.33262C18.9244 8.33262 20.5314 8.84063 21.8961 9.8002C22.5568 10.265 23.1412 10.8229 23.6359 11.457C24.1373 12.0979 24.5357 12.8084 24.8213 13.5621L25.2795 14.774L26.5346 15.1061C28.3342 15.5908 29.5926 17.2277 29.5926 19.0938C29.5926 20.1928 29.1642 21.2287 28.3873 22.0057C28.0063 22.3889 27.553 22.6928 27.0537 22.8997C26.5545 23.1066 26.0191 23.2124 25.4787 23.2109H24.1472C24.0012 23.2109 23.8816 23.3305 23.8816 23.4766V25.4688C23.8816 25.6148 24.0012 25.7344 24.1472 25.7344H25.4787C29.1443 25.7344 32.116 22.7627 32.116 19.0938C32.116 16.0158 30.0209 13.426 27.182 12.6756Z" fill="black"/>
</svg>
