<svg width="32" height="32" viewBox="0 0 32 32" fill="none" xmlns="http://www.w3.org/2000/svg">
<rect width="32" height="32" rx="16" fill="#09427D"/>
<path d="M16 8C13.7909 8 12 9.79086 12 12C12 14.2091 13.7909 16 16 16C18.2091 16 20 14.2091 20 12C20 9.79086 18.2091 8 16 8ZM13 12C13 10.3431 14.3431 9 16 9C17.6569 9 19 10.3431 19 12C19 13.6569 17.6569 15 16 15C14.3431 15 13 13.6569 13 12ZM11.0087 17C9.90315 17 9 17.8869 9 19C9 20.6912 9.83281 21.9663 11.135 22.7966C12.417 23.614 14.1453 24 16 24C17.8547 24 19.583 23.614 20.865 22.7966C22.1672 21.9663 23 20.6912 23 19C23 17.8956 22.1045 17 21 17L11.0087 17ZM10 19C10 18.4467 10.4479 18 11.0087 18L21 18C21.5522 18 22 18.4478 22 19C22 20.3088 21.3777 21.2837 20.3274 21.9534C19.2568 22.636 17.7351 23 16 23C14.2649 23 12.7432 22.636 11.6726 21.9534C10.6223 21.2837 10 20.3088 10 19Z" fill="white"/>
</svg>
