<svg width="32" height="32" viewBox="0 0 32 32" fill="none" xmlns="http://www.w3.org/2000/svg">
<rect width="32" height="32" rx="16" fill="#09427D"/>
<g clip-path="url(#clip0_1246_12344)">
<path d="M16 9.73047C10.2013 9.73047 5.5 15.9972 5.5 15.9972C5.5 15.9972 10.2013 22.2639 16 22.2639C21.7987 22.2639 26.5 15.9972 26.5 15.9972C26.5 15.9972 21.7987 9.73047 16 9.73047ZM16 19.9758C14.9446 19.9759 13.9325 19.5567 13.1861 18.8106C12.4398 18.0643 12.0205 17.0522 12.0205 15.9968C12.0204 14.9415 12.4397 13.9294 13.186 13.1831C13.9322 12.4369 14.9444 12.0175 15.9998 12.0177C17.055 12.0177 18.0672 12.437 18.8134 13.1832C19.5596 13.9296 19.9787 14.9417 19.9786 15.9971C19.9785 17.0523 19.5593 18.0642 18.8132 18.8103C18.0671 19.5565 17.0551 19.9756 16 19.9758Z" fill="white"/>
<path d="M16.0004 13.8389C15.4278 13.8386 14.8786 14.0659 14.4736 14.4705C14.0686 14.8753 13.8411 15.4243 13.8408 15.9969C13.8407 16.5695 14.068 17.1186 14.4728 17.5235C14.8776 17.9285 15.4266 18.1561 15.9992 18.1561C16.5717 18.1562 17.1209 17.9287 17.5258 17.524C17.9307 17.1191 18.1581 16.5701 18.1581 15.9975C18.158 15.4251 17.9307 14.8764 17.526 14.4716C17.1214 14.0668 16.5727 13.8393 16.0004 13.8389V13.8389Z" fill="white"/>
</g>
<defs>
<clipPath id="clip0_1246_12344">
<rect width="21" height="21" fill="white" transform="translate(5.5 5.5)"/>
</clipPath>
</defs>
</svg>
