<svg width="30" height="30" viewBox="0 0 30 30" fill="none" xmlns="http://www.w3.org/2000/svg">
<path d="M15 6.04285C6.71614 6.04285 0 14.9953 0 14.9953C0 14.9953 6.71614 23.9477 15 23.9477C23.2839 23.9477 30 14.9953 30 14.9953C30 14.9953 23.2839 6.04285 15 6.04285ZM15 20.679C13.4923 20.6792 12.0464 20.0803 10.9801 19.0144C9.91406 17.9483 9.31504 16.5024 9.31504 14.9947C9.31488 13.4872 9.91389 12.0413 10.98 10.9752C12.046 9.90912 13.4919 9.3101 14.9997 9.31028C16.5072 9.31028 17.9531 9.90929 19.0192 10.9754C20.0851 12.0416 20.6839 13.4875 20.6838 14.9952C20.6836 16.5026 20.0847 17.9482 19.0188 19.0141C17.9529 20.08 16.5073 20.6788 15 20.679Z" fill="black"/>
<path d="M15 11.9114C14.182 11.9111 13.3975 12.2357 12.8189 12.8138C12.2404 13.392 11.9153 14.1763 11.9149 14.9943C11.9147 15.8123 12.2395 16.5968 12.8177 17.1752C13.396 17.7537 14.1803 18.0788 14.9983 18.0788C15.8162 18.079 16.6007 17.7541 17.1791 17.1759C17.7575 16.5975 18.0825 15.8131 18.0825 14.9951C18.0823 14.1775 17.7575 13.3935 17.1795 12.8153C16.6014 12.2371 15.8176 11.912 15 11.9115V11.9114Z" fill="black"/>
</svg>
