<svg width="108" height="108" viewBox="0 0 108 108" fill="none" xmlns="http://www.w3.org/2000/svg">
<g clip-path="url(#clip0_1246_11131)">
<g filter="url(#filter0_d_1246_11131)">
<path d="M99.5885 10.1826H8.2571C6.80378 10.1826 5.40928 10.7598 4.38179 11.7873C3.3543 12.8156 2.7771 14.2093 2.7771 15.6626V92.3821C2.7771 93.8354 3.3543 95.2292 4.38179 96.2574C5.40928 97.2849 6.80374 97.8621 8.2571 97.8621H99.5885C101.042 97.8621 102.436 97.2849 103.464 96.2574C104.491 95.2292 105.069 93.8355 105.069 92.3821V15.6626C105.069 14.2093 104.491 12.8156 103.464 11.7873C102.436 10.7598 101.042 10.1826 99.5885 10.1826ZM97.7621 19.3162C97.7621 20.0547 97.3172 20.7205 96.6345 21.0034C95.9518 21.2863 95.1659 21.1303 94.6437 20.6074C94.1215 20.0852 93.9648 19.2993 94.2477 18.6166C94.5305 17.9339 95.1964 17.489 95.9357 17.489C96.4196 17.489 96.8845 17.6816 97.227 18.0241C97.5695 18.3666 97.7621 18.8314 97.7621 19.3162ZM90.4558 19.3162C90.4558 20.0547 90.0108 20.7205 89.3281 21.0034C88.6454 21.2863 87.8595 21.1303 87.3373 20.6074C86.8144 20.0852 86.6584 19.2993 86.9413 18.6166C87.2242 17.9339 87.8901 17.489 88.6286 17.489C89.1133 17.489 89.5781 17.6816 89.9206 18.0241C90.2631 18.3666 90.4558 18.8314 90.4558 19.3162ZM81.3222 17.489C82.0607 17.489 82.7274 17.9339 83.0095 18.6166C83.2924 19.2993 83.1364 20.0852 82.6143 20.6074C82.0913 21.1304 81.3054 21.2863 80.6235 21.0034C79.9408 20.7206 79.4958 20.0547 79.4958 19.3162C79.4958 18.307 80.3131 17.489 81.3222 17.489ZM101.416 92.3813C101.416 92.866 101.223 93.3301 100.881 93.6733C100.538 94.0158 100.074 94.2077 99.5889 94.2077H8.25749C7.24836 94.2077 6.43034 93.3905 6.43034 92.3813V28.4477H101.418L101.416 92.3813Z" fill="white"/>
<path d="M82.9491 60.5061C80.2015 55.195 76.0326 50.7517 70.9074 47.6716C65.7821 44.5915 59.9025 42.995 53.9233 43.0616C47.944 42.9951 42.0642 44.5913 36.9391 47.6716C31.8138 50.7517 27.6451 55.195 24.8975 60.5061C24.6375 61.0229 24.6375 61.6329 24.8975 62.1505C27.6451 67.4608 31.814 71.9048 36.9391 74.985C42.0642 78.0651 47.944 79.6608 53.9233 79.595C59.9025 79.6607 65.7823 78.0652 70.9074 74.985C76.0326 71.9047 80.2015 67.4608 82.9491 62.1505C83.209 61.6329 83.209 61.0229 82.9491 60.5061ZM53.9229 72.2878C50.007 72.2878 46.3895 70.1991 44.4316 66.8078C42.4737 63.4173 42.4737 59.2392 44.4316 55.8479C46.3895 52.4574 50.007 50.3679 53.9229 50.3679C54.1476 50.3404 54.3747 50.3404 54.5987 50.3679C55.0773 50.488 55.4871 50.7961 55.7347 51.2226C55.9824 51.6492 56.0474 52.1584 55.9136 52.6332C55.7944 53.0857 55.7386 53.5536 55.7493 54.0215C55.7493 55.4748 56.3272 56.8685 57.3547 57.8968C58.3822 58.9243 59.7759 59.5015 61.2293 59.5015C61.6734 59.5053 62.1153 59.4503 62.545 59.3371C63.0197 59.2041 63.5281 59.2683 63.9547 59.516C64.3813 59.7637 64.6902 60.1735 64.8094 60.6521C64.8622 60.8738 64.8866 61.1009 64.8828 61.3279C64.8828 64.2346 63.7284 67.0228 61.6727 69.0777C59.6178 71.1335 56.8296 72.2878 53.9229 72.2878L53.9229 72.2878Z" fill="white"/>
</g>
</g>
<defs>
<filter id="filter0_d_1246_11131" x="-1.2229" y="10.1826" width="110.291" height="95.6797" filterUnits="userSpaceOnUse" color-interpolation-filters="sRGB">
<feFlood flood-opacity="0" result="BackgroundImageFix"/>
<feColorMatrix in="SourceAlpha" type="matrix" values="0 0 0 0 0 0 0 0 0 0 0 0 0 0 0 0 0 0 127 0" result="hardAlpha"/>
<feOffset dy="4"/>
<feGaussianBlur stdDeviation="2"/>
<feComposite in2="hardAlpha" operator="out"/>
<feColorMatrix type="matrix" values="0 0 0 0 0 0 0 0 0 0 0 0 0 0 0 0 0 0 0.25 0"/>
<feBlend mode="normal" in2="BackgroundImageFix" result="effect1_dropShadow_1246_11131"/>
<feBlend mode="normal" in="SourceGraphic" in2="effect1_dropShadow_1246_11131" result="shape"/>
</filter>
<clipPath id="clip0_1246_11131">
<rect width="108" height="108" fill="white"/>
</clipPath>
</defs>
</svg>
