<svg width="98" height="98" viewBox="0 0 98 98" fill="none" xmlns="http://www.w3.org/2000/svg">
<path d="M90.2165 9.22452H7.48007C6.16351 9.22452 4.90025 9.7474 3.96945 10.6782C3.03866 11.6097 2.51578 12.8722 2.51578 14.1888V83.6884C2.51578 85.005 3.03866 86.2675 3.96945 87.199C4.90025 88.1298 6.16348 88.6527 7.48007 88.6527H90.2165C91.533 88.6527 92.7963 88.1298 93.7271 87.199C94.6579 86.2675 95.1808 85.005 95.1808 83.6884V14.1888C95.1808 12.8723 94.6579 11.6097 93.7271 10.6782C92.7963 9.7474 91.5331 9.22452 90.2165 9.22452ZM88.562 17.4985C88.562 18.1675 88.1589 18.7707 87.5404 19.027C86.922 19.2832 86.21 19.142 85.737 18.6683C85.264 18.1952 85.122 17.4833 85.3783 16.8648C85.6345 16.2464 86.2377 15.8433 86.9074 15.8433C87.3458 15.8433 87.7669 16.0178 88.0772 16.3281C88.3874 16.6384 88.562 17.0594 88.562 17.4985ZM81.9432 17.4985C81.9432 18.1675 81.5401 18.7707 80.9217 19.027C80.3032 19.2832 79.5913 19.142 79.1182 18.6683C78.6445 18.1952 78.5032 17.4833 78.7595 16.8648C79.0157 16.2464 79.619 15.8433 80.288 15.8433C80.7271 15.8433 81.1481 16.0178 81.4584 16.3281C81.7687 16.6384 81.9432 17.0594 81.9432 17.4985ZM73.6692 15.8433C74.3382 15.8433 74.9421 16.2464 75.1977 16.8648C75.4539 17.4833 75.3126 18.1952 74.8396 18.6683C74.3659 19.142 73.654 19.2833 73.0362 19.027C72.4177 18.7708 72.0147 18.1675 72.0147 17.4985C72.0147 16.5844 72.755 15.8433 73.6692 15.8433ZM91.8721 83.6877C91.8721 84.1267 91.6975 84.5471 91.3873 84.8581C91.077 85.1684 90.6559 85.3422 90.2168 85.3422H7.48042C6.56626 85.3422 5.82522 84.6018 5.82522 83.6877V25.7708H91.8735L91.8721 83.6877Z" fill="black"/>
<path d="M75.1429 54.8124C72.6539 50.0011 68.8773 45.976 64.2345 43.1857C59.5915 40.3954 54.2652 38.9493 48.8487 39.0095C43.4322 38.9493 38.1057 40.3953 33.4629 43.1857C28.8199 45.976 25.0435 50.0011 22.5544 54.8124C22.319 55.2805 22.319 55.8332 22.5544 56.302C25.0435 61.1126 28.82 65.1384 33.4629 67.9287C38.1057 70.719 43.4322 72.1644 48.8487 72.1049C54.2652 72.1644 59.5917 70.7191 64.2345 67.9287C68.8773 65.1383 72.6539 61.1126 75.1429 56.302C75.3784 55.8332 75.3784 55.2805 75.1429 54.8124ZM48.8483 65.4853C45.301 65.4853 42.0239 63.5932 40.2502 60.5211C38.4766 57.4496 38.4766 53.6647 40.2502 50.5926C42.0239 47.5211 45.301 45.6283 48.8483 45.6283C49.0519 45.6034 49.2576 45.6034 49.4605 45.6283C49.8941 45.737 50.2653 46.0161 50.4897 46.4026C50.7141 46.789 50.773 47.2503 50.6518 47.6804C50.5437 48.0903 50.4932 48.5142 50.5029 48.938C50.5029 50.2546 51.0264 51.5172 51.9572 52.4487C52.888 53.3795 54.1505 53.9023 55.4671 53.9023C55.8695 53.9058 56.2698 53.8559 56.659 53.7534C57.0891 53.6329 57.5496 53.6911 57.9361 53.9155C58.3225 54.1399 58.6023 54.5111 58.7104 54.9446C58.7582 55.1455 58.7803 55.3512 58.7769 55.5569C58.7769 58.19 57.7311 60.7158 55.8689 62.5774C54.0073 64.4397 51.4815 65.4854 48.8484 65.4854L48.8483 65.4853Z" fill="black"/>
</svg>
