<svg width="26" height="28" viewBox="0 0 26 28" fill="none" xmlns="http://www.w3.org/2000/svg">
<path d="M15.9634 3.1877C16.1356 2.97039 16.4516 2.9346 16.668 3.1079L17.7487 3.97351L13.7982 9.00004H16.3419L19.3097 5.22389L21.8142 7.22997C22.0353 7.40702 22.0653 7.73213 21.8804 7.94665L20.9728 8.99976H23.5869C24.2916 7.93783 24.0861 6.48718 23.0646 5.66898L17.9183 1.54691C16.8365 0.680403 15.2562 0.859399 14.3957 1.94591L8.80859 8.99976H11.36L15.9634 3.1877ZM18 18C17.4477 18 17 18.4477 17 19C17 19.5523 17.4477 20 18 20H21C21.5523 20 22 19.5523 22 19C22 18.4477 21.5523 18 21 18H18ZM3 6C1.34315 6 0 7.34315 0 9V23.5004C0 25.9857 2.01472 28.0004 4.5 28.0004H21.5C23.9853 28.0004 26 25.9857 26 23.5004V14.5004C26 12.0152 23.9853 10.0004 21.5 10.0004L3 10C2.44772 10 2 9.55228 2 9C2 8.44772 2.44772 8 3 8H7.58L9.17625 6H3ZM2 23.5004V11.8293C2.31278 11.9398 2.64936 12 3 12H6.46974C6.47979 12.0003 6.48988 12.0004 6.5 12.0004H21.5C22.8807 12.0004 24 13.1197 24 14.5004V23.5004C24 24.8812 22.8807 26.0004 21.5 26.0004H4.5C3.11929 26.0004 2 24.8812 2 23.5004Z" fill="#09427D"/>
</svg>
