<svg width="26" height="28" viewBox="0 0 26 28" fill="none" xmlns="http://www.w3.org/2000/svg">
<path d="M16.668 3.1079C16.4516 2.9346 16.1356 2.97039 15.9634 3.1877L11.36 8.99976H8.80859L14.3957 1.94591C15.2562 0.859399 16.8365 0.680403 17.9183 1.54691L23.0646 5.66898C24.0861 6.48718 24.2916 7.93783 23.5869 8.99976H20.9728L21.8804 7.94665C22.0653 7.73213 22.0353 7.40702 21.8142 7.22997L19.3098 5.22394L16.342 9.00004H13.7983L17.7487 3.97356L16.668 3.1079ZM3 6C1.34315 6 0 7.34315 0 9V23.5004C0 25.9857 2.01472 28.0004 4.5 28.0004H21.5C23.9853 28.0004 26 25.9857 26 23.5004V14.5004C26 12.0152 23.9853 10.0004 21.5 10.0004L3 10C2.44772 10 2 9.55228 2 9C2 8.44772 2.44772 8 3 8H7.58L9.17625 6H3ZM18 18H21C21.5523 18 22 18.4477 22 19C22 19.5523 21.5523 20 21 20H18C17.4477 20 17 19.5523 17 19C17 18.4477 17.4477 18 18 18Z" fill="#09427D"/>
</svg>
