<svg width="30" height="30" viewBox="0 0 30 30" fill="none" xmlns="http://www.w3.org/2000/svg">
<path d="M17.991 0.309731L8.7903 8.32697H3.91679C2.71737 8.32697 1.6546 8.78474 0.971336 9.50816C0.303636 10.2458 0 11.1762 0 12.0767V26.2205C0 27.1654 0.0759158 28.1251 0.774391 28.9223C1.47287 29.7196 2.56587 30 3.78052 30H24.3978C25.4758 30 26.5082 29.7195 27.2521 29.0109C27.9808 28.3023 28.2844 27.313 28.2844 26.2797V24.2719C29.2561 23.7258 29.9695 22.5888 30 21.6587V19.1635C29.8631 17.9233 29.2405 17.1409 28.2841 16.5648V14.5274C28.1475 13.1247 27.7527 12.1208 26.7051 11.3974L27.9652 9.96539C28.3902 9.49308 28.36 8.71038 27.9045 8.28225L19.7666 0.3543C19.0681 -0.132828 18.6736 -0.0886458 17.9903 0.310122L17.991 0.309731ZM17.7328 3.91202C17.9453 4.31079 18.3703 4.57644 18.8563 4.57644C19.2966 4.57644 19.6761 4.35497 19.9038 4.03032L24.1094 8.12004C23.7752 8.34152 23.5627 8.73999 23.5627 9.16842C23.5627 9.65555 23.8664 10.0837 24.3067 10.2906L23.8207 10.8367H20.9664C20.9968 8.74027 18.856 7.08682 16.7154 7.07194C14.5747 7.08677 12.4187 8.74027 12.4644 10.8367H9.79236L17.7328 3.91202ZM16.7005 9.56657C17.4749 9.55175 18.4313 9.9947 18.4313 10.8364H15.0001C15.0001 9.99493 15.8504 9.58138 16.7005 9.56657ZM23.6085 18.7498H26.9789C27.2219 18.8236 27.2979 18.9564 27.4192 19.1631V21.6583C27.3585 21.8797 27.161 21.9684 27.0244 22.0864H23.5628C22.91 22.0864 22.7125 21.9536 22.5911 21.8207C22.4698 21.6879 22.2875 21.3188 22.2875 20.4477C22.2875 19.547 22.4698 19.1485 22.6064 19.0157C22.7277 18.868 22.9405 18.75 23.6085 18.75L23.6085 18.7498ZM23.988 19.1631C23.2896 19.1631 22.7127 19.724 22.7127 20.4181C22.7127 21.1118 23.2896 21.6583 23.988 21.6583C24.7015 21.6583 25.2786 21.1121 25.2786 20.4181C25.2786 19.7243 24.7017 19.1631 23.988 19.1631Z" fill="black"/>
</svg>
