<svg width="93" height="20" viewBox="0 0 93 20" fill="none" xmlns="http://www.w3.org/2000/svg">
<path d="M0 10.0135C0 4.69702 2.97206 0 9.34115 0C13.1759 0 16.2443 1.9507 17.8054 5.57647L14.56 6.86794C13.8346 4.31342 11.8344 3.32457 9.31423 3.32457C5.2188 3.32457 3.45229 6.27833 3.45229 9.87711C3.45229 13.7373 5.2188 16.6896 9.36948 16.6896C11.8627 16.6896 13.574 15.7008 14.6152 13.0909L17.8337 14.4093C16.2996 18.0351 13.2184 20 9.36948 20C2.99897 19.9986 0 15.3428 0 10.0135Z" fill="#09427D"/>
<path d="M44.1827 8.03863L41.5181 4.72116C42.7194 2.33997 44.8684 0.583918 48.0472 0.139221L48.0515 3.11571V3.32456C45.7651 3.90991 44.5865 5.76116 44.1827 8.03863Z" fill="#BFD1E3"/>
<path d="M34.2722 11.9614L36.9425 15.2859C35.778 17.6046 33.7197 19.3337 30.6896 19.8423L30.6881 18.9245L30.6853 16.6328C32.7932 15.9665 33.8897 14.1607 34.2722 11.9614Z" fill="#BFD1E3"/>
<path d="M59.0289 10.0135C59.0289 15.3015 56.0838 19.9986 49.6878 19.9986C46.0627 19.9986 43.5468 18.4897 42.0466 16.2193L37.8477 10.9924L32.9958 4.99395L32.9916 4.98826C32.0878 3.84881 30.7179 3.13133 28.7616 3.13133C24.6109 3.13133 23.0909 6.35929 23.0909 10.0135C23.0909 13.2102 24.2468 16.0744 27.2939 16.755L27.2982 19.0637L27.2996 19.9119C21.9151 19.247 19.4204 14.881 19.4204 10.0135C19.4204 4.724 22.3655 0.0269775 28.7616 0.0269775C32.2719 0.0269775 34.7425 1.44205 36.2583 3.59308L40.4047 8.75611L45.377 14.9435L45.3841 14.9535C46.2851 16.1512 47.6776 16.9084 49.6878 16.9084C53.8385 16.9084 55.3585 13.6805 55.3585 10.0135C55.3585 6.92902 54.2762 4.14859 51.4415 3.35723V2.97647L51.4373 0.154846C56.6235 0.936262 59.0289 5.23263 59.0289 10.0135Z" fill="#09427D"/>
<path d="M62.644 0.31543H66.1232V16.4282H74.3949V19.7244H62.644V0.31543Z" fill="#09427D"/>
<path d="M81.5303 10.0135L75.0804 0.31543H79.2297L83.913 7.8014L88.5964 0.31543H92.7456L86.2944 10.0135L92.7725 19.7244H88.6233L83.8847 12.3478L79.2028 19.7244H75.0521L81.5303 10.0135Z" fill="#09427D"/>
</svg>
