<svg width="561" height="405" viewBox="0 0 561 405" fill="none" xmlns="http://www.w3.org/2000/svg">
<path d="M24 51.4999C19.2 51.4999 15 50.3999 11.6 48.2999C8.20003 46.1999 5.50003 43.1999 3.70003 39.3999C1.90003 35.5999 0.900024 31.1999 0.900024 26.1999C0.900024 21.1999 1.80003 16.7999 3.70003 12.9999C5.50003 9.1999 8.20003 6.2999 11.6 4.0999C15 1.9999 19.2 0.899902 24 0.899902C28.8 0.899902 33 1.9999 36.4 4.0999C39.9 6.1999 42.5 9.1999 44.4 12.9999C46.3 16.7999 47.2 21.1999 47.2 26.1999C47.2 31.1999 46.3 35.5999 44.4 39.3999C42.6 43.1999 39.9 46.0999 36.4 48.2999C33 50.4999 28.9 51.4999 24 51.4999ZM24 43.8999C27.2 43.8999 30 43.1999 32.1 41.7999C34.3 40.2999 35.9 38.2999 37 35.6999C38.1 33.0999 38.6 29.9999 38.6 26.3999C38.6 22.7999 38.1 19.7999 37 17.1999C35.9 14.5999 34.3 12.5999 32.1 11.0999C29.9 9.5999 27.2 8.8999 24 8.7999C20.8 8.7999 18.1 9.4999 15.9 10.8999C13.8 12.3999 12.1 14.3999 11 16.9999C9.90002 19.5999 9.40002 22.6999 9.40002 26.2999C9.40002 29.8999 9.90002 32.8999 11 35.4999C12.1 38.0999 13.7 40.0999 15.9 41.5999C18.1 43.0999 20.8 43.8999 24 43.8999Z" fill="#2F4A7F"/>
<path d="M74.4 51.4999C69.6 51.4999 65.4 50.3999 62 48.2999C58.6 46.1999 55.9 43.1999 54.1 39.3999C52.3 35.5999 51.3 31.1999 51.3 26.1999C51.3 21.1999 52.2 16.9999 54 13.1999C55.8 9.39985 58.5 6.49985 61.9 4.29985C65.3 2.19985 69.5 1.09985 74.3 1.09985C79.1 1.09985 83.3 2.19985 86.7 4.29985C90.2 6.39985 92.8 9.39985 94.7 13.1999C96.6 16.9999 97.5 21.3999 97.5 26.3999C97.5 31.3999 96.6 35.7999 94.7 39.5999C92.9 43.3999 90.2 46.2999 86.7 48.4999C83.4 50.4999 79.2 51.4999 74.4 51.4999ZM74.4 43.8999C77.6 43.8999 80.4 43.1999 82.5 41.7999C84.7 40.2999 86.3 38.2999 87.4 35.6999C88.5 33.0999 89 29.9999 89 26.3999C89 22.7999 88.5 19.7999 87.4 17.1999C86.3 14.5999 84.7 12.5999 82.5 11.0999C80.3 9.59985 77.6 8.89985 74.4 8.79985C71.2 8.79985 68.5 9.49985 66.3 10.8999C64.2 12.3999 62.5 14.3999 61.4 16.9999C60.3 19.5999 59.8 22.6999 59.8 26.2999C59.8 29.8999 60.3 32.8999 61.4 35.4999C62.5 38.0999 64.1 40.0999 66.3 41.5999C68.4 43.0999 71.1 43.8999 74.4 43.8999Z" fill="#2F4A7F"/>
<path d="M104.3 50.5V2.19995H124.3C124.8 2.19995 125.4 2.19995 126.1 2.29995C126.8 2.39995 127.5 2.39995 128.1 2.49995C130.9 2.89995 133.2 3.89995 135 5.29995C136.8 6.69995 138.2 8.49995 139.1 10.7C140 12.9 140.4 15.3 140.4 18C140.4 20.6 140 23.1 139.1 25.2C138.2 27.4 136.8 29.1999 135 30.5999C133.2 31.9999 130.9 33 128.1 33.4C127.5 33.5 126.8 33.5999 126 33.5999C125.2 33.5999 124.7 33.7 124.2 33.7H112.3V50.5999H104.3V50.5ZM112.4 26.0999H124C124.4 26.0999 125 26.1 125.5 26C126.1 26 126.6 25.9 127 25.7C128.3 25.4 129.4 24.8 130.2 23.9C131 23 131.5 22.1 131.8 21C132.1 19.9 132.3 18.8999 132.3 17.7999C132.3 16.7999 132.1 15.6999 131.8 14.5999C131.5 13.4999 130.9 12.5 130.2 11.7C129.4 10.8 128.4 10.3 127 9.89995C126.5 9.79995 126 9.69995 125.5 9.59995C124.9 9.59995 124.4 9.49995 124 9.49995H112.4V26.0999Z" fill="#2F4A7F"/>
<path d="M165.1 51.4999C161.6 51.4999 158.4 50.8999 155.5 49.6999C152.7 48.4999 150.3 46.6999 148.5 44.3999C146.7 42.0999 145.5 39.3999 145 36.1999L153.4 34.8999C154.1 37.7999 155.6 39.9999 157.8 41.5999C160 43.1999 162.6 43.9999 165.5 43.9999C167.2 43.9999 168.8 43.6999 170.4 43.1999C171.9 42.6999 173.2 41.8999 174.1 40.7999C175.1 39.7999 175.5 38.4999 175.5 36.9999C175.5 36.2999 175.4 35.6999 175.2 35.0999C175 34.4999 174.6 33.9999 174.2 33.5999C173.8 33.1999 173.2 32.6999 172.5 32.3999C171.8 31.9999 171 31.6999 170.1 31.3999L157.6 27.6999C156.5 27.3999 155.4 26.9999 154.1 26.3999C152.9 25.8999 151.7 25.0999 150.6 24.1999C149.5 23.2999 148.6 22.0999 147.9 20.5999C147.2 19.1999 146.8 17.3999 146.8 15.1999C146.8 12.0999 147.6 9.4999 149.2 7.3999C150.8 5.2999 152.9 3.6999 155.6 2.5999C158.3 1.4999 161.2 0.999902 164.5 1.0999C167.8 1.0999 170.8 1.6999 173.4 2.7999C176 3.8999 178.2 5.4999 179.9 7.5999C181.6 9.6999 182.9 12.1999 183.6 15.1999L174.9 16.6999C174.5 14.9999 173.9 13.4999 172.8 12.3999C171.8 11.1999 170.5 10.2999 169.1 9.6999C167.6 9.0999 166.1 8.6999 164.4 8.6999C162.8 8.6999 161.3 8.8999 159.9 9.3999C158.5 9.8999 157.4 10.5999 156.6 11.5999C155.8 12.4999 155.3 13.5999 155.3 14.8999C155.3 16.0999 155.7 17.0999 156.4 17.7999C157.1 18.4999 158 19.0999 159.1 19.5999C160.2 19.9999 161.2 20.3999 162.3 20.6999L171 23.0999C172.2 23.3999 173.5 23.7999 175 24.3999C176.5 24.8999 177.9 25.6999 179.3 26.5999C180.7 27.5999 181.8 28.7999 182.7 30.3999C183.6 31.9999 184 33.9999 184 36.3999C184 38.8999 183.5 41.0999 182.4 42.9999C181.4 44.8999 180 46.4999 178.2 47.6999C176.4 48.9999 174.4 49.8999 172.1 50.4999C169.9 51.1999 167.6 51.4999 165.1 51.4999Z" fill="#2F4A7F"/>
<path d="M194.7 38.4V2.19995H202.8V38.5H194.7V38.4ZM194.7 50.5V43.0999H202.8V50.5H194.7Z" fill="#2F4A7F"/>
<path d="M7.50005 75.1998C6.50005 75.1998 5.60005 74.9998 4.80005 74.5998C4.00005 74.1998 3.40005 73.5998 3.00005 72.7998C2.60005 71.9998 2.30005 71.1998 2.30005 70.0998V61.7998H3.90005V69.9998C3.90005 70.5998 4.00005 71.1998 4.20005 71.5998C4.40005 72.0998 4.70005 72.3998 5.00005 72.6998C5.30005 72.9998 5.70005 73.1998 6.10005 73.3998C6.50005 73.5998 6.90005 73.5998 7.30005 73.5998C7.70005 73.5998 8.10005 73.4998 8.60005 73.3998C9.00005 73.1998 9.40005 72.9998 9.70005 72.6998C10.0001 72.3998 10.3 71.9998 10.5 71.5998C10.7 71.0998 10.8 70.5998 10.8 69.9998V61.7998H12.4V70.0998C12.4 71.0998 12.2001 71.9998 11.7001 72.7998C11.2001 73.5998 10.6 74.0998 9.90005 74.5998C9.40005 74.9998 8.50005 75.1998 7.50005 75.1998Z" fill="#2F4A7F"/>
<path d="M15.2001 74.9998V61.7998H16.8001L23.6001 72.0998V61.7998H25.2001V74.9998H23.6001L16.8001 64.6998V74.9998H15.2001Z" fill="#2F4A7F"/>
<path d="M27.9 74.9998V61.7998H31.9C32 61.7998 32.3 61.7998 32.6 61.7998C32.9 61.7998 33.3 61.7998 33.6 61.8998C34.6 61.9998 35.5 62.3998 36.1 62.9998C36.7 63.5998 37.3 64.3998 37.6 65.2998C37.9 66.1998 38.1 67.2998 38.1 68.3998C38.1 69.4998 37.9 70.4998 37.6 71.4998C37.3 72.3998 36.7 73.1998 36.1 73.7998C35.5 74.3998 34.6 74.7998 33.6 74.8998C33.3 74.8998 33 74.9998 32.6 74.9998C32.3 74.9998 32 74.9998 31.9 74.9998H27.9V74.9998ZM29.6 73.3998H32C32.2 73.3998 32.5 73.3998 32.8 73.3998C33.1 73.3998 33.3 73.3998 33.5 73.2998C34.2 73.1998 34.8 72.8998 35.2 72.3998C35.6 71.8998 36 71.2998 36.2 70.5998C36.4 69.8998 36.5 69.0998 36.5 68.2998C36.5 67.4998 36.4 66.6998 36.2 65.9998C36 65.2998 35.7 64.6998 35.2 64.2998C34.8 63.7998 34.2 63.4998 33.5 63.3998C33.3 63.3998 33 63.2998 32.7 63.2998C32.4 63.2998 32.2 63.2998 31.9 63.2998H29.5V73.3998H29.6Z" fill="#2F4A7F"/>
<path d="M40.3 74.9998V61.7998H48.6V63.2998H42V67.3998H47.6V68.9998H42V73.3998H48.7V74.9998H40.3Z" fill="#2F4A7F"/>
<path d="M50.8 74.9998V61.7998H56C56.1 61.7998 56.3 61.7998 56.5 61.7998C56.7 61.7998 56.8 61.7998 57 61.8998C57.7 61.9998 58.3 62.2998 58.8 62.5998C59.3 62.9998 59.6 63.4998 59.9 63.9998C60.2 64.4998 60.3 65.1998 60.3 65.8998C60.3 66.8998 60 67.7998 59.5 68.4998C59 69.1998 58.2 69.6998 57.2 69.8998L56.6 69.9998H52.6V74.9998H50.8ZM52.4 68.5998H56C56.1 68.5998 56.2 68.5998 56.4 68.5998C56.5 68.5998 56.7 68.5998 56.8 68.4998C57.2 68.3998 57.6 68.1998 57.8 67.9998C58.1 67.6998 58.3 67.3998 58.4 67.0998C58.5 66.7998 58.6 66.3998 58.6 65.9998C58.6 65.5998 58.5 65.2998 58.4 64.8998C58.3 64.5998 58.1 64.1998 57.8 63.9998C57.5 63.6998 57.2 63.5998 56.8 63.4998C56.7 63.4998 56.5 63.3998 56.4 63.3998C56.3 63.3998 56.1 63.3998 56 63.3998H52.5V68.5998H52.4ZM58.6 74.9998L56 69.5998L57.6 69.0998L60.4 74.8998H58.6V74.9998Z" fill="#2F4A7F"/>
<path d="M71.5 75.2C70.2 75.2 69.1 74.9 68.2 74.3C67.3 73.7 66.6 73 66.1 72C65.6 71 65.4 69.8 65.4 68.4C65.4 67.1 65.6 65.9 66.1 64.8C66.6 63.8 67.3 63 68.2 62.4C69.1 61.8 70.2 61.5 71.5 61.5C73 61.5 74.3 61.9 75.3 62.7C76.3 63.5 77 64.5 77.3 65.8L75.6 66.2C75.3 65.2 74.9 64.4 74.2 63.9C73.5 63.3 72.6 63.1 71.5 63.1C70.5 63.1 69.7 63.3 69.1 63.8C68.4 64.2 68 64.9 67.6 65.7C67.3 66.5 67.1 67.4 67.1 68.5C67.1 69.5 67.3 70.5 67.6 71.3C67.9 72.1 68.4 72.7 69.1 73.2C69.8 73.7 70.6 73.9 71.6 73.9C72.7 73.9 73.6 73.6 74.3 73C75 72.4 75.5 71.7 75.7 70.7L77.4 71.1C77 72.4 76.4 73.4 75.4 74.2C74.3 74.8 73.1 75.2 71.5 75.2Z" fill="#2F4A7F"/>
<path d="M84.7001 75.2C83.4001 75.2 82.3001 74.9 81.4001 74.3C80.5001 73.7 79.8001 73 79.3001 72C78.8001 71 78.6001 69.8 78.6001 68.4C78.6001 67.1 78.8001 65.9 79.3001 64.8C79.8001 63.8 80.5001 63 81.4001 62.4C82.3001 61.8 83.4001 61.5 84.7001 61.5C86.0001 61.5 87.1001 61.8 88.0001 62.4C88.9001 63 89.6001 63.8 90.1001 64.8C90.6001 65.8 90.8001 67 90.8001 68.4C90.8001 69.8 90.6001 70.9 90.1001 72C89.6001 73 88.9001 73.8 88.0001 74.4C87.1001 75 86.0001 75.2 84.7001 75.2ZM84.7001 73.7C85.7001 73.7 86.5001 73.5 87.1001 73C87.8001 72.6 88.2001 71.9 88.6001 71.1C88.9001 70.3 89.1001 69.4 89.1001 68.3C89.1001 67.3 88.9001 66.3 88.6001 65.5C88.3001 64.7 87.8001 64.1 87.1001 63.6C86.4001 63.2 85.6001 62.9 84.7001 62.9C83.7001 62.9 82.9001 63.1 82.3001 63.6C81.7001 64 81.2001 64.7 80.8001 65.5C80.5001 66.3 80.3001 67.2 80.3001 68.3C80.3001 69.3 80.5001 70.3 80.8001 71.1C81.1001 71.9 81.6001 72.5 82.3001 73C82.9001 73.4 83.8001 73.7 84.7001 73.7Z" fill="#2F4A7F"/>
<path d="M92.7001 74.9998V61.7998H94.3001L101.1 72.0998V61.7998H102.7V74.9998H101.1L94.3001 64.6998V74.9998H92.7001Z" fill="#2F4A7F"/>
<path d="M110 75.1999C109.1 75.1999 108.2 74.9999 107.5 74.6999C106.8 74.3999 106.1 73.8999 105.7 73.2999C105.2 72.6999 104.9 71.9999 104.8 71.1999L106.5 70.8999C106.7 71.6999 107.2 72.3999 107.8 72.7999C108.5 73.2999 109.3 73.4999 110.2 73.4999C110.8 73.4999 111.3 73.3999 111.8 73.1999C112.3 72.9999 112.7 72.6999 112.9 72.3999C113.2 72.0999 113.3 71.5999 113.3 71.1999C113.3 70.8999 113.2 70.6999 113.1 70.4999C113 70.2999 112.9 70.0999 112.7 69.9999C112.5 69.8999 112.3 69.6999 112.1 69.5999C111.9 69.4999 111.7 69.3999 111.4 69.2999L108.1 68.2999C107.7 68.1999 107.4 68.0999 107 67.8999C106.7 67.6999 106.4 67.4999 106.1 67.2999C105.8 66.9999 105.6 66.6999 105.5 66.3999C105.3 65.9999 105.3 65.5999 105.3 65.0999C105.3 64.2999 105.5 63.6999 105.9 63.0999C106.3 62.4999 106.9 62.0999 107.5 61.7999C108.2 61.4999 109 61.3999 109.8 61.3999C110.7 61.3999 111.5 61.5999 112.2 61.8999C112.9 62.1999 113.5 62.5999 113.9 63.1999C114.4 63.7999 114.7 64.4999 114.8 65.2999L113.1 65.5999C113 65.0999 112.8 64.5999 112.5 64.1999C112.2 63.7999 111.8 63.4999 111.3 63.2999C110.8 63.0999 110.3 62.9999 109.8 62.9999C109.3 62.9999 108.8 63.0999 108.3 63.2999C107.8 63.4999 107.5 63.6999 107.3 63.9999C107.1 64.2999 106.9 64.6999 106.9 65.0999C106.9 65.4999 107 65.7999 107.2 66.0999C107.4 66.3999 107.7 66.4999 108.1 66.6999C108.4 66.7999 108.8 66.9999 109.1 67.0999L111.6 67.7999C111.9 67.8999 112.2 67.9999 112.6 68.0999C113 68.1999 113.3 68.3999 113.7 68.6999C114.1 68.9999 114.3 69.2999 114.6 69.6999C114.9 70.0999 114.9 70.5999 114.9 71.2999C114.9 71.9999 114.8 72.4999 114.5 72.9999C114.2 73.4999 113.9 73.8999 113.4 74.1999C113 74.4999 112.4 74.7999 111.8 74.9999C111.4 75.0999 110.7 75.1999 110 75.1999Z" fill="#2F4A7F"/>
<path d="M120.2 74.9999V63.3999H115.7V61.8999H126.3V63.3999H121.8V74.9999H120.2Z" fill="#2F4A7F"/>
<path d="M127.8 74.9998V61.7998H133C133.1 61.7998 133.3 61.7998 133.5 61.7998C133.7 61.7998 133.8 61.7998 134 61.8998C134.7 61.9998 135.3 62.2998 135.8 62.5998C136.3 62.9998 136.6 63.4998 136.9 63.9998C137.2 64.4998 137.3 65.1998 137.3 65.8998C137.3 66.8998 137 67.7998 136.5 68.4998C136 69.1998 135.2 69.6998 134.2 69.8998L133.6 69.9998H129.6V74.9998H127.8ZM129.4 68.5998H132.9C133 68.5998 133.1 68.5998 133.3 68.5998C133.4 68.5998 133.6 68.5998 133.7 68.4998C134.1 68.3998 134.5 68.1998 134.7 67.9998C135 67.6998 135.2 67.3998 135.3 67.0998C135.4 66.7998 135.5 66.3998 135.5 65.9998C135.5 65.5998 135.4 65.2998 135.3 64.8998C135.2 64.5998 135 64.1998 134.7 63.9998C134.4 63.6998 134.1 63.5998 133.7 63.4998C133.6 63.4998 133.4 63.3998 133.3 63.3998C133.2 63.3998 133 63.3998 132.9 63.3998H129.4V68.5998ZM135.6 74.9998L133 69.6998L134.6 69.1998L137.4 74.9998H135.6Z" fill="#2F4A7F"/>
<path d="M144.7 75.1998C143.7 75.1998 142.8 74.9998 142 74.5998C141.2 74.1998 140.6 73.5998 140.2 72.7998C139.8 71.9998 139.5 71.1998 139.5 70.0998V61.7998H141.1V69.9998C141.1 70.5998 141.2 71.1998 141.4 71.5998C141.6 72.0998 141.9 72.3998 142.2 72.6998C142.5 72.9998 142.9 73.1998 143.3 73.3998C143.7 73.5998 144.1 73.5998 144.5 73.5998C144.9 73.5998 145.3 73.4998 145.8 73.3998C146.2 73.1998 146.6 72.9998 146.9 72.6998C147.2 72.3998 147.5 71.9998 147.7 71.5998C147.9 71.0998 148 70.5998 148 69.9998V61.7998H149.6V70.0998C149.6 71.0998 149.4 71.9998 148.9 72.7998C148.4 73.5998 147.8 74.0998 147.1 74.5998C146.6 74.9998 145.7 75.1998 144.7 75.1998Z" fill="#2F4A7F"/>
<path d="M157.8 75.1999C156.5 75.1999 155.4 74.8999 154.5 74.2999C153.6 73.6999 152.9 72.8999 152.4 71.8999C151.9 70.8999 151.7 69.6999 151.7 68.2999C151.7 66.9999 151.9 65.7999 152.4 64.6999C152.9 63.6999 153.6 62.8999 154.5 62.2999C155.4 61.6999 156.5 61.3999 157.8 61.3999C159.3 61.3999 160.6 61.7999 161.6 62.5999C162.6 63.3999 163.3 64.3999 163.6 65.6999L161.9 66.0999C161.6 65.0999 161.2 64.2999 160.5 63.7999C159.8 63.1999 158.9 62.9999 157.8 62.9999C156.8 62.9999 156 63.1999 155.4 63.6999C154.7 64.0999 154.3 64.7999 153.9 65.5999C153.6 66.3999 153.4 67.2999 153.4 68.3999C153.4 69.3999 153.6 70.3999 153.9 71.1999C154.2 71.9999 154.7 72.5999 155.4 73.0999C156.1 73.5999 156.9 73.7999 157.9 73.7999C159 73.7999 159.9 73.4999 160.6 72.8999C161.3 72.2999 161.8 71.5999 162 70.5999L163.7 70.9999C163.3 72.2999 162.7 73.2999 161.7 74.0999C160.6 74.7999 159.3 75.1999 157.8 75.1999Z" fill="#2F4A7F"/>
<path d="M169 74.9999V63.3999H164.5V61.8999H175.1V63.3999H170.6V74.9999H169Z" fill="#2F4A7F"/>
<path d="M176.7 74.9998V61.7998H178.3V74.9998H176.7Z" fill="#2F4A7F"/>
<path d="M186.5 75.1999C185.2 75.1999 184.1 74.8999 183.2 74.2999C182.3 73.6999 181.6 72.8999 181.1 71.8999C180.6 70.8999 180.4 69.6999 180.4 68.2999C180.4 66.9999 180.6 65.7999 181.1 64.6999C181.6 63.6999 182.3 62.8999 183.2 62.2999C184.1 61.6999 185.2 61.3999 186.5 61.3999C187.8 61.3999 188.9 61.6999 189.8 62.2999C190.7 62.8999 191.4 63.6999 191.9 64.6999C192.4 65.6999 192.6 66.8999 192.6 68.2999C192.6 69.6999 192.4 70.7999 191.9 71.8999C191.4 72.8999 190.7 73.6999 189.8 74.2999C188.9 74.8999 187.8 75.1999 186.5 75.1999ZM186.5 73.6999C187.5 73.6999 188.3 73.4999 188.9 72.9999C189.6 72.5999 190 71.8999 190.4 71.0999C190.7 70.2999 190.9 69.3999 190.9 68.2999C190.9 67.2999 190.7 66.2999 190.4 65.4999C190.1 64.6999 189.6 64.0999 188.9 63.5999C188.2 63.1999 187.4 62.8999 186.5 62.8999C185.5 62.8999 184.7 63.0999 184.1 63.5999C183.5 63.9999 183 64.6999 182.6 65.4999C182.3 66.2999 182.1 67.1999 182.1 68.2999C182.1 69.2999 182.3 70.2999 182.6 71.0999C182.9 71.8999 183.4 72.4999 184.1 72.9999C184.7 73.3999 185.5 73.6999 186.5 73.6999Z" fill="#2F4A7F"/>
<path d="M194.4 74.9998V61.7998H196L202.8 72.0998V61.7998H204.4V74.9998H202.8L196 64.6998V74.9998H194.4Z" fill="#2F4A7F"/>
<path d="M1 85H61.5" stroke="#2F4A7F" stroke-width="0.75" stroke-miterlimit="10" stroke-linecap="round" stroke-linejoin="round"/>
<path d="M119.7 404.4C119.7 404.4 67.5 377.3 71.4 301.9C75.3 226.5 210.3 262.9 288.8 223.1C367.3 183.3 456.2 160.3 507.2 256.3C558.2 352.2 525.5 404.5 525.5 404.5H119.7V404.4Z" fill="#D5E2F5"/>
<path d="M375.5 360.3C375.5 360.3 368.1 314.5 404.2 313.6C440.3 312.7 436.9 360.3 436.9 360.3H375.5Z" fill="#B9CDEC"/>
<path d="M424.4 360.3C424.4 360.3 430.1 311.3 473.3 312.9C516.5 314.5 522.2 360.3 522.2 360.3H424.4Z" fill="#B9CDEC"/>
<path d="M525.3 360.3C525.5 360.3 525.7 343 537.3 341.7C548.9 340.4 553.3 360.3 553.3 360.3H525.3Z" fill="#B9CDEC"/>
<path d="M494.6 360.3C494.6 360.3 489.4 320.1 514.2 317.4C539 314.7 539.2 360.3 539.2 360.3H494.6Z" fill="#547FB3"/>
<path d="M557.3 404.4H365.2C363.7 404.4 362.5 403.2 362.5 401.7V363.6C362.5 361.8 364 360.3 365.8 360.3H556.8C558.6 360.3 560.1 361.8 560.1 363.6V401.7C560 403.2 558.8 404.4 557.3 404.4Z" fill="#8AACDB"/>
<path d="M553.2 360.3V396C553.2 397.2 552.2 398.2 551 398.2H367.4C365.4 398.2 363.8 399.3 363 401C363.9 403 365.9 404.4 368.2 404.4H553.3H554.4C557.5 404.4 560.1 401.9 560.1 398.7V367C560 363.3 557 360.3 553.2 360.3Z" fill="#547FB3"/>
<path d="M557.3 404.4H365.2C363.7 404.4 362.5 403.2 362.5 401.7V363.6C362.5 361.8 364 360.3 365.8 360.3H556.8C558.6 360.3 560.1 361.8 560.1 363.6V401.7C560 403.2 558.8 404.4 557.3 404.4Z" stroke="#2F4A7F" stroke-width="0.75" stroke-miterlimit="10" stroke-linecap="round" stroke-linejoin="round"/>
<path d="M362.5 368.3H560" stroke="#2F4A7F" stroke-width="0.75" stroke-miterlimit="10" stroke-linecap="round" stroke-linejoin="round"/>
<path d="M371 328.5H73.6C72.5 328.5 71.6 327.6 71.6 326.5V150.2C71.6 149.1 72.5 148.2 73.6 148.2H371C372.1 148.2 373 149.1 373 150.2V326.4C373 327.6 372.1 328.5 371 328.5Z" fill="#547FB3" stroke="#2F4A7F" stroke-width="0.75" stroke-miterlimit="10" stroke-linecap="round" stroke-linejoin="round"/>
<path d="M364.3 328.5H66.9C65.8 328.5 64.9 327.6 64.9 326.5V150.2C64.9 149.1 65.8 148.2 66.9 148.2H364.3C365.4 148.2 366.3 149.1 366.3 150.2V326.4C366.3 327.6 365.4 328.5 364.3 328.5Z" fill="#8AACDB" stroke="#2F4A7F" stroke-width="0.75" stroke-miterlimit="10" stroke-linecap="round" stroke-linejoin="round"/>
<path d="M357.807 319.96L357.807 156.66L73.4066 156.66L73.4066 319.96L357.807 319.96Z" fill="#B9CDEC" stroke="#2F4A7F" stroke-width="0.75" stroke-miterlimit="10" stroke-linecap="round" stroke-linejoin="round"/>
<path d="M265.9 328.5H186.7V392.1H265.9V328.5Z" fill="#8AACDB"/>
<path d="M265.7 328.5H186.7V335.6H265.7V328.5Z" fill="#547FB3"/>
<path d="M265.9 328.5H186.7V392.1H265.9V328.5Z" stroke="#2F4A7F" stroke-width="0.75" stroke-miterlimit="10" stroke-linecap="round" stroke-linejoin="round"/>
<path d="M271.7 328.5H265.8V392.1H271.7V328.5Z" fill="#547FB3" stroke="#2F4A7F" stroke-width="0.75" stroke-miterlimit="10" stroke-linecap="round" stroke-linejoin="round"/>
<path d="M290.9 392.1H327C327.8 392.1 328.5 392.8 328.5 393.6V402.9C328.5 403.7 327.8 404.4 327 404.4H290.9V392.1Z" fill="#547FB3" stroke="#2F4A7F" stroke-width="0.75" stroke-miterlimit="10" stroke-linecap="round" stroke-linejoin="round"/>
<path d="M126.6 392.1H307.1C307.9 392.1 308.6 392.8 308.6 393.6V402.9C308.6 403.7 307.9 404.4 307.1 404.4H126.6C125.8 404.4 125.1 403.7 125.1 402.9V393.6C125.1 392.8 125.7 392.1 126.6 392.1Z" fill="#8AACDB" stroke="#2F4A7F" stroke-width="0.75" stroke-miterlimit="10" stroke-linecap="round" stroke-linejoin="round"/>
<path d="M347.1 273.9H180.2V309.4H347.1V273.9Z" fill="#D5E2F5" stroke="#2F4A7F" stroke-width="0.75" stroke-miterlimit="10" stroke-linecap="round" stroke-linejoin="round"/>
<path d="M209.2 280.3H186.6V302.9H209.2V280.3Z" fill="#8AACDB" stroke="#2F4A7F" stroke-width="0.75" stroke-miterlimit="10" stroke-linecap="round" stroke-linejoin="round"/>
<path d="M186.6 295.9C186.6 295.9 190.6 290.1 196.1 291.6C201.6 293.1 198.6 295.3 209.2 295.3V302.9H186.6V295.9Z" fill="#547FB3" stroke="#2F4A7F" stroke-width="0.75" stroke-miterlimit="10" stroke-linecap="round" stroke-linejoin="round"/>
<path d="M198.6 286C198.6 284.4 197.3 283.2 195.8 283.2C194.2 283.2 193 284.5 193 286C193 287.6 194.3 288.8 195.8 288.8C197.3 288.8 198.6 287.5 198.6 286Z" fill="#D5E2F5" stroke="#2F4A7F" stroke-width="0.75" stroke-miterlimit="10" stroke-linecap="round" stroke-linejoin="round"/>
<path d="M169.6 167.3H84V309.3H169.6V167.3Z" fill="#D5E2F5" stroke="#2F4A7F" stroke-width="0.75" stroke-miterlimit="10" stroke-linecap="round" stroke-linejoin="round"/>
<path d="M163.216 303.05L163.216 173.75H90.4162L90.4162 303.05H163.216Z" fill="#D5E2F5" stroke="#2F4A7F" stroke-width="0.75" stroke-miterlimit="10" stroke-linecap="round" stroke-linejoin="round"/>
<path d="M154.1 180.5H98.7V192.5H154.1V180.5Z" fill="#8AACDB" stroke="#2F4A7F" stroke-width="0.75" stroke-miterlimit="10" stroke-linecap="round" stroke-linejoin="round"/>
<path d="M156.9 202.8H97.4V212H156.9V202.8Z" fill="#8AACDB" stroke="#2F4A7F" stroke-width="0.75" stroke-miterlimit="10" stroke-linecap="round" stroke-linejoin="round"/>
<path d="M156.9 218.5H97.4V227.7H156.9V218.5Z" fill="#8AACDB" stroke="#2F4A7F" stroke-width="0.75" stroke-miterlimit="10" stroke-linecap="round" stroke-linejoin="round"/>
<path d="M139.9 257.8H114.5C112 257.8 109.9 255.7 109.9 253.2C109.9 250.7 112 248.6 114.5 248.6H139.9C142.4 248.6 144.5 250.7 144.5 253.2C144.5 255.7 142.4 257.8 139.9 257.8Z" fill="#547FB3" stroke="#2F4A7F" stroke-width="0.75" stroke-miterlimit="10" stroke-linecap="round" stroke-linejoin="round"/>
<path d="M144.5 233.5H110.3V235.6H144.5V233.5Z" fill="#8AACDB" stroke="#2F4A7F" stroke-width="0.75" stroke-miterlimit="10" stroke-linecap="round" stroke-linejoin="round"/>
<path d="M157.3 272.5H97.4V275.3H157.3V272.5Z" fill="#8AACDB" stroke="#2F4A7F" stroke-width="0.75" stroke-miterlimit="10" stroke-linecap="round" stroke-linejoin="round"/>
<path d="M157.3 277.9H97.4V280.7H157.3V277.9Z" fill="#8AACDB" stroke="#2F4A7F" stroke-width="0.75" stroke-miterlimit="10" stroke-linecap="round" stroke-linejoin="round"/>
<path d="M123.4 283.2H97.4V286H123.4V283.2Z" fill="#8AACDB" stroke="#2F4A7F" stroke-width="0.75" stroke-miterlimit="10" stroke-linecap="round" stroke-linejoin="round"/>
<path d="M157.3 291.6H142.1V294.4H157.3V291.6Z" fill="#8AACDB" stroke="#2F4A7F" stroke-width="0.75" stroke-miterlimit="10" stroke-linecap="round" stroke-linejoin="round"/>
<path d="M144.9 317.4H36.3V366.8H144.9V317.4Z" fill="#D5E2F5" stroke="#2F4A7F" stroke-width="0.75" stroke-miterlimit="10" stroke-linecap="round" stroke-linejoin="round"/>
<path d="M36.3 317.4V366.8H36.6L54.6 317.4H36.3Z" fill="#8AACDB" stroke="#2F4A7F" stroke-width="0.75" stroke-miterlimit="10" stroke-linecap="round" stroke-linejoin="round"/>
<path d="M48.5 366.8H66.8L84.7 317.4H66.4L48.5 366.8Z" fill="#8AACDB" stroke="#2F4A7F" stroke-width="0.75" stroke-miterlimit="10" stroke-linecap="round" stroke-linejoin="round"/>
<path d="M78.6001 366.8H96.9001L114.9 317.4H96.6001L78.6001 366.8Z" fill="#8AACDB" stroke="#2F4A7F" stroke-width="0.75" stroke-miterlimit="10" stroke-linecap="round" stroke-linejoin="round"/>
<path d="M108.7 366.8H127L144.9 317.7V317.4H126.7L108.7 366.8Z" fill="#8AACDB" stroke="#2F4A7F" stroke-width="0.75" stroke-miterlimit="10" stroke-linecap="round" stroke-linejoin="round"/>
<path d="M144.9 350.3L138.9 366.8H144.9V350.3Z" fill="#8AACDB" stroke="#2F4A7F" stroke-width="0.75" stroke-miterlimit="10" stroke-linecap="round" stroke-linejoin="round"/>
<path d="M58.5001 366.8V400.5" stroke="#2F4A7F" stroke-width="0.75" stroke-miterlimit="10" stroke-linecap="round" stroke-linejoin="round"/>
<path d="M52.6001 400.5H64.2001C65.3001 400.5 66.2001 401.4 66.2001 402.5C66.2001 403.6 65.3001 404.5 64.2001 404.5H52.6001C51.5001 404.5 50.6001 403.6 50.6001 402.5C50.7001 401.4 51.5001 400.5 52.6001 400.5Z" fill="#8AACDB" stroke="#2F4A7F" stroke-width="0.75" stroke-miterlimit="10" stroke-linecap="round" stroke-linejoin="round"/>
<path d="M122.7 366.8V400.5" stroke="#2F4A7F" stroke-width="0.75" stroke-miterlimit="10" stroke-linecap="round" stroke-linejoin="round"/>
<path d="M128.6 400.5H117C115.9 400.5 115 401.4 115 402.5C115 403.6 115.9 404.5 117 404.5H128.6C129.7 404.5 130.6 403.6 130.6 402.5C130.5 401.4 129.6 400.5 128.6 400.5Z" fill="#8AACDB" stroke="#2F4A7F" stroke-width="0.75" stroke-miterlimit="10" stroke-linecap="round" stroke-linejoin="round"/>
<path d="M366.4 400.6H333.9C332.8 400.6 332 401.5 332 402.5C332 403.6 332.9 404.4 333.9 404.4H366.4C367.5 404.4 368.3 403.5 368.3 402.5C368.3 401.4 367.5 400.6 366.4 400.6Z" fill="#8AACDB" stroke="#2F4A7F" stroke-width="0.75" stroke-miterlimit="10" stroke-linecap="round" stroke-linejoin="round"/>
<path d="M349 362.4L335.9 400.5H350.2H364.5L351.4 362.4C350.9 361.3 349.4 361.3 349 362.4Z" fill="#D5E2F5" stroke="#2F4A7F" stroke-width="0.75" stroke-miterlimit="10" stroke-linecap="round" stroke-linejoin="round"/>
<path d="M335.9 400.6H350.1H364.4L361.5 392.1H338.8L335.9 400.6Z" fill="#8AACDB" stroke="#2F4A7F" stroke-width="0.75" stroke-miterlimit="10" stroke-linecap="round" stroke-linejoin="round"/>
<path d="M341.3 384.7H359L355.8 375.7H344.4L341.3 384.7Z" fill="#8AACDB" stroke="#2F4A7F" stroke-width="0.75" stroke-miterlimit="10" stroke-linecap="round" stroke-linejoin="round"/>
<path d="M349 362.4L347 368.3H353.3L351.3 362.4C350.9 361.3 349.4 361.3 349 362.4Z" fill="#8AACDB" stroke="#2F4A7F" stroke-width="0.75" stroke-miterlimit="10" stroke-linecap="round" stroke-linejoin="round"/>
<path d="M37.6001 400.6H5.10007C4.00007 400.6 3.20007 401.5 3.20007 402.5C3.20007 403.6 4.10007 404.4 5.10007 404.4H37.6001C38.7001 404.4 39.5001 403.5 39.5001 402.5C39.5001 401.4 38.7001 400.6 37.6001 400.6Z" fill="#8AACDB" stroke="#2F4A7F" stroke-width="0.75" stroke-miterlimit="10" stroke-linecap="round" stroke-linejoin="round"/>
<path d="M20.2001 362.4L7.1001 400.5H21.4001H35.7001L22.6001 362.4C22.1001 361.3 20.6001 361.3 20.2001 362.4Z" fill="#D5E2F5" stroke="#2F4A7F" stroke-width="0.75" stroke-miterlimit="10" stroke-linecap="round" stroke-linejoin="round"/>
<path d="M7.1001 400.6H21.4001H35.6001L32.7001 392.1H10.0001L7.1001 400.6Z" fill="#8AACDB" stroke="#2F4A7F" stroke-width="0.75" stroke-miterlimit="10" stroke-linecap="round" stroke-linejoin="round"/>
<path d="M12.5001 384.7H30.2001L27.1001 375.7H15.6001L12.5001 384.7Z" fill="#8AACDB" stroke="#2F4A7F" stroke-width="0.75" stroke-miterlimit="10" stroke-linecap="round" stroke-linejoin="round"/>
<path d="M20.2001 362.4L18.2001 368.3H24.5001L22.5001 362.4C22.1001 361.3 20.6001 361.3 20.2001 362.4Z" fill="#8AACDB" stroke="#2F4A7F" stroke-width="0.75" stroke-miterlimit="10" stroke-linecap="round" stroke-linejoin="round"/>
<path d="M537.1 400.6H504.6C503.5 400.6 502.7 401.5 502.7 402.5C502.7 403.6 503.6 404.4 504.6 404.4H537.1C538.2 404.4 539 403.5 539 402.5C539 401.4 538.1 400.6 537.1 400.6Z" fill="#8AACDB" stroke="#2F4A7F" stroke-width="0.75" stroke-miterlimit="10" stroke-linecap="round" stroke-linejoin="round"/>
<path d="M519.6 362.4L506.5 400.5H520.8H535.1L522 362.4C521.6 361.3 520 361.3 519.6 362.4Z" fill="#D5E2F5" stroke="#2F4A7F" stroke-width="0.75" stroke-miterlimit="10" stroke-linecap="round" stroke-linejoin="round"/>
<path d="M506.5 400.6H520.8H535.1L532.1 392.1H509.4L506.5 400.6Z" fill="#8AACDB" stroke="#2F4A7F" stroke-width="0.75" stroke-miterlimit="10" stroke-linecap="round" stroke-linejoin="round"/>
<path d="M512 384.7H529.6L526.5 375.7H515.1L512 384.7Z" fill="#8AACDB" stroke="#2F4A7F" stroke-width="0.75" stroke-miterlimit="10" stroke-linecap="round" stroke-linejoin="round"/>
<path d="M519.6 362.4L517.6 368.3H523.9L521.9 362.4C521.6 361.3 520 361.3 519.6 362.4Z" fill="#8AACDB" stroke="#2F4A7F" stroke-width="0.75" stroke-miterlimit="10" stroke-linecap="round" stroke-linejoin="round"/>
<path d="M162.4 338.2V404.4" stroke="#2F4A7F" stroke-width="0.75" stroke-miterlimit="10" stroke-linecap="round" stroke-linejoin="round"/>
<path d="M164.9 338.2C164.9 336.8 163.7 335.6 162.3 335.6C160.9 335.6 159.7 336.8 159.7 338.2C159.7 339.6 160.9 340.8 162.3 340.8C163.8 340.8 164.9 339.6 164.9 338.2Z" fill="#8AACDB" stroke="#2F4A7F" stroke-width="0.75" stroke-miterlimit="10" stroke-linecap="round" stroke-linejoin="round"/>
<path d="M482.3 338.2V404.4" stroke="#2F4A7F" stroke-width="0.75" stroke-miterlimit="10" stroke-linecap="round" stroke-linejoin="round"/>
<path d="M484.9 338.2C484.9 336.8 483.7 335.6 482.3 335.6C480.9 335.6 479.7 336.8 479.7 338.2C479.7 339.6 480.9 340.8 482.3 340.8C483.7 340.8 484.9 339.6 484.9 338.2Z" fill="#8AACDB" stroke="#2F4A7F" stroke-width="0.75" stroke-miterlimit="10" stroke-linecap="round" stroke-linejoin="round"/>
<path d="M482.3 345.5H162.4V352.8H482.3V345.5Z" fill="#D5E2F5" stroke="#2F4A7F" stroke-width="0.75" stroke-miterlimit="10" stroke-linecap="round" stroke-linejoin="round"/>
<path d="M166 352.8H169.2L171.8 345.5H168.7L166 352.8Z" fill="#8AACDB" stroke="#2F4A7F" stroke-width="0.75" stroke-miterlimit="10" stroke-linecap="round" stroke-linejoin="round"/>
<path d="M174.5 352.8H177.6L180.3 345.5H177.1L174.5 352.8Z" fill="#8AACDB" stroke="#2F4A7F" stroke-width="0.75" stroke-miterlimit="10" stroke-linecap="round" stroke-linejoin="round"/>
<path d="M182.9 352.8H186L188.7 345.5H185.5L182.9 352.8Z" fill="#8AACDB" stroke="#2F4A7F" stroke-width="0.75" stroke-miterlimit="10" stroke-linecap="round" stroke-linejoin="round"/>
<path d="M191.3 352.8H194.4L197.1 345.5H194L191.3 352.8Z" fill="#8AACDB" stroke="#2F4A7F" stroke-width="0.75" stroke-miterlimit="10" stroke-linecap="round" stroke-linejoin="round"/>
<path d="M199.7 352.8H202.9L205.5 345.5H202.4L199.7 352.8Z" fill="#8AACDB" stroke="#2F4A7F" stroke-width="0.75" stroke-miterlimit="10" stroke-linecap="round" stroke-linejoin="round"/>
<path d="M208.1 352.8H211.3L213.9 345.5H210.8L208.1 352.8Z" fill="#8AACDB" stroke="#2F4A7F" stroke-width="0.75" stroke-miterlimit="10" stroke-linecap="round" stroke-linejoin="round"/>
<path d="M216.6 352.8H219.7L222.3 345.5H219.2L216.6 352.8Z" fill="#8AACDB" stroke="#2F4A7F" stroke-width="0.75" stroke-miterlimit="10" stroke-linecap="round" stroke-linejoin="round"/>
<path d="M225 352.8H228.1L230.8 345.5H227.6L225 352.8Z" fill="#8AACDB" stroke="#2F4A7F" stroke-width="0.75" stroke-miterlimit="10" stroke-linecap="round" stroke-linejoin="round"/>
<path d="M233.4 352.8H236.5L239.2 345.5H236L233.4 352.8Z" fill="#8AACDB" stroke="#2F4A7F" stroke-width="0.75" stroke-miterlimit="10" stroke-linecap="round" stroke-linejoin="round"/>
<path d="M241.8 352.8H244.9L247.6 345.5H244.5L241.8 352.8Z" fill="#8AACDB" stroke="#2F4A7F" stroke-width="0.75" stroke-miterlimit="10" stroke-linecap="round" stroke-linejoin="round"/>
<path d="M250.2 352.8H253.4L256 345.5H252.9L250.2 352.8Z" fill="#8AACDB" stroke="#2F4A7F" stroke-width="0.75" stroke-miterlimit="10" stroke-linecap="round" stroke-linejoin="round"/>
<path d="M258.6 352.8H261.8L264.4 345.5H261.3L258.6 352.8Z" fill="#8AACDB" stroke="#2F4A7F" stroke-width="0.75" stroke-miterlimit="10" stroke-linecap="round" stroke-linejoin="round"/>
<path d="M267.1 352.8H270.2L272.9 345.5H269.7L267.1 352.8Z" fill="#8AACDB" stroke="#2F4A7F" stroke-width="0.75" stroke-miterlimit="10" stroke-linecap="round" stroke-linejoin="round"/>
<path d="M275.5 352.8H278.6L281.3 345.5H278.1L275.5 352.8Z" fill="#8AACDB" stroke="#2F4A7F" stroke-width="0.75" stroke-miterlimit="10" stroke-linecap="round" stroke-linejoin="round"/>
<path d="M283.9 352.8H287L289.7 345.5H286.6L283.9 352.8Z" fill="#8AACDB" stroke="#2F4A7F" stroke-width="0.75" stroke-miterlimit="10" stroke-linecap="round" stroke-linejoin="round"/>
<path d="M292.3 352.8H295.5L298.1 345.5H295L292.3 352.8Z" fill="#8AACDB" stroke="#2F4A7F" stroke-width="0.75" stroke-miterlimit="10" stroke-linecap="round" stroke-linejoin="round"/>
<path d="M300.7 352.8H303.9L306.5 345.5H303.4L300.7 352.8Z" fill="#8AACDB" stroke="#2F4A7F" stroke-width="0.75" stroke-miterlimit="10" stroke-linecap="round" stroke-linejoin="round"/>
<path d="M309.2 352.8H312.3L314.9 345.5H311.8L309.2 352.8Z" fill="#8AACDB" stroke="#2F4A7F" stroke-width="0.75" stroke-miterlimit="10" stroke-linecap="round" stroke-linejoin="round"/>
<path d="M317.6 352.8H320.7L323.4 345.5H320.2L317.6 352.8Z" fill="#8AACDB" stroke="#2F4A7F" stroke-width="0.75" stroke-miterlimit="10" stroke-linecap="round" stroke-linejoin="round"/>
<path d="M326 352.8H329.1L331.8 345.5H328.6L326 352.8Z" fill="#8AACDB" stroke="#2F4A7F" stroke-width="0.75" stroke-miterlimit="10" stroke-linecap="round" stroke-linejoin="round"/>
<path d="M334.4 352.8H337.5L340.2 345.5H337.1L334.4 352.8Z" fill="#8AACDB" stroke="#2F4A7F" stroke-width="0.75" stroke-miterlimit="10" stroke-linecap="round" stroke-linejoin="round"/>
<path d="M342.8 352.8H346L348.6 345.5H345.5L342.8 352.8Z" fill="#8AACDB" stroke="#2F4A7F" stroke-width="0.75" stroke-miterlimit="10" stroke-linecap="round" stroke-linejoin="round"/>
<path d="M351.2 352.8H354.4L357 345.5H353.9L351.2 352.8Z" fill="#8AACDB" stroke="#2F4A7F" stroke-width="0.75" stroke-miterlimit="10" stroke-linecap="round" stroke-linejoin="round"/>
<path d="M359.7 352.8H362.8L365.5 345.5H362.3L359.7 352.8Z" fill="#8AACDB" stroke="#2F4A7F" stroke-width="0.75" stroke-miterlimit="10" stroke-linecap="round" stroke-linejoin="round"/>
<path d="M368.1 352.8H371.2L373.9 345.5H370.7L368.1 352.8Z" fill="#8AACDB" stroke="#2F4A7F" stroke-width="0.75" stroke-miterlimit="10" stroke-linecap="round" stroke-linejoin="round"/>
<path d="M376.5 352.8H379.6L382.3 345.5H379.2L376.5 352.8Z" fill="#8AACDB" stroke="#2F4A7F" stroke-width="0.75" stroke-miterlimit="10" stroke-linecap="round" stroke-linejoin="round"/>
<path d="M384.9 352.8H388.1L390.7 345.5H387.6L384.9 352.8Z" fill="#8AACDB" stroke="#2F4A7F" stroke-width="0.75" stroke-miterlimit="10" stroke-linecap="round" stroke-linejoin="round"/>
<path d="M393.3 352.8H396.5L399.1 345.5H396L393.3 352.8Z" fill="#8AACDB" stroke="#2F4A7F" stroke-width="0.75" stroke-miterlimit="10" stroke-linecap="round" stroke-linejoin="round"/>
<path d="M401.8 352.8H404.9L407.6 345.5H404.4L401.8 352.8Z" fill="#8AACDB" stroke="#2F4A7F" stroke-width="0.75" stroke-miterlimit="10" stroke-linecap="round" stroke-linejoin="round"/>
<path d="M410.2 352.8H413.3L416 345.5H412.8L410.2 352.8Z" fill="#8AACDB" stroke="#2F4A7F" stroke-width="0.75" stroke-miterlimit="10" stroke-linecap="round" stroke-linejoin="round"/>
<path d="M418.6 352.8H421.7L424.4 345.5H421.3L418.6 352.8Z" fill="#8AACDB" stroke="#2F4A7F" stroke-width="0.75" stroke-miterlimit="10" stroke-linecap="round" stroke-linejoin="round"/>
<path d="M427 352.8H430.1L432.8 345.5H429.7L427 352.8Z" fill="#8AACDB" stroke="#2F4A7F" stroke-width="0.75" stroke-miterlimit="10" stroke-linecap="round" stroke-linejoin="round"/>
<path d="M435.4 352.8H438.6L441.2 345.5H438.1L435.4 352.8Z" fill="#8AACDB" stroke="#2F4A7F" stroke-width="0.75" stroke-miterlimit="10" stroke-linecap="round" stroke-linejoin="round"/>
<path d="M443.8 352.8H447L449.6 345.5H446.5L443.8 352.8Z" fill="#8AACDB" stroke="#2F4A7F" stroke-width="0.75" stroke-miterlimit="10" stroke-linecap="round" stroke-linejoin="round"/>
<path d="M452.3 352.8H455.4L458.1 345.5H454.9L452.3 352.8Z" fill="#8AACDB" stroke="#2F4A7F" stroke-width="0.75" stroke-miterlimit="10" stroke-linecap="round" stroke-linejoin="round"/>
<path d="M460.7 352.8H463.8L466.5 345.5H463.3L460.7 352.8Z" fill="#8AACDB" stroke="#2F4A7F" stroke-width="0.75" stroke-miterlimit="10" stroke-linecap="round" stroke-linejoin="round"/>
<path d="M469.1 352.8H472.2L474.9 345.5H471.8L469.1 352.8Z" fill="#8AACDB" stroke="#2F4A7F" stroke-width="0.75" stroke-miterlimit="10" stroke-linecap="round" stroke-linejoin="round"/>
<path d="M477.5 352.8H480.7L482.3 348.3V345.5H480.2L477.5 352.8Z" fill="#8AACDB" stroke="#2F4A7F" stroke-width="0.75" stroke-miterlimit="10" stroke-linecap="round" stroke-linejoin="round"/>
<path d="M44.2 264.9H38.1V272.6H44.2V264.9Z" fill="#D5E2F5" stroke="#2F4A7F" stroke-width="0.75" stroke-miterlimit="10" stroke-linecap="round" stroke-linejoin="round"/>
<path d="M222.4 130.8H216.3V138.5H222.4V130.8Z" fill="#D5E2F5" stroke="#2F4A7F" stroke-width="0.75" stroke-miterlimit="10" stroke-linecap="round" stroke-linejoin="round"/>
<path d="M396.3 115.8H390.2V123.5H396.3V115.8Z" fill="#D5E2F5" stroke="#2F4A7F" stroke-width="0.75" stroke-miterlimit="10" stroke-linecap="round" stroke-linejoin="round"/>
<path d="M13.2 324.7H7.09998V332.4H13.2V324.7Z" fill="#D5E2F5" stroke="#2F4A7F" stroke-width="0.75" stroke-miterlimit="10" stroke-linecap="round" stroke-linejoin="round"/>
<path d="M531.5 245.9H525.4V253.6H531.5V245.9Z" fill="#D5E2F5" stroke="#2F4A7F" stroke-width="0.75" stroke-miterlimit="10" stroke-linecap="round" stroke-linejoin="round"/>
<path d="M82.4999 109H74.7999V115.1H82.4999V109Z" fill="#D5E2F5" stroke="#2F4A7F" stroke-width="0.75" stroke-miterlimit="10" stroke-linecap="round" stroke-linejoin="round"/>
<path d="M386.3 177.7V185.2" stroke="#2F4A7F" stroke-width="0.75" stroke-miterlimit="10" stroke-linecap="round" stroke-linejoin="round"/>
<path d="M382.5 181.4H390" stroke="#2F4A7F" stroke-width="0.75" stroke-miterlimit="10" stroke-linecap="round" stroke-linejoin="round"/>
<path d="M506.5 181.4V189" stroke="#2F4A7F" stroke-width="0.75" stroke-miterlimit="10" stroke-linecap="round" stroke-linejoin="round"/>
<path d="M502.7 185.2H510.3" stroke="#2F4A7F" stroke-width="0.75" stroke-miterlimit="10" stroke-linecap="round" stroke-linejoin="round"/>
<path d="M153.8 117.2V124.7" stroke="#2F4A7F" stroke-width="0.75" stroke-miterlimit="10" stroke-linecap="round" stroke-linejoin="round"/>
<path d="M150.1 121H157.6" stroke="#2F4A7F" stroke-width="0.75" stroke-miterlimit="10" stroke-linecap="round" stroke-linejoin="round"/>
<path d="M33.8999 211.9V219.4" stroke="#2F4A7F" stroke-width="0.75" stroke-miterlimit="10" stroke-linecap="round" stroke-linejoin="round"/>
<path d="M30.2 215.6H37.7" stroke="#2F4A7F" stroke-width="0.75" stroke-miterlimit="10" stroke-linecap="round" stroke-linejoin="round"/>
<path d="M473.3 278.1V285.6" stroke="#2F4A7F" stroke-width="0.75" stroke-miterlimit="10" stroke-linecap="round" stroke-linejoin="round"/>
<path d="M469.5 281.8H477" stroke="#2F4A7F" stroke-width="0.75" stroke-miterlimit="10" stroke-linecap="round" stroke-linejoin="round"/>
<path d="M87.1 377.3V384.9" stroke="#2F4A7F" stroke-width="0.75" stroke-miterlimit="10" stroke-linecap="round" stroke-linejoin="round"/>
<path d="M83.2999 381.1H90.7999" stroke="#2F4A7F" stroke-width="0.75" stroke-miterlimit="10" stroke-linecap="round" stroke-linejoin="round"/>
<path d="M452.6 292.7H418.9V326.4H452.6V292.7Z" stroke="#2F4A7F" stroke-width="0.75" stroke-miterlimit="10" stroke-linecap="round" stroke-linejoin="round"/>
<path d="M418.9 326.4L452.6 292.7" stroke="#2F4A7F" stroke-width="0.75" stroke-miterlimit="10" stroke-linecap="round" stroke-linejoin="round"/>
<path d="M452.6 259H418.9V292.7H452.6V259Z" stroke="#2F4A7F" stroke-width="0.75" stroke-miterlimit="10" stroke-linecap="round" stroke-linejoin="round"/>
<path d="M418.9 292.7L452.6 259" stroke="#2F4A7F" stroke-width="0.75" stroke-miterlimit="10" stroke-linecap="round" stroke-linejoin="round"/>
<path d="M452.6 225.3H418.9V259H452.6V225.3Z" stroke="#2F4A7F" stroke-width="0.75" stroke-miterlimit="10" stroke-linecap="round" stroke-linejoin="round"/>
<path d="M418.9 259L452.6 225.3" stroke="#2F4A7F" stroke-width="0.75" stroke-miterlimit="10" stroke-linecap="round" stroke-linejoin="round"/>
<path d="M452.6 191.6H418.9V225.3H452.6V191.6Z" stroke="#2F4A7F" stroke-width="0.75" stroke-miterlimit="10" stroke-linecap="round" stroke-linejoin="round"/>
<path d="M418.9 225.3L452.6 191.6" stroke="#2F4A7F" stroke-width="0.75" stroke-miterlimit="10" stroke-linecap="round" stroke-linejoin="round"/>
<path d="M452.6 157.9H418.9V191.6H452.6V157.9Z" stroke="#2F4A7F" stroke-width="0.75" stroke-miterlimit="10" stroke-linecap="round" stroke-linejoin="round"/>
<path d="M418.9 191.6L452.6 157.9" stroke="#2F4A7F" stroke-width="0.75" stroke-miterlimit="10" stroke-linecap="round" stroke-linejoin="round"/>
<path d="M452.6 124.2H418.9V157.9H452.6V124.2Z" stroke="#2F4A7F" stroke-width="0.75" stroke-miterlimit="10" stroke-linecap="round" stroke-linejoin="round"/>
<path d="M418.9 157.9L452.6 124.2" stroke="#2F4A7F" stroke-width="0.75" stroke-miterlimit="10" stroke-linecap="round" stroke-linejoin="round"/>
<path d="M452.6 90.3999H418.9V124.1H452.6V90.3999Z" stroke="#2F4A7F" stroke-width="0.75" stroke-miterlimit="10" stroke-linecap="round" stroke-linejoin="round"/>
<path d="M418.9 124.2L452.6 90.3999" stroke="#2F4A7F" stroke-width="0.75" stroke-miterlimit="10" stroke-linecap="round" stroke-linejoin="round"/>
<path d="M317.2 101.4H254.3C253.1 101.4 252 100.4 252 99.1C252 97.9 253 96.8 254.3 96.8H317.2C318.4 96.8 319.5 97.8 319.5 99.1C319.5 100.3 318.5 101.4 317.2 101.4Z" fill="#B9CDEC" stroke="#2F4A7F" stroke-width="0.75" stroke-miterlimit="10" stroke-linecap="round" stroke-linejoin="round"/>
<path d="M264.1 181.5H284.7" stroke="#2F4A7F" stroke-width="0.75" stroke-miterlimit="10" stroke-linecap="round" stroke-linejoin="round"/>
<path d="M274.4 192.2C274 192.2 273.6 192 273.3 191.6L264.8 176.9C264.7 176.7 264.8 176.5 264.8 176.5C264.8 176.5 264.9 176.3 265.2 176.3H283.6C283.8 176.3 283.9 176.4 284 176.5C284 176.6 284.1 176.7 284 176.9L275.5 191.6C275.2 192 274.8 192.2 274.4 192.2Z" fill="#8AACDB"/>
<path d="M283.6 176.6L275.1 191.4C274.9 191.8 274.5 191.8 274.4 191.8C274.3 191.8 273.9 191.8 273.7 191.4L265.2 176.7V176.6H283.6M283.6 175.8H265.2C264.6 175.8 264.2 176.5 264.5 177L273 191.7C273.3 192.2 273.8 192.5 274.4 192.5C274.9 192.5 275.5 192.2 275.8 191.7L284.3 177C284.6 176.5 284.2 175.8 283.6 175.8Z" fill="#2F4A7F"/>
<path d="M279.5 199.4C279.5 202.2 277.2 204.5 274.4 204.5C271.6 204.5 269.3 202.2 269.3 199.4C269.3 196.6 271.6 194.3 274.4 194.3V190.8" stroke="#2F4A7F" stroke-width="0.75" stroke-miterlimit="10" stroke-linecap="round" stroke-linejoin="round"/>
<path d="M259.5 176.8V101.4" stroke="#2F4A7F" stroke-width="0.75" stroke-miterlimit="10" stroke-linecap="round" stroke-linejoin="round"/>
<path d="M264.1 181.4C266.641 181.4 268.7 179.34 268.7 176.8C268.7 174.259 266.641 172.2 264.1 172.2C261.559 172.2 259.5 174.259 259.5 176.8C259.5 179.34 261.559 181.4 264.1 181.4Z" fill="#B9CDEC" stroke="#2F4A7F" stroke-width="0.75" stroke-miterlimit="10" stroke-linecap="round" stroke-linejoin="round"/>
<path d="M264.1 179.5C262.6 179.5 261.5 178.3 261.5 176.9C261.5 175.4 262.7 174.3 264.1 174.3C265.6 174.3 266.7 175.5 266.7 176.9C266.8 178.3 265.6 179.5 264.1 179.5Z" fill="#8AACDB"/>
<path d="M264.1 174.6C265.4 174.6 266.4 175.6 266.4 176.9C266.4 178.2 265.4 179.2 264.1 179.2C262.8 179.2 261.8 178.2 261.8 176.9C261.8 175.6 262.9 174.6 264.1 174.6ZM264.1 173.8C262.4 173.8 261.1 175.2 261.1 176.8C261.1 178.5 262.5 179.8 264.1 179.8C265.8 179.8 267.1 178.4 267.1 176.8C267.1 175.2 265.8 173.8 264.1 173.8Z" fill="#2F4A7F"/>
<path d="M289.3 176.8V101.4" stroke="#2F4A7F" stroke-width="0.75" stroke-miterlimit="10" stroke-linecap="round" stroke-linejoin="round"/>
<path d="M284.7 181.4C287.24 181.4 289.3 179.34 289.3 176.8C289.3 174.259 287.24 172.2 284.7 172.2C282.159 172.2 280.1 174.259 280.1 176.8C280.1 179.34 282.159 181.4 284.7 181.4Z" fill="#B9CDEC" stroke="#2F4A7F" stroke-width="0.75" stroke-miterlimit="10" stroke-linecap="round" stroke-linejoin="round"/>
<path d="M284.7 179.5C283.2 179.5 282.1 178.3 282.1 176.9C282.1 175.4 283.3 174.3 284.7 174.3C286.1 174.3 287.3 175.5 287.3 176.9C287.3 178.3 286.2 179.5 284.7 179.5Z" fill="#8AACDB"/>
<path d="M284.7 174.6C286 174.6 287 175.6 287 176.9C287 178.2 286 179.2 284.7 179.2C283.4 179.2 282.4 178.2 282.4 176.9C282.4 175.6 283.4 174.6 284.7 174.6ZM284.7 173.8C283 173.8 281.7 175.2 281.7 176.8C281.7 178.5 283.1 179.8 284.7 179.8C286.4 179.8 287.7 178.4 287.7 176.8C287.7 175.2 286.4 173.8 284.7 173.8Z" fill="#2F4A7F"/>
<path d="M264.1 173.8H284.7" stroke="#2F4A7F" stroke-width="0.75" stroke-miterlimit="10" stroke-linecap="round" stroke-linejoin="round"/>
<path d="M494.1 128.4H535.8C538.2 128.4 540.2 126.4 540.2 124V94.7H489.6V124C489.7 126.4 491.7 128.4 494.1 128.4Z" fill="#B9CDEC"/>
<path d="M540.3 94.7H489.7V100H540.3V94.7Z" fill="#8AACDB"/>
<path d="M494.1 128.4H535.8C538.2 128.4 540.2 126.4 540.2 124V94.7H489.6V124C489.7 126.4 491.7 128.4 494.1 128.4Z" stroke="#2F4A7F" stroke-width="0.75" stroke-miterlimit="10" stroke-linecap="round" stroke-linejoin="round"/>
<path d="M496.5 103.7L499 101.1" stroke="#2F4A7F" stroke-width="0.75" stroke-miterlimit="10" stroke-linecap="round" stroke-linejoin="round"/>
<path d="M525.5 119.1L528 116.5" stroke="#2F4A7F" stroke-width="0.75" stroke-miterlimit="10" stroke-linecap="round" stroke-linejoin="round"/>
<path d="M516.7 125.2L519.2 122.6" stroke="#2F4A7F" stroke-width="0.75" stroke-miterlimit="10" stroke-linecap="round" stroke-linejoin="round"/>
<path d="M513.4 104.1L510.9 101.7" stroke="#2F4A7F" stroke-width="0.75" stroke-miterlimit="10" stroke-linecap="round" stroke-linejoin="round"/>
<path d="M501 121.8L498.4 119.3" stroke="#2F4A7F" stroke-width="0.75" stroke-miterlimit="10" stroke-linecap="round" stroke-linejoin="round"/>
<path d="M529.7 100.8L527.1 98.3" stroke="#2F4A7F" stroke-width="0.75" stroke-miterlimit="10" stroke-linecap="round" stroke-linejoin="round"/>
<path d="M502.5 112.1L502.4 108.5" stroke="#2F4A7F" stroke-width="0.75" stroke-miterlimit="10" stroke-linecap="round" stroke-linejoin="round"/>
<path d="M522.7 108.8V105.3" stroke="#2F4A7F" stroke-width="0.75" stroke-miterlimit="10" stroke-linecap="round" stroke-linejoin="round"/>
<path d="M513.9 116.4L510.4 116.5" stroke="#2F4A7F" stroke-width="0.75" stroke-miterlimit="10" stroke-linecap="round" stroke-linejoin="round"/>
<path d="M535.9 109.6L532.4 109.7" stroke="#2F4A7F" stroke-width="0.75" stroke-miterlimit="10" stroke-linecap="round" stroke-linejoin="round"/>
<path d="M452.6 90.4L418.9 56.7V90.4H452.6Z" stroke="#2F4A7F" stroke-width="0.75" stroke-miterlimit="10" stroke-linecap="round" stroke-linejoin="round"/>
<path d="M439.2 90.4L472.9 56.7V90.4H439.2Z" stroke="#2F4A7F" stroke-width="0.75" stroke-miterlimit="10" stroke-linecap="round" stroke-linejoin="round"/>
<path d="M418.9 56.7H385.2V90.4H418.9V56.7Z" stroke="#2F4A7F" stroke-width="0.75" stroke-miterlimit="10" stroke-linecap="round" stroke-linejoin="round"/>
<path d="M385.2 90.4L418.9 56.7" stroke="#2F4A7F" stroke-width="0.75" stroke-miterlimit="10" stroke-linecap="round" stroke-linejoin="round"/>
<path d="M506.6 56.7H472.9V90.4H506.6V56.7Z" stroke="#2F4A7F" stroke-width="0.75" stroke-miterlimit="10" stroke-linecap="round" stroke-linejoin="round"/>
<path d="M472.9 90.4L506.6 56.7" stroke="#2F4A7F" stroke-width="0.75" stroke-miterlimit="10" stroke-linecap="round" stroke-linejoin="round"/>
<path d="M506.6 56.7V90.4H540.3L506.6 56.7Z" stroke="#2F4A7F" stroke-width="0.75" stroke-miterlimit="10" stroke-linecap="round" stroke-linejoin="round"/>
<path d="M385.2 56.7H351.5V90.4H385.2V56.7Z" stroke="#2F4A7F" stroke-width="0.75" stroke-miterlimit="10" stroke-linecap="round" stroke-linejoin="round"/>
<path d="M351.5 90.4L385.2 56.7" stroke="#2F4A7F" stroke-width="0.75" stroke-miterlimit="10" stroke-linecap="round" stroke-linejoin="round"/>
<path d="M351.5 56.7H317.8V90.4H351.5V56.7Z" stroke="#2F4A7F" stroke-width="0.75" stroke-miterlimit="10" stroke-linecap="round" stroke-linejoin="round"/>
<path d="M317.8 90.4L351.5 56.7" stroke="#2F4A7F" stroke-width="0.75" stroke-miterlimit="10" stroke-linecap="round" stroke-linejoin="round"/>
<path d="M317.8 56.7H284.1V90.4H317.8V56.7Z" stroke="#2F4A7F" stroke-width="0.75" stroke-miterlimit="10" stroke-linecap="round" stroke-linejoin="round"/>
<path d="M284.1 90.4L317.8 56.7" stroke="#2F4A7F" stroke-width="0.75" stroke-miterlimit="10" stroke-linecap="round" stroke-linejoin="round"/>
<path d="M284.1 56.7L250.4 90.4H284.1V56.7Z" stroke="#2F4A7F" stroke-width="0.75" stroke-miterlimit="10" stroke-linecap="round" stroke-linejoin="round"/>
<path d="M284.1 56.7001L451.6 6.1001" stroke="#2F4A7F" stroke-width="0.75" stroke-miterlimit="10" stroke-linecap="round" stroke-linejoin="round"/>
<path d="M506.6 56.7001L455.7 7.1001" stroke="#2F4A7F" stroke-width="0.75" stroke-miterlimit="10" stroke-linecap="round" stroke-linejoin="round"/>
<path d="M452.6 10.6001L418.9 56.7001V90.4001H452.6V10.6001Z" stroke="#2F4A7F" stroke-width="0.75" stroke-miterlimit="10" stroke-linecap="round" stroke-linejoin="round"/>
<path d="M418.9 90.4001L452.6 10.6001" stroke="#2F4A7F" stroke-width="0.75" stroke-miterlimit="10" stroke-linecap="round" stroke-linejoin="round"/>
<path d="M448 10.6C448 8.1 450.1 6 452.6 6C455.1 6 457.2 8.1 457.2 10.6C457.2 13.1 455.1 15.2 452.6 15.2C450.1 15.2 448 13.2 448 10.6Z" fill="#B9CDEC" stroke="#2F4A7F" stroke-width="0.75" stroke-miterlimit="10" stroke-linecap="round" stroke-linejoin="round"/>
<path d="M452.7 13.3001C451.2 13.3001 450.1 12.1001 450.1 10.7001C450.1 9.2001 451.3 8.1001 452.7 8.1001C454.2 8.1001 455.3 9.3001 455.3 10.7001C455.3 12.1001 454.1 13.3001 452.7 13.3001Z" fill="#8AACDB"/>
<path d="M452.7 8.4001C454 8.4001 455 9.4001 455 10.7001C455 12.0001 454 13.0001 452.7 13.0001C451.4 13.0001 450.4 12.0001 450.4 10.7001C450.4 9.4001 451.4 8.4001 452.7 8.4001ZM452.7 7.6001C451 7.6001 449.7 9.0001 449.7 10.6001C449.7 12.3001 451.1 13.6001 452.7 13.6001C454.4 13.6001 455.7 12.2001 455.7 10.6001C455.7 9.0001 454.3 7.6001 452.7 7.6001Z" fill="#2F4A7F"/>
<path d="M540.3 90.3999H250.4V94.6999H540.3V90.3999Z" fill="#8AACDB" stroke="#2F4A7F" stroke-width="0.75" stroke-miterlimit="10" stroke-linecap="round" stroke-linejoin="round"/>
<path d="M484 404.4H387.7C385.4 404.4 383.5 402.5 383.5 400.2V330.5C383.5 328.2 385.4 326.3 387.7 326.3H484C486.3 326.3 488.2 328.2 488.2 330.5V400.2C488.1 402.6 486.3 404.4 484 404.4Z" fill="#B9CDEC"/>
<path d="M480.5 326.5V396.1C480.5 397.7 479.2 399 477.6 399H384.1C385.4 402.2 388.5 404.4 392.1 404.4H479.4C484.2 404.4 488.1 400.5 488.1 395.7V335.1C488.1 330.7 484.8 327 480.5 326.5Z" fill="#8AACDB"/>
<path d="M484 404.4H387.7C385.4 404.4 383.5 402.5 383.5 400.2V330.5C383.5 328.2 385.4 326.3 387.7 326.3H484C486.3 326.3 488.2 328.2 488.2 330.5V400.2C488.1 402.6 486.3 404.4 484 404.4Z" stroke="#2F4A7F" stroke-width="0.75" stroke-miterlimit="10" stroke-linecap="round" stroke-linejoin="round"/>
<path d="M383.4 376.6H488.1" stroke="#2F4A7F" stroke-width="0.75" stroke-miterlimit="10" stroke-linecap="round" stroke-linejoin="round"/>
<path d="M444.2 338.2H427.4L418.9 352.8L427.4 367.4H444.2L452.6 352.8L444.2 338.2Z" fill="#D5E2F5" stroke="#2F4A7F" stroke-width="0.75" stroke-miterlimit="10" stroke-linecap="round" stroke-linejoin="round"/>
<path d="M429.8 363.1L423.9 352.8L429.8 342.4H441.8L447.7 352.8L441.8 363.1H429.8Z" fill="#8AACDB" stroke="#2F4A7F" stroke-width="0.75" stroke-miterlimit="10" stroke-linecap="round" stroke-linejoin="round"/>
<path d="M357.8 220.8H190.9V316.7H357.8V220.8Z" fill="#D5E2F5" stroke="#2F4A7F" stroke-width="0.75" stroke-miterlimit="10" stroke-linecap="round" stroke-linejoin="round"/>
<path d="M190.9 220.8L274.4 202.9L357.9 220.8" stroke="#2F4A7F" stroke-width="0.75" stroke-miterlimit="10" stroke-linecap="round" stroke-linejoin="round"/>
<path d="M276.9 227.2H197.3V310.4H276.9V227.2Z" fill="#D5E2F5" stroke="#2F4A7F" stroke-width="0.75" stroke-miterlimit="10" stroke-linecap="round" stroke-linejoin="round"/>
<path d="M270.537 285.828V233.528H203.737V285.828H270.537Z" fill="#8AACDB" stroke="#2F4A7F" stroke-width="0.75" stroke-miterlimit="10" stroke-linecap="round" stroke-linejoin="round"/>
<path d="M251.5 264.4C256.636 264.4 260.8 260.236 260.8 255.1C260.8 249.964 256.636 245.8 251.5 245.8C246.364 245.8 242.2 249.964 242.2 255.1C242.2 260.236 246.364 264.4 251.5 264.4Z" fill="#D5E2F5" stroke="#2F4A7F" stroke-width="0.75" stroke-miterlimit="10" stroke-linecap="round" stroke-linejoin="round"/>
<path d="M203.7 259.9C203.7 259.9 230.3 253.2 250.4 260.8C270.5 268.4 270.5 274.2 270.5 274.2V285.8H203.7V259.9Z" fill="#547FB3" stroke="#2F4A7F" stroke-width="0.75" stroke-miterlimit="10" stroke-linecap="round" stroke-linejoin="round"/>
<path d="M242.5 292.6H203.7V295.4H242.5V292.6Z" fill="#8AACDB" stroke="#2F4A7F" stroke-width="0.75" stroke-miterlimit="10" stroke-linecap="round" stroke-linejoin="round"/>
<path d="M235.9 298H203.7V300.8H235.9V298Z" fill="#8AACDB" stroke="#2F4A7F" stroke-width="0.75" stroke-miterlimit="10" stroke-linecap="round" stroke-linejoin="round"/>
<path d="M351.3 227.2H283.5V310.4H351.3V227.2Z" fill="#D5E2F5" stroke="#2F4A7F" stroke-width="0.75" stroke-miterlimit="10" stroke-linecap="round" stroke-linejoin="round"/>
<path d="M343.8 270H292.3C291.2 270 290.3 269.1 290.3 268V235.5C290.3 234.4 291.2 233.5 292.3 233.5H343.8C344.9 233.5 345.8 234.4 345.8 235.5V268C345.8 269.1 344.9 270 343.8 270Z" fill="#8AACDB" stroke="#2F4A7F" stroke-width="0.75" stroke-miterlimit="10" stroke-linecap="round" stroke-linejoin="round"/>
<path d="M341.6 237.4L318.1 249L294.5 237.4" stroke="#2F4A7F" stroke-width="0.75" stroke-miterlimit="10" stroke-linecap="round" stroke-linejoin="round"/>
<path d="M345.8 279.1H290.4V281.9H345.8V279.1Z" fill="#8AACDB" stroke="#2F4A7F" stroke-width="0.75" stroke-miterlimit="10" stroke-linecap="round" stroke-linejoin="round"/>
<path d="M345.8 284.5H290.4V287.3H345.8V284.5Z" fill="#8AACDB" stroke="#2F4A7F" stroke-width="0.75" stroke-miterlimit="10" stroke-linecap="round" stroke-linejoin="round"/>
<path d="M336.3 289.8H290.4V292.6H336.3V289.8Z" fill="#8AACDB" stroke="#2F4A7F" stroke-width="0.75" stroke-miterlimit="10" stroke-linecap="round" stroke-linejoin="round"/>
<path d="M322.4 299.4H290.4V302.2H322.4V299.4Z" fill="#8AACDB" stroke="#2F4A7F" stroke-width="0.75" stroke-miterlimit="10" stroke-linecap="round" stroke-linejoin="round"/>
</svg>
